G04 EasyPC Gerber Version 21.0.3 Build 4286 *
G04 #@! TF.Part,Single*
G04 #@! TF.FileFunction,Legend,Bot *
G04 #@! TF.FilePolarity,Positive *
%FSLAX45Y45*%
%MOIN*%
%ADD117C,0.00276*%
%ADD20C,0.00394*%
%ADD22C,0.00500*%
%ADD23C,0.00787*%
%ADD25C,0.01000*%
X0Y0D02*
D02*
D20*
X159997Y393940D02*
G75*
G03X159888Y393807I389J-428D01*
G01*
G75*
G03X159826Y393650I468J-278*
G01*
G75*
G03X159795Y393419I1239J-282*
G01*
G75*
G03X159787Y393015I10135J-409*
G01*
G75*
G03X159793Y392634I12080J9*
G01*
G75*
G03X159817Y392428I1221J38*
G01*
G75*
G03X159863Y392320I291J60*
G01*
G75*
G03X160011Y392322I74J50*
G01*
G75*
G03X160057Y392437I-279J177*
G01*
G75*
G03X160081Y392657I-1364J260*
G01*
G75*
G03X160087Y393070I-14487J400*
G01*
G75*
G02X160093Y393479I12678J-3*
G01*
G75*
G02X160119Y393712I1549J-52*
G01*
G75*
G02X160166Y393850I482J-89*
G01*
G75*
G02X160245Y393920I132J-69*
G01*
G75*
G02X160504Y393970I275J-717*
G01*
G75*
G02X161287Y393979I795J-36471*
G01*
G75*
G02X162070Y393970I-12J-36498*
G01*
G75*
G02X162329Y393920I-17J-768*
G01*
G75*
G02X162407Y393850I-53J-139*
G01*
G75*
G02X162455Y393712I-435J-226*
G01*
G75*
G02X162480Y393479I-1523J-285*
G01*
G75*
G02X162487Y393070I-12671J-400*
G01*
G75*
G03X162493Y392657I14492J1*
G01*
G75*
G03X162517Y392437I1388J41*
G01*
G75*
G03X162562Y392322I325J62*
G01*
G75*
G03X162637Y392281I74J47*
G01*
G75*
G03X162711Y392319I0J91*
G01*
G75*
G03X162756Y392423I-228J162*
G01*
G75*
G03X162781Y392621I-1111J237*
G01*
G75*
G03X162787Y392985I-10857J358*
G01*
G75*
G03X162778Y393389I-9272J3*
G01*
G75*
G03X162744Y393613I-1053J-46*
G01*
G75*
G03X162670Y393777I-526J-139*
G01*
G75*
G03X162532Y393944I-926J-622*
G01*
G75*
G03X162350Y394090I-737J-736*
G01*
G75*
G03X162170Y394158I-263J-420*
G01*
G75*
G03X161895Y394180I-255J-1481*
G01*
G75*
G03X161243Y394165I493J-34862*
G01*
G75*
G03X160690Y394139I676J-20562*
G01*
G75*
G03X160367Y394100I163J-2742*
G01*
G75*
G03X160154Y394039I191J-1054*
G01*
G75*
G03X159997Y393940I200J-493*
G01*
X162769Y394149D02*
G75*
G02X162886Y393983I-528J-495D01*
G01*
G75*
G02X162950Y393794I-609J-312*
G01*
G75*
G02X162980Y393506I-1850J-335*
G01*
G75*
G02X162987Y392949I-21918J-542*
G01*
Y391981*
X162287*
Y392777*
G75*
G03X162259Y393379I-6503J4*
G01*
G75*
G03X162140Y393633I-413J-39*
G01*
G75*
G03X161887Y393752I-292J-291*
G01*
G75*
G03X161287Y393781I-603J-6394*
G01*
G75*
G03X160687Y393752I3J-6418*
G01*
G75*
G03X160434Y393633I39J-410*
G01*
G75*
G03X160315Y393379I293J-293*
G01*
G75*
G03X160287Y392777I6476J-602*
G01*
Y391981*
X159580*
X159608Y393053*
G75*
G02X159632Y393729I41816J-1122*
G01*
G75*
G02X159668Y393993I1435J-61*
G01*
G75*
G02X159743Y394141I331J-76*
G01*
G75*
G02X159887Y394251I358J-315*
G01*
G75*
G02X160059Y394306I258J-510*
G01*
G75*
G02X160386Y394345I791J-5300*
G01*
G75*
G02X160814Y394370I669J-7598*
G01*
G75*
G02X161344Y394379I554J-17701*
G01*
G75*
G02X162085Y394374I46J-46911*
G01*
G75*
G02X162406Y394346I-32J-2211*
G01*
G75*
G02X162602Y394279I-97J-604*
G01*
G75*
G02X162769Y394149I-323J-591*
G01*
X164528Y393850D02*
G75*
G03X164420Y393701I826J-710D01*
G01*
G75*
G03X164345Y393543I769J-463*
G01*
G75*
G03X164302Y393371I869J-313*
G01*
G75*
G03X164287Y393181I1230J-193*
G01*
G75*
G03X164302Y392990I1247J2*
G01*
G75*
G03X164345Y392818I913J141*
G01*
G75*
G03X164420Y392660I844J304*
G01*
G75*
G03X164528Y392511I934J561*
G01*
G75*
G03X164699Y392350I831J715*
G01*
G75*
G03X164872Y392267I301J399*
G01*
G75*
G03X165132Y392224I341J1278*
G01*
G75*
G03X165709Y392196I1433J23639*
G01*
G75*
G03X166295Y392182I880J24263*
G01*
G75*
G03X166562Y392206I15J1371*
G01*
G75*
G03X166752Y392277I-106J572*
G01*
G75*
G03X166969Y392430I-822J1389*
G01*
G75*
G03X167141Y392595I-1218J1446*
G01*
G75*
G03X167231Y392735I-359J332*
G01*
G75*
G03X167274Y392907I-526J223*
G01*
G75*
G03X167287Y393181I-3022J272*
G01*
G75*
G03X167274Y393454I-3030J2*
G01*
G75*
G03X167231Y393626I-569J-51*
G01*
G75*
G03X167141Y393766I-450J-192*
G01*
G75*
G03X166969Y393931I-1390J-1281*
G01*
G75*
G03X166752Y394084I-1038J-1236*
G01*
G75*
G03X166562Y394156I-297J-501*
G01*
G75*
G03X166295Y394179I-252J-1348*
G01*
G75*
G03X165709Y394165I295J-24277*
G01*
G75*
G03X165132Y394137I856J-23667*
G01*
G75*
G03X164872Y394094I80J-1320*
G01*
G75*
G03X164699Y394011I128J-483*
G01*
G75*
G03X164528Y393850I660J-876*
G01*
X164882Y409928D02*
G75*
G03X164726Y409831I520J-1008D01*
G01*
G75*
G03X164641Y409733I183J-245*
G01*
G75*
G03X164599Y409602I314J-172*
G01*
G75*
G03X164587Y409392I1793J-213*
G01*
G75*
G03X164914Y408325I1904J0*
G01*
G75*
G03X165963Y407077I6526J4420*
G01*
G75*
G03X167519Y405819I7868J8143*
G01*
G75*
G03X169437Y404706I9485J14127*
G01*
G75*
G03X170250Y404322I9827J19790*
G01*
G75*
G03X170899Y404065I3321J7433*
G01*
G75*
G03X171407Y403919I1615J4645*
G01*
G75*
G03X171759Y403898I234J1011*
G01*
G75*
G03X171911Y403931I-93J796*
G01*
G75*
G03X171995Y403991I-51J159*
G01*
G75*
G03X172041Y404100I-206J152*
G01*
G75*
G03X172069Y404319I-2501J422*
G01*
G75*
G03X172073Y404475I-1443J118*
G01*
G75*
G03X172060Y404624I-1210J-30*
G01*
G75*
G03X172033Y404747I-958J-148*
G01*
G75*
G03X171994Y404814I-148J-42*
G01*
G75*
G02X171952Y404888I111J111*
G01*
G75*
G02X171918Y405058I2062J499*
G01*
G75*
G02X171894Y405267I2392J376*
G01*
G75*
G02X171887Y405494I3308J228*
G01*
G75*
G03X171880Y405719I-3461J3*
G01*
G75*
G03X171857Y405918I-2197J-142*
G01*
G75*
G03X171826Y406076I-1976J-311*
G01*
G75*
G03X171787Y406131I-86J-21*
G01*
G75*
G02X171748Y406176I50J82*
G01*
G75*
G02X171716Y406274I659J269*
G01*
G75*
G02X171694Y406396I894J224*
G01*
G75*
G02X171687Y406531I1221J135*
G01*
G75*
G03X171680Y406665I-1225J2*
G01*
G75*
G03X171657Y406787I-917J-101*
G01*
G75*
G03X171626Y406885I-691J-172*
G01*
G75*
G03X171587Y406931I-90J-37*
G01*
G75*
G02X171548Y406976I50J82*
G01*
G75*
G02X171516Y407074I659J269*
G01*
G75*
G02X171494Y407196I894J224*
G01*
G75*
G02X171487Y407331I1221J135*
G01*
G75*
G03X171480Y407465I-1225J2*
G01*
G75*
G03X171457Y407587I-917J-101*
G01*
G75*
G03X171426Y407685I-691J-172*
G01*
G75*
G03X171387Y407731I-90J-37*
G01*
G75*
G02X171348Y407766I72J117*
G01*
G75*
G02X171316Y407821I244J180*
G01*
G75*
G02X171294Y407886I314J143*
G01*
G75*
G02X171287Y407951I284J66*
G01*
G75*
G03X171267Y408038I-194J0*
G01*
G75*
G03X171184Y408189I-1989J-988*
G01*
G75*
G03X171071Y408361I-2185J-1305*
G01*
G75*
G03X170937Y408536I-2674J-1909*
G01*
G75*
G03X170537Y408909I-1564J-1281*
G01*
G75*
G03X169917Y409292I-3554J-5053*
G01*
G75*
G03X169274Y409593I-2931J-5434*
G01*
G75*
G03X168817Y409681I-458J-1144*
G01*
G75*
G02X168691Y409688I-2J1090*
G01*
G75*
G02X168574Y409710I98J836*
G01*
G75*
G02X168481Y409742I163J624*
G01*
G75*
G02X168437Y409781I40J91*
G01*
G75*
G03X168390Y409820I-82J-52*
G01*
G75*
G03X168285Y409854I-318J-796*
G01*
G75*
G03X168152Y409879I-269J-1057*
G01*
G75*
G03X168006Y409891I-189J-1470*
G01*
G75*
G02X167846Y409900I61J2386*
G01*
G75*
G02X167672Y409921I326J3474*
G01*
G75*
G02X167509Y409949I472J3198*
G01*
G75*
G02X167387Y409981I214J1082*
G01*
G75*
G03X166909Y410065I-547J-1711*
G01*
G75*
G03X166080Y410072I-545J-13724*
G01*
G75*
G03X165254Y410033I330J-15609*
G01*
G75*
G03X164882Y409928I71J-963*
G01*
X165080Y393677D02*
G75*
G03X164991Y393606I153J-285D01*
G01*
G75*
G03X164931Y393508I246J-218*
G01*
G75*
G03X164897Y393371I502J-195*
G01*
G75*
G03X164887Y393181I1739J-193*
G01*
G75*
G03X164933Y392877I1008*
G01*
G75*
G03X165072Y392698I315J100*
G01*
G75*
G03X165341Y392605I330J522*
G01*
G75*
G03X165837Y392581I493J4974*
G01*
G75*
G03X166318Y392605I2J4794*
G01*
G75*
G03X166592Y392693I-69J682*
G01*
G75*
G03X166736Y392860I-167J290*
G01*
G75*
G03X166787Y393128I-681J268*
G01*
G75*
G03X166726Y393423I-744J0*
G01*
G75*
G03X166556Y393627I-429J-185*
G01*
G75*
G03X166257Y393744I-420J-631*
G01*
G75*
G03X165808Y393781I-451J-2759*
G01*
G75*
G03X165589Y393773I4J-3144*
G01*
G75*
G03X165374Y393750I210J-3018*
G01*
G75*
G03X165189Y393717I368J-2585*
G01*
G75*
G03X165080Y393677I88J-408*
G01*
X166812Y393872D02*
G75*
G02X166897Y393791I-126J-217D01*
G01*
G75*
G02X166950Y393668I-353J-225*
G01*
G75*
G02X166979Y393479I-957J-243*
G01*
G75*
G02X166987Y393179I-5577J-296*
G01*
G75*
G02X166946Y392722I-2587J0*
G01*
G75*
G02X166804Y392504I-329J59*
G01*
G75*
G02X166506Y392403I-335J498*
G01*
G75*
G02X165802Y392381I-703J11195*
G01*
G75*
G02X165067Y392395I-5J18315*
G01*
G75*
G02X164824Y392479I18J447*
G01*
G75*
G02X164712Y392671I157J220*
G01*
G75*
G02X164687Y393181I5064J510*
G01*
G75*
G02X164694Y393524I8400J-1*
G01*
G75*
G02X164720Y393730I1220J-50*
G01*
G75*
G02X164768Y393854I414J-90*
G01*
G75*
G02X164845Y393920I131J-76*
G01*
G75*
G02X165147Y393978I315J-821*
G01*
G75*
G02X165855Y393975I273J-18252*
G01*
G75*
G02X166569Y393946I-518J-21459*
G01*
G75*
G02X166812Y393872I-31J-544*
G01*
X167223Y394173D02*
G75*
G02X167371Y394028I-576J-731D01*
G01*
G75*
G02X167447Y393879I-311J-253*
G01*
G75*
G02X167480Y393657I-945J-252*
G01*
G75*
G02X167487Y393189I-14850J-459*
G01*
G75*
G02X167439Y392498I-5041J-2*
G01*
G75*
G02X167257Y392195I-444J62*
G01*
G75*
G02X166865Y392052I-452J628*
G01*
G75*
G02X165830Y391997I-1578J20174*
G01*
G75*
G02X165035Y391981I-1543J57844*
G01*
G75*
G02X164724Y392002I-25J1946*
G01*
G75*
G02X164530Y392071I79J533*
G01*
G75*
G02X164340Y392218I482J819*
G01*
G75*
G02X164204Y392384I779J778*
G01*
G75*
G02X164130Y392548I453J303*
G01*
G75*
G02X164096Y392774I1031J270*
G01*
G75*
G02X164087Y393181I9447J414*
G01*
G75*
G02X164096Y393583I9331J-8*
G01*
G75*
G02X164129Y393810I1099J-47*
G01*
G75*
G02X164201Y393973I533J-138*
G01*
G75*
G02X164332Y394135I840J-547*
G01*
G75*
G02X164515Y394274I606J-606*
G01*
G75*
G02X164714Y394345I301J-531*
G01*
G75*
G02X165029Y394374I348J-2042*
G01*
G75*
G02X165769Y394381I759J-45769*
G01*
G75*
G02X166454Y394374I0J-35161*
G01*
G75*
G02X166804Y394346I-57J-2873*
G01*
G75*
G02X167031Y394285I-138J-967*
G01*
G75*
G02X167223Y394173I-294J-730*
G01*
X168887Y393241D02*
G75*
G03X168893Y392815I13927J5D01*
G01*
G75*
G03X168918Y392565I1861J58*
G01*
G75*
G03X168963Y392415I617J102*
G01*
G75*
G03X169037Y392344I122J54*
G01*
G75*
G03X169112Y392363I24J63*
G01*
G75*
G03X169159Y392462I-157J135*
G01*
G75*
G03X169182Y392691I-1446J260*
G01*
G75*
G03X169187Y393183I-24408J480*
G01*
G75*
G03X169181Y393659I-19906J7*
G01*
G75*
G03X169157Y393906I-1750J-43*
G01*
G75*
G03X169113Y394036I-403J-67*
G01*
G75*
G03X168962Y394038I-76J-42*
G01*
G75*
G03X168916Y393916I314J-187*
G01*
G75*
G03X168893Y393683I1530J-273*
G01*
G75*
G03X168887Y393241I16880J-446*
G01*
X169411Y394911D02*
G75*
G02X169427Y394846I-124J-65D01*
G01*
G75*
G02X169428Y394434I-63719J-328*
G01*
G75*
G02X169422Y393954I-26621J44*
G01*
G75*
G02X169408Y393400I-47236J931*
G01*
X169364Y391970*
X169050Y392000*
X168737Y392031*
Y394931*
X169052Y394961*
G75*
G02X169176Y394967I121J-1244*
G01*
G75*
G02X169288Y394959I-2J-821*
G01*
G75*
G02X169374Y394941I-84J-607*
G01*
G75*
G02X169411Y394911I-17J-57*
G01*
X169837Y413531D02*
G75*
G02X170931Y413358I-5028J-35301D01*
G01*
G75*
G02X171836Y413175I-2979J-17104*
G01*
G75*
G02X172828Y412924I-5090J-22146*
G01*
G75*
G02X174237Y412520I-24648J-88698*
G01*
G75*
G02X175901Y411935I-4884J-16563*
G01*
G75*
G02X177393Y411214I-5106J-12457*
G01*
G75*
G02X178558Y410452I-5127J-9120*
G01*
G75*
G02X179145Y409761I-1243J-1650*
G01*
G75*
G02X179265Y409418I-1093J-572*
G01*
G75*
G02X179286Y409039I-1440J-272*
G01*
G75*
G02X179212Y408690I-1302J93*
G01*
G75*
G02X179050Y408434I-655J237*
G01*
G75*
G02X178842Y408278I-648J648*
G01*
G75*
G02X178525Y408129I-1405J2573*
G01*
G75*
G02X178189Y408017I-1099J2738*
G01*
G75*
G02X177919Y407981I-276J1030*
G01*
G75*
G03X177860Y407964I1J-111*
G01*
G75*
G03X177773Y407901I471J-742*
G01*
G75*
G03X177678Y407813I693J-848*
G01*
G75*
G03X177587Y407709I1016J-973*
G01*
G75*
G02X177352Y407480I-979J770*
G01*
G75*
G02X177060Y407314I-813J1092*
G01*
G75*
G02X176712Y407214I-614J1481*
G01*
G75*
G02X176311Y407181I-399J2387*
G01*
X175859*
X175919Y406556*
G75*
G02X176059Y404817I-53637J-5186*
G01*
G75*
G02X176140Y403097I-50942J-3265*
G01*
G75*
G02X176159Y401551I-43218J-1302*
G01*
G75*
G02X176106Y400365I-15324J87*
G01*
G75*
G02X176053Y399781I-34266J2848*
G01*
G75*
G02X175991Y399213I-30891J3098*
G01*
G75*
G02X175928Y398727I-27972J3331*
G01*
G75*
G02X175880Y398458I-3076J420*
G01*
G75*
G02X175727Y398027I-1924J439*
G01*
G75*
G02X175488Y397681I-1267J622*
G01*
G75*
G02X175190Y397458I-790J744*
G01*
G75*
G02X174865Y397381I-324J637*
G01*
G75*
G03X174690Y397363I1J-905*
G01*
G75*
G03X174537Y397313I125J-635*
G01*
G75*
G03X174390Y397221I325J-681*
G01*
G75*
G03X174237Y397081I982J-1230*
G01*
G75*
G02X173956Y396871I-761J728*
G01*
G75*
G02X173638Y396782I-379J743*
G01*
G75*
G02X173304Y396823I-64J868*
G01*
G75*
G02X172977Y396987I374J1149*
G01*
X172687Y397194*
Y398781*
G75*
G03X172680Y399432I-31907J16*
G01*
G75*
G03X172659Y399948I-12865J-261*
G01*
G75*
G03X172630Y400360I-19658J-1204*
G01*
G75*
G03X172587Y400431I-92J-7*
G01*
G75*
G02X172547Y400489I45J73*
G01*
G75*
G02X172516Y400706I4204J714*
G01*
G75*
G02X172494Y400974I3837J450*
G01*
G75*
G02X172487Y401281I6472J311*
G01*
G75*
G03X172480Y401587I-6471J4*
G01*
G75*
G03X172457Y401856I-3859J-182*
G01*
G75*
G03X172426Y402072I-4235J-498*
G01*
G75*
G03X172387Y402131I-85J-15*
G01*
G75*
G02X172348Y402178I49J80*
G01*
G75*
G02X172316Y402285I810J299*
G01*
G75*
G02X172294Y402422I1080J244*
G01*
G75*
G02X172287Y402572I1525J151*
G01*
Y402951*
X171362Y403011*
G75*
G02X170574Y403108I461J7037*
G01*
G75*
G02X169548Y403319I3699J20576*
G01*
G75*
G02X168496Y403591I4908J21140*
G01*
G75*
G02X167612Y403882I3230J11311*
G01*
G75*
G03X167410Y403952I-1533J-4117*
G01*
G75*
G03X167238Y403998I-645J-2024*
G01*
G75*
G03X167104Y404024I-450J-1967*
G01*
G75*
G03X167077Y404004I-4J-24*
G01*
G75*
G03X167074Y403959I322J-45*
G01*
G75*
G03X167075Y403857I6242J21*
G01*
G75*
G03X167078Y403735I6205J120*
G01*
G75*
G03X167084Y403606I8165J306*
G01*
G75*
G02X167085Y403405I-1942J-108*
G01*
G75*
G02X167045Y403325I-112J6*
G01*
G75*
G02X166953Y403288I-102J119*
G01*
G75*
G02X166700Y403281I-249J4357*
G01*
G75*
G02X166542Y403288I-2J1715*
G01*
G75*
G02X166398Y403310I111J1207*
G01*
G75*
G02X166285Y403342I203J939*
G01*
G75*
G02X166237Y403381I31J88*
G01*
G75*
G03X166194Y403419I-86J-54*
G01*
G75*
G03X166109Y403451I-239J-502*
G01*
G75*
G03X166002Y403473I-200J-700*
G01*
G75*
G03X165887Y403481I-116J-893*
G01*
G75*
G02X165772Y403488I-2J897*
G01*
G75*
G02X165665Y403510I93J722*
G01*
G75*
G02X165580Y403542I154J535*
G01*
G75*
G02X165537Y403581I44J93*
G01*
G75*
G03X165500Y403619I-108J-67*
G01*
G75*
G03X165440Y403651I-187J-274*
G01*
G75*
G03X165368Y403673I-151J-365*
G01*
G75*
G03X165295Y403681I-74J-359*
G01*
G75*
G02X165040Y403738I0J598*
G01*
G75*
G02X164372Y404065I10451J22149*
G01*
G75*
G02X163681Y404438I7519J14751*
G01*
G75*
G02X163125Y404786I4033J7065*
G01*
G75*
G02X162634Y405159I3489J5108*
G01*
G75*
G02X162076Y405656I8508J10107*
G01*
G75*
G02X161558Y406159I17103J18157*
G01*
G75*
G02X161487Y406330I171J172*
G01*
G75*
G03X161474Y406388I-136J0*
G01*
G75*
G03X161431Y406465I-567J-263*
G01*
G75*
G03X161370Y406546I-641J-419*
G01*
G75*
G03X161299Y406620I-620J-529*
G01*
G75*
G02X161215Y406725I280J309*
G01*
G75*
G02X161115Y406922I2383J1334*
G01*
G75*
G02X161017Y407159I2898J1331*
G01*
G75*
G02X160937Y407408I3232J1181*
G01*
G75*
G02X160833Y407981I3015J844*
G01*
G75*
G02X160824Y408615I4340J379*
G01*
G75*
G02X160901Y409193I3896J-229*
G01*
G75*
G02X161065Y409581I1085J-229*
G01*
G75*
G03X161266Y409894I-8477J5674*
G01*
G75*
G03X161457Y410217I-8876J5485*
G01*
G75*
G03X161650Y410569I-10535J5990*
G01*
G75*
G03X161857Y410974I-17486J9211*
G01*
G75*
G02X162393Y411768I3254J-1617*
G01*
G75*
G02X163149Y412450I3446J-3059*
G01*
G75*
G02X164105Y413001I3196J-4439*
G01*
G75*
G02X165237Y413405I3133J-6990*
G01*
G75*
G02X166113Y413562I1335J-4925*
G01*
G75*
G02X167383Y413637I1827J-20305*
G01*
G75*
G02X168717Y413631I574J-21038*
G01*
G75*
G02X169837Y413531I-384J-10651*
G01*
X171687Y394431D02*
G75*
G02X171622Y394305I-584J221D01*
G01*
G75*
G02X171541Y394230I-196J131*
G01*
G75*
G02X171424Y394192I-156J279*
G01*
G75*
G02X171239Y394181I-183J1506*
G01*
G75*
G03X170956Y394162I2J-2196*
G01*
G75*
G03X170896Y394086I9J-69*
G01*
G75*
G03X170970Y394003I94J9*
G01*
G75*
G03X171262Y393961I495J2419*
G01*
X171637Y393931*
X171687Y393131*
G75*
G03X171719Y392726I12832J806*
G01*
G75*
G03X171757Y392497I1530J144*
G01*
G75*
G03X171811Y392372I418J106*
G01*
G75*
G03X171962Y392372I76J47*
G01*
G75*
G03X172012Y392493I-328J206*
G01*
G75*
G03X172045Y392719I-1441J324*
G01*
G75*
G03X172067Y393128I-13489J919*
G01*
G75*
G02X172085Y393437I7005J-255*
G01*
G75*
G02X172116Y393708I4174J-342*
G01*
G75*
G02X172153Y393927I4761J-699*
G01*
G75*
G02X172193Y393984I85J-17*
G01*
G75*
G03X172233Y394089I-49J78*
G01*
G75*
G03X172132Y394359I-2042J-611*
G01*
G75*
G03X171993Y394616I-1964J-891*
G01*
G75*
G03X171877Y394681I-117J-73*
G01*
G75*
G03X171834Y394664I0J-65*
G01*
G75*
G03X171782Y394607I282J-311*
G01*
G75*
G03X171730Y394526I469J-357*
G01*
G75*
G03X171687Y394431I747J-399*
G01*
X172215Y394919D02*
G75*
G02X172243Y394878I-92J-93D01*
G01*
G75*
G02X172266Y394813I-451J-195*
G01*
G75*
G02X172281Y394737I-563J-156*
G01*
G75*
G02X172287Y394661I-556J-76*
G01*
G75*
G03X172298Y394585I261J1*
G01*
G75*
G03X172331Y394512I298J90*
G01*
G75*
G03X172380Y394453I246J152*
G01*
G75*
G03X172437Y394417I121J128*
G01*
G75*
G02X172545Y394304I-66J-172*
G01*
G75*
G02X172583Y394081I-662J-228*
G01*
G75*
G02X172548Y393858I-696J-4*
G01*
G75*
G02X172441Y393746I-172J57*
G01*
G75*
G03X172370Y393677I46J-118*
G01*
G75*
G03X172321Y393518I752J-318*
G01*
G75*
G03X172287Y393263I2012J-397*
G01*
G75*
G03X172266Y392860I11637J-816*
G01*
X172237Y392031*
X171537*
X171437Y393731*
X170987Y393781*
G75*
G02X170729Y393817I473J4296*
G01*
G75*
G02X170612Y393864I52J300*
G01*
G75*
G02X170555Y393943I77J115*
G01*
G75*
G02X170537Y394081I509J139*
G01*
G75*
G02X170555Y394219I529J-1*
G01*
G75*
G02X170611Y394297I133J-36*
G01*
G75*
G02X170728Y394344I169J-252*
G01*
G75*
G02X170983Y394381I724J-4131*
G01*
G75*
G03X171224Y394417I-347J3136*
G01*
G75*
G03X171357Y394468I-78J404*
G01*
G75*
G03X171436Y394549I-111J187*
G01*
G75*
G03X171487Y394681I-441J246*
G01*
G75*
G02X171531Y394802I520J-121*
G01*
G75*
G02X171597Y394883I216J-109*
G01*
G75*
G02X171697Y394933I175J-225*
G01*
G75*
G02X171844Y394960I235J-849*
G01*
G75*
G02X171964Y394967I126J-1249*
G01*
G75*
G02X172077Y394960I2J-980*
G01*
G75*
G02X172169Y394944I-87J-786*
G01*
G75*
G02X172215Y394919I-22J-94*
G01*
X174015Y393835D02*
G75*
G03X173829Y393511I754J-648D01*
G01*
G75*
G03X173778Y393144I914J-316*
G01*
G75*
G03X173868Y392780I994J52*
G01*
G75*
G03X174088Y392464I994J459*
G01*
X174389Y392163*
X175478Y392197*
G75*
G03X176260Y392247I-364J11751*
G01*
G75*
G03X176686Y392361I-131J1344*
G01*
G75*
G03X176906Y392564I-196J432*
G01*
G75*
G03X176902Y393202I-574J316*
G01*
G75*
G03X176676Y393405I-410J-230*
G01*
G75*
G03X176228Y393515I-572J-1354*
G01*
G75*
G03X175371Y393564I-1283J-14973*
G01*
G75*
G02X174685Y393588I1335J47959*
G01*
G75*
G02X174385Y393620I99J2360*
G01*
G75*
G02X174245Y393675I63J367*
G01*
G75*
G02X174207Y393764I47J73*
G01*
G75*
G02X174250Y393843I146J-27*
G01*
G75*
G02X174338Y393900I185J-192*
G01*
G75*
G02X174485Y393938I235J-604*
G01*
G75*
G02X174713Y393961I428J-3115*
G01*
G75*
G03X174894Y393980I-136J2147*
G01*
G75*
G03X175048Y394014I-176J1158*
G01*
G75*
G03X175159Y394056I-230J787*
G01*
G75*
G03X175187Y394099I-20J43*
G01*
G75*
G03X175157Y394142I-46*
G01*
G75*
G03X175065Y394165I-136J-348*
G01*
G75*
G03X174918Y394170I-102J-894*
G01*
G75*
G03X174715Y394154I153J-3199*
G01*
G75*
G03X174481Y394114I244J-2148*
G01*
G75*
G03X174298Y394052I207J-917*
G01*
G75*
G03X174149Y393962I311J-682*
G01*
G75*
G03X174015Y393835I569J-733*
G01*
X174438Y393083D02*
G75*
G03X174422Y393031I90J-56D01*
G01*
G75*
G03X174427Y392954I400J-14*
G01*
G75*
G03X174449Y392867I507J81*
G01*
G75*
G03X174486Y392783I547J189*
G01*
G75*
G03X174578Y392676I282J150*
G01*
G75*
G03X174711Y392615I211J289*
G01*
G75*
G03X174935Y392587I259J1145*
G01*
G75*
G03X175383Y392581I438J15190*
G01*
G75*
G03X175777Y392589I1J9811*
G01*
G75*
G03X176037Y392616I-79J2016*
G01*
G75*
G03X176215Y392665I-156J906*
G01*
G75*
G03X176336Y392744I-127J327*
G01*
G75*
G03X176402Y392923I-161J161*
G01*
G75*
G03X176300Y393059I-158J-12*
G01*
G75*
G03X175933Y393139I-453J-1191*
G01*
G75*
G03X175218Y393169I-939J-14062*
G01*
G75*
G03X174938Y393166I-86J-5456*
G01*
G75*
G03X174692Y393148I113J-3279*
G01*
G75*
G03X174494Y393120I383J-3420*
G01*
G75*
G03X174438Y393083I14J-81*
G01*
X175505Y394106D02*
G75*
G03X175548Y393945I574J67D01*
G01*
G75*
G03X175630Y393861I151J64*
G01*
G75*
G03X175794Y393815I226J489*
G01*
G75*
G03X176228Y393771I1763J15465*
G01*
G75*
G02X176762Y393685I-316J-3668*
G01*
G75*
G02X177072Y393524I-162J-686*
G01*
G75*
G02X177234Y393252I-361J-400*
G01*
G75*
G02X177287Y392818I-1761J-433*
G01*
G75*
G02X177275Y392566I-2685J-1*
G01*
G75*
G02X177232Y392419I-407J38*
G01*
G75*
G02X177141Y392306I-311J159*
G01*
G75*
G02X176962Y392180I-1039J1285*
G01*
G75*
G02X176732Y392075I-549J901*
G01*
G75*
G02X176463Y392016I-448J1409*
G01*
G75*
G02X176063Y391988I-475J3919*
G01*
G75*
G02X175329Y391981I-759J38465*
G01*
G75*
G02X174519Y391986I-6J58617*
G01*
G75*
G02X174180Y392014I35J2488*
G01*
G75*
G02X173976Y392081I96J637*
G01*
G75*
G02X173804Y392212I306J578*
G01*
G75*
G02X173692Y392365I561J528*
G01*
G75*
G02X173627Y392535I563J313*
G01*
G75*
G02X173595Y392772I1294J295*
G01*
G75*
G02X173587Y393167I9015J395*
G01*
G75*
G02X173595Y393579I9936J-2*
G01*
G75*
G02X173629Y393808I1120J-47*
G01*
G75*
G02X173701Y393972I534J-136*
G01*
G75*
G02X173832Y394135I838J-543*
G01*
G75*
G02X173993Y394266I710J-710*
G01*
G75*
G02X174156Y394338I302J-463*
G01*
G75*
G02X174380Y394372I273J-1046*
G01*
G75*
G02X174776Y394381I401J-8861*
G01*
G75*
G02X175229Y394375I-8J-19263*
G01*
G75*
G02X175386Y394344I-11J-478*
G01*
G75*
G02X175464Y394268I-48J-126*
G01*
G75*
G02X175505Y394106I-592J-235*
G01*
X176462Y393311D02*
G75*
G02X176578Y393270I-80J-407D01*
G01*
G75*
G02X176644Y393202I-77J-143*
G01*
G75*
G02X176678Y393085I-276J-143*
G01*
G75*
G02X176687Y392876I-2482J-207*
G01*
G75*
G02X176631Y392588I-765J0*
G01*
G75*
G02X176473Y392441I-237J96*
G01*
G75*
G02X176131Y392387I-340J1037*
G01*
G75*
G02X175237Y392401I80J33278*
G01*
X174237Y392431*
Y393331*
X175237Y393344*
G75*
G02X175636Y393345I290J-22780*
G01*
G75*
G02X176009Y393339I-88J-17328*
G01*
G75*
G02X176322Y393328I-454J-17348*
G01*
G75*
G02X176462Y393311I-41J-920*
G01*
X178772Y393881D02*
G75*
G03X178646Y393738I1115J-1113D01*
G01*
G75*
G03X178558Y393601I665J-521*
G01*
G75*
G03X178510Y393472I524J-267*
G01*
G75*
G03X178505Y393356I300J-72*
G01*
G75*
G03X178572Y393227I217J31*
G01*
G75*
G03X178711Y393155I198J211*
G01*
G75*
G03X179007Y393117I392J1889*
G01*
G75*
G03X179836Y393081I3693J74994*
G01*
G75*
G02X180610Y393046I-2286J-59069*
G01*
G75*
G02X180935Y393008I-131J-2541*
G01*
G75*
G02X181098Y392945I-83J-459*
G01*
G75*
G02X181172Y392837I-86J-139*
G01*
G75*
G02X181145Y392658I-270J-51*
G01*
G75*
G02X181010Y392510I-350J183*
G01*
G75*
G02X180775Y392413I-379J584*
G01*
G75*
G02X180468Y392381I-306J1456*
G01*
G75*
G03X180319Y392372I3J-1402*
G01*
G75*
G03X180196Y392348I73J-684*
G01*
G75*
G03X180112Y392312I109J-374*
G01*
G75*
G03X180087Y392268I26J-44*
G01*
G75*
G03X180195Y392162I106J0*
G01*
G75*
G03X180611Y392201I-49J2740*
G01*
G75*
G03X181060Y392315I-498J2902*
G01*
G75*
G03X181340Y392483I-248J731*
G01*
G75*
G03X181541Y392787I-545J580*
G01*
G75*
G03X181604Y393169I-942J349*
G01*
G75*
G03X181517Y393559I-1084J-35*
G01*
G75*
G03X181294Y393888I-962J-411*
G01*
G75*
G03X181092Y394059I-1094J-1094*
G01*
G75*
G03X180910Y394141I-301J-426*
G01*
G75*
G03X180646Y394174I-292J-1259*
G01*
G75*
G03X180037Y394181I-618J-26935*
G01*
G75*
G03X179424Y394174I8J-27207*
G01*
G75*
G03X179161Y394140I28J-1261*
G01*
G75*
G03X178979Y394057I119J-503*
G01*
G75*
G03X178772Y393881I973J-1355*
G01*
X179345Y393720D02*
G75*
G03X179227Y393627I89J-234D01*
G01*
G75*
G03X179254Y393546I44J-30*
G01*
G75*
G03X179524Y393494I320J927*
G01*
G75*
G03X180037Y393481I510J9994*
G01*
G75*
G03X180533Y393494I4J9096*
G01*
G75*
G03X180813Y393546I-61J1108*
G01*
G75*
G03X180851Y393625I-18J57*
G01*
G75*
G03X180762Y393714I-149J-59*
G01*
G75*
G03X180551Y393760I-238J-589*
G01*
G75*
G03X180056Y393771I-548J-13046*
G01*
G75*
G03X179561Y393764I-53J-12867*
G01*
G75*
G03X179345Y393720I24J-666*
G01*
X181183Y393835D02*
G75*
G02X181226Y393767I-246J-204D01*
G01*
G75*
G02X181258Y393680I-469J-220*
G01*
G75*
G02X181273Y393590I-494J-131*
G01*
G75*
G02X181269Y393510I-296J-22*
G01*
G75*
G02X181199Y393413I-140J27*
G01*
G75*
G02X181043Y393360I-221J389*
G01*
G75*
G02X180738Y393335I-340J2326*
G01*
G75*
G02X180037Y393331I-678J48517*
G01*
G75*
G02X179313Y393335I-11J53707*
G01*
G75*
G02X179019Y393360I27J2084*
G01*
G75*
G02X178872Y393418I56J356*
G01*
G75*
G02X178802Y393524I93J137*
G01*
G75*
G02X178846Y393737I278J53*
G01*
G75*
G02X179034Y393881I315J-214*
G01*
G75*
G02X179420Y393959I473J-1340*
G01*
G75*
G02X180094Y393981I680J-10870*
G01*
G75*
G02X180570Y393974I-2J-16181*
G01*
G75*
G02X180876Y393949I-87J-2981*
G01*
G75*
G02X181076Y393906I-173J-1283*
G01*
G75*
G02X181183Y393835I-63J-211*
G01*
X181522Y394135D02*
G75*
G02X181665Y393976I-791J-855D01*
G01*
G75*
G02X181742Y393822I-396J-294*
G01*
G75*
G02X181778Y393614I-849J-252*
G01*
G75*
G02X181787Y393243I-7455J-368*
G01*
G75*
G02X181782Y392984I-7397J-6*
G01*
G75*
G02X181769Y392739I-5887J209*
G01*
G75*
G02X181749Y392534I-5517J425*
G01*
G75*
G02X181725Y392435I-402J45*
G01*
G75*
G02X181578Y392246I-385J148*
G01*
G75*
G02X181300Y392102I-659J930*
G01*
G75*
G02X180915Y392011I-620J1750*
G01*
G75*
G02X180442Y391981I-472J3715*
G01*
X179787*
Y392281*
G75*
G02X179798Y392454I1365J-3*
G01*
G75*
G02X179840Y392533I126J-16*
G01*
G75*
G02X179929Y392572I103J-117*
G01*
G75*
G02X180129Y392581I200J-2211*
G01*
G75*
G03X180398Y392594I2J2607*
G01*
G75*
G03X180607Y392638I-107J1030*
G01*
G75*
G03X180742Y392705I-154J481*
G01*
G75*
G03X180787Y392791I-61J86*
G01*
G75*
G03X180754Y392827I-36*
G01*
G75*
G03X180420Y392854I-1557J-17085*
G01*
G75*
G03X180016Y392874I-644J-9052*
G01*
G75*
G03X179537Y392881I-490J-17894*
G01*
X178287*
Y393367*
G75*
G02X178299Y393604I2317J-1*
G01*
G75*
G02X178336Y393801I1195J-122*
G01*
G75*
G02X178400Y393969I906J-253*
G01*
G75*
G02X178494Y394117I766J-380*
G01*
G75*
G02X178657Y394271I594J-467*
G01*
G75*
G02X178841Y394346I264J-381*
G01*
G75*
G02X179148Y394375I330J-1867*
G01*
G75*
G02X179980Y394381I856J-66442*
G01*
G75*
G02X180776Y394375I-2J-54033*
G01*
G75*
G02X181113Y394346I-35J-2367*
G01*
G75*
G02X181325Y394275I-108J-677*
G01*
G75*
G02X181522Y394135I-431J-817*
G01*
X182987Y394081D02*
G75*
G03X183007Y394042I46J0D01*
G01*
G75*
G03X183072Y394010I157J234*
G01*
G75*
G03X183167Y393988I157J460*
G01*
G75*
G03X183279Y393981I110J855*
G01*
G75*
G02X183635Y393952I-1J-2202*
G01*
G75*
G02X183797Y393846I-40J-240*
G01*
G75*
G02X183871Y393625I-369J-246*
G01*
G75*
G02X183887Y393070I-9989J-554*
G01*
G75*
G03X183893Y392657I14492J1*
G01*
G75*
G03X183917Y392437I1388J41*
G01*
G75*
G03X183962Y392322I325J62*
G01*
G75*
G03X184037Y392281I74J47*
G01*
G75*
G03X184111Y392319I0J91*
G01*
G75*
G03X184156Y392423I-228J162*
G01*
G75*
G03X184181Y392621I-1111J237*
G01*
G75*
G03X184187Y392985I-10857J358*
G01*
G75*
G03X184178Y393385I-9148J2*
G01*
G75*
G03X184144Y393610I-1090J-47*
G01*
G75*
G03X184072Y393774I-534J-138*
G01*
G75*
G03X183941Y393935I-840J-548*
G01*
G75*
G03X183705Y394090I-493J-493*
G01*
G75*
G03X183370Y394181I-567J-1430*
G01*
G75*
G03X183081Y394186I-164J-1080*
G01*
G75*
G03X182987Y394081I12J-106*
G01*
X184123Y394173D02*
G75*
G02X184275Y394019I-524J-668D01*
G01*
G75*
G02X184350Y393856I-333J-252*
G01*
G75*
G02X184381Y393597I-1301J-285*
G01*
G75*
G02X184387Y392973I-31644J-611*
G01*
Y391981*
X183687*
Y392777*
G75*
G03X183664Y393343I-6993J2*
G01*
G75*
G03X183569Y393610I-545J-44*
G01*
G75*
G03X183372Y393741I-263J-182*
G01*
G75*
G03X182993Y393781I-379J-1785*
G01*
G75*
G02X182820Y393791I-2J1491*
G01*
G75*
G02X182737Y393830I17J140*
G01*
G75*
G02X182697Y393911I96J98*
G01*
G75*
G02X182687Y394081I1368J171*
G01*
G75*
G02X182703Y394265I1062J0*
G01*
G75*
G02X182761Y394343I107J-19*
G01*
G75*
G02X182887Y394375I135J-263*
G01*
G75*
G02X183273Y394381I389J-13707*
G01*
G75*
G02X183570Y394370I-5J-4139*
G01*
G75*
G02X183790Y394335I-94J-1327*
G01*
G75*
G02X183965Y394272I-209J-853*
G01*
G75*
G02X184123Y394173I-380J-783*
G01*
X185826Y394124D02*
G75*
G03X185825Y394037I5J-44D01*
G01*
G75*
G03X186110Y394007I917J7452*
G01*
G75*
G03X186486Y393987I543J6516*
G01*
G75*
G03X186979Y393981I488J18874*
G01*
G75*
G02X187447Y393976I-17J-24813*
G01*
G75*
G02X187867Y393963I-304J-16138*
G01*
G75*
G02X188218Y393944I-926J-20478*
G01*
G75*
G02X188329Y393920I-23J-373*
G01*
G75*
G02X188406Y393854I-54J-142*
G01*
G75*
G02X188454Y393730I-366J-214*
G01*
G75*
G02X188480Y393524I-1194J-256*
G01*
G75*
G02X188487Y393181I-8393J-335*
G01*
G75*
G02X188480Y392837I-8409J-9*
G01*
G75*
G02X188454Y392631I-1220J50*
G01*
G75*
G02X188406Y392507I-414J90*
G01*
G75*
G02X188329Y392441I-131J76*
G01*
G75*
G02X188218Y392417I-133J349*
G01*
G75*
G02X187867Y392398I-1277J20459*
G01*
G75*
G02X187447Y392385I-724J16124*
G01*
G75*
G02X186979Y392381I-464J24808*
G01*
G75*
G03X186486Y392374I10J-18881*
G01*
G75*
G03X186110Y392354I167J-6536*
G01*
G75*
G03X185825Y392324I632J-7481*
G01*
G75*
G03X185826Y392237I6J-44*
G01*
G75*
G03X186121Y392207I957J8193*
G01*
G75*
G03X186511Y392187I562J6986*
G01*
G75*
G03X187023Y392181I508J20506*
G01*
G75*
G03X187739Y392187I13J39133*
G01*
G75*
G03X188098Y392215I-55J3024*
G01*
G75*
G03X188329Y392276I-137J987*
G01*
G75*
G03X188523Y392388I-287J724*
G01*
G75*
G03X188665Y392524I-616J783*
G01*
G75*
G03X188742Y392660I-309J265*
G01*
G75*
G03X188778Y392847I-686J228*
G01*
G75*
G03X188787Y393181I-5939J328*
G01*
G75*
G03X188778Y393514I-5941J5*
G01*
G75*
G03X188742Y393701I-722J-41*
G01*
G75*
G03X188665Y393837I-386J-129*
G01*
G75*
G03X188523Y393973I-758J-647*
G01*
G75*
G03X188329Y394085I-481J-613*
G01*
G75*
G03X188098Y394146I-368J-926*
G01*
G75*
G03X187739Y394174I-414J-2996*
G01*
G75*
G03X187023Y394181I-724J-39127*
G01*
G75*
G03X186511Y394174I11J-20512*
G01*
G75*
G03X186121Y394154I172J-7007*
G01*
G75*
G03X185826Y394124I662J-8222*
G01*
X188765Y394225D02*
G75*
G02X188886Y394103I-280J-400D01*
G01*
G75*
G02X188951Y393952I-344J-239*
G01*
G75*
G02X188980Y393704I-1319J-281*
G01*
G75*
G02X188987Y393181I-21064J-515*
G01*
G75*
G02X188939Y392424I-6015J-1*
G01*
G75*
G02X188746Y392127I-405J51*
G01*
G75*
G02X188326Y392002I-448J737*
G01*
G75*
G02X187015Y391981I-1304J40766*
G01*
X185487*
Y392581*
X186693*
G75*
G03X187170Y392588I2J15024*
G01*
G75*
G03X187602Y392611I-326J10292*
G01*
G75*
G03X187961Y392643I-820J11123*
G01*
G75*
G03X188093Y392684I-38J359*
G01*
G75*
G03X188183Y392755I-153J285*
G01*
G75*
G03X188243Y392853I-246J218*
G01*
G75*
G03X188276Y392990I-502J195*
G01*
G75*
G03X188287Y393181I-1743J189*
G01*
G75*
G03X188276Y393371I-1749J1*
G01*
G75*
G03X188243Y393508I-535J-58*
G01*
G75*
G03X188183Y393606I-306J-120*
G01*
G75*
G03X188093Y393677I-243J-213*
G01*
G75*
G03X187961Y393718I-170J-319*
G01*
G75*
G03X187602Y393750I-1179J-11091*
G01*
G75*
G03X187170Y393773I-759J-10269*
G01*
G75*
G03X186693Y393781I-487J-15017*
G01*
X185487*
Y394381*
X187015*
G75*
G02X187812Y394374I-11J-48752*
G01*
G75*
G02X188281Y394349I-108J-6491*
G01*
G75*
G02X188582Y394304I-225J-2525*
G01*
G75*
G02X188765Y394225I-103J-487*
G01*
X191706Y410578D02*
G75*
G03X191537Y410464I1117J-1829D01*
G01*
G75*
G03X191453Y410372I200J-269*
G01*
G75*
G03X191425Y410275I159J-98*
G01*
G75*
G03X191443Y410153I405J-4*
G01*
G75*
G03X192024Y408928I4432J1353*
G01*
G75*
G03X192994Y407770I5874J3933*
G01*
G75*
G03X194365Y406669I6799J7061*
G01*
G75*
G03X196156Y405614I10516J15809*
G01*
G75*
G03X196820Y405290I7103J13734*
G01*
G75*
G03X197272Y405126I1239J2700*
G01*
G75*
G03X197574Y405088I282J1030*
G01*
G75*
G03X197737Y405181I-4J196*
G01*
G75*
G02X197785Y405226I106J-65*
G01*
G75*
G02X197909Y405283I791J-1529*
G01*
G75*
G02X198064Y405341I759J-1799*
G01*
G75*
G02X198236Y405391I820J-2535*
G01*
G75*
G03X198530Y405490I-481J1910*
G01*
G75*
G03X198694Y405615I-167J392*
G01*
G75*
G03X198744Y405770I-179J143*
G01*
G75*
G03X198692Y405959I-448J-23*
G01*
G75*
G02X198645Y406072I519J279*
G01*
G75*
G02X198564Y406359I14321J4202*
G01*
G75*
G02X198475Y406704I13602J3693*
G01*
G75*
G02X198387Y407081I18972J4644*
G01*
G75*
G03X198067Y408257I-13023J-2915*
G01*
G75*
G03X197689Y409140I-4944J-1594*
G01*
G75*
G03X197249Y409758I-2744J-1487*
G01*
G75*
G03X196737Y410125I-1125J-1028*
G01*
G75*
G03X195944Y410426I-3309J-7534*
G01*
G75*
G03X195183Y410617I-1857J-5780*
G01*
G75*
G03X194327Y410724I-1366J-7472*
G01*
G75*
G03X193237Y410767I-1302J-19211*
G01*
G75*
G03X192558Y410767I-358J-32093*
G01*
G75*
G03X192188Y410742I35J-3301*
G01*
G75*
G03X191934Y410685I156J-1280*
G01*
G75*
G03X191706Y410578I363J-1075*
G01*
X192787Y394687D02*
G75*
G03X192810Y394648I44D01*
G01*
G75*
G03X192897Y394611I270J513*
G01*
G75*
G03X193018Y394580I272J817*
G01*
G75*
G03X193162Y394561I273J1522*
G01*
G75*
G02X193329Y394539I-135J-1633*
G01*
G75*
G02X193444Y394501I-85J-453*
G01*
G75*
G02X193512Y394448I-90J-185*
G01*
G75*
G02Y394313I-81J-67*
G01*
G75*
G02X193444Y394260I-158J132*
G01*
G75*
G02X193329Y394222I-200J415*
G01*
G75*
G02X193162Y394200I-302J1611*
G01*
G75*
G03X193018Y394181I139J-1647*
G01*
G75*
G03X192897Y394152I155J-899*
G01*
G75*
G03X192809Y394117I191J-606*
G01*
G75*
G03Y394044I18J-36*
G01*
G75*
G03X192897Y394009I278J570*
G01*
G75*
G03X193018Y393980I276J870*
G01*
G75*
G03X193162Y393961I283J1628*
G01*
X193537Y393931*
X193566Y393106*
G75*
G03X193587Y392687I14178J496*
G01*
G75*
G03X193619Y392452I1640J109*
G01*
G75*
G03X193668Y392323I444J94*
G01*
G75*
G03X193741Y392281I73J41*
G01*
G75*
G03X193815Y392328I0J81*
G01*
G75*
G03X193858Y392478I-515J230*
G01*
G75*
G03X193881Y392756I-2243J324*
G01*
G75*
G03X193887Y393285I-25070J526*
G01*
G75*
G03X193880Y393893I-27578J0*
G01*
G75*
G03X193850Y394174I-1649J-35*
G01*
G75*
G03X193778Y394359I-565J-111*
G01*
G75*
G03X193641Y394535I-781J-469*
G01*
G75*
G03X193420Y394686I-513J-513*
G01*
G75*
G03X193123Y394776I-524J-1192*
G01*
G75*
G03X192872Y394783I-148J-832*
G01*
G75*
G03X192787Y394687I12J-96*
G01*
X193887Y394781D02*
G75*
G02X193996Y394618I-356J-356D01*
G01*
G75*
G02X194054Y394401I-796J-330*
G01*
G75*
G02X194081Y394041I-3065J-409*
G01*
G75*
G02X194087Y393281I-48477J-757*
G01*
Y391981*
X193387*
Y393770*
X192912Y393800*
X192437Y393831*
X192407Y394406*
X192377Y394981*
X193032*
G75*
G02X193374Y394972I-2J-6571*
G01*
G75*
G02X193595Y394940I-67J-1256*
G01*
G75*
G02X193754Y394880I-144J-618*
G01*
G75*
G02X193887Y394781I-276J-508*
G01*
X195628Y393850D02*
G75*
G03X195424Y393463I745J-640D01*
G01*
G75*
G03X195402Y393018I1022J-274*
G01*
G75*
G03X195565Y392612I998J164*
G01*
G75*
G03X195878Y392335I705J481*
G01*
G75*
G03X196253Y392222I491J948*
G01*
G75*
G03X196901Y392182I767J7123*
G01*
G75*
G03X197551Y392200I123J7117*
G01*
G75*
G03X197940Y392300I-85J1139*
G01*
G75*
G03X198229Y392518I-346J760*
G01*
G75*
G03X198416Y392848I-760J648*
G01*
G75*
G03X198470Y393233I-1000J336*
G01*
G75*
G03X198379Y393607I-1015J-48*
G01*
G75*
G03X198178Y393892I-852J-387*
G01*
G75*
G03X197895Y394066I-538J-557*
G01*
G75*
G03X197471Y394150I-507J-1448*
G01*
G75*
G03X196803Y394158I-429J-8074*
G01*
G75*
G03X196227Y394134I698J-23668*
G01*
G75*
G03X195970Y394094I69J-1286*
G01*
G75*
G03X195799Y394011I124J-470*
G01*
G75*
G03X195628Y393850I669J-885*
G01*
X196180Y393677D02*
G75*
G03X196090Y393606I153J-285D01*
G01*
G75*
G03X196030Y393507I246J-217*
G01*
G75*
G03X195997Y393369I509J-195*
G01*
G75*
G03X195987Y393174I1828J-197*
G01*
G75*
G03X195997Y392957I2322J0*
G01*
G75*
G03X196034Y392831I343J32*
G01*
G75*
G03X196109Y392747I200J104*
G01*
G75*
G03X196243Y392678I374J563*
G01*
G75*
G03X196556Y392605I430J1132*
G01*
G75*
G03X197003Y392584I429J4388*
G01*
G75*
G03X197440Y392607I-18J4534*
G01*
G75*
G03X197693Y392684I-69J678*
G01*
G75*
G03X197841Y392859I-146J273*
G01*
G75*
G03X197895Y393175I-1007J336*
G01*
G75*
G03X197853Y393492I-1060J19*
G01*
G75*
G03X197712Y393672I-296J-87*
G01*
G75*
G03X197456Y393753I-305J-525*
G01*
G75*
G03X196953Y393774I-524J-6313*
G01*
G75*
G03X196448Y393756I-20J-6219*
G01*
G75*
G03X196180Y393677I53J-678*
G01*
X197887Y413627D02*
G75*
G02X200359Y413222I-4221J-33579D01*
G01*
G75*
G02X202378Y412680I-3264J-16182*
G01*
G75*
G02X203861Y412054I-3481J-10312*
G01*
G75*
G02X204537Y411381I-713J-1392*
G01*
G75*
G02X204594Y411240I-759J-394*
G01*
G75*
G02X204643Y411054I-2055J-629*
G01*
G75*
G02X204676Y410855I-2239J-479*
G01*
G75*
G02X204687Y410674I-1484J-178*
G01*
G75*
G02X204671Y410440I-1706J-3*
G01*
G75*
G02X204619Y410272I-552J77*
G01*
G75*
G02X204514Y410117I-598J292*
G01*
G75*
G02X204319Y409920I-2231J2022*
G01*
G75*
G02X204153Y409786I-1170J1277*
G01*
G75*
G02X203961Y409663I-1326J1863*
G01*
G75*
G02X203772Y409568I-1024J1795*
G01*
G75*
G02X203619Y409520I-282J636*
G01*
G75*
G03X203464Y409471I125J-663*
G01*
G75*
G03X203267Y409370I926J-2036*
G01*
G75*
G03X203064Y409238I1263J-2170*
G01*
G75*
G03X202886Y409094I1179J-1645*
G01*
X202484Y408731*
X202677Y407181*
G75*
G02X202902Y405222I-109562J-13614*
G01*
G75*
G02X203022Y403787I-32196J-3415*
G01*
G75*
G02X203071Y402447I-26774J-1646*
G01*
G75*
G02X203066Y400831I-56475J-630*
G01*
G75*
G02X203039Y399627I-111812J1920*
G01*
G75*
G02X203002Y398919I-14847J414*
G01*
G75*
G02X202950Y398460I-5973J454*
G01*
G75*
G02X202865Y398178I-1052J162*
G01*
G75*
G02X202694Y397873I-1994J917*
G01*
G75*
G02X202500Y397654I-900J603*
G01*
G75*
G02X202267Y397507I-611J710*
G01*
G75*
G02X201980Y397418I-530J1202*
G01*
G75*
G03X201834Y397382I233J-1250*
G01*
G75*
G03X201679Y397325I552J-1750*
G01*
G75*
G03X201538Y397259I654J-1572*
G01*
G75*
G03X201437Y397192I293J-555*
G01*
G75*
G02X200984Y396891I-1851J2291*
G01*
G75*
G02X200598Y396782I-435J806*
G01*
G75*
G02X200248Y396857I-36J685*
G01*
G75*
G02X199906Y397110I598J1165*
G01*
X199587Y397440*
Y399054*
G75*
G03X199580Y399717I-33187J16*
G01*
G75*
G03X199559Y400242I-13261J-265*
G01*
G75*
G03X199530Y400660I-20454J-1234*
G01*
G75*
G03X199487Y400731I-92J-7*
G01*
G75*
G02X199448Y400776I51J83*
G01*
G75*
G02X199416Y400870I619J261*
G01*
G75*
G02X199394Y400989I848J219*
G01*
G75*
G02X199387Y401119I1139J131*
G01*
G75*
G03X199333Y401383I-683J0*
G01*
G75*
G03X199179Y401635I-894J-374*
G01*
G75*
G03X198965Y401818I-669J-567*
G01*
G75*
G03X198741Y401881I-225J-370*
G01*
G75*
G03X198633Y401846I0J-186*
G01*
G75*
G03X198373Y401652I4318J-6042*
G01*
G75*
G03X198070Y401400I4150J-5295*
G01*
G75*
G03X197746Y401101I6970J-7902*
G01*
G75*
G02X197370Y400754I-8827J9182*
G01*
G75*
G02X196909Y400356I-17032J19239*
G01*
G75*
G02X196439Y399968I-16560J19611*
G01*
G75*
G02X196035Y399657I-7859J9783*
G01*
G75*
G03X195670Y399385I72211J-97500*
G01*
G75*
G03X195315Y399120I65171J-87458*
G01*
G75*
G03X195011Y398891I59795J-79632*
G01*
G75*
G03X194844Y398761I6481J-8551*
G01*
G75*
G02X194721Y398667I-2675J3375*
G01*
G75*
G02X194591Y398576I-2757J3772*
G01*
G75*
G02X194474Y398499I-2324J3423*
G01*
G75*
G02X194394Y398455I-424J667*
G01*
G75*
G03X194309Y398410I604J-1254*
G01*
G75*
G03X194166Y398327I5349J-9367*
G01*
G75*
G03X194002Y398228I6101J-10363*
G01*
G75*
G03X193837Y398126I6638J-10841*
G01*
G75*
G02X193644Y398011I-2376J3752*
G01*
G75*
G02X193393Y397872I-5813J10285*
G01*
G75*
G02X193127Y397735I-5858J10989*
G01*
G75*
G02X192887Y397619I-3480J6937*
G01*
G75*
G03X192648Y397508I13739J-29837*
G01*
G75*
G03X192385Y397384I20772J-44185*
G01*
G75*
G03X192138Y397265I19680J-41240*
G01*
G75*
G03X191952Y397173I6637J-13678*
G01*
G75*
G02X191778Y397100I-662J1326*
G01*
G75*
G02X191572Y397037I-822J2333*
G01*
G75*
G02X191367Y396994I-586J2311*
G01*
G75*
G02X191197Y396981I-170J1037*
G01*
G75*
G03X191048Y396972I3J-1407*
G01*
G75*
G03X190904Y396949I131J-1247*
G01*
G75*
G03X190785Y396914I230J-1002*
G01*
G75*
G03X190719Y396872I60J-168*
G01*
G75*
G02X190554Y396790I-204J204*
G01*
G75*
G02X190346Y396809I-63J461*
G01*
G75*
G02X190146Y396923I181J549*
G01*
G75*
G02X190007Y397106I373J426*
G01*
G75*
G03X189923Y397247I-793J-379*
G01*
G75*
G03X189830Y397328I-231J-170*
G01*
G75*
G03X189704Y397370I-172J-310*
G01*
G75*
G03X189506Y397383I-206J-1616*
G01*
G75*
G02X189129Y397433I9J1500*
G01*
G75*
G02X188720Y397581I656J2461*
G01*
G75*
G02X188360Y397786I995J2160*
G01*
G75*
G02X188140Y398011I468J676*
G01*
G75*
G02X188074Y398131I771J506*
G01*
G75*
G02X188009Y398289I1962J904*
G01*
G75*
G02X187955Y398455I2110J775*
G01*
G75*
G02X187921Y398606I1313J370*
G01*
G75*
G02X187951Y399090I1089J176*
G01*
G75*
G02X188198Y399358I392J-113*
G01*
G75*
G02X188598Y399343I181J-481*
G01*
G75*
G02X189043Y399031I-664J-1422*
G01*
G75*
G03X189454Y398770I785J785*
G01*
G75*
G03X189950Y398701I417J1164*
G01*
G75*
G03X190590Y398831I-153J2392*
G01*
G75*
G03X191463Y399185I-3252J9263*
G01*
G75*
G02X191710Y399298I13724J-29704*
G01*
G75*
G02X191924Y399394I7484J-16535*
G01*
G75*
G02X192111Y399475I20654J-47170*
G01*
G75*
G02X192138Y399481I28J-64*
G01*
G75*
G03X192165Y399488I0J53*
G01*
G75*
G03X192364Y399604I-29708J51014*
G01*
G75*
G03X192593Y399740I-9330J15945*
G01*
G75*
G03X192856Y399902I-17518J28880*
G01*
G75*
G03X194053Y400714I-8944J14461*
G01*
G75*
G03X195024Y401535I-6090J8194*
G01*
G75*
G03X195703Y402279I-5148J5378*
G01*
G75*
G03X195889Y402806I-670J533*
G01*
G75*
G02X195932Y403075I893J-6*
G01*
G75*
G02X196056Y403330I995J-322*
G01*
G75*
G02X196247Y403550I923J-612*
G01*
G75*
G02X196491Y403714I750J-852*
G01*
G75*
G03X196671Y403843I-315J631*
G01*
G75*
G03X196765Y404004I-252J256*
G01*
G75*
G03X196739Y404126I-131J36*
G01*
G75*
G03X196619Y404183I-122J-102*
G01*
G75*
G02X196252Y404247I15J1177*
G01*
G75*
G02X195274Y404596I14861J43208*
G01*
G75*
G02X194202Y405013I11631J31465*
G01*
G75*
G02X193204Y405445I10180J24891*
G01*
G75*
G03X192924Y405564I-2388J-5227*
G01*
G75*
G03X192842Y405547I-28J-71*
G01*
G75*
G03X192841Y405477I35J-36*
G01*
G75*
G03X193037Y405280I3081J2878*
G01*
G75*
G02X193139Y405165I-579J-613*
G01*
G75*
G02X193219Y405033I-676J-498*
G01*
G75*
G02X193270Y404895I-688J-332*
G01*
G75*
G02X193287Y404763I-502J-131*
G01*
G75*
G02X193276Y404608I-1103J-2*
G01*
G75*
G02X193236Y404530I-133J19*
G01*
G75*
G02X193155Y404491I-99J103*
G01*
G75*
G02X192993Y404481I-161J1270*
G01*
G75*
G02X192876Y404488I-2J934*
G01*
G75*
G02X192767Y404510I94J742*
G01*
G75*
G02X192680Y404542I156J552*
G01*
G75*
G02X192637Y404581I43J92*
G01*
G75*
G03X192600Y404619I-106J-66*
G01*
G75*
G03X192539Y404651I-189J-283*
G01*
G75*
G03X192465Y404673I-154J-378*
G01*
G75*
G03X192389Y404681I-76J-382*
G01*
G75*
G02X192282Y404699I-1J321*
G01*
G75*
G02X192072Y404779I1553J4372*
G01*
G75*
G02X191826Y404888I1889J4604*
G01*
G75*
G02X191570Y405017I2764J5822*
G01*
G75*
G03X191290Y405165I-93592J-176419*
G01*
G75*
G03X190970Y405333I-155878J-294981*
G01*
G75*
G03X190662Y405496I-150052J-285161*
G01*
G75*
G03X190418Y405624I-58771J-111640*
G01*
G75*
G02X190211Y405738I2476J4730*
G01*
G75*
G02X190017Y405857I2282J3935*
G01*
G75*
G02X189857Y405966I2229J3430*
G01*
G75*
G02X189781Y406038I241J336*
G01*
G75*
G03X189727Y406093I-346J-287*
G01*
G75*
G03X189663Y406139I-321J-376*
G01*
G75*
G03X189600Y406170I-221J-362*
G01*
G75*
G03X189547Y406181I-53J-132*
G01*
G75*
G02X189328Y406272I0J306*
G01*
G75*
G02X188726Y406906I19085J18739*
G01*
G75*
G02X188165Y407550I11310J10406*
G01*
G75*
G02X187897Y407974I1578J1296*
G01*
G75*
G02X187801Y408216I1806J854*
G01*
G75*
G02X187736Y408471I2003J646*
G01*
G75*
G02X187699Y408756I2506J474*
G01*
G75*
G02X187687Y409088I4504J332*
G01*
G75*
G02X187706Y409540I5289J-4*
G01*
G75*
G02X187771Y409848I1296J-111*
G01*
G75*
G02X187915Y410165I1652J-564*
G01*
G75*
G02X188227Y410674I11719J-6828*
G01*
G75*
G03X188346Y410866I-5125J3294*
G01*
G75*
G03X188467Y411077I-7043J4174*
G01*
G75*
G03X188572Y411275I-6545J3607*
G01*
G75*
G03X188642Y411424I-1927J995*
G01*
G75*
G02X189069Y412090I2138J-902*
G01*
G75*
G02X189752Y412679I2850J-2613*
G01*
G75*
G02X190645Y413157I2744J-4057*
G01*
G75*
G02X191696Y413490I2594J-6355*
G01*
G75*
G02X192858Y413665I1706J-7391*
G01*
G75*
G02X194601Y413747I2517J-34991*
G01*
G75*
G02X196419Y413740I778J-35408*
G01*
G75*
G02X197887Y413627I-451J-15400*
G01*
X197962Y393914D02*
G75*
G02X198083Y393748I-72J-180D01*
G01*
G75*
G02X198096Y393177I-6259J-432*
G01*
G75*
G02X198057Y392607I-6246J141*
G01*
G75*
G02X197929Y392441I-200J23*
G01*
G75*
G02X197626Y392382I-320J834*
G01*
G75*
G02X196934Y392383I-326J16979*
G01*
G75*
G02X196238Y392411I428J19056*
G01*
G75*
G02X195980Y392484I36J622*
G01*
G75*
G02X195882Y392568I143J267*
G01*
G75*
G02X195824Y392689I274J207*
G01*
G75*
G02X195794Y392881I891J233*
G01*
G75*
G02X195787Y393223I7743J349*
G01*
G75*
G02X195794Y393542I7014J-5*
G01*
G75*
G02X195820Y393737I1106J-50*
G01*
G75*
G02X195869Y393856I389J-88*
G01*
G75*
G02X195945Y393920I131J-80*
G01*
G75*
G02X196184Y393966I251J-652*
G01*
G75*
G02X196956Y393971I656J-40691*
G01*
G75*
G02X197729Y393962I-102J-41680*
G01*
G75*
G02X197962Y393914I-15J-659*
G01*
X198386Y394096D02*
G75*
G02X198548Y393912I-1321J-1324D01*
G01*
G75*
G02X198635Y393752I-459J-351*
G01*
G75*
G02X198675Y393557I-709J-249*
G01*
G75*
G02X198687Y393243I-4296J-313*
G01*
G75*
G02X198661Y392800I-3754J-2*
G01*
G75*
G02X198577Y392475I-1256J149*
G01*
G75*
G02X198432Y392245I-711J288*
G01*
G75*
G02X198221Y392092I-481J440*
G01*
G75*
G02X198069Y392048I-220J481*
G01*
G75*
G02X197741Y392013I-1007J7883*
G01*
G75*
G02X197347Y391989I-717J8379*
G01*
G75*
G02X196927Y391981I-413J10846*
G01*
G75*
G02X195931Y392022I-3J11953*
G01*
G75*
G02X195476Y392196I73J874*
G01*
G75*
G02X195253Y392560I351J465*
G01*
G75*
G02X195188Y393294I4233J744*
G01*
G75*
G02X195198Y393570I3627J9*
G01*
G75*
G02X195231Y393783I1351J-99*
G01*
G75*
G02X195289Y393952I870J-207*
G01*
G75*
G02X195378Y394094I617J-285*
G01*
G75*
G02X195533Y394228I446J-361*
G01*
G75*
G02X195726Y394300I303J-514*
G01*
G75*
G02X196054Y394337I423J-2281*
G01*
G75*
G02X196827Y394364I2158J-51897*
G01*
X198086Y394397*
X198386Y394096*
X202572Y393881D02*
G75*
G03X202446Y393738I1115J-1113D01*
G01*
G75*
G03X202358Y393601I665J-521*
G01*
G75*
G03X202310Y393472I524J-267*
G01*
G75*
G03X202305Y393356I300J-72*
G01*
G75*
G03X202372Y393227I217J31*
G01*
G75*
G03X202511Y393155I198J211*
G01*
G75*
G03X202807Y393117I392J1889*
G01*
G75*
G03X203636Y393081I3693J74994*
G01*
G75*
G02X204410Y393046I-2286J-59069*
G01*
G75*
G02X204735Y393008I-131J-2541*
G01*
G75*
G02X204898Y392945I-83J-459*
G01*
G75*
G02X204972Y392837I-86J-139*
G01*
G75*
G02X204945Y392658I-270J-51*
G01*
G75*
G02X204810Y392510I-350J183*
G01*
G75*
G02X204575Y392413I-379J584*
G01*
G75*
G02X204268Y392381I-306J1456*
G01*
G75*
G03X204119Y392372I3J-1402*
G01*
G75*
G03X203996Y392348I73J-684*
G01*
G75*
G03X203912Y392312I109J-374*
G01*
G75*
G03X203918Y392221I25J-44*
G01*
G75*
G03X204016Y392196I143J346*
G01*
G75*
G03X204175Y392189I121J983*
G01*
G75*
G03X204406Y392205I-178J4204*
G01*
G75*
G03X204837Y392302I-167J1756*
G01*
G75*
G03X205144Y392498I-282J779*
G01*
G75*
G03X205324Y392796I-531J526*
G01*
G75*
G03X205387Y393194I-1241J398*
G01*
G75*
G03X205372Y393406I-1499J0*
G01*
G75*
G03X205326Y393573I-672J-95*
G01*
G75*
G03X205238Y393724I-640J-269*
G01*
G75*
G03X205094Y393888I-1292J-986*
G01*
G75*
G03X204892Y394059I-1094J-1094*
G01*
G75*
G03X204710Y394141I-301J-426*
G01*
G75*
G03X204446Y394174I-292J-1259*
G01*
G75*
G03X203837Y394181I-618J-26935*
G01*
G75*
G03X203224Y394174I8J-27207*
G01*
G75*
G03X202961Y394140I28J-1261*
G01*
G75*
G03X202779Y394057I119J-503*
G01*
G75*
G03X202572Y393881I973J-1355*
G01*
X203145Y393720D02*
G75*
G03X203027Y393627I89J-234D01*
G01*
G75*
G03X203054Y393546I44J-30*
G01*
G75*
G03X203324Y393494I320J927*
G01*
G75*
G03X203837Y393481I510J9994*
G01*
G75*
G03X204344Y393490I6J13865*
G01*
G75*
G03X204588Y393530I-36J981*
G01*
G75*
G03X204655Y393607I-28J91*
G01*
G75*
G03X204620Y393714I-123J19*
G01*
G75*
G03X204492Y393769I-134J-134*
G01*
G75*
G03X203931Y393779I-643J-21537*
G01*
G75*
G03X203389Y393770I-52J-13092*
G01*
G75*
G03X203145Y393720I28J-761*
G01*
X204983Y393835D02*
G75*
G02X205026Y393767I-246J-204D01*
G01*
G75*
G02X205058Y393680I-469J-220*
G01*
G75*
G02X205073Y393590I-494J-131*
G01*
G75*
G02X205069Y393510I-296J-22*
G01*
G75*
G02X204999Y393413I-140J27*
G01*
G75*
G02X204843Y393360I-221J389*
G01*
G75*
G02X204538Y393335I-340J2326*
G01*
G75*
G02X203837Y393331I-678J48517*
G01*
G75*
G02X203113Y393335I-11J53707*
G01*
G75*
G02X202819Y393360I27J2084*
G01*
G75*
G02X202672Y393418I56J356*
G01*
G75*
G02X202602Y393524I93J137*
G01*
G75*
G02X202646Y393737I278J53*
G01*
G75*
G02X202834Y393881I315J-214*
G01*
G75*
G02X203220Y393959I473J-1340*
G01*
G75*
G02X203894Y393981I680J-10870*
G01*
G75*
G02X204370Y393974I-2J-16181*
G01*
G75*
G02X204676Y393949I-87J-2981*
G01*
G75*
G02X204876Y393906I-173J-1283*
G01*
G75*
G02X204983Y393835I-63J-211*
G01*
X205137Y394265D02*
G75*
G02X205222Y394212I-433J-796D01*
G01*
G75*
G02X205315Y394142I-900J-1284*
G01*
G75*
G02X205400Y394067I-960J-1172*
G01*
G75*
G02X205462Y393999I-466J-488*
G01*
G75*
G02X205546Y393792I-309J-246*
G01*
G75*
G02X205583Y393265I-8720J-877*
G01*
G75*
G02X205585Y392735I-7293J-298*
G01*
G75*
G02X205525Y392435I-919J30*
G01*
G75*
G02X205378Y392246I-385J148*
G01*
G75*
G02X205100Y392102I-659J930*
G01*
G75*
G02X204715Y392011I-620J1750*
G01*
G75*
G02X204242Y391981I-472J3715*
G01*
X203587*
Y392281*
G75*
G02X203598Y392454I1365J-3*
G01*
G75*
G02X203640Y392533I126J-16*
G01*
G75*
G02X203729Y392572I103J-117*
G01*
G75*
G02X203929Y392581I200J-2211*
G01*
G75*
G03X204198Y392594I2J2607*
G01*
G75*
G03X204407Y392638I-107J1030*
G01*
G75*
G03X204542Y392705I-154J481*
G01*
G75*
G03X204587Y392791I-61J86*
G01*
G75*
G03X204554Y392827I-36*
G01*
G75*
G03X204220Y392854I-1557J-17085*
G01*
G75*
G03X203816Y392874I-644J-9052*
G01*
G75*
G03X203337Y392881I-490J-17894*
G01*
X202087*
Y393385*
G75*
G02X202098Y393652I3109J-4*
G01*
G75*
G02X202136Y393837I822J-70*
G01*
G75*
G02X202210Y393987I565J-184*
G01*
G75*
G02X202332Y394135I848J-579*
G01*
G75*
G02X202515Y394274I610J-610*
G01*
G75*
G02X202712Y394345I298J-522*
G01*
G75*
G02X203024Y394373I339J-2002*
G01*
G75*
G02X203757Y394378I632J-44894*
G01*
G75*
G02X204228Y394369I-36J-14162*
G01*
G75*
G02X204652Y394344I-334J-9344*
G01*
G75*
G02X205000Y394309I-773J-9422*
G01*
G75*
G02X205137Y394265I-45J-374*
G01*
X206787Y394081D02*
G75*
G03X206807Y394042I46J0D01*
G01*
G75*
G03X206872Y394010I157J234*
G01*
G75*
G03X206967Y393988I157J460*
G01*
G75*
G03X207079Y393981I110J855*
G01*
G75*
G02X207435Y393952I-1J-2202*
G01*
G75*
G02X207597Y393846I-40J-240*
G01*
G75*
G02X207671Y393625I-369J-246*
G01*
G75*
G02X207687Y393070I-9989J-554*
G01*
G75*
G03X207693Y392657I14492J1*
G01*
G75*
G03X207717Y392437I1388J41*
G01*
G75*
G03X207762Y392322I325J62*
G01*
G75*
G03X207837Y392281I74J47*
G01*
G75*
G03X207911Y392319I0J91*
G01*
G75*
G03X207956Y392423I-228J162*
G01*
G75*
G03X207981Y392621I-1111J237*
G01*
G75*
G03X207987Y392985I-10857J358*
G01*
G75*
G03X207978Y393385I-9148J2*
G01*
G75*
G03X207944Y393610I-1090J-47*
G01*
G75*
G03X207872Y393774I-534J-138*
G01*
G75*
G03X207741Y393935I-840J-548*
G01*
G75*
G03X207505Y394090I-493J-493*
G01*
G75*
G03X207170Y394181I-567J-1430*
G01*
G75*
G03X206881Y394186I-164J-1080*
G01*
G75*
G03X206787Y394081I12J-106*
G01*
X207969Y394149D02*
G75*
G02X208086Y393983I-528J-495D01*
G01*
G75*
G02X208150Y393794I-609J-312*
G01*
G75*
G02X208180Y393506I-1850J-335*
G01*
G75*
G02X208187Y392949I-21918J-542*
G01*
Y391981*
X207487*
Y392777*
G75*
G03X207464Y393343I-6993J2*
G01*
G75*
G03X207369Y393610I-545J-44*
G01*
G75*
G03X207172Y393741I-263J-182*
G01*
G75*
G03X206793Y393781I-379J-1785*
G01*
G75*
G02X206620Y393791I-2J1491*
G01*
G75*
G02X206537Y393830I17J140*
G01*
G75*
G02X206497Y393911I96J98*
G01*
G75*
G02X206487Y394081I1368J171*
G01*
Y394381*
X207119*
G75*
G02X207467Y394371I-5J-6576*
G01*
G75*
G02X207675Y394338I-52J-993*
G01*
G75*
G02X207827Y394269I-138J-507*
G01*
G75*
G02X207969Y394149I-443J-670*
G01*
X212287Y393334D02*
G75*
G02X212252Y392757I-4816J0D01*
G01*
G75*
G02X212113Y392513I-358J43*
G01*
G75*
G02X211815Y392403I-329J431*
G01*
G75*
G02X211037Y392381I-777J13444*
G01*
G75*
G02X210258Y392403I-2J13460*
G01*
G75*
G02X209961Y392513I31J541*
G01*
G75*
G02X209822Y392757I219J287*
G01*
G75*
G02X209787Y393334I4781J580*
G01*
G75*
G03X209781Y393722I-12596J2*
G01*
G75*
G03X209757Y393931I-1257J-39*
G01*
G75*
G03X209711Y394041I-298J-59*
G01*
G75*
G03X209637Y394081I-74J-50*
G01*
G75*
G03X209565Y394046I0J-94*
G01*
G75*
G03X209518Y393954I178J-148*
G01*
G75*
G03X209493Y393781I846J-209*
G01*
G75*
G03X209487Y393474I7361J-314*
G01*
G75*
G03X209563Y392812I2911J1*
G01*
G75*
G03X209805Y392431I665J155*
G01*
G75*
G03X210272Y392235I588J744*
G01*
G75*
G03X211124Y392181I850J6618*
G01*
G75*
G03X211622Y392189I11J15049*
G01*
G75*
G03X211885Y392222I-46J1416*
G01*
G75*
G03X212076Y392297I-149J663*
G01*
G75*
G03X212279Y392439I-707J1224*
G01*
G75*
G03X212456Y392612I-1070J1270*
G01*
G75*
G03X212541Y392762I-319J282*
G01*
G75*
G03X212578Y392968I-733J238*
G01*
G75*
G03X212587Y393389I-10287J413*
G01*
G75*
G03X212581Y393746I-10349J7*
G01*
G75*
G03X212556Y393940I-1094J-39*
G01*
G75*
G03X212510Y394043I-268J-57*
G01*
G75*
G03X212437Y394081I-74J-54*
G01*
G75*
G03X212363Y394041I0J-89*
G01*
G75*
G03X212317Y393931I252J-169*
G01*
G75*
G03X212293Y393722I1233J-248*
G01*
G75*
G03X212287Y393334I12590J-398*
G01*
X212787Y393396D02*
G75*
G02X212746Y392529I-9276J-1D01*
G01*
G75*
G02X212566Y392201I-467J44*
G01*
G75*
G02X212173Y392057I-425J550*
G01*
G75*
G02X211017Y392031I-1153J25185*
G01*
G75*
G02X209904Y392060I-3J21196*
G01*
G75*
G02X209509Y392212I35J679*
G01*
G75*
G02X209328Y392553I315J387*
G01*
G75*
G02X209287Y393442I9636J889*
G01*
Y394381*
X209987*
Y393636*
G75*
G03X210025Y393053I4429J0*
G01*
G75*
G03X210168Y392763I502J67*
G01*
G75*
G03X210457Y392619I356J355*
G01*
G75*
G03X211037Y392581I577J4300*
G01*
G75*
G03X211616Y392619I2J4342*
G01*
G75*
G03X211906Y392763I-67J498*
G01*
G75*
G03X212048Y393053I-359J357*
G01*
G75*
G03X212087Y393636I-4391J580*
G01*
Y394381*
X212787*
Y393396*
X215487Y394086D02*
G75*
G03X215513Y394047I42D01*
G01*
G75*
G03X215626Y394010I367J928*
G01*
G75*
G03X215779Y393980I335J1271*
G01*
G75*
G03X215961Y393961I339J2425*
G01*
G75*
G02X216205Y393937I-234J-3621*
G01*
G75*
G02X216346Y393898I-68J-520*
G01*
G75*
G02X216428Y393833I-85J-193*
G01*
G75*
G02X216472Y393737I-179J-138*
G01*
G75*
G02X216432Y393531I-278J-53*
G01*
G75*
G02X216258Y393387I-315J202*
G01*
G75*
G02X215912Y393304I-443J1089*
G01*
G75*
G02X215349Y393281I-562J6787*
G01*
G75*
G03X214904Y393272I6J-12293*
G01*
G75*
G03X214652Y393241I54J-1484*
G01*
G75*
G03X214476Y393177I135J-637*
G01*
G75*
G03X214318Y393063I360J-666*
G01*
G75*
G03X214147Y392870I956J-1017*
G01*
G75*
G03X214101Y392716I195J-143*
G01*
G75*
G03X214161Y392567I243J12*
G01*
G75*
G03X214350Y392388I1072J944*
G01*
G75*
G03X214536Y392278I502J639*
G01*
G75*
G03X214749Y392217I359J844*
G01*
G75*
G03X215067Y392188I377J2365*
G01*
G75*
G03X215650Y392181I577J23454*
G01*
G75*
G03X216074Y392187I8J13751*
G01*
G75*
G03X216403Y392208I-155J5035*
G01*
G75*
G03X216650Y392238I-510J5243*
G01*
G75*
G03X216650Y392323I-6J43*
G01*
G75*
G03X216405Y392354I-758J-5118*
G01*
G75*
G03X216080Y392375I-485J-4919*
G01*
G75*
G03X215662Y392382I-435J-13339*
G01*
G75*
G02X215259Y392389I30J13146*
G01*
G75*
G02X214898Y392408I267J8556*
G01*
G75*
G02X214600Y392435I750J10048*
G01*
G75*
G02X214503Y392469I24J222*
G01*
G75*
G02X214454Y392518I80J128*
G01*
G75*
G02X214419Y392598I313J188*
G01*
G75*
G02X214400Y392694I424J131*
G01*
G75*
G02X214403Y392792I443J35*
G01*
G75*
G02X214457Y392928I308J-43*
G01*
G75*
G02X214561Y393004I163J-115*
G01*
G75*
G02X214776Y393044I287J-934*
G01*
G75*
G02X215342Y393081I2234J-30134*
G01*
G75*
G03X215769Y393113I-546J9952*
G01*
G75*
G03X216096Y393161I-349J3534*
G01*
G75*
G03X216343Y393224I-401J2074*
G01*
G75*
G03X216517Y393308I-220J685*
G01*
G75*
G03X216709Y393461I-726J1105*
G01*
G75*
G03X216772Y393595I-146J152*
G01*
G75*
G03X216733Y393744I-231J19*
G01*
G75*
G03X216569Y393949I-1370J-926*
G01*
G75*
G03X216442Y394059I-585J-552*
G01*
G75*
G03X216305Y394130I-334J-479*
G01*
G75*
G03X216137Y394168I-251J-707*
G01*
G75*
G03X215919Y394181I-221J-1928*
G01*
G75*
G03X215754Y394174I3J-2015*
G01*
G75*
G03X215614Y394153I87J-1061*
G01*
G75*
G03X215512Y394123I156J-719*
G01*
G75*
G03X215487Y394086I14J-37*
G01*
X216881Y394136D02*
G75*
G02X216996Y393995I-879J-827D01*
G01*
G75*
G02X217054Y393870I-337J-232*
G01*
G75*
G02X217068Y393730I-424J-115*
G01*
G75*
G02X217044Y393536I-1521J88*
G01*
G75*
G02X216910Y393223I-766J143*
G01*
G75*
G02X216661Y393021I-502J364*
G01*
G75*
G02X216248Y392912I-536J1195*
G01*
G75*
G02X215583Y392881I-663J7049*
G01*
G75*
G03X215188Y392875I6J-13604*
G01*
G75*
G03X214959Y392853I53J-1754*
G01*
G75*
G03X214837Y392815I70J-442*
G01*
G75*
G03X214811Y392756I21J-44*
G01*
G75*
G03X214877Y392695I87J29*
G01*
G75*
G03X215098Y392654I531J2202*
G01*
G75*
G03X215428Y392622I541J3927*
G01*
G75*
G03X215920Y392602I987J18154*
G01*
X216987Y392574*
Y391981*
X215659*
G75*
G02X214621Y392002I-4J25626*
G01*
G75*
G02X214174Y392100I52J1294*
G01*
G75*
G02X213961Y392319I150J359*
G01*
G75*
G02X213887Y392721I1042J402*
G01*
G75*
G02X213939Y393112I1491J0*
G01*
G75*
G02X214100Y393337I383J-104*
G01*
G75*
G02X214414Y393450I383J-567*
G01*
G75*
G02X215011Y393481I600J-5922*
G01*
G75*
G03X215314Y393485I4J10295*
G01*
G75*
G03X215594Y393498I-225J7646*
G01*
G75*
G03X215828Y393517I-498J7622*
G01*
G75*
G03X215929Y393541I-38J383*
G01*
G75*
G03X216066Y393626I-158J412*
G01*
G75*
G03X216064Y393705I-35J39*
G01*
G75*
G03X215921Y393765I-173J-211*
G01*
G75*
G03X215637Y393781I-285J-2564*
G01*
G75*
G02X215355Y393787I-3J5796*
G01*
G75*
G02X215249Y393822I10J209*
G01*
G75*
G02X215200Y393900I63J94*
G01*
G75*
G02X215187Y394081I1237J183*
G01*
Y394381*
X215919*
G75*
G02X216340Y394372I0J-10730*
G01*
G75*
G02X216567Y394339I-44J-1097*
G01*
G75*
G02X216727Y394268I-126J-493*
G01*
G75*
G02X216881Y394136I-510J-757*
G01*
X218531Y393875D02*
G75*
G03X218337Y393571I504J-536D01*
G01*
G75*
G03X218270Y393159I1233J-412*
G01*
G75*
G03X218337Y392742I1327J2*
G01*
G75*
G03X218532Y392426I765J254*
G01*
G75*
G03X218710Y392288I636J636*
G01*
G75*
G03X218898Y392217I296J500*
G01*
G75*
G03X219187Y392187I326J1711*
G01*
G75*
G03X219824Y392181I627J31210*
G01*
G75*
G03X220463Y392187I13J29203*
G01*
G75*
G03X220761Y392219I-39J1799*
G01*
G75*
G03X220967Y392293I-131J680*
G01*
G75*
G03X221179Y392439I-644J1165*
G01*
G75*
G03X221297Y392552I-831J987*
G01*
G75*
G03X221396Y392676I-858J793*
G01*
G75*
G03X221466Y392793I-774J539*
G01*
G75*
G03X221487Y392881I-176J87*
G01*
G75*
G03X221466Y392968I-195J0*
G01*
G75*
G03X221396Y393085I-844J-422*
G01*
G75*
G03X221297Y393209I-958J-670*
G01*
G75*
G03X221179Y393322I-949J-874*
G01*
G75*
G03X220965Y393469I-847J-1005*
G01*
G75*
G03X220757Y393543I-335J-611*
G01*
G75*
G03X220452Y393574I-343J-1850*
G01*
G75*
G03X219785Y393581I-681J-32739*
G01*
G75*
G02X219319Y393587I-7J15731*
G01*
G75*
G02X218965Y393610I161J5341*
G01*
G75*
G02X218704Y393643I433J4522*
G01*
G75*
G02X218630Y393692I16J106*
G01*
G75*
G02X218626Y393801I94J58*
G01*
G75*
G02X218721Y393895I192J-100*
G01*
G75*
G02X218924Y393958I298J-596*
G01*
G75*
G02X219206Y393979I291J-2022*
G01*
G75*
G03X219352Y393988I-6J1281*
G01*
G75*
G03X219487Y394014I-116J980*
G01*
G75*
G03X219594Y394051I-193J733*
G01*
G75*
G03X219646Y394095I-45J104*
G01*
G75*
G03X219592Y394193I-55J34*
G01*
G75*
G03X219238Y394161I-19J-1724*
G01*
G75*
G03X218801Y394040I593J-3004*
G01*
G75*
G03X218531Y393875I262J-732*
G01*
X218847Y393097D02*
G75*
G03X218837Y393050I60J-37D01*
G01*
G75*
G03X218855Y392974I426J59*
G01*
G75*
G03X218893Y392886I561J188*
G01*
G75*
G03X218946Y392797I723J378*
G01*
G75*
G03X219060Y392682I394J276*
G01*
G75*
G03X219200Y392618I235J327*
G01*
G75*
G03X219418Y392588I257J1052*
G01*
G75*
G03X219834Y392581I409J11775*
G01*
G75*
G03X220128Y392585I4J9706*
G01*
G75*
G03X220401Y392598I-220J7283*
G01*
G75*
G03X220628Y392617I-481J7169*
G01*
G75*
G03X220729Y392641I-39J386*
G01*
G75*
G03X220847Y392730I-98J255*
G01*
G75*
G03X220879Y392853I-128J99*
G01*
G75*
G03X220812Y392981I-220J-33*
G01*
G75*
G03X220662Y393078I-330J-349*
G01*
G75*
G03X220342Y393149I-378J-943*
G01*
G75*
G03X219673Y393172I-826J-14143*
G01*
G75*
G03X218976Y393170I-288J-26763*
G01*
G75*
G03X218847Y393097I2J-155*
G01*
X220004Y394116D02*
G75*
G03X220044Y393949I715J81D01*
G01*
G75*
G03X220119Y393864I147J54*
G01*
G75*
G03X220268Y393818I199J383*
G01*
G75*
G03X220652Y393781I1293J11270*
G01*
G75*
G02X221170Y393700I-289J-3545*
G01*
G75*
G02X221473Y393544I-159J-683*
G01*
G75*
G02X221634Y393283I-344J-393*
G01*
G75*
G02X221687Y392872I-1573J-409*
G01*
G75*
G02X221676Y392613I-3025J-2*
G01*
G75*
G02X221637Y392446I-607J53*
G01*
G75*
G02X221559Y392317I-403J154*
G01*
G75*
G02X221423Y392188I-761J666*
G01*
G75*
G02X221226Y392075I-474J602*
G01*
G75*
G02X220987Y392015I-372J965*
G01*
G75*
G02X220611Y391987I-430J3283*
G01*
G75*
G02X219842Y391981I-769J46886*
G01*
G75*
G02X218741Y392007I-5J22430*
G01*
G75*
G02X218330Y392145I39J804*
G01*
G75*
G02X218137Y392454I252J371*
G01*
G75*
G02X218087Y393169I5060J716*
G01*
G75*
G02X218126Y393815I5317*
G01*
G75*
G02X218276Y394129I546J-67*
G01*
G75*
G02X218586Y394293I404J-389*
G01*
G75*
G02X219238Y394365I935J-5503*
G01*
X219972Y394402*
X220004Y394116*
X221012Y393274D02*
G75*
G02X221141Y393115I-151J-254D01*
G01*
G75*
G02X221189Y392839I-871J-294*
G01*
G75*
G02X221152Y392573I-849J-17*
G01*
G75*
G02X221029Y392441I-197J61*
G01*
G75*
G02X220921Y392417I-135J350*
G01*
G75*
G02X220615Y392398I-1052J14573*
G01*
G75*
G02X220247Y392385I-642J12571*
G01*
G75*
G02X219841Y392381I-402J18617*
G01*
G75*
G02X219092Y392399J15503*
G01*
G75*
G02X218770Y392483I39J806*
G01*
G75*
G02X218627Y392664I121J242*
G01*
G75*
G02X218605Y392999I1015J235*
G01*
X218637Y393331*
X219737Y393354*
G75*
G02X220180Y393356I279J-12929*
G01*
G75*
G02X220572Y393341I-104J-7857*
G01*
G75*
G02X220889Y393315I-481J-7697*
G01*
G75*
G02X221012Y393274I-31J-302*
G01*
X223289Y393917D02*
G75*
G03X223143Y393779I1103J-1312D01*
G01*
G75*
G03X223053Y393654I432J-406*
G01*
G75*
G03X223010Y393530I360J-194*
G01*
G75*
G03X223006Y393392I475J-82*
G01*
X223037Y393131*
X224336Y393081*
G75*
G02X225110Y393046I-2286J-59069*
G01*
G75*
G02X225435Y393008I-131J-2541*
G01*
G75*
G02X225598Y392945I-83J-459*
G01*
G75*
G02X225672Y392837I-86J-139*
G01*
G75*
G02X225645Y392658I-270J-51*
G01*
G75*
G02X225510Y392510I-350J183*
G01*
G75*
G02X225275Y392413I-379J584*
G01*
G75*
G02X224968Y392381I-306J1456*
G01*
G75*
G03X224822Y392373I2J-1475*
G01*
G75*
G03X224699Y392351I78J-789*
G01*
G75*
G03X224611Y392319I126J-481*
G01*
G75*
G03X224612Y392242I18J-39*
G01*
G75*
G03X224707Y392210I235J543*
G01*
G75*
G03X224840Y392188I216J889*
G01*
G75*
G03X224997Y392181I156J1702*
G01*
G75*
G03X225384Y392262I0J964*
G01*
G75*
G03X225743Y392496I-526J1198*
G01*
G75*
G03X225998Y392825I-835J910*
G01*
G75*
G03X226087Y393181I-668J355*
G01*
G75*
G03X226067Y393348I-717J0*
G01*
G75*
G03X226009Y393505I-680J-163*
G01*
G75*
G03X225905Y393665I-836J-431*
G01*
G75*
G03X225747Y393841I-1723J-1387*
G01*
G75*
G03X225515Y394046I-1815J-1815*
G01*
G75*
G03X225334Y394137I-316J-404*
G01*
G75*
G03X225087Y394173I-274J-999*
G01*
G75*
G03X224504Y394181I-584J-22799*
G01*
G75*
G03X223966Y394173I1J-18514*
G01*
G75*
G03X223694Y394139I45J-1489*
G01*
G75*
G03X223498Y394064I143J-661*
G01*
G75*
G03X223289Y393917I733J-1266*
G01*
X223845Y393720D02*
G75*
G03X223727Y393627I89J-234D01*
G01*
G75*
G03X223754Y393546I44J-30*
G01*
G75*
G03X224024Y393494I320J927*
G01*
G75*
G03X224537Y393481I510J9994*
G01*
G75*
G03X225033Y393494I4J9096*
G01*
G75*
G03X225313Y393546I-61J1108*
G01*
G75*
G03X225351Y393625I-18J57*
G01*
G75*
G03X225262Y393714I-149J-59*
G01*
G75*
G03X225051Y393760I-238J-589*
G01*
G75*
G03X224556Y393771I-548J-13046*
G01*
G75*
G03X224061Y393764I-53J-12867*
G01*
G75*
G03X223845Y393720I24J-666*
G01*
X225570Y393893D02*
G75*
G02X225619Y393843I-80J-128D01*
G01*
G75*
G02X225655Y393763I-313J-188*
G01*
G75*
G02X225674Y393667I-424J-131*
G01*
G75*
G02X225670Y393569I-443J-35*
G01*
G75*
G02X225610Y393432I-274J39*
G01*
G75*
G02X225493Y393361I-158J130*
G01*
G75*
G02X225241Y393335I-266J1324*
G01*
G75*
G02X224488Y393331I-752J65246*
G01*
G75*
G02X223796Y393335I-15J48394*
G01*
G75*
G02X223512Y393361I29J1938*
G01*
G75*
G02X223370Y393419I55J337*
G01*
G75*
G02X223302Y393524I97J137*
G01*
G75*
G02X223344Y393735I278J54*
G01*
G75*
G02X223527Y393879I312J-208*
G01*
G75*
G02X223898Y393958I460J-1241*
G01*
G75*
G02X224531Y393979I620J-9211*
G01*
G75*
G02X224888Y393972I-27J-10324*
G01*
G75*
G02X225210Y393953I-245J-6924*
G01*
G75*
G02X225476Y393926I-637J-7573*
G01*
G75*
G02X225570Y393893I-27J-224*
G01*
X225751Y394281D02*
G75*
G02X225990Y394128I-285J-706D01*
G01*
G75*
G02X226157Y393897I-534J-563*
G01*
G75*
G02X226256Y393575I-1035J-491*
G01*
G75*
G02X226287Y393150I-2852J-422*
G01*
G75*
G02X226276Y392816I-5202J-2*
G01*
G75*
G02X226237Y392615I-796J50*
G01*
G75*
G02X226153Y392455I-533J178*
G01*
G75*
G02X225994Y392273I-1375J1034*
G01*
G75*
G02X225804Y392109I-1193J1193*
G01*
G75*
G02X225637Y392026I-317J428*
G01*
G75*
G02X225416Y391989I-262J895*
G01*
G75*
G02X224994Y391981I-412J9806*
G01*
X224287*
Y392281*
G75*
G02X224299Y392457I1326J-3*
G01*
G75*
G02X224344Y392536I119J-16*
G01*
G75*
G02X224440Y392572I107J-140*
G01*
G75*
G02X224674Y392581I239J-3463*
G01*
G75*
G03X224836Y392591I1J1227*
G01*
G75*
G03X224987Y392623I-133J1005*
G01*
G75*
G03X225111Y392671I-222J755*
G01*
G75*
G03X225187Y392731I-100J205*
G01*
G75*
G03X225181Y392806I-42J35*
G01*
G75*
G03X225076Y392855I-131J-146*
G01*
G75*
G03X224777Y392876I-327J-2482*
G01*
G75*
G03X224049Y392881I-741J-63288*
G01*
X222787*
Y393423*
G75*
G02X222797Y393727I4631J-4*
G01*
G75*
G02X222833Y393907I674J-44*
G01*
G75*
G02X222911Y394040I391J-137*
G01*
G75*
G02X223050Y394173I761J-656*
G01*
G75*
G02X223239Y394284I497J-632*
G01*
G75*
G02X223458Y394344I351J-846*
G01*
G75*
G02X223789Y394371I372J-2543*
G01*
G75*
G02X224425Y394374I464J-29460*
G01*
G75*
G02X224867Y394365I-86J-15632*
G01*
G75*
G02X225273Y394344I-377J-11326*
G01*
G75*
G02X225612Y394316I-815J-11616*
G01*
G75*
G02X225751Y394281I-50J-504*
G01*
X226242Y414285D02*
G75*
G02X226517Y414106I-321J-794D01*
G01*
G75*
G02X226810Y413773I-1939J-2004*
G01*
G75*
G02X227067Y413367I-2495J-1863*
G01*
G75*
G02X227235Y412957I-1979J-1050*
G01*
G75*
G02X227746Y410635I-15582J-4646*
G01*
G75*
G02X228069Y407631I-41298J-5958*
G01*
G75*
G02X228181Y404458I-44498J-3162*
G01*
G75*
G02X228043Y401581I-30260J7*
G01*
G75*
G02X227906Y400338I-42055J4033*
G01*
G75*
G02X227757Y399413I-13474J1695*
G01*
G75*
G02X227581Y398694I-7993J1573*
G01*
G75*
G02X227360Y398103I-4123J1205*
G01*
G75*
G02X227169Y397772I-1938J895*
G01*
G75*
G02X226936Y397509I-1259J882*
G01*
G75*
G02X226685Y397338I-763J852*
G01*
G75*
G02X226441Y397281I-244J487*
G01*
G75*
G03X226340Y397263J-296*
G01*
G75*
G03X226217Y397207I297J-818*
G01*
G75*
G03X226093Y397126I485J-877*
G01*
G75*
G03X225987Y397031I522J-689*
G01*
G75*
G02X225839Y396901I-741J693*
G01*
G75*
G02X225691Y396827I-304J424*
G01*
G75*
G02X225496Y396791I-249J798*
G01*
G75*
G02X225187Y396781I-304J4685*
G01*
G75*
G02X224676Y396835J2432*
G01*
G75*
G02X224382Y397010I111J520*
G01*
G75*
G02X224230Y397348I507J432*
G01*
G75*
G02X224187Y397956I4254J609*
G01*
G75*
G02X224194Y398233I5305J-4*
G01*
G75*
G02X224216Y398478I3219J-168*
G01*
G75*
G02X224247Y398673I3293J-423*
G01*
G75*
G02X224287Y398731I85J-16*
G01*
G75*
G03X224401Y398934I-126J204*
G01*
G75*
G03X224392Y400100I-50890J188*
G01*
G75*
G03X224348Y401220I-28845J-554*
G01*
G75*
G03X224231Y401663I-1136J-66*
G01*
G75*
G03X223885Y402133I-1538J-768*
G01*
G75*
G03X223456Y402354I-582J-604*
G01*
G75*
G03X222960Y402307I-166J-893*
G01*
G75*
G03X222421Y401998I763J-1959*
G01*
G75*
G02X221396Y401198I-81718J103483*
G01*
G75*
G02X220496Y400511I-46543J60161*
G01*
G75*
G02X219694Y399913I-172811J230375*
G01*
G75*
G02X219598Y399881I-96J130*
G01*
G75*
G03X219556Y399870I1J-91*
G01*
G75*
G03X219501Y399837I202J-398*
G01*
G75*
G03X219442Y399789I319J-456*
G01*
G75*
G03X219389Y399733I422J-449*
G01*
G75*
G02X219257Y399609I-560J463*
G01*
G75*
G02X219057Y399481I-1215J1677*
G01*
G75*
G02X218682Y399278I-5613J9930*
G01*
G75*
G02X217569Y398705I-241887J468609*
G01*
G75*
G02X217097Y398471I-8817J17175*
G01*
G75*
G02X216644Y398263I-6650J13874*
G01*
G75*
G02X216258Y398100I-5891J13386*
G01*
G75*
G02X216062Y398042I-386J946*
G01*
G75*
G02X215874Y398023I-201J1078*
G01*
G75*
G02X215549Y398025I-111J8470*
G01*
G75*
G02X215172Y398043I250J9520*
G01*
G75*
G02X214791Y398075I669J10183*
G01*
G75*
G02X214264Y398138I1672J16119*
G01*
G75*
G02X213970Y398202I257J1875*
G01*
G75*
G02X213765Y398295I252J832*
G01*
G75*
G02X213572Y398444I616J994*
G01*
G75*
G02X213443Y398588I929J968*
G01*
G75*
G02X213354Y398731I603J472*
G01*
G75*
G02X213304Y398881I606J287*
G01*
G75*
G02X213287Y399046I787J166*
G01*
G75*
G02X213343Y399330I744*
G01*
G75*
G02X213501Y399496I296J-122*
G01*
G75*
G02X213772Y399544I222J-465*
G01*
G75*
G02X214174Y399469I-218J-2257*
G01*
G75*
G03X214365Y399420I857J3015*
G01*
G75*
G03X214559Y399385I652J3020*
G01*
G75*
G03X214730Y399365I400J2658*
G01*
G75*
G03X214837Y399369I39J440*
G01*
G75*
G03X215154Y399463I-197J1244*
G01*
G75*
G03X215745Y399742I-6409J14342*
G01*
G75*
G03X216357Y400066I-6229J12519*
G01*
G75*
G03X216837Y400364I-3037J5411*
G01*
G75*
G03X217970Y401212I-10113J14699*
G01*
G75*
G03X219160Y402237I-16989J20935*
G01*
G75*
G03X220190Y403222I-20836J22807*
G01*
G75*
G03X220551Y403757I-1205J1203*
G01*
G75*
G03X220621Y403950I-1735J740*
G01*
G75*
G03X220637Y404084I-371J113*
G01*
G75*
G03X220607Y404220I-417J-23*
G01*
G75*
G03X220514Y404418I-2166J-895*
G01*
G75*
G03X220270Y404756I-1322J-698*
G01*
G75*
G03X219520Y405519I-32167J-30869*
G01*
G75*
G03X218715Y406309I-66460J-66914*
G01*
G75*
G03X218537Y406381I-178J-183*
G01*
G75*
G02X218491Y406394J83*
G01*
G75*
G02X218350Y406491I3746J5679*
G01*
G75*
G02X218183Y406612I2857J4089*
G01*
G75*
G02X218000Y406756I4956J6502*
G01*
G75*
G03X217811Y406906I-10356J-12837*
G01*
G75*
G03X217625Y407050I-8960J-11426*
G01*
G75*
G03X217464Y407170I-8043J-10618*
G01*
G75*
G03X217374Y407231I-792J-1073*
G01*
G75*
G02X217268Y407307I471J769*
G01*
G75*
G02X216943Y407580I37254J44552*
G01*
G75*
G02X216560Y407909I27996J32972*
G01*
G75*
G02X216136Y408281I43737J50333*
G01*
G75*
G03X215713Y408649I-24286J-27491*
G01*
G75*
G03X215330Y408970I-15023J-17525*
G01*
G75*
G03X215003Y409235I-20731J-25271*
G01*
G75*
G03X214899Y409295I-254J-318*
G01*
G75*
G02X214704Y409417I238J600*
G01*
G75*
G02X214453Y409670I2281J2506*
G01*
G75*
G02X214202Y409983I2867J2557*
G01*
G75*
G02X213996Y410309I2666J1917*
G01*
G75*
G02X213839Y410722I1369J758*
G01*
G75*
G02X213781Y411211I2307J521*
G01*
G75*
G02X213823Y411655I2050J28*
G01*
G75*
G02X213974Y411919I480J-100*
G01*
G75*
G03X214054Y412019I-261J288*
G01*
G75*
G03X214124Y412172I-1010J559*
G01*
G75*
G03X214180Y412357I-1363J516*
G01*
G75*
G03X214215Y412556I-1709J396*
G01*
G75*
G02X214258Y412807I2065J-231*
G01*
G75*
G02X214328Y412996I812J-194*
G01*
G75*
G02X214443Y413165I764J-395*
G01*
G75*
G02X214626Y413352I1729J-1502*
G01*
G75*
G02X214855Y413540I1822J-1985*
G01*
G75*
G02X215035Y413631I362J-496*
G01*
G75*
G02X215259Y413670I268J-858*
G01*
G75*
G02X215679Y413681I424J-8800*
G01*
G75*
G02X215962Y413674I-7J-5930*
G01*
G75*
G02X216238Y413654I-254J-5393*
G01*
G75*
G02X216473Y413624I-476J-4748*
G01*
G75*
G02X216605Y413589I-88J-589*
G01*
G75*
G02X216895Y413412I-377J-947*
G01*
G75*
G02X218199Y412276I-169264J-195633*
G01*
G75*
G02X219803Y410850I-98045J-111835*
G01*
G75*
G02X221816Y409019I-254204J-281537*
G01*
G75*
G03X222470Y408429I36897J40278*
G01*
G75*
G03X223045Y407932I20111J22685*
G01*
G75*
G03X223544Y407515I45751J54272*
G01*
G75*
G03X223641Y407481I96J117*
G01*
G75*
G03X223709Y407512J90*
G01*
G75*
G03X223755Y407596I-164J143*
G01*
G75*
G03X223780Y407752I-705J192*
G01*
G75*
G03X223787Y408011I-4922J257*
G01*
G75*
G03X223780Y408220I-3304J6*
G01*
G75*
G03X223760Y408413I-2371J-156*
G01*
G75*
G03X223731Y408569I-2112J-306*
G01*
G75*
G03X223696Y408635I-136J-30*
G01*
G75*
G02X223657Y408702I114J109*
G01*
G75*
G02X223617Y408864I2552J719*
G01*
G75*
G02X223582Y409063I2799J596*
G01*
G75*
G02X223558Y409281I3919J550*
G01*
G75*
G03X223531Y409544I-8666J-735*
G01*
G75*
G03X223489Y409889I-25190J-2927*
G01*
G75*
G03X223439Y410253I-26815J-3471*
G01*
G75*
G03X223389Y410581I-17730J-2539*
G01*
G75*
G02X223308Y411277I7869J1274*
G01*
G75*
G02X223319Y411817I2868J210*
G01*
G75*
G02X223422Y412242I1763J-204*
G01*
G75*
G02X223621Y412580I1093J-415*
G01*
G75*
G03X223729Y412729I-959J809*
G01*
G75*
G03X223814Y412892I-1066J657*
G01*
G75*
G03X223869Y413054I-1006J431*
G01*
G75*
G03X223887Y413198I-564J144*
G01*
G75*
G02X223939Y413481I799J-1*
G01*
G75*
G02X224093Y413778I1341J-507*
G01*
G75*
G02X224321Y414043I1282J-871*
G01*
G75*
G02X224590Y414232I827J-893*
G01*
G75*
G02X224899Y414329I433J-835*
G01*
G75*
G02X225403Y414370I666J-5073*
G01*
G75*
G02X225911Y414361I164J-5077*
G01*
G75*
G02X226242Y414285I-74J-1074*
G01*
X227537Y393472D02*
G75*
G03X227542Y392855I35527J9D01*
G01*
G75*
G03X227565Y392546I2741J47*
G01*
G75*
G03X227609Y392382I637J84*
G01*
G75*
G03X227687Y392331I78J32*
G01*
G75*
G03X227765Y392380J86*
G01*
G75*
G03X227813Y392534I-543J255*
G01*
G75*
G03X227844Y392822I-2351J403*
G01*
G75*
G03X227865Y393374I-26658J1285*
G01*
G75*
G03X227877Y394100I-30466J842*
G01*
G75*
G03X227849Y394457I-2228J8*
G01*
G75*
G03X227779Y394620I-352J-56*
G01*
G75*
G03X227662Y394656I-83J-65*
G01*
G75*
G03X227601Y394588I29J-87*
G01*
G75*
G03X227565Y394362I2168J-459*
G01*
G75*
G03X227543Y394014I4229J-448*
G01*
G75*
G03X227537Y393472I23333J-542*
G01*
X228041Y394857D02*
G75*
G02X228061Y394757I-282J-109D01*
G01*
G75*
G02X228069Y394365I-32430J-913*
G01*
G75*
G02X228072Y393901I-21123J-340*
G01*
G75*
G02X228065Y393376I-34432J176*
G01*
X228037Y392031*
X227337*
Y394931*
X227663Y394962*
G75*
G02X227804Y394967I108J-1105*
G01*
G75*
G02X227917Y394949I-16J-476*
G01*
G75*
G02X227996Y394912I-73J-262*
G01*
G75*
G02X228041Y394857I-67J-98*
G01*
X229959Y394089D02*
G75*
G03X229687Y393948I479J-1256D01*
G01*
G75*
G03X229513Y393770I339J-506*
G01*
G75*
G03X229419Y393530I564J-361*
G01*
G75*
G03X229390Y393198I1755J-319*
G01*
G75*
G03X229479Y392687I1581J11*
G01*
G75*
G03X229729Y392380I548J192*
G01*
G75*
G03X230211Y392222I591J990*
G01*
G75*
G03X231096Y392181I881J9289*
G01*
G75*
G02X231669Y392175I-5J-30328*
G01*
G75*
G02X231884Y392146I-18J-925*
G01*
G75*
G02X232002Y392071I-58J-224*
G01*
G75*
G02X232090Y391922I-391J-331*
G01*
G75*
G03X232137Y391827I549J209*
G01*
G75*
G03X232196Y391752I320J193*
G01*
G75*
G03X232257Y391709I161J166*
G01*
G75*
G03X232313Y391706I31J67*
G01*
G75*
G03X232371Y391770I-29J85*
G01*
G75*
G03X232407Y391965I-1576J394*
G01*
G75*
G03X232430Y392261I-3134J391*
G01*
G75*
G03X232437Y392707I-15096J436*
G01*
G75*
G03X232430Y393277I-22907J1*
G01*
G75*
G03X232399Y393555I-1629J-39*
G01*
G75*
G03X232328Y393743I-606J-121*
G01*
G75*
G03X232194Y393923I-840J-484*
G01*
G75*
G03X232025Y394067I-740J-698*
G01*
G75*
G03X231856Y394141I-283J-415*
G01*
G75*
G03X231604Y394173I-285J-1241*
G01*
G75*
G03X231076Y394181I-538J-19326*
G01*
G75*
G03X230723Y394174I10J-9284*
G01*
G75*
G03X230386Y394154I290J-7699*
G01*
G75*
G03X230103Y394124I579J-7023*
G01*
G75*
G03X229959Y394089I74J-613*
G01*
X230070Y393615D02*
G75*
G03X229928Y393409I362J-400D01*
G01*
G75*
G03X229889Y393154I564J-217*
G01*
G75*
G03X229960Y392908I589J38*
G01*
G75*
G03X230126Y392728I442J242*
G01*
G75*
G03X230280Y392656I330J503*
G01*
G75*
G03X230477Y392613I354J1152*
G01*
G75*
G03X230740Y392595I280J2147*
G01*
G75*
G03X231101Y392601I67J7472*
G01*
X231837Y392631*
X231869Y393077*
G75*
G03X231848Y393440I-1414J101*
G01*
G75*
G03X231717Y393647I-326J-61*
G01*
G75*
G03X231441Y393753I-335J-459*
G01*
G75*
G03X230900Y393781I-540J-5279*
G01*
G75*
G03X230590Y393771I7J-5332*
G01*
G75*
G03X230361Y393742I96J-1669*
G01*
G75*
G03X230191Y393691I183J-919*
G01*
G75*
G03X230070Y393615I156J-381*
G01*
X231967Y393895D02*
G75*
G02X232025Y393820I-75J-118D01*
G01*
G75*
G02X232059Y393669I-805J-260*
G01*
G75*
G02X232074Y393444I-1757J-230*
G01*
G75*
G02X232067Y393122I-7191J-12*
G01*
X232037Y392431*
X231062Y392402*
G75*
G02X230235Y392399I-476J16259*
G01*
G75*
G02X229896Y392490I16J730*
G01*
G75*
G02X229735Y392708I159J286*
G01*
G75*
G02X229687Y393164I2135J457*
G01*
G75*
G02X229696Y393394I2999J-4*
G01*
G75*
G02X229722Y393606I2274J-174*
G01*
G75*
G02X229760Y393780I1913J-330*
G01*
G75*
G02X229807Y393861I174J-46*
G01*
G75*
G02X230016Y393953I224J-224*
G01*
G75*
G02X230860Y393979I1298J-28021*
G01*
G75*
G02X231693Y393978I373J-23146*
G01*
G75*
G02X231967Y393895I-11J-531*
G01*
X232446Y394170D02*
G75*
G02X232548Y394003I-386J-349D01*
G01*
G75*
G02X232604Y393778I-950J-356*
G01*
G75*
G02X232631Y393413I-3270J-423*
G01*
G75*
G02X232637Y392695I-41018J-696*
G01*
Y391431*
X232291*
G75*
G02X232107Y391441I-1J1643*
G01*
G75*
G02X232000Y391478I29J257*
G01*
G75*
G02X231933Y391552I95J152*
G01*
G75*
G02X231887Y391681I545J269*
G01*
G75*
G03X231813Y391826I-331J-77*
G01*
G75*
G03X231686Y391904I-188J-163*
G01*
G75*
G03X231429Y391943I-335J-1331*
G01*
G75*
G03X230699Y391981I-3188J-55081*
G01*
G75*
G02X229787Y392053I579J13140*
G01*
G75*
G02X229411Y392213I81J712*
G01*
G75*
G02X229233Y392533I320J387*
G01*
G75*
G02X229187Y393234I5266J701*
G01*
G75*
G02X229194Y393670I12267J-3*
G01*
G75*
G02X229228Y393884I911J-33*
G01*
G75*
G02X229304Y394030I384J-107*
G01*
G75*
G02X229450Y394173I733J-602*
G01*
G75*
G02X229646Y394285I478J-609*
G01*
G75*
G02X229880Y394346I369J-942*
G01*
G75*
G02X230246Y394374I422J-3117*
G01*
G75*
G02X230985Y394381I753J-42333*
G01*
G75*
G02X231745Y394375I-8J-49954*
G01*
G75*
G02X232087Y394348I-42J-2688*
G01*
G75*
G02X232291Y394286I-101J-704*
G01*
G75*
G02X232446Y394170I-214J-452*
G01*
X238483Y397707D02*
G75*
G03X238359Y397387I2039J-976D01*
G01*
G75*
G03X238291Y397067I1820J-549*
G01*
G75*
G03X238259Y396615I4595J-559*
G01*
G75*
G03X238246Y395764I49678J-1161*
G01*
G75*
G03X238245Y394822I83949J-541*
G01*
G75*
G03X238272Y394457I2750J16*
G01*
G75*
G03X238342Y394234I687J94*
G01*
G75*
G03X238487Y394030I811J419*
G01*
G75*
G03X238874Y393741I996J932*
G01*
G75*
G03X239354Y393589I720J1443*
G01*
G75*
G03X240243Y393495I1521J10127*
G01*
G75*
G03X243237Y393317I44613J723555*
G01*
G75*
G03X244068Y393302I590J10197*
G01*
G75*
G03X244770Y393366I-126J5318*
G01*
G75*
G03X245317Y393497I-552J3504*
G01*
G75*
G03X245656Y393698I-281J859*
G01*
G75*
G03X245764Y393954I-235J250*
G01*
G75*
G03X245621Y394118I-169J-3*
G01*
G75*
G03X244923Y394178I-766J-4832*
G01*
G75*
G03X242462Y394204I-5564J-398372*
G01*
X239037Y394231*
X238980Y396231*
G75*
G03X238956Y397000I-247509J-7219*
G01*
G75*
G03X238933Y397652I-128899J-4107*
G01*
G75*
G03X238912Y398235I-1076944J-39730*
G01*
G75*
G03X238904Y398261I-59J-2*
G01*
G75*
G03X238846Y398273I-34J-19*
G01*
G75*
G03X238750Y398177I311J-407*
G01*
G75*
G03X238626Y397986I1237J-939*
G01*
G75*
G03X238483Y397707I4746J-2613*
G01*
X239219Y408904D02*
G75*
G03X239021Y408305I2580J-1187D01*
G01*
G75*
G03X238880Y407450I9544J-2017*
G01*
G75*
G03X238805Y406483I11379J-1367*
G01*
G75*
G03X238812Y405517I11248J-396*
G01*
G75*
G03X238872Y404779I12272J630*
G01*
G75*
G03X238978Y404359I1600J179*
G01*
G75*
G03X239174Y404051I917J367*
G01*
G75*
G03X239525Y403737I1951J1827*
G01*
G75*
G03X239793Y403616I407J546*
G01*
G75*
G03X240219Y403559I594J2830*
G01*
G75*
G03X240998Y403535I837J14488*
G01*
G75*
G03X243076Y403531I2064J491785*
G01*
G75*
G03X245086Y403535I42J409888*
G01*
G75*
G03X245925Y403560I-84J17069*
G01*
G75*
G03X246413Y403617I-219J4033*
G01*
G75*
G03X246767Y403731I-241J1356*
G01*
G75*
G03X247004Y403956I-229J479*
G01*
G75*
G03X246924Y404113I-94J51*
G01*
G75*
G03X246099Y404177I-912J-6468*
G01*
G75*
G03X243412Y404204I-5600J-414956*
G01*
X239637Y404231*
X239610Y406806*
G75*
G03X239594Y407793I-92599J-983*
G01*
G75*
G03X239570Y408624I-46674J-978*
G01*
G75*
G03X239540Y409350I-228811J-8932*
G01*
G75*
G03X239510Y409379I-30J-1*
G01*
G75*
G03X239472Y409358I1J-48*
G01*
G75*
G03X239394Y409239I2284J-1570*
G01*
G75*
G03X239308Y409085I2111J-1292*
G01*
G75*
G03X239219Y408904I3787J-1965*
G01*
X253033Y409326D02*
G75*
G03X252578Y409186I1367J-5253D01*
G01*
G75*
G03X252009Y408970I4825J-13590*
G01*
G75*
G03X251435Y408734I17222J-42635*
G01*
G75*
G03X251387Y408661I31J-73*
G01*
G75*
G03X251448Y408600I62*
G01*
G75*
G03X255977Y408659I-159934J12355036*
G01*
G75*
G03X260480Y408721I-115047J8601165*
G01*
G75*
G03X260631Y408784I-3J217*
G01*
G75*
G02X260688Y408822I117J-116*
G01*
G75*
G02X260786Y408852I288J-750*
G01*
G75*
G02X260904Y408874I233J-951*
G01*
G75*
G02X261025Y408881I121J-1036*
G01*
G75*
G03X261251Y408926I1J578*
G01*
G75*
G03X261511Y409068I-594J1396*
G01*
G75*
G03X261724Y409245I-808J1190*
G01*
G75*
G03X261787Y409398I-154J152*
G01*
G75*
G03X261754Y409432I-33*
G01*
G75*
G03X260589Y409456I-15784J-725747*
G01*
G75*
G03X259272Y409474I-2091J-104177*
G01*
G75*
G03X257708Y409481I-1614J-206495*
G01*
G75*
G03X255519Y409474I55J-399426*
G01*
G75*
G03X254295Y409451I244J-44353*
G01*
G75*
G03X253515Y409407I553J-16843*
G01*
G75*
G03X253033Y409326I222J-2799*
G01*
X256287Y399985D02*
G75*
G03X255014Y399881I1913J-31378D01*
G01*
G75*
G03X253976Y399737I1456J-14298*
G01*
G75*
G03X253065Y399537I1918J-10890*
G01*
G75*
G03X252187Y399262I2692J-10150*
G01*
G75*
G03X251574Y399017I3294J-9128*
G01*
G75*
G03X250976Y398729I4011J-9107*
G01*
G75*
G03X250760Y398579I477J-913*
G01*
G75*
G03X250787Y398531I19J-21*
G01*
G75*
G02X250902Y398561I1161J-4252*
G01*
G75*
G02X251044Y398594I2335J-9485*
G01*
G75*
G02X251189Y398626I2212J-9678*
G01*
G75*
G02X251313Y398652I1117J-5178*
G01*
G75*
G03X251423Y398678I-209J1110*
G01*
G75*
G03X251524Y398714I-264J896*
G01*
G75*
G03X251605Y398754I-296J700*
G01*
G75*
G03X251644Y398792I-55J96*
G01*
G75*
G02X251686Y398826I70J-43*
G01*
G75*
G02X251782Y398854I265J-730*
G01*
G75*
G02X251903Y398874I219J-963*
G01*
G75*
G02X252037Y398881I136J-1371*
G01*
G75*
G03X252171Y398888I2J1228*
G01*
G75*
G03X252294Y398910I-101J917*
G01*
G75*
G03X252391Y398942I-172J691*
G01*
G75*
G03X252437Y398981I-37J89*
G01*
G75*
G02X252497Y399020I72J-45*
G01*
G75*
G02X252741Y399051I852J-5725*
G01*
G75*
G02X253042Y399073I501J-4776*
G01*
G75*
G02X253387Y399081I350J-8188*
G01*
G75*
G03X253731Y399088I4J8205*
G01*
G75*
G03X254032Y399110I-200J4798*
G01*
G75*
G03X254277Y399141I-608J5756*
G01*
G75*
G03X254337Y399181I-13J84*
G01*
G75*
G02X254397Y399220I72J-45*
G01*
G75*
G02X254641Y399251I852J-5725*
G01*
G75*
G02X254942Y399273I501J-4776*
G01*
G75*
G02X255287Y399281I350J-8188*
G01*
G75*
G03X255631Y399288I4J8205*
G01*
G75*
G03X255932Y399310I-200J4798*
G01*
G75*
G03X256177Y399341I-608J5756*
G01*
G75*
G03X256237Y399381I-13J84*
G01*
G75*
G02X256282Y399419I82J-51*
G01*
G75*
G02X256380Y399451I269J-659*
G01*
G75*
G02X256503Y399473I224J-894*
G01*
G75*
G02X256637Y399481I135J-1218*
G01*
G75*
G03X256771Y399488I2J1228*
G01*
G75*
G03X256894Y399510I-101J917*
G01*
G75*
G03X256991Y399542I-172J691*
G01*
G75*
G03X257037Y399581I-37J89*
G01*
G75*
G02X257077Y399619I93J-58*
G01*
G75*
G02X257150Y399651I211J-381*
G01*
G75*
G02X257241Y399673I176J-528*
G01*
G75*
G02X257337Y399681I96J-616*
G01*
G75*
G03X257433Y399688I2J626*
G01*
G75*
G03X257523Y399710I-86J550*
G01*
G75*
G03X257596Y399742I-138J413*
G01*
G75*
G03X257637Y399781I-54J96*
G01*
G75*
G02X257677Y399819I94J-59*
G01*
G75*
G02X257748Y399851I208J-367*
G01*
G75*
G02X257837Y399873I174J-509*
G01*
G75*
G02X257930Y399881I94J-585*
G01*
G75*
G03X258029Y399893J406*
G01*
G75*
G03X258135Y399929I-152J613*
G01*
G75*
G03X258230Y399983I-253J559*
G01*
G75*
G03X258300Y400046I-191J280*
G01*
G75*
G03X258373Y400143I-1143J945*
G01*
G75*
G03X258367Y400175I-19J13*
G01*
G75*
G03X258319Y400184I-35J-57*
G01*
G75*
G03X258137Y400146I1269J-6579*
G01*
G75*
G02X257944Y400115I-351J1578*
G01*
G75*
G02X257470Y400071I-4100J41574*
G01*
G75*
G02X256902Y400026I-3394J38952*
G01*
G75*
G02X256287Y399985I-3924J53841*
G01*
X263163Y406156D02*
G75*
G02X263128Y405593I-13926J604D01*
G01*
G75*
G02X263072Y405128I-6617J561*
G01*
G75*
G02X262991Y404720I-5056J783*
G01*
G75*
G02X262880Y404331I-4457J1071*
G01*
G75*
G02X262568Y403607I-4546J1528*
G01*
G75*
G02X262111Y402859I-6462J3434*
G01*
G75*
G02X261566Y402167I-6068J4223*
G01*
G75*
G02X260986Y401611I-3820J3402*
G01*
G75*
G03X260696Y401373I243152J-296990*
G01*
G75*
G03X260358Y401096I440327J-537130*
G01*
G75*
G03X260028Y400825I431559J-525222*
G01*
G75*
G03X259761Y400605I185301J-225352*
G01*
G75*
G02X259531Y400420I-7753J9402*
G01*
G75*
G02X259318Y400258I-5168J6578*
G01*
G75*
G02X259136Y400128I-5536J7558*
G01*
G75*
G02X259061Y400091I-159J227*
G01*
G75*
G03X258996Y400065I121J-383*
G01*
G75*
G03X258895Y400009I1234J-2370*
G01*
G75*
G03X258782Y399940I1514J-2610*
G01*
G75*
G03X258671Y399866I1659J-2609*
G01*
G75*
G02X258555Y399795I-621J889*
G01*
G75*
G02X258424Y399735I-624J1183*
G01*
G75*
G02X258299Y399693I-437J1100*
G01*
G75*
G02X258202Y399681I-96J356*
G01*
G75*
G03X258120Y399673I0J-464*
G01*
G75*
G03X258040Y399651I81J-449*
G01*
G75*
G03X257975Y399619I130J-344*
G01*
G75*
G03X257937Y399581I62J-102*
G01*
G75*
G02X257896Y399542I-94J57*
G01*
G75*
G02X257823Y399510I-211J381*
G01*
G75*
G02X257733Y399488I-176J528*
G01*
G75*
G02X257637Y399481I-94J619*
G01*
G75*
G03X257541Y399473I1J-624*
G01*
G75*
G03X257450Y399451I86J-550*
G01*
G75*
G03X257377Y399419I138J-413*
G01*
G75*
G03X257337Y399381I53J-96*
G01*
G75*
G02X257291Y399342I-83J50*
G01*
G75*
G02X257194Y399310I-269J659*
G01*
G75*
G02X257071Y399288I-224J894*
G01*
G75*
G02X256937Y399281I-132J1221*
G01*
G75*
G03X256803Y399273I1J-1225*
G01*
G75*
G03X256680Y399251I101J-917*
G01*
G75*
G03X256582Y399219I172J-691*
G01*
G75*
G03X256537Y399181I37J-90*
G01*
G75*
G02X256477Y399141I-73J44*
G01*
G75*
G02X256232Y399110I-852J5725*
G01*
G75*
G02X255931Y399088I-501J4776*
G01*
G75*
G02X255587Y399081I-341J8198*
G01*
G75*
G03X255242Y399073I6J-8196*
G01*
G75*
G03X254941Y399051I200J-4798*
G01*
G75*
G03X254697Y399020I608J-5756*
G01*
G75*
G03X254637Y398981I12J-85*
G01*
G75*
G02X254577Y398941I-73J44*
G01*
G75*
G02X254332Y398910I-852J5725*
G01*
G75*
G02X254031Y398888I-501J4776*
G01*
G75*
G02X253687Y398881I-341J8198*
G01*
G75*
G03X253342Y398873I6J-8196*
G01*
G75*
G03X253041Y398851I200J-4798*
G01*
G75*
G03X252797Y398820I608J-5756*
G01*
G75*
G03X252737Y398781I12J-85*
G01*
G75*
G02X252691Y398742I-83J50*
G01*
G75*
G02X252594Y398710I-269J659*
G01*
G75*
G02X252471Y398688I-224J894*
G01*
G75*
G02X252337Y398681I-132J1221*
G01*
G75*
G03X252203Y398673I1J-1225*
G01*
G75*
G03X252080Y398651I101J-917*
G01*
G75*
G03X251982Y398619I172J-691*
G01*
G75*
G03X251937Y398581I37J-90*
G01*
G75*
G02X251897Y398542I-95J58*
G01*
G75*
G02X251825Y398510I-208J367*
G01*
G75*
G02X251736Y398488I-174J511*
G01*
G75*
G02X251643Y398481I-91J583*
G01*
G75*
G03X251404Y398447I1J-884*
G01*
G75*
G03X251066Y398335I1054J-3745*
G01*
G75*
G03X250598Y398139I2900J-7565*
G01*
G75*
G03X249908Y397815I16230J-35467*
G01*
G75*
G03X248998Y397244I2080J-4325*
G01*
G75*
G03X248260Y396495I2739J-3435*
G01*
G75*
G03X247752Y395631I3153J-2438*
G01*
G75*
G03X247515Y394719I2868J-1232*
G01*
X247459Y394181*
X246942*
G75*
G03X246622Y394168I2J-4126*
G01*
G75*
G03X246454Y394119I33J-426*
G01*
G75*
G03X246317Y394007I210J-396*
G01*
G75*
G03X246116Y393741I3663J-2988*
G01*
G75*
G02X245913Y393481I-2731J1922*
G01*
G75*
G02X245749Y393348I-461J400*
G01*
G75*
G02X245533Y393265I-403J718*
G01*
G75*
G02X245109Y393178I-1912J8236*
G01*
G75*
G02X244507Y393110I-812J4541*
G01*
G75*
G02X243734Y393100I-539J11968*
G01*
G75*
G02X242555Y393144I648J33686*
G01*
G75*
G02X240387Y393269I18190J334956*
G01*
G75*
G02X239380Y393343I2365J38850*
G01*
G75*
G02X238849Y393429I319J3658*
G01*
G75*
G02X238508Y393562I303J1274*
G01*
G75*
G02X238237Y393780I529J940*
G01*
G75*
G02X238126Y393969I404J364*
G01*
G75*
G02X238069Y394233I1130J383*
G01*
G75*
G02X238044Y394685I4848J484*
G01*
G75*
G02X238042Y395716I99493J744*
G01*
G75*
G02X238052Y396824I93904J-314*
G01*
G75*
G02X238086Y397293I4101J-61*
G01*
G75*
G02X238170Y397641I1670J-218*
G01*
G75*
G02X238350Y398081I4809J-1713*
G01*
G75*
G02X238478Y398339I5520J-2569*
G01*
G75*
G02X238613Y398580I4474J-2346*
G01*
G75*
G02X238737Y398777I3912J-2335*
G01*
G75*
G02X238820Y398868I349J-234*
G01*
G75*
G03X238884Y398927I-474J576*
G01*
G75*
G03X238938Y398991I-463J444*
G01*
G75*
G03X238976Y399051I-412J305*
G01*
G75*
G03X238987Y399094I-80J43*
G01*
G75*
G02X239051Y399277I292*
G01*
G75*
G02X239501Y399820I19390J-15613*
G01*
G75*
G02X239978Y400350I10253J-8738*
G01*
G75*
G02X240370Y400717I3222J-3057*
G01*
G75*
G02X241310Y401346I3604J-4360*
G01*
G75*
G02X242345Y401769I2546J-4764*
G01*
G75*
G02X243639Y402032I2246J-7724*
G01*
G75*
G02X245398Y402179I2972J-24931*
G01*
G75*
G03X246733Y402280I-1201J24689*
G01*
G75*
G03X248133Y402457I-3128J30418*
G01*
G75*
G03X249371Y402669I-4411J29444*
G01*
G75*
G03X250037Y402874I-617J3183*
G01*
G75*
G02X250137Y402916I1487J-3481*
G01*
G75*
G02X250281Y402972I5404J-13543*
G01*
G75*
G02X250438Y403031I5756J-15008*
G01*
G75*
G02X250587Y403085I4366J-11784*
G01*
G75*
G03X251347Y403426I-1824J5090*
G01*
G75*
G03X252056Y403883I-2706J4978*
G01*
G75*
G03X252626Y404390I-2901J3841*
G01*
G75*
G03X252963Y404881I-1313J1259*
G01*
G75*
G02X253055Y405043I1068J-500*
G01*
G75*
G02X253202Y405245I3080J-2081*
G01*
G75*
G02X253374Y405452I3207J-2506*
G01*
G75*
G02X253547Y405631I2239J-1991*
G01*
G75*
G03X253774Y405869I-2327J2450*
G01*
G75*
G03X253914Y406072I-824J715*
G01*
G75*
G03X254008Y406307I-1048J557*
G01*
G75*
G03X254091Y406656I-4311J1203*
G01*
X254213Y407281*
X263212*
X263163Y406156*
X263587Y413781D02*
Y409601D01*
X262880Y409530*
G75*
G03X262537Y409487I768J-7585*
G01*
G75*
G03X262317Y409438I214J-1459*
G01*
G75*
G03X262180Y409376I175J-571*
G01*
G75*
G03X262115Y409294I82J-133*
G01*
G75*
G02X261988Y409054I-881J310*
G01*
G75*
G02X261796Y408856I-796J581*
G01*
G75*
G02X261566Y408726I-560J719*
G01*
G75*
G02X261325Y408681I-241J622*
G01*
G75*
G03X261196Y408673I1J-1146*
G01*
G75*
G03X261076Y408651I99J-870*
G01*
G75*
G03X260982Y408619I167J-651*
G01*
G75*
G03X260937Y408581I38J-91*
G01*
G75*
G02X260855Y408533I-85J52*
G01*
G75*
G02X259732Y408506I-7604J291089*
G01*
G75*
G02X258328Y408487I-1951J89069*
G01*
G75*
G02X256400Y408481I-1909J308554*
G01*
G75*
G03X253938Y408476I17J-600317*
G01*
G75*
G03X252709Y408454I193J-44979*
G01*
G75*
G03X251956Y408417I721J-22836*
G01*
G75*
G03X251731Y408334I26J-417*
G01*
G75*
G02X251646Y408277I-519J683*
G01*
G75*
G02X251553Y408229I-495J851*
G01*
G75*
G02X251464Y408195I-353J784*
G01*
G75*
G02X251396Y408184I-72J227*
G01*
G75*
G03X251091Y408113I18J-774*
G01*
G75*
G03X250632Y407873I2131J-4631*
G01*
G75*
G03X250189Y407579I2529J-4288*
G01*
G75*
G03X249910Y407307I882J-1185*
G01*
G75*
G03X249507Y406692I3333J-2623*
G01*
G75*
G03X249178Y405965I5148J-2766*
G01*
G75*
G03X248959Y405222I5215J-1940*
G01*
G75*
G03X248887Y404559I3004J-664*
G01*
Y404181*
X248380*
G75*
G03X248015Y404159I2J-3084*
G01*
G75*
G03X247731Y404091I148J-1243*
G01*
G75*
G03X247549Y403986I214J-581*
G01*
G75*
G03X247486Y403852I113J-135*
G01*
G75*
G02X247461Y403793I-84J1*
G01*
G75*
G02X247362Y403707I-750J765*
G01*
G75*
G02X247227Y403616I-826J1076*
G01*
G75*
G02X247067Y403531I-1052J1775*
G01*
G75*
G02X246704Y403416I-588J1226*
G01*
G75*
G02X246189Y403360I-742J4433*
G01*
G75*
G02X245289Y403335I-981J19589*
G01*
G75*
G02X243089Y403331I-2187J506315*
G01*
G75*
G02X240974Y403335I-20J464200*
G01*
G75*
G02X240053Y403359I100J22243*
G01*
G75*
G02X239530Y403406I278J5987*
G01*
G75*
G02X239259Y403507I87J648*
G01*
G75*
G02X238939Y403785I865J1319*
G01*
G75*
G02X238756Y404105I686J604*
G01*
G75*
G02X238659Y404589I1993J650*
G01*
G75*
G02X238606Y405506I21256J1683*
G01*
G75*
G02X238602Y406826I20001J720*
G01*
G75*
G02X238699Y407899I8926J-265*
G01*
G75*
G02X238905Y408808I6407J-973*
G01*
G75*
G02X239231Y409626I4946J-1500*
G01*
G75*
G02X239864Y410673I7011J-3519*
G01*
G75*
G02X240696Y411693I8493J-6082*
G01*
G75*
G02X241606Y412556I7101J-6578*
G01*
G75*
G02X242473Y413124I2923J-3515*
G01*
G75*
G02X243552Y413522I2296J-4557*
G01*
G75*
G02X244771Y413705I1600J-6520*
G01*
G75*
G02X246920Y413769I2257J-39815*
G01*
G75*
G02X254012Y413779I7553J-2673193*
G01*
X263587Y413781*
X356847Y393940D02*
G75*
G03X356739Y393807I389J-428D01*
G01*
G75*
G03X356676Y393650I468J-278*
G01*
G75*
G03X356645Y393419I1239J-282*
G01*
G75*
G03X356637Y393015I10135J-409*
G01*
G75*
G03X356643Y392634I12080J9*
G01*
G75*
G03X356667Y392428I1221J38*
G01*
G75*
G03X356713Y392320I291J60*
G01*
G75*
G03X356862Y392322I74J50*
G01*
G75*
G03X356907Y392437I-279J177*
G01*
G75*
G03X356931Y392657I-1364J260*
G01*
G75*
G03X356937Y393070I-14487J400*
G01*
G75*
G02X356944Y393479I12678J-3*
G01*
G75*
G02X356969Y393712I1549J-52*
G01*
G75*
G02X357017Y393850I482J-89*
G01*
G75*
G02X357095Y393920I132J-69*
G01*
G75*
G02X357354Y393970I275J-717*
G01*
G75*
G02X358137Y393979I795J-36471*
G01*
G75*
G02X358920Y393970I-12J-36498*
G01*
G75*
G02X359179Y393920I-17J-768*
G01*
G75*
G02X359258Y393850I-53J-139*
G01*
G75*
G02X359305Y393712I-435J-226*
G01*
G75*
G02X359331Y393479I-1523J-285*
G01*
G75*
G02X359337Y393070I-12671J-400*
G01*
G75*
G03X359343Y392657I14492J1*
G01*
G75*
G03X359367Y392437I1388J41*
G01*
G75*
G03X359413Y392322I325J62*
G01*
G75*
G03X359487Y392281I74J47*
G01*
G75*
G03X359561Y392319I0J91*
G01*
G75*
G03X359607Y392423I-228J162*
G01*
G75*
G03X359631Y392621I-1111J237*
G01*
G75*
G03X359637Y392985I-10857J358*
G01*
G75*
G03X359628Y393389I-9272J3*
G01*
G75*
G03X359594Y393613I-1053J-46*
G01*
G75*
G03X359520Y393777I-526J-139*
G01*
G75*
G03X359383Y393944I-926J-622*
G01*
G75*
G03X359200Y394090I-737J-736*
G01*
G75*
G03X359020Y394158I-263J-420*
G01*
G75*
G03X358746Y394180I-255J-1481*
G01*
G75*
G03X358093Y394165I493J-34862*
G01*
G75*
G03X357541Y394139I676J-20562*
G01*
G75*
G03X357217Y394100I163J-2742*
G01*
G75*
G03X357004Y394039I191J-1054*
G01*
G75*
G03X356847Y393940I200J-493*
G01*
X359620Y394149D02*
G75*
G02X359737Y393983I-528J-495D01*
G01*
G75*
G02X359801Y393794I-609J-312*
G01*
G75*
G02X359830Y393506I-1850J-335*
G01*
G75*
G02X359837Y392949I-21918J-542*
G01*
Y391981*
X359137*
Y392777*
G75*
G03X359109Y393379I-6503J4*
G01*
G75*
G03X358990Y393633I-413J-39*
G01*
G75*
G03X358737Y393752I-292J-291*
G01*
G75*
G03X358137Y393781I-603J-6394*
G01*
G75*
G03X357537Y393752I3J-6418*
G01*
G75*
G03X357284Y393633I39J-410*
G01*
G75*
G03X357165Y393379I293J-293*
G01*
G75*
G03X357137Y392777I6476J-602*
G01*
Y391981*
X356430*
X356459Y393053*
G75*
G02X356482Y393729I41816J-1122*
G01*
G75*
G02X356518Y393993I1435J-61*
G01*
G75*
G02X356594Y394141I331J-76*
G01*
G75*
G02X356737Y394251I358J-315*
G01*
G75*
G02X356910Y394306I258J-510*
G01*
G75*
G02X357237Y394345I791J-5300*
G01*
G75*
G02X357665Y394370I669J-7598*
G01*
G75*
G02X358195Y394379I554J-17701*
G01*
G75*
G02X358936Y394374I46J-46911*
G01*
G75*
G02X359256Y394346I-32J-2211*
G01*
G75*
G02X359452Y394279I-97J-604*
G01*
G75*
G02X359620Y394149I-323J-591*
G01*
X361378Y393850D02*
G75*
G03X361271Y393701I826J-710D01*
G01*
G75*
G03X361196Y393543I769J-463*
G01*
G75*
G03X361152Y393371I869J-313*
G01*
G75*
G03X361137Y393181I1230J-193*
G01*
G75*
G03X361152Y392990I1247J2*
G01*
G75*
G03X361196Y392818I913J141*
G01*
G75*
G03X361271Y392660I844J304*
G01*
G75*
G03X361378Y392511I934J561*
G01*
G75*
G03X361550Y392350I831J715*
G01*
G75*
G03X361722Y392267I301J399*
G01*
G75*
G03X361982Y392224I341J1278*
G01*
G75*
G03X362560Y392196I1433J23639*
G01*
G75*
G03X363145Y392182I880J24263*
G01*
G75*
G03X363412Y392206I15J1371*
G01*
G75*
G03X363603Y392277I-106J572*
G01*
G75*
G03X363819Y392430I-822J1389*
G01*
G75*
G03X363991Y392595I-1218J1446*
G01*
G75*
G03X364082Y392735I-359J332*
G01*
G75*
G03X364125Y392907I-526J223*
G01*
G75*
G03X364137Y393181I-3022J272*
G01*
G75*
G03X364125Y393454I-3030J2*
G01*
G75*
G03X364082Y393626I-569J-51*
G01*
G75*
G03X363991Y393766I-450J-192*
G01*
G75*
G03X363819Y393931I-1390J-1281*
G01*
G75*
G03X363603Y394084I-1038J-1236*
G01*
G75*
G03X363412Y394156I-297J-501*
G01*
G75*
G03X363145Y394179I-252J-1348*
G01*
G75*
G03X362560Y394165I295J-24277*
G01*
G75*
G03X361982Y394137I856J-23667*
G01*
G75*
G03X361722Y394094I80J-1320*
G01*
G75*
G03X361550Y394011I128J-483*
G01*
G75*
G03X361378Y393850I660J-876*
G01*
X361732Y409928D02*
G75*
G03X361577Y409831I520J-1008D01*
G01*
G75*
G03X361491Y409733I183J-245*
G01*
G75*
G03X361450Y409602I314J-172*
G01*
G75*
G03X361437Y409392I1793J-213*
G01*
G75*
G03X361765Y408325I1904J0*
G01*
G75*
G03X362813Y407077I6526J4420*
G01*
G75*
G03X364370Y405819I7868J8143*
G01*
G75*
G03X366287Y404706I9485J14127*
G01*
G75*
G03X367100Y404322I9827J19790*
G01*
G75*
G03X367749Y404065I3321J7433*
G01*
G75*
G03X368257Y403919I1615J4645*
G01*
G75*
G03X368609Y403898I234J1011*
G01*
G75*
G03X368762Y403931I-93J796*
G01*
G75*
G03X368845Y403991I-51J159*
G01*
G75*
G03X368892Y404100I-206J152*
G01*
G75*
G03X368919Y404319I-2501J422*
G01*
G75*
G03X368923Y404475I-1443J118*
G01*
G75*
G03X368910Y404624I-1210J-30*
G01*
G75*
G03X368883Y404747I-958J-148*
G01*
G75*
G03X368844Y404814I-148J-42*
G01*
G75*
G02X368802Y404888I111J111*
G01*
G75*
G02X368769Y405058I2062J499*
G01*
G75*
G02X368745Y405267I2392J376*
G01*
G75*
G02X368737Y405494I3308J228*
G01*
G75*
G03X368730Y405719I-3461J3*
G01*
G75*
G03X368708Y405918I-2197J-142*
G01*
G75*
G03X368676Y406076I-1976J-311*
G01*
G75*
G03X368637Y406131I-86J-21*
G01*
G75*
G02X368598Y406176I50J82*
G01*
G75*
G02X368567Y406274I659J269*
G01*
G75*
G02X368544Y406396I894J224*
G01*
G75*
G02X368537Y406531I1221J135*
G01*
G75*
G03X368530Y406665I-1225J2*
G01*
G75*
G03X368508Y406787I-917J-101*
G01*
G75*
G03X368476Y406885I-691J-172*
G01*
G75*
G03X368437Y406931I-90J-37*
G01*
G75*
G02X368398Y406976I50J82*
G01*
G75*
G02X368367Y407074I659J269*
G01*
G75*
G02X368344Y407196I894J224*
G01*
G75*
G02X368337Y407331I1221J135*
G01*
G75*
G03X368330Y407465I-1225J2*
G01*
G75*
G03X368308Y407587I-917J-101*
G01*
G75*
G03X368276Y407685I-691J-172*
G01*
G75*
G03X368237Y407731I-90J-37*
G01*
G75*
G02X368199Y407766I72J117*
G01*
G75*
G02X368167Y407821I244J180*
G01*
G75*
G02X368144Y407886I314J143*
G01*
G75*
G02X368137Y407951I284J66*
G01*
G75*
G03X368117Y408038I-194J0*
G01*
G75*
G03X368035Y408189I-1989J-988*
G01*
G75*
G03X367922Y408361I-2185J-1305*
G01*
G75*
G03X367788Y408536I-2674J-1909*
G01*
G75*
G03X367387Y408909I-1564J-1281*
G01*
G75*
G03X366767Y409292I-3554J-5053*
G01*
G75*
G03X366124Y409593I-2931J-5434*
G01*
G75*
G03X365667Y409681I-458J-1144*
G01*
G75*
G02X365541Y409688I-2J1090*
G01*
G75*
G02X365424Y409710I98J836*
G01*
G75*
G02X365332Y409742I163J624*
G01*
G75*
G02X365287Y409781I40J91*
G01*
G75*
G03X365240Y409820I-82J-52*
G01*
G75*
G03X365135Y409854I-318J-796*
G01*
G75*
G03X365002Y409879I-269J-1057*
G01*
G75*
G03X364856Y409891I-189J-1470*
G01*
G75*
G02X364697Y409900I61J2386*
G01*
G75*
G02X364522Y409921I326J3474*
G01*
G75*
G02X364359Y409949I472J3198*
G01*
G75*
G02X364237Y409981I214J1082*
G01*
G75*
G03X363760Y410065I-547J-1711*
G01*
G75*
G03X362930Y410072I-545J-13724*
G01*
G75*
G03X362104Y410033I330J-15609*
G01*
G75*
G03X361732Y409928I71J-963*
G01*
X361931Y393677D02*
G75*
G03X361841Y393606I153J-285D01*
G01*
G75*
G03X361781Y393508I246J-218*
G01*
G75*
G03X361748Y393371I502J-195*
G01*
G75*
G03X361737Y393181I1739J-193*
G01*
G75*
G03X361784Y392877I1008*
G01*
G75*
G03X361922Y392698I315J100*
G01*
G75*
G03X362191Y392605I330J522*
G01*
G75*
G03X362687Y392581I493J4974*
G01*
G75*
G03X363169Y392605I2J4794*
G01*
G75*
G03X363442Y392693I-69J682*
G01*
G75*
G03X363586Y392860I-167J290*
G01*
G75*
G03X363637Y393128I-681J268*
G01*
G75*
G03X363576Y393423I-744J0*
G01*
G75*
G03X363406Y393627I-429J-185*
G01*
G75*
G03X363108Y393744I-420J-631*
G01*
G75*
G03X362658Y393781I-451J-2759*
G01*
G75*
G03X362440Y393773I4J-3144*
G01*
G75*
G03X362224Y393750I210J-3018*
G01*
G75*
G03X362039Y393717I368J-2585*
G01*
G75*
G03X361931Y393677I88J-408*
G01*
X363662Y393872D02*
G75*
G02X363747Y393791I-126J-217D01*
G01*
G75*
G02X363800Y393668I-353J-225*
G01*
G75*
G02X363829Y393479I-957J-243*
G01*
G75*
G02X363837Y393179I-5577J-296*
G01*
G75*
G02X363796Y392722I-2587J0*
G01*
G75*
G02X363654Y392504I-329J59*
G01*
G75*
G02X363357Y392403I-335J498*
G01*
G75*
G02X362652Y392381I-703J11195*
G01*
G75*
G02X361917Y392395I-5J18315*
G01*
G75*
G02X361674Y392479I18J447*
G01*
G75*
G02X361563Y392671I157J220*
G01*
G75*
G02X361537Y393181I5064J510*
G01*
G75*
G02X361544Y393524I8400J-1*
G01*
G75*
G02X361570Y393730I1220J-50*
G01*
G75*
G02X361619Y393854I414J-90*
G01*
G75*
G02X361695Y393920I131J-76*
G01*
G75*
G02X361997Y393978I315J-821*
G01*
G75*
G02X362705Y393975I273J-18252*
G01*
G75*
G02X363419Y393946I-518J-21459*
G01*
G75*
G02X363662Y393872I-31J-544*
G01*
X364074Y394173D02*
G75*
G02X364221Y394028I-576J-731D01*
G01*
G75*
G02X364297Y393879I-311J-253*
G01*
G75*
G02X364330Y393657I-945J-252*
G01*
G75*
G02X364337Y393189I-14850J-459*
G01*
G75*
G02X364290Y392498I-5041J-2*
G01*
G75*
G02X364107Y392195I-444J62*
G01*
G75*
G02X363716Y392052I-452J628*
G01*
G75*
G02X362681Y391997I-1578J20174*
G01*
G75*
G02X361885Y391981I-1543J57844*
G01*
G75*
G02X361575Y392002I-25J1946*
G01*
G75*
G02X361380Y392071I79J533*
G01*
G75*
G02X361191Y392218I482J819*
G01*
G75*
G02X361054Y392384I779J778*
G01*
G75*
G02X360980Y392548I453J303*
G01*
G75*
G02X360946Y392774I1031J270*
G01*
G75*
G02X360937Y393181I9447J414*
G01*
G75*
G02X360946Y393583I9331J-8*
G01*
G75*
G02X360980Y393810I1099J-47*
G01*
G75*
G02X361052Y393973I533J-138*
G01*
G75*
G02X361183Y394135I840J-547*
G01*
G75*
G02X361366Y394274I606J-606*
G01*
G75*
G02X361564Y394345I301J-531*
G01*
G75*
G02X361880Y394374I348J-2042*
G01*
G75*
G02X362619Y394381I759J-45769*
G01*
G75*
G02X363305Y394374I0J-35161*
G01*
G75*
G02X363654Y394346I-57J-2873*
G01*
G75*
G02X363881Y394285I-138J-967*
G01*
G75*
G02X364074Y394173I-294J-730*
G01*
X365737Y393241D02*
G75*
G03X365744Y392815I13927J5D01*
G01*
G75*
G03X365769Y392565I1861J58*
G01*
G75*
G03X365813Y392415I617J102*
G01*
G75*
G03X365887Y392344I122J54*
G01*
G75*
G03X365963Y392363I24J63*
G01*
G75*
G03X366009Y392462I-157J135*
G01*
G75*
G03X366032Y392691I-1446J260*
G01*
G75*
G03X366037Y393183I-24408J480*
G01*
G75*
G03X366031Y393659I-19906J7*
G01*
G75*
G03X366008Y393906I-1750J-43*
G01*
G75*
G03X365963Y394036I-403J-67*
G01*
G75*
G03X365812Y394038I-76J-42*
G01*
G75*
G03X365767Y393916I314J-187*
G01*
G75*
G03X365743Y393683I1530J-273*
G01*
G75*
G03X365737Y393241I16880J-446*
G01*
X366261Y394911D02*
G75*
G02X366277Y394846I-124J-65D01*
G01*
G75*
G02X366278Y394434I-63719J-328*
G01*
G75*
G02X366273Y393954I-26621J44*
G01*
G75*
G02X366259Y393400I-47236J931*
G01*
X366214Y391970*
X365901Y392000*
X365587Y392031*
Y394931*
X365903Y394961*
G75*
G02X366027Y394967I121J-1244*
G01*
G75*
G02X366138Y394959I-2J-821*
G01*
G75*
G02X366225Y394941I-84J-607*
G01*
G75*
G02X366261Y394911I-17J-57*
G01*
X366687Y413531D02*
G75*
G02X367781Y413358I-5028J-35301D01*
G01*
G75*
G02X368687Y413175I-2979J-17104*
G01*
G75*
G02X369678Y412924I-5090J-22146*
G01*
G75*
G02X371087Y412520I-24648J-88698*
G01*
G75*
G02X372751Y411935I-4884J-16563*
G01*
G75*
G02X374243Y411214I-5106J-12457*
G01*
G75*
G02X375408Y410452I-5127J-9120*
G01*
G75*
G02X375996Y409761I-1243J-1650*
G01*
G75*
G02X376115Y409418I-1093J-572*
G01*
G75*
G02X376137Y409039I-1440J-272*
G01*
G75*
G02X376063Y408690I-1302J93*
G01*
G75*
G02X375900Y408434I-655J237*
G01*
G75*
G02X375692Y408278I-648J648*
G01*
G75*
G02X375375Y408129I-1405J2573*
G01*
G75*
G02X375040Y408017I-1099J2738*
G01*
G75*
G02X374769Y407981I-276J1030*
G01*
G75*
G03X374711Y407964I1J-111*
G01*
G75*
G03X374624Y407901I471J-742*
G01*
G75*
G03X374528Y407813I693J-848*
G01*
G75*
G03X374438Y407709I1016J-973*
G01*
G75*
G02X374202Y407480I-979J770*
G01*
G75*
G02X373910Y407314I-813J1092*
G01*
G75*
G02X373562Y407214I-614J1481*
G01*
G75*
G02X373162Y407181I-399J2387*
G01*
X372709*
X372770Y406556*
G75*
G02X372909Y404817I-53637J-5186*
G01*
G75*
G02X372991Y403097I-50942J-3265*
G01*
G75*
G02X373009Y401551I-43218J-1302*
G01*
G75*
G02X372957Y400365I-15324J87*
G01*
G75*
G02X372903Y399781I-34266J2848*
G01*
G75*
G02X372841Y399213I-30891J3098*
G01*
G75*
G02X372779Y398727I-27972J3331*
G01*
G75*
G02X372730Y398458I-3076J420*
G01*
G75*
G02X372577Y398027I-1924J439*
G01*
G75*
G02X372338Y397681I-1267J622*
G01*
G75*
G02X372040Y397458I-790J744*
G01*
G75*
G02X371716Y397381I-324J637*
G01*
G75*
G03X371541Y397363I1J-905*
G01*
G75*
G03X371387Y397313I125J-635*
G01*
G75*
G03X371241Y397221I325J-681*
G01*
G75*
G03X371087Y397081I982J-1230*
G01*
G75*
G02X370806Y396871I-761J728*
G01*
G75*
G02X370488Y396782I-379J743*
G01*
G75*
G02X370154Y396823I-64J868*
G01*
G75*
G02X369828Y396987I374J1149*
G01*
X369537Y397194*
Y398781*
G75*
G03X369531Y399432I-31907J16*
G01*
G75*
G03X369510Y399948I-12865J-261*
G01*
G75*
G03X369480Y400360I-19658J-1204*
G01*
G75*
G03X369437Y400431I-92J-7*
G01*
G75*
G02X369398Y400489I45J73*
G01*
G75*
G02X369367Y400706I4204J714*
G01*
G75*
G02X369344Y400974I3837J450*
G01*
G75*
G02X369337Y401281I6472J311*
G01*
G75*
G03X369330Y401587I-6471J4*
G01*
G75*
G03X369308Y401856I-3859J-182*
G01*
G75*
G03X369277Y402072I-4235J-498*
G01*
G75*
G03X369237Y402131I-85J-15*
G01*
G75*
G02X369198Y402178I49J80*
G01*
G75*
G02X369167Y402285I810J299*
G01*
G75*
G02X369144Y402422I1080J244*
G01*
G75*
G02X369137Y402572I1525J151*
G01*
Y402951*
X368212Y403011*
G75*
G02X367424Y403108I461J7037*
G01*
G75*
G02X366398Y403319I3699J20576*
G01*
G75*
G02X365347Y403591I4908J21140*
G01*
G75*
G02X364462Y403882I3230J11311*
G01*
G75*
G03X364260Y403952I-1533J-4117*
G01*
G75*
G03X364089Y403998I-645J-2024*
G01*
G75*
G03X363954Y404024I-450J-1967*
G01*
G75*
G03X363927Y404004I-4J-24*
G01*
G75*
G03X363924Y403959I322J-45*
G01*
G75*
G03X363925Y403857I6242J21*
G01*
G75*
G03X363929Y403735I6205J120*
G01*
G75*
G03X363935Y403606I8165J306*
G01*
G75*
G02X363935Y403405I-1942J-108*
G01*
G75*
G02X363896Y403325I-112J6*
G01*
G75*
G02X363804Y403288I-102J119*
G01*
G75*
G02X363551Y403281I-249J4357*
G01*
G75*
G02X363393Y403288I-2J1715*
G01*
G75*
G02X363249Y403310I111J1207*
G01*
G75*
G02X363135Y403342I203J939*
G01*
G75*
G02X363087Y403381I31J88*
G01*
G75*
G03X363044Y403419I-86J-54*
G01*
G75*
G03X362959Y403451I-239J-502*
G01*
G75*
G03X362852Y403473I-200J-700*
G01*
G75*
G03X362737Y403481I-116J-893*
G01*
G75*
G02X362622Y403488I-2J897*
G01*
G75*
G02X362515Y403510I93J722*
G01*
G75*
G02X362430Y403542I154J535*
G01*
G75*
G02X362387Y403581I44J93*
G01*
G75*
G03X362350Y403619I-108J-67*
G01*
G75*
G03X362291Y403651I-187J-274*
G01*
G75*
G03X362219Y403673I-151J-365*
G01*
G75*
G03X362145Y403681I-74J-359*
G01*
G75*
G02X361890Y403738I0J598*
G01*
G75*
G02X361222Y404065I10451J22149*
G01*
G75*
G02X360532Y404438I7519J14751*
G01*
G75*
G02X359976Y404786I4033J7065*
G01*
G75*
G02X359484Y405159I3489J5108*
G01*
G75*
G02X358927Y405656I8508J10107*
G01*
G75*
G02X358408Y406159I17103J18157*
G01*
G75*
G02X358337Y406330I171J172*
G01*
G75*
G03X358324Y406388I-136J0*
G01*
G75*
G03X358282Y406465I-567J-263*
G01*
G75*
G03X358221Y406546I-641J-419*
G01*
G75*
G03X358149Y406620I-620J-529*
G01*
G75*
G02X358065Y406725I280J309*
G01*
G75*
G02X357965Y406922I2383J1334*
G01*
G75*
G02X357868Y407159I2898J1331*
G01*
G75*
G02X357787Y407408I3232J1181*
G01*
G75*
G02X357683Y407981I3015J844*
G01*
G75*
G02X357674Y408615I4340J379*
G01*
G75*
G02X357752Y409193I3896J-229*
G01*
G75*
G02X357915Y409581I1085J-229*
G01*
G75*
G03X358117Y409894I-8477J5674*
G01*
G75*
G03X358308Y410217I-8876J5485*
G01*
G75*
G03X358501Y410569I-10535J5990*
G01*
G75*
G03X358708Y410974I-17486J9211*
G01*
G75*
G02X359244Y411768I3254J-1617*
G01*
G75*
G02X359999Y412450I3446J-3059*
G01*
G75*
G02X360956Y413001I3196J-4439*
G01*
G75*
G02X362087Y413405I3133J-6990*
G01*
G75*
G02X362964Y413562I1335J-4925*
G01*
G75*
G02X364233Y413637I1827J-20305*
G01*
G75*
G02X365568Y413631I574J-21038*
G01*
G75*
G02X366687Y413531I-384J-10651*
G01*
X368537Y394431D02*
G75*
G02X368472Y394305I-584J221D01*
G01*
G75*
G02X368391Y394230I-196J131*
G01*
G75*
G02X368274Y394192I-156J279*
G01*
G75*
G02X368090Y394181I-183J1506*
G01*
G75*
G03X367807Y394162I2J-2196*
G01*
G75*
G03X367746Y394086I9J-69*
G01*
G75*
G03X367821Y394003I94J9*
G01*
G75*
G03X368112Y393961I495J2419*
G01*
X368487Y393931*
X368537Y393131*
G75*
G03X368569Y392726I12832J806*
G01*
G75*
G03X368608Y392497I1530J144*
G01*
G75*
G03X368661Y392372I418J106*
G01*
G75*
G03X368813Y392372I76J47*
G01*
G75*
G03X368863Y392493I-328J206*
G01*
G75*
G03X368895Y392719I-1441J324*
G01*
G75*
G03X368917Y393128I-13489J919*
G01*
G75*
G02X368935Y393437I7005J-255*
G01*
G75*
G02X368966Y393708I4174J-342*
G01*
G75*
G02X369004Y393927I4761J-699*
G01*
G75*
G02X369043Y393984I85J-17*
G01*
G75*
G03X369083Y394089I-49J78*
G01*
G75*
G03X368982Y394359I-2042J-611*
G01*
G75*
G03X368844Y394616I-1964J-891*
G01*
G75*
G03X368728Y394681I-117J-73*
G01*
G75*
G03X368684Y394664I0J-65*
G01*
G75*
G03X368632Y394607I282J-311*
G01*
G75*
G03X368581Y394526I469J-357*
G01*
G75*
G03X368537Y394431I747J-399*
G01*
X369066Y394919D02*
G75*
G02X369093Y394878I-92J-93D01*
G01*
G75*
G02X369116Y394813I-451J-195*
G01*
G75*
G02X369132Y394737I-563J-156*
G01*
G75*
G02X369137Y394661I-556J-76*
G01*
G75*
G03X369148Y394585I261J1*
G01*
G75*
G03X369181Y394512I298J90*
G01*
G75*
G03X369230Y394453I246J152*
G01*
G75*
G03X369287Y394417I121J128*
G01*
G75*
G02X369396Y394304I-66J-172*
G01*
G75*
G02X369434Y394081I-662J-228*
G01*
G75*
G02X369398Y393858I-696J-4*
G01*
G75*
G02X369291Y393746I-172J57*
G01*
G75*
G03X369220Y393677I46J-118*
G01*
G75*
G03X369171Y393518I752J-318*
G01*
G75*
G03X369137Y393263I2012J-397*
G01*
G75*
G03X369116Y392860I11637J-816*
G01*
X369087Y392031*
X368387*
X368287Y393731*
X367837Y393781*
G75*
G02X367580Y393817I473J4296*
G01*
G75*
G02X367462Y393864I52J300*
G01*
G75*
G02X367406Y393943I77J115*
G01*
G75*
G02X367387Y394081I509J139*
G01*
G75*
G02X367406Y394219I529J-1*
G01*
G75*
G02X367462Y394297I133J-36*
G01*
G75*
G02X367579Y394344I169J-252*
G01*
G75*
G02X367833Y394381I724J-4131*
G01*
G75*
G03X368074Y394417I-347J3136*
G01*
G75*
G03X368207Y394468I-78J404*
G01*
G75*
G03X368286Y394549I-111J187*
G01*
G75*
G03X368337Y394681I-441J246*
G01*
G75*
G02X368381Y394802I520J-121*
G01*
G75*
G02X368448Y394883I216J-109*
G01*
G75*
G02X368548Y394933I175J-225*
G01*
G75*
G02X368695Y394960I235J-849*
G01*
G75*
G02X368815Y394967I126J-1249*
G01*
G75*
G02X368927Y394960I2J-980*
G01*
G75*
G02X369019Y394944I-87J-786*
G01*
G75*
G02X369066Y394919I-22J-94*
G01*
X370865Y393835D02*
G75*
G03X370680Y393511I754J-648D01*
G01*
G75*
G03X370628Y393144I914J-316*
G01*
G75*
G03X370718Y392780I994J52*
G01*
G75*
G03X370938Y392464I994J459*
G01*
X371239Y392163*
X372328Y392197*
G75*
G03X373111Y392247I-364J11751*
G01*
G75*
G03X373536Y392361I-131J1344*
G01*
G75*
G03X373756Y392564I-196J432*
G01*
G75*
G03X373753Y393202I-574J316*
G01*
G75*
G03X373526Y393405I-410J-230*
G01*
G75*
G03X373079Y393515I-572J-1354*
G01*
G75*
G03X372221Y393564I-1283J-14973*
G01*
G75*
G02X371535Y393588I1335J47959*
G01*
G75*
G02X371235Y393620I99J2360*
G01*
G75*
G02X371096Y393675I63J367*
G01*
G75*
G02X371057Y393764I47J73*
G01*
G75*
G02X371100Y393843I146J-27*
G01*
G75*
G02X371189Y393900I185J-192*
G01*
G75*
G02X371335Y393938I235J-604*
G01*
G75*
G02X371563Y393961I428J-3115*
G01*
G75*
G03X371745Y393980I-136J2147*
G01*
G75*
G03X371898Y394014I-176J1158*
G01*
G75*
G03X372009Y394056I-230J787*
G01*
G75*
G03X372037Y394099I-20J43*
G01*
G75*
G03X372008Y394142I-46*
G01*
G75*
G03X371915Y394165I-136J-348*
G01*
G75*
G03X371768Y394170I-102J-894*
G01*
G75*
G03X371565Y394154I153J-3199*
G01*
G75*
G03X371331Y394114I244J-2148*
G01*
G75*
G03X371149Y394052I207J-917*
G01*
G75*
G03X370999Y393962I311J-682*
G01*
G75*
G03X370865Y393835I569J-733*
G01*
X371289Y393083D02*
G75*
G03X371273Y393031I90J-56D01*
G01*
G75*
G03X371278Y392954I400J-14*
G01*
G75*
G03X371299Y392867I507J81*
G01*
G75*
G03X371336Y392783I547J189*
G01*
G75*
G03X371429Y392676I282J150*
G01*
G75*
G03X371562Y392615I211J289*
G01*
G75*
G03X371785Y392587I259J1145*
G01*
G75*
G03X372233Y392581I438J15190*
G01*
G75*
G03X372628Y392589I1J9811*
G01*
G75*
G03X372888Y392616I-79J2016*
G01*
G75*
G03X373066Y392665I-156J906*
G01*
G75*
G03X373187Y392744I-127J327*
G01*
G75*
G03X373252Y392923I-161J161*
G01*
G75*
G03X373151Y393059I-158J-12*
G01*
G75*
G03X372783Y393139I-453J-1191*
G01*
G75*
G03X372068Y393169I-939J-14062*
G01*
G75*
G03X371788Y393166I-86J-5456*
G01*
G75*
G03X371543Y393148I113J-3279*
G01*
G75*
G03X371345Y393120I383J-3420*
G01*
G75*
G03X371289Y393083I14J-81*
G01*
X372356Y394106D02*
G75*
G03X372398Y393945I574J67D01*
G01*
G75*
G03X372480Y393861I151J64*
G01*
G75*
G03X372645Y393815I226J489*
G01*
G75*
G03X373079Y393771I1763J15465*
G01*
G75*
G02X373613Y393685I-316J-3668*
G01*
G75*
G02X373922Y393524I-162J-686*
G01*
G75*
G02X374085Y393252I-361J-400*
G01*
G75*
G02X374137Y392818I-1761J-433*
G01*
G75*
G02X374125Y392566I-2685J-1*
G01*
G75*
G02X374083Y392419I-407J38*
G01*
G75*
G02X373991Y392306I-311J159*
G01*
G75*
G02X373812Y392180I-1039J1285*
G01*
G75*
G02X373582Y392075I-549J901*
G01*
G75*
G02X373313Y392016I-448J1409*
G01*
G75*
G02X372913Y391988I-475J3919*
G01*
G75*
G02X372180Y391981I-759J38465*
G01*
G75*
G02X371369Y391986I-6J58617*
G01*
G75*
G02X371030Y392014I35J2488*
G01*
G75*
G02X370826Y392081I96J637*
G01*
G75*
G02X370655Y392212I306J578*
G01*
G75*
G02X370543Y392365I561J528*
G01*
G75*
G02X370478Y392535I563J313*
G01*
G75*
G02X370446Y392772I1294J295*
G01*
G75*
G02X370437Y393167I9015J395*
G01*
G75*
G02X370446Y393579I9936J-2*
G01*
G75*
G02X370479Y393808I1120J-47*
G01*
G75*
G02X370551Y393972I534J-136*
G01*
G75*
G02X370683Y394135I838J-543*
G01*
G75*
G02X370844Y394266I710J-710*
G01*
G75*
G02X371007Y394338I302J-463*
G01*
G75*
G02X371231Y394372I273J-1046*
G01*
G75*
G02X371626Y394381I401J-8861*
G01*
G75*
G02X372079Y394375I-8J-19263*
G01*
G75*
G02X372237Y394344I-11J-478*
G01*
G75*
G02X372315Y394268I-48J-126*
G01*
G75*
G02X372356Y394106I-592J-235*
G01*
X373312Y393311D02*
G75*
G02X373428Y393270I-80J-407D01*
G01*
G75*
G02X373495Y393202I-77J-143*
G01*
G75*
G02X373528Y393085I-276J-143*
G01*
G75*
G02X373537Y392876I-2482J-207*
G01*
G75*
G02X373481Y392588I-765J0*
G01*
G75*
G02X373324Y392441I-237J96*
G01*
G75*
G02X372982Y392387I-340J1037*
G01*
G75*
G02X372087Y392401I80J33278*
G01*
X371087Y392431*
Y393331*
X372087Y393344*
G75*
G02X372487Y393345I290J-22780*
G01*
G75*
G02X372859Y393339I-88J-17328*
G01*
G75*
G02X373172Y393328I-454J-17348*
G01*
G75*
G02X373312Y393311I-41J-920*
G01*
X375622Y393881D02*
G75*
G03X375496Y393738I1115J-1113D01*
G01*
G75*
G03X375408Y393601I665J-521*
G01*
G75*
G03X375361Y393472I524J-267*
G01*
G75*
G03X375355Y393356I300J-72*
G01*
G75*
G03X375422Y393227I217J31*
G01*
G75*
G03X375562Y393155I198J211*
G01*
G75*
G03X375857Y393117I392J1889*
G01*
G75*
G03X376686Y393081I3693J74994*
G01*
G75*
G02X377460Y393046I-2286J-59069*
G01*
G75*
G02X377785Y393008I-131J-2541*
G01*
G75*
G02X377948Y392945I-83J-459*
G01*
G75*
G02X378022Y392837I-86J-139*
G01*
G75*
G02X377995Y392658I-270J-51*
G01*
G75*
G02X377861Y392510I-350J183*
G01*
G75*
G02X377626Y392413I-379J584*
G01*
G75*
G02X377318Y392381I-306J1456*
G01*
G75*
G03X377169Y392372I3J-1402*
G01*
G75*
G03X377047Y392348I73J-684*
G01*
G75*
G03X376963Y392312I109J-374*
G01*
G75*
G03X376937Y392268I26J-44*
G01*
G75*
G03X377045Y392162I106J0*
G01*
G75*
G03X377461Y392201I-49J2740*
G01*
G75*
G03X377911Y392315I-498J2902*
G01*
G75*
G03X378191Y392483I-248J731*
G01*
G75*
G03X378392Y392787I-545J580*
G01*
G75*
G03X378454Y393169I-942J349*
G01*
G75*
G03X378367Y393559I-1084J-35*
G01*
G75*
G03X378145Y393888I-962J-411*
G01*
G75*
G03X377943Y394059I-1094J-1094*
G01*
G75*
G03X377760Y394141I-301J-426*
G01*
G75*
G03X377497Y394174I-292J-1259*
G01*
G75*
G03X376887Y394181I-618J-26935*
G01*
G75*
G03X376274Y394174I8J-27207*
G01*
G75*
G03X376012Y394140I28J-1261*
G01*
G75*
G03X375830Y394057I119J-503*
G01*
G75*
G03X375622Y393881I973J-1355*
G01*
X376195Y393720D02*
G75*
G03X376078Y393627I89J-234D01*
G01*
G75*
G03X376104Y393546I44J-30*
G01*
G75*
G03X376375Y393494I320J927*
G01*
G75*
G03X376887Y393481I510J9994*
G01*
G75*
G03X377384Y393494I4J9096*
G01*
G75*
G03X377664Y393546I-61J1108*
G01*
G75*
G03X377701Y393625I-18J57*
G01*
G75*
G03X377612Y393714I-149J-59*
G01*
G75*
G03X377401Y393760I-238J-589*
G01*
G75*
G03X376906Y393771I-548J-13046*
G01*
G75*
G03X376411Y393764I-53J-12867*
G01*
G75*
G03X376195Y393720I24J-666*
G01*
X378033Y393835D02*
G75*
G02X378077Y393767I-246J-204D01*
G01*
G75*
G02X378108Y393680I-469J-220*
G01*
G75*
G02X378124Y393590I-494J-131*
G01*
G75*
G02X378119Y393510I-296J-22*
G01*
G75*
G02X378049Y393413I-140J27*
G01*
G75*
G02X377894Y393360I-221J389*
G01*
G75*
G02X377588Y393335I-340J2326*
G01*
G75*
G02X376887Y393331I-678J48517*
G01*
G75*
G02X376163Y393335I-11J53707*
G01*
G75*
G02X375869Y393360I27J2084*
G01*
G75*
G02X375722Y393418I56J356*
G01*
G75*
G02X375653Y393524I93J137*
G01*
G75*
G02X375697Y393737I278J53*
G01*
G75*
G02X375884Y393881I315J-214*
G01*
G75*
G02X376270Y393959I473J-1340*
G01*
G75*
G02X376944Y393981I680J-10870*
G01*
G75*
G02X377420Y393974I-2J-16181*
G01*
G75*
G02X377727Y393949I-87J-2981*
G01*
G75*
G02X377927Y393906I-173J-1283*
G01*
G75*
G02X378033Y393835I-63J-211*
G01*
X378372Y394135D02*
G75*
G02X378516Y393976I-791J-855D01*
G01*
G75*
G02X378593Y393822I-396J-294*
G01*
G75*
G02X378628Y393614I-849J-252*
G01*
G75*
G02X378637Y393243I-7455J-368*
G01*
G75*
G02X378633Y392984I-7397J-6*
G01*
G75*
G02X378619Y392739I-5887J209*
G01*
G75*
G02X378599Y392534I-5517J425*
G01*
G75*
G02X378575Y392435I-402J45*
G01*
G75*
G02X378428Y392246I-385J148*
G01*
G75*
G02X378150Y392102I-659J930*
G01*
G75*
G02X377765Y392011I-620J1750*
G01*
G75*
G02X377292Y391981I-472J3715*
G01*
X376637*
Y392281*
G75*
G02X376648Y392454I1365J-3*
G01*
G75*
G02X376691Y392533I126J-16*
G01*
G75*
G02X376779Y392572I103J-117*
G01*
G75*
G02X376979Y392581I200J-2211*
G01*
G75*
G03X377248Y392594I2J2607*
G01*
G75*
G03X377457Y392638I-107J1030*
G01*
G75*
G03X377593Y392705I-154J481*
G01*
G75*
G03X377637Y392791I-61J86*
G01*
G75*
G03X377604Y392827I-36*
G01*
G75*
G03X377270Y392854I-1557J-17085*
G01*
G75*
G03X376867Y392874I-644J-9052*
G01*
G75*
G03X376387Y392881I-490J-17894*
G01*
X375137*
Y393367*
G75*
G02X375149Y393604I2317J-1*
G01*
G75*
G02X375186Y393801I1195J-122*
G01*
G75*
G02X375251Y393969I906J-253*
G01*
G75*
G02X375344Y394117I766J-380*
G01*
G75*
G02X375508Y394271I594J-467*
G01*
G75*
G02X375691Y394346I264J-381*
G01*
G75*
G02X375998Y394375I330J-1867*
G01*
G75*
G02X376830Y394381I856J-66442*
G01*
G75*
G02X377627Y394375I-2J-54033*
G01*
G75*
G02X377963Y394346I-35J-2367*
G01*
G75*
G02X378176Y394275I-108J-677*
G01*
G75*
G02X378372Y394135I-431J-817*
G01*
X379837Y394081D02*
G75*
G03X379858Y394042I46J0D01*
G01*
G75*
G03X379923Y394010I157J234*
G01*
G75*
G03X380017Y393988I157J460*
G01*
G75*
G03X380129Y393981I110J855*
G01*
G75*
G02X380485Y393952I-1J-2202*
G01*
G75*
G02X380648Y393846I-40J-240*
G01*
G75*
G02X380722Y393625I-369J-246*
G01*
G75*
G02X380737Y393070I-9989J-554*
G01*
G75*
G03X380743Y392657I14492J1*
G01*
G75*
G03X380767Y392437I1388J41*
G01*
G75*
G03X380813Y392322I325J62*
G01*
G75*
G03X380887Y392281I74J47*
G01*
G75*
G03X380961Y392319I0J91*
G01*
G75*
G03X381007Y392423I-228J162*
G01*
G75*
G03X381031Y392621I-1111J237*
G01*
G75*
G03X381037Y392985I-10857J358*
G01*
G75*
G03X381028Y393385I-9148J2*
G01*
G75*
G03X380995Y393610I-1090J-47*
G01*
G75*
G03X380923Y393774I-534J-138*
G01*
G75*
G03X380792Y393935I-840J-548*
G01*
G75*
G03X380556Y394090I-493J-493*
G01*
G75*
G03X380221Y394181I-567J-1430*
G01*
G75*
G03X379931Y394186I-164J-1080*
G01*
G75*
G03X379837Y394081I12J-106*
G01*
X380974Y394173D02*
G75*
G02X381125Y394019I-524J-668D01*
G01*
G75*
G02X381200Y393856I-333J-252*
G01*
G75*
G02X381231Y393597I-1301J-285*
G01*
G75*
G02X381237Y392973I-31644J-611*
G01*
Y391981*
X380537*
Y392777*
G75*
G03X380514Y393343I-6993J2*
G01*
G75*
G03X380419Y393610I-545J-44*
G01*
G75*
G03X380222Y393741I-263J-182*
G01*
G75*
G03X379844Y393781I-379J-1785*
G01*
G75*
G02X379670Y393791I-2J1491*
G01*
G75*
G02X379588Y393830I17J140*
G01*
G75*
G02X379548Y393911I96J98*
G01*
G75*
G02X379537Y394081I1368J171*
G01*
G75*
G02X379553Y394265I1062J0*
G01*
G75*
G02X379611Y394343I107J-19*
G01*
G75*
G02X379737Y394375I135J-263*
G01*
G75*
G02X380124Y394381I389J-13707*
G01*
G75*
G02X380420Y394370I-5J-4139*
G01*
G75*
G02X380640Y394335I-94J-1327*
G01*
G75*
G02X380816Y394272I-209J-853*
G01*
G75*
G02X380974Y394173I-380J-783*
G01*
X382676Y394124D02*
G75*
G03X382676Y394037I5J-44D01*
G01*
G75*
G03X382960Y394007I917J7452*
G01*
G75*
G03X383336Y393987I543J6516*
G01*
G75*
G03X383829Y393981I488J18874*
G01*
G75*
G02X384297Y393976I-17J-24813*
G01*
G75*
G02X384717Y393963I-304J-16138*
G01*
G75*
G02X385069Y393944I-926J-20478*
G01*
G75*
G02X385179Y393920I-23J-373*
G01*
G75*
G02X385256Y393854I-54J-142*
G01*
G75*
G02X385304Y393730I-366J-214*
G01*
G75*
G02X385330Y393524I-1194J-256*
G01*
G75*
G02X385337Y393181I-8393J-335*
G01*
G75*
G02X385330Y392837I-8409J-9*
G01*
G75*
G02X385304Y392631I-1220J50*
G01*
G75*
G02X385256Y392507I-414J90*
G01*
G75*
G02X385179Y392441I-131J76*
G01*
G75*
G02X385069Y392417I-133J349*
G01*
G75*
G02X384717Y392398I-1277J20459*
G01*
G75*
G02X384297Y392385I-724J16124*
G01*
G75*
G02X383829Y392381I-464J24808*
G01*
G75*
G03X383336Y392374I10J-18881*
G01*
G75*
G03X382960Y392354I167J-6536*
G01*
G75*
G03X382676Y392324I632J-7481*
G01*
G75*
G03X382676Y392237I6J-44*
G01*
G75*
G03X382971Y392207I957J8193*
G01*
G75*
G03X383361Y392187I562J6986*
G01*
G75*
G03X383874Y392181I508J20506*
G01*
G75*
G03X384589Y392187I13J39133*
G01*
G75*
G03X384948Y392215I-55J3024*
G01*
G75*
G03X385179Y392276I-137J987*
G01*
G75*
G03X385374Y392388I-287J724*
G01*
G75*
G03X385515Y392524I-616J783*
G01*
G75*
G03X385592Y392660I-309J265*
G01*
G75*
G03X385628Y392847I-686J228*
G01*
G75*
G03X385637Y393181I-5939J328*
G01*
G75*
G03X385628Y393514I-5941J5*
G01*
G75*
G03X385592Y393701I-722J-41*
G01*
G75*
G03X385515Y393837I-386J-129*
G01*
G75*
G03X385374Y393973I-758J-647*
G01*
G75*
G03X385179Y394085I-481J-613*
G01*
G75*
G03X384948Y394146I-368J-926*
G01*
G75*
G03X384589Y394174I-414J-2996*
G01*
G75*
G03X383874Y394181I-724J-39127*
G01*
G75*
G03X383361Y394174I11J-20512*
G01*
G75*
G03X382971Y394154I172J-7007*
G01*
G75*
G03X382676Y394124I662J-8222*
G01*
X385615Y394225D02*
G75*
G02X385736Y394103I-280J-400D01*
G01*
G75*
G02X385802Y393952I-344J-239*
G01*
G75*
G02X385831Y393704I-1319J-281*
G01*
G75*
G02X385837Y393181I-21064J-515*
G01*
G75*
G02X385789Y392424I-6015J-1*
G01*
G75*
G02X385597Y392127I-405J51*
G01*
G75*
G02X385176Y392002I-448J737*
G01*
G75*
G02X383865Y391981I-1304J40766*
G01*
X382337*
Y392581*
X383544*
G75*
G03X384020Y392588I2J15024*
G01*
G75*
G03X384453Y392611I-326J10292*
G01*
G75*
G03X384811Y392643I-820J11123*
G01*
G75*
G03X384944Y392684I-38J359*
G01*
G75*
G03X385033Y392755I-153J285*
G01*
G75*
G03X385093Y392853I-246J218*
G01*
G75*
G03X385127Y392990I-502J195*
G01*
G75*
G03X385137Y393181I-1743J189*
G01*
G75*
G03X385127Y393371I-1749J1*
G01*
G75*
G03X385093Y393508I-535J-58*
G01*
G75*
G03X385033Y393606I-306J-120*
G01*
G75*
G03X384944Y393677I-243J-213*
G01*
G75*
G03X384811Y393718I-170J-319*
G01*
G75*
G03X384453Y393750I-1179J-11091*
G01*
G75*
G03X384020Y393773I-759J-10269*
G01*
G75*
G03X383544Y393781I-487J-15017*
G01*
X382337*
Y394381*
X383865*
G75*
G02X384662Y394374I-11J-48752*
G01*
G75*
G02X385131Y394349I-108J-6491*
G01*
G75*
G02X385433Y394304I-225J-2525*
G01*
G75*
G02X385615Y394225I-103J-487*
G01*
X388556Y410578D02*
G75*
G03X388388Y410464I1117J-1829D01*
G01*
G75*
G03X388304Y410372I200J-269*
G01*
G75*
G03X388276Y410275I159J-98*
G01*
G75*
G03X388293Y410153I405J-4*
G01*
G75*
G03X388875Y408928I4432J1353*
G01*
G75*
G03X389844Y407770I5874J3933*
G01*
G75*
G03X391215Y406669I6799J7061*
G01*
G75*
G03X393006Y405614I10516J15809*
G01*
G75*
G03X393670Y405290I7103J13734*
G01*
G75*
G03X394123Y405126I1239J2700*
G01*
G75*
G03X394424Y405088I282J1030*
G01*
G75*
G03X394587Y405181I-4J196*
G01*
G75*
G02X394636Y405226I106J-65*
G01*
G75*
G02X394759Y405283I791J-1529*
G01*
G75*
G02X394915Y405341I759J-1799*
G01*
G75*
G02X395086Y405391I820J-2535*
G01*
G75*
G03X395380Y405490I-481J1910*
G01*
G75*
G03X395545Y405615I-167J392*
G01*
G75*
G03X395595Y405770I-179J143*
G01*
G75*
G03X395542Y405959I-448J-23*
G01*
G75*
G02X395496Y406072I519J279*
G01*
G75*
G02X395415Y406359I14321J4202*
G01*
G75*
G02X395326Y406704I13602J3693*
G01*
G75*
G02X395237Y407081I18972J4644*
G01*
G75*
G03X394917Y408257I-13023J-2915*
G01*
G75*
G03X394539Y409140I-4944J-1594*
G01*
G75*
G03X394100Y409758I-2744J-1487*
G01*
G75*
G03X393587Y410125I-1125J-1028*
G01*
G75*
G03X392794Y410426I-3309J-7534*
G01*
G75*
G03X392033Y410617I-1857J-5780*
G01*
G75*
G03X391178Y410724I-1366J-7472*
G01*
G75*
G03X390087Y410767I-1302J-19211*
G01*
G75*
G03X389409Y410767I-358J-32093*
G01*
G75*
G03X389039Y410742I35J-3301*
G01*
G75*
G03X388785Y410685I156J-1280*
G01*
G75*
G03X388556Y410578I363J-1075*
G01*
X389637Y394687D02*
G75*
G03X389660Y394648I44D01*
G01*
G75*
G03X389747Y394611I270J513*
G01*
G75*
G03X389869Y394580I272J817*
G01*
G75*
G03X390012Y394561I273J1522*
G01*
G75*
G02X390179Y394539I-135J-1633*
G01*
G75*
G02X390294Y394501I-85J-453*
G01*
G75*
G02X390363Y394448I-90J-185*
G01*
G75*
G02Y394313I-81J-67*
G01*
G75*
G02X390294Y394260I-158J132*
G01*
G75*
G02X390179Y394222I-200J415*
G01*
G75*
G02X390012Y394200I-302J1611*
G01*
G75*
G03X389869Y394181I139J-1647*
G01*
G75*
G03X389747Y394152I155J-899*
G01*
G75*
G03X389659Y394117I191J-606*
G01*
G75*
G03Y394044I18J-36*
G01*
G75*
G03X389747Y394009I278J570*
G01*
G75*
G03X389869Y393980I276J870*
G01*
G75*
G03X390012Y393961I283J1628*
G01*
X390387Y393931*
X390416Y393106*
G75*
G03X390437Y392687I14178J496*
G01*
G75*
G03X390470Y392452I1640J109*
G01*
G75*
G03X390518Y392323I444J94*
G01*
G75*
G03X390591Y392281I73J41*
G01*
G75*
G03X390665Y392328I0J81*
G01*
G75*
G03X390709Y392478I-515J230*
G01*
G75*
G03X390731Y392756I-2243J324*
G01*
G75*
G03X390737Y393285I-25070J526*
G01*
G75*
G03X390730Y393893I-27578J0*
G01*
G75*
G03X390700Y394174I-1649J-35*
G01*
G75*
G03X390629Y394359I-565J-111*
G01*
G75*
G03X390492Y394535I-781J-469*
G01*
G75*
G03X390271Y394686I-513J-513*
G01*
G75*
G03X389974Y394776I-524J-1192*
G01*
G75*
G03X389722Y394783I-148J-832*
G01*
G75*
G03X389637Y394687I12J-96*
G01*
X390737Y394781D02*
G75*
G02X390846Y394618I-356J-356D01*
G01*
G75*
G02X390904Y394401I-796J-330*
G01*
G75*
G02X390931Y394041I-3065J-409*
G01*
G75*
G02X390937Y393281I-48477J-757*
G01*
Y391981*
X390237*
Y393770*
X389762Y393800*
X389287Y393831*
X389257Y394406*
X389227Y394981*
X389882*
G75*
G02X390225Y394972I-2J-6571*
G01*
G75*
G02X390446Y394940I-67J-1256*
G01*
G75*
G02X390604Y394880I-144J-618*
G01*
G75*
G02X390737Y394781I-276J-508*
G01*
X392478Y393850D02*
G75*
G03X392274Y393463I745J-640D01*
G01*
G75*
G03X392252Y393018I1022J-274*
G01*
G75*
G03X392415Y392612I998J164*
G01*
G75*
G03X392728Y392335I705J481*
G01*
G75*
G03X393104Y392222I491J948*
G01*
G75*
G03X393751Y392182I767J7123*
G01*
G75*
G03X394401Y392200I123J7117*
G01*
G75*
G03X394790Y392300I-85J1139*
G01*
G75*
G03X395079Y392518I-346J760*
G01*
G75*
G03X395266Y392848I-760J648*
G01*
G75*
G03X395320Y393233I-1000J336*
G01*
G75*
G03X395230Y393607I-1015J-48*
G01*
G75*
G03X395028Y393892I-852J-387*
G01*
G75*
G03X394746Y394066I-538J-557*
G01*
G75*
G03X394321Y394150I-507J-1448*
G01*
G75*
G03X393654Y394158I-429J-8074*
G01*
G75*
G03X393078Y394134I698J-23668*
G01*
G75*
G03X392820Y394094I69J-1286*
G01*
G75*
G03X392650Y394011I124J-470*
G01*
G75*
G03X392478Y393850I669J-885*
G01*
X393031Y393677D02*
G75*
G03X392941Y393606I153J-285D01*
G01*
G75*
G03X392881Y393507I246J-217*
G01*
G75*
G03X392848Y393369I509J-195*
G01*
G75*
G03X392837Y393174I1828J-197*
G01*
G75*
G03X392847Y392957I2322J0*
G01*
G75*
G03X392884Y392831I343J32*
G01*
G75*
G03X392960Y392747I200J104*
G01*
G75*
G03X393094Y392678I374J563*
G01*
G75*
G03X393406Y392605I430J1132*
G01*
G75*
G03X393854Y392584I429J4388*
G01*
G75*
G03X394291Y392607I-18J4534*
G01*
G75*
G03X394544Y392684I-69J678*
G01*
G75*
G03X394691Y392859I-146J273*
G01*
G75*
G03X394746Y393175I-1007J336*
G01*
G75*
G03X394703Y393492I-1060J19*
G01*
G75*
G03X394562Y393672I-296J-87*
G01*
G75*
G03X394307Y393753I-305J-525*
G01*
G75*
G03X393803Y393774I-524J-6313*
G01*
G75*
G03X393298Y393756I-20J-6219*
G01*
G75*
G03X393031Y393677I53J-678*
G01*
X394737Y413627D02*
G75*
G02X397210Y413222I-4221J-33579D01*
G01*
G75*
G02X399228Y412680I-3264J-16182*
G01*
G75*
G02X400711Y412054I-3481J-10312*
G01*
G75*
G02X401387Y411381I-713J-1392*
G01*
G75*
G02X401445Y411240I-759J-394*
G01*
G75*
G02X401493Y411054I-2055J-629*
G01*
G75*
G02X401526Y410855I-2239J-479*
G01*
G75*
G02X401537Y410674I-1484J-178*
G01*
G75*
G02X401521Y410440I-1706J-3*
G01*
G75*
G02X401470Y410272I-552J77*
G01*
G75*
G02X401365Y410117I-598J292*
G01*
G75*
G02X401169Y409920I-2231J2022*
G01*
G75*
G02X401004Y409786I-1170J1277*
G01*
G75*
G02X400811Y409663I-1326J1863*
G01*
G75*
G02X400622Y409568I-1024J1795*
G01*
G75*
G02X400469Y409520I-282J636*
G01*
G75*
G03X400314Y409471I125J-663*
G01*
G75*
G03X400117Y409370I926J-2036*
G01*
G75*
G03X399915Y409238I1263J-2170*
G01*
G75*
G03X399736Y409094I1179J-1645*
G01*
X399335Y408731*
X399527Y407181*
G75*
G02X399753Y405222I-109562J-13614*
G01*
G75*
G02X399873Y403787I-32196J-3415*
G01*
G75*
G02X399922Y402447I-26774J-1646*
G01*
G75*
G02X399917Y400831I-56475J-630*
G01*
G75*
G02X399889Y399627I-111812J1920*
G01*
G75*
G02X399853Y398919I-14847J414*
G01*
G75*
G02X399800Y398460I-5973J454*
G01*
G75*
G02X399715Y398178I-1052J162*
G01*
G75*
G02X399544Y397873I-1994J917*
G01*
G75*
G02X399350Y397654I-900J603*
G01*
G75*
G02X399117Y397507I-611J710*
G01*
G75*
G02X398831Y397418I-530J1202*
G01*
G75*
G03X398685Y397382I233J-1250*
G01*
G75*
G03X398530Y397325I552J-1750*
G01*
G75*
G03X398388Y397259I654J-1572*
G01*
G75*
G03X398287Y397192I293J-555*
G01*
G75*
G02X397834Y396891I-1851J2291*
G01*
G75*
G02X397448Y396782I-435J806*
G01*
G75*
G02X397098Y396857I-36J685*
G01*
G75*
G02X396757Y397110I598J1165*
G01*
X396437Y397440*
Y399054*
G75*
G03X396431Y399717I-33187J16*
G01*
G75*
G03X396410Y400242I-13261J-265*
G01*
G75*
G03X396380Y400660I-20454J-1234*
G01*
G75*
G03X396337Y400731I-92J-7*
G01*
G75*
G02X396298Y400776I51J83*
G01*
G75*
G02X396267Y400870I619J261*
G01*
G75*
G02X396244Y400989I848J219*
G01*
G75*
G02X396237Y401119I1139J131*
G01*
G75*
G03X396184Y401383I-683J0*
G01*
G75*
G03X396030Y401635I-894J-374*
G01*
G75*
G03X395816Y401818I-669J-567*
G01*
G75*
G03X395591Y401881I-225J-370*
G01*
G75*
G03X395483Y401846I0J-186*
G01*
G75*
G03X395224Y401652I4318J-6042*
G01*
G75*
G03X394921Y401400I4150J-5295*
G01*
G75*
G03X394596Y401101I6970J-7902*
G01*
G75*
G02X394221Y400754I-8827J9182*
G01*
G75*
G02X393759Y400356I-17032J19239*
G01*
G75*
G02X393289Y399968I-16560J19611*
G01*
G75*
G02X392886Y399657I-7859J9783*
G01*
G75*
G03X392520Y399385I72211J-97500*
G01*
G75*
G03X392165Y399120I65171J-87458*
G01*
G75*
G03X391861Y398891I59795J-79632*
G01*
G75*
G03X391694Y398761I6481J-8551*
G01*
G75*
G02X391571Y398667I-2675J3375*
G01*
G75*
G02X391442Y398576I-2757J3772*
G01*
G75*
G02X391324Y398499I-2324J3423*
G01*
G75*
G02X391244Y398455I-424J667*
G01*
G75*
G03X391159Y398410I604J-1254*
G01*
G75*
G03X391016Y398327I5349J-9367*
G01*
G75*
G03X390852Y398228I6101J-10363*
G01*
G75*
G03X390687Y398126I6638J-10841*
G01*
G75*
G02X390495Y398011I-2376J3752*
G01*
G75*
G02X390243Y397872I-5813J10285*
G01*
G75*
G02X389977Y397735I-5858J10989*
G01*
G75*
G02X389737Y397619I-3480J6937*
G01*
G75*
G03X389498Y397508I13739J-29837*
G01*
G75*
G03X389236Y397384I20772J-44185*
G01*
G75*
G03X388989Y397265I19680J-41240*
G01*
G75*
G03X388803Y397173I6637J-13678*
G01*
G75*
G02X388628Y397100I-662J1326*
G01*
G75*
G02X388422Y397037I-822J2333*
G01*
G75*
G02X388217Y396994I-586J2311*
G01*
G75*
G02X388048Y396981I-170J1037*
G01*
G75*
G03X387898Y396972I3J-1407*
G01*
G75*
G03X387754Y396949I131J-1247*
G01*
G75*
G03X387635Y396914I230J-1002*
G01*
G75*
G03X387569Y396872I60J-168*
G01*
G75*
G02X387404Y396790I-204J204*
G01*
G75*
G02X387196Y396809I-63J461*
G01*
G75*
G02X386996Y396923I181J549*
G01*
G75*
G02X386858Y397106I373J426*
G01*
G75*
G03X386773Y397247I-793J-379*
G01*
G75*
G03X386681Y397328I-231J-170*
G01*
G75*
G03X386554Y397370I-172J-310*
G01*
G75*
G03X386357Y397383I-206J-1616*
G01*
G75*
G02X385980Y397433I9J1500*
G01*
G75*
G02X385570Y397581I656J2461*
G01*
G75*
G02X385210Y397786I995J2160*
G01*
G75*
G02X384991Y398011I468J676*
G01*
G75*
G02X384924Y398131I771J506*
G01*
G75*
G02X384859Y398289I1962J904*
G01*
G75*
G02X384805Y398455I2110J775*
G01*
G75*
G02X384772Y398606I1313J370*
G01*
G75*
G02X384801Y399090I1089J176*
G01*
G75*
G02X385049Y399358I392J-113*
G01*
G75*
G02X385448Y399343I181J-481*
G01*
G75*
G02X385894Y399031I-664J-1422*
G01*
G75*
G03X386305Y398770I785J785*
G01*
G75*
G03X386800Y398701I417J1164*
G01*
G75*
G03X387441Y398831I-153J2392*
G01*
G75*
G03X388313Y399185I-3252J9263*
G01*
G75*
G02X388561Y399298I13724J-29704*
G01*
G75*
G02X388775Y399394I7484J-16535*
G01*
G75*
G02X388961Y399475I20654J-47170*
G01*
G75*
G02X388989Y399481I28J-64*
G01*
G75*
G03X389015Y399488I0J53*
G01*
G75*
G03X389215Y399604I-29708J51014*
G01*
G75*
G03X389443Y399740I-9330J15945*
G01*
G75*
G03X389706Y399902I-17518J28880*
G01*
G75*
G03X390903Y400714I-8944J14461*
G01*
G75*
G03X391875Y401535I-6090J8194*
G01*
G75*
G03X392554Y402279I-5148J5378*
G01*
G75*
G03X392739Y402806I-670J533*
G01*
G75*
G02X392783Y403075I893J-6*
G01*
G75*
G02X392906Y403330I995J-322*
G01*
G75*
G02X393098Y403550I923J-612*
G01*
G75*
G02X393341Y403714I750J-852*
G01*
G75*
G03X393522Y403843I-315J631*
G01*
G75*
G03X393616Y404004I-252J256*
G01*
G75*
G03X393589Y404126I-131J36*
G01*
G75*
G03X393470Y404183I-122J-102*
G01*
G75*
G02X393103Y404247I15J1177*
G01*
G75*
G02X392125Y404596I14861J43208*
G01*
G75*
G02X391053Y405013I11631J31465*
G01*
G75*
G02X390054Y405445I10180J24891*
G01*
G75*
G03X389774Y405564I-2388J-5227*
G01*
G75*
G03X389693Y405547I-28J-71*
G01*
G75*
G03X389691Y405477I35J-36*
G01*
G75*
G03X389888Y405280I3081J2878*
G01*
G75*
G02X389990Y405165I-579J-613*
G01*
G75*
G02X390069Y405033I-676J-498*
G01*
G75*
G02X390120Y404895I-688J-332*
G01*
G75*
G02X390137Y404763I-502J-131*
G01*
G75*
G02X390126Y404608I-1103J-2*
G01*
G75*
G02X390086Y404530I-133J19*
G01*
G75*
G02X390006Y404491I-99J103*
G01*
G75*
G02X389843Y404481I-161J1270*
G01*
G75*
G02X389726Y404488I-2J934*
G01*
G75*
G02X389617Y404510I94J742*
G01*
G75*
G02X389531Y404542I156J552*
G01*
G75*
G02X389487Y404581I43J92*
G01*
G75*
G03X389450Y404619I-106J-66*
G01*
G75*
G03X389389Y404651I-189J-283*
G01*
G75*
G03X389315Y404673I-154J-378*
G01*
G75*
G03X389240Y404681I-76J-382*
G01*
G75*
G02X389132Y404699I-1J321*
G01*
G75*
G02X388922Y404779I1553J4372*
G01*
G75*
G02X388677Y404888I1889J4604*
G01*
G75*
G02X388420Y405017I2764J5822*
G01*
G75*
G03X388140Y405165I-93592J-176419*
G01*
G75*
G03X387821Y405333I-155878J-294981*
G01*
G75*
G03X387512Y405496I-150052J-285161*
G01*
G75*
G03X387269Y405624I-58771J-111640*
G01*
G75*
G02X387061Y405738I2476J4730*
G01*
G75*
G02X386867Y405857I2282J3935*
G01*
G75*
G02X386708Y405966I2229J3430*
G01*
G75*
G02X386631Y406038I241J336*
G01*
G75*
G03X386577Y406093I-346J-287*
G01*
G75*
G03X386514Y406139I-321J-376*
G01*
G75*
G03X386450Y406170I-221J-362*
G01*
G75*
G03X386397Y406181I-53J-132*
G01*
G75*
G02X386179Y406272I0J306*
G01*
G75*
G02X385577Y406906I19085J18739*
G01*
G75*
G02X385016Y407550I11310J10406*
G01*
G75*
G02X384747Y407974I1578J1296*
G01*
G75*
G02X384652Y408216I1806J854*
G01*
G75*
G02X384587Y408471I2003J646*
G01*
G75*
G02X384549Y408756I2506J474*
G01*
G75*
G02X384537Y409088I4504J332*
G01*
G75*
G02X384557Y409540I5289J-4*
G01*
G75*
G02X384621Y409848I1296J-111*
G01*
G75*
G02X384766Y410165I1652J-564*
G01*
G75*
G02X385078Y410674I11719J-6828*
G01*
G75*
G03X385196Y410866I-5125J3294*
G01*
G75*
G03X385317Y411077I-7043J4174*
G01*
G75*
G03X385422Y411275I-6545J3607*
G01*
G75*
G03X385492Y411424I-1927J995*
G01*
G75*
G02X385920Y412090I2138J-902*
G01*
G75*
G02X386603Y412679I2850J-2613*
G01*
G75*
G02X387496Y413157I2744J-4057*
G01*
G75*
G02X388547Y413490I2594J-6355*
G01*
G75*
G02X389708Y413665I1706J-7391*
G01*
G75*
G02X391451Y413747I2517J-34991*
G01*
G75*
G02X393269Y413740I778J-35408*
G01*
G75*
G02X394737Y413627I-451J-15400*
G01*
X394812Y393914D02*
G75*
G02X394933Y393748I-72J-180D01*
G01*
G75*
G02X394946Y393177I-6259J-432*
G01*
G75*
G02X394907Y392607I-6246J141*
G01*
G75*
G02X394779Y392441I-200J23*
G01*
G75*
G02X394476Y392382I-320J834*
G01*
G75*
G02X393784Y392383I-326J16979*
G01*
G75*
G02X393089Y392411I428J19056*
G01*
G75*
G02X392831Y392484I36J622*
G01*
G75*
G02X392732Y392568I143J267*
G01*
G75*
G02X392674Y392689I274J207*
G01*
G75*
G02X392645Y392881I891J233*
G01*
G75*
G02X392637Y393223I7743J349*
G01*
G75*
G02X392644Y393542I7014J-5*
G01*
G75*
G02X392671Y393737I1106J-50*
G01*
G75*
G02X392719Y393856I389J-88*
G01*
G75*
G02X392795Y393920I131J-80*
G01*
G75*
G02X393034Y393966I251J-652*
G01*
G75*
G02X393806Y393971I656J-40691*
G01*
G75*
G02X394580Y393962I-102J-41680*
G01*
G75*
G02X394812Y393914I-15J-659*
G01*
X395237Y394096D02*
G75*
G02X395399Y393912I-1321J-1324D01*
G01*
G75*
G02X395485Y393752I-459J-351*
G01*
G75*
G02X395526Y393557I-709J-249*
G01*
G75*
G02X395537Y393243I-4296J-313*
G01*
G75*
G02X395511Y392800I-3754J-2*
G01*
G75*
G02X395428Y392475I-1256J149*
G01*
G75*
G02X395282Y392245I-711J288*
G01*
G75*
G02X395072Y392092I-481J440*
G01*
G75*
G02X394919Y392048I-220J481*
G01*
G75*
G02X394591Y392013I-1007J7883*
G01*
G75*
G02X394198Y391989I-717J8379*
G01*
G75*
G02X393778Y391981I-413J10846*
G01*
G75*
G02X392781Y392022I-3J11953*
G01*
G75*
G02X392326Y392196I73J874*
G01*
G75*
G02X392104Y392560I351J465*
G01*
G75*
G02X392039Y393294I4233J744*
G01*
G75*
G02X392048Y393570I3627J9*
G01*
G75*
G02X392081Y393783I1351J-99*
G01*
G75*
G02X392140Y393952I870J-207*
G01*
G75*
G02X392228Y394094I617J-285*
G01*
G75*
G02X392383Y394228I446J-361*
G01*
G75*
G02X392577Y394300I303J-514*
G01*
G75*
G02X392905Y394337I423J-2281*
G01*
G75*
G02X393678Y394364I2158J-51897*
G01*
X394936Y394397*
X395237Y394096*
X399422Y393881D02*
G75*
G03X399296Y393738I1115J-1113D01*
G01*
G75*
G03X399208Y393601I665J-521*
G01*
G75*
G03X399161Y393472I524J-267*
G01*
G75*
G03X399155Y393356I300J-72*
G01*
G75*
G03X399222Y393227I217J31*
G01*
G75*
G03X399362Y393155I198J211*
G01*
G75*
G03X399657Y393117I392J1889*
G01*
G75*
G03X400486Y393081I3693J74994*
G01*
G75*
G02X401260Y393046I-2286J-59069*
G01*
G75*
G02X401585Y393008I-131J-2541*
G01*
G75*
G02X401748Y392945I-83J-459*
G01*
G75*
G02X401822Y392837I-86J-139*
G01*
G75*
G02X401795Y392658I-270J-51*
G01*
G75*
G02X401661Y392510I-350J183*
G01*
G75*
G02X401426Y392413I-379J584*
G01*
G75*
G02X401118Y392381I-306J1456*
G01*
G75*
G03X400969Y392372I3J-1402*
G01*
G75*
G03X400847Y392348I73J-684*
G01*
G75*
G03X400763Y392312I109J-374*
G01*
G75*
G03X400769Y392221I25J-44*
G01*
G75*
G03X400866Y392196I143J346*
G01*
G75*
G03X401026Y392189I121J983*
G01*
G75*
G03X401256Y392205I-178J4204*
G01*
G75*
G03X401688Y392302I-167J1756*
G01*
G75*
G03X401994Y392498I-282J779*
G01*
G75*
G03X402175Y392796I-531J526*
G01*
G75*
G03X402237Y393194I-1241J398*
G01*
G75*
G03X402222Y393406I-1499J0*
G01*
G75*
G03X402176Y393573I-672J-95*
G01*
G75*
G03X402088Y393724I-640J-269*
G01*
G75*
G03X401945Y393888I-1292J-986*
G01*
G75*
G03X401743Y394059I-1094J-1094*
G01*
G75*
G03X401560Y394141I-301J-426*
G01*
G75*
G03X401297Y394174I-292J-1259*
G01*
G75*
G03X400687Y394181I-618J-26935*
G01*
G75*
G03X400074Y394174I8J-27207*
G01*
G75*
G03X399812Y394140I28J-1261*
G01*
G75*
G03X399630Y394057I119J-503*
G01*
G75*
G03X399422Y393881I973J-1355*
G01*
X399995Y393720D02*
G75*
G03X399878Y393627I89J-234D01*
G01*
G75*
G03X399904Y393546I44J-30*
G01*
G75*
G03X400175Y393494I320J927*
G01*
G75*
G03X400687Y393481I510J9994*
G01*
G75*
G03X401194Y393490I6J13865*
G01*
G75*
G03X401439Y393530I-36J981*
G01*
G75*
G03X401506Y393607I-28J91*
G01*
G75*
G03X401470Y393714I-123J19*
G01*
G75*
G03X401342Y393769I-134J-134*
G01*
G75*
G03X400782Y393779I-643J-21537*
G01*
G75*
G03X400240Y393770I-52J-13092*
G01*
G75*
G03X399995Y393720I28J-761*
G01*
X401833Y393835D02*
G75*
G02X401877Y393767I-246J-204D01*
G01*
G75*
G02X401908Y393680I-469J-220*
G01*
G75*
G02X401924Y393590I-494J-131*
G01*
G75*
G02X401919Y393510I-296J-22*
G01*
G75*
G02X401849Y393413I-140J27*
G01*
G75*
G02X401694Y393360I-221J389*
G01*
G75*
G02X401388Y393335I-340J2326*
G01*
G75*
G02X400687Y393331I-678J48517*
G01*
G75*
G02X399963Y393335I-11J53707*
G01*
G75*
G02X399669Y393360I27J2084*
G01*
G75*
G02X399522Y393418I56J356*
G01*
G75*
G02X399453Y393524I93J137*
G01*
G75*
G02X399497Y393737I278J53*
G01*
G75*
G02X399684Y393881I315J-214*
G01*
G75*
G02X400070Y393959I473J-1340*
G01*
G75*
G02X400744Y393981I680J-10870*
G01*
G75*
G02X401220Y393974I-2J-16181*
G01*
G75*
G02X401527Y393949I-87J-2981*
G01*
G75*
G02X401727Y393906I-173J-1283*
G01*
G75*
G02X401833Y393835I-63J-211*
G01*
X401987Y394265D02*
G75*
G02X402073Y394212I-433J-796D01*
G01*
G75*
G02X402165Y394142I-900J-1284*
G01*
G75*
G02X402250Y394067I-960J-1172*
G01*
G75*
G02X402312Y393999I-466J-488*
G01*
G75*
G02X402396Y393792I-309J-246*
G01*
G75*
G02X402433Y393265I-8720J-877*
G01*
G75*
G02X402436Y392735I-7293J-298*
G01*
G75*
G02X402375Y392435I-919J30*
G01*
G75*
G02X402228Y392246I-385J148*
G01*
G75*
G02X401950Y392102I-659J930*
G01*
G75*
G02X401565Y392011I-620J1750*
G01*
G75*
G02X401092Y391981I-472J3715*
G01*
X400437*
Y392281*
G75*
G02X400448Y392454I1365J-3*
G01*
G75*
G02X400491Y392533I126J-16*
G01*
G75*
G02X400579Y392572I103J-117*
G01*
G75*
G02X400779Y392581I200J-2211*
G01*
G75*
G03X401048Y392594I2J2607*
G01*
G75*
G03X401257Y392638I-107J1030*
G01*
G75*
G03X401393Y392705I-154J481*
G01*
G75*
G03X401437Y392791I-61J86*
G01*
G75*
G03X401404Y392827I-36*
G01*
G75*
G03X401070Y392854I-1557J-17085*
G01*
G75*
G03X400667Y392874I-644J-9052*
G01*
G75*
G03X400187Y392881I-490J-17894*
G01*
X398937*
Y393385*
G75*
G02X398949Y393652I3109J-4*
G01*
G75*
G02X398987Y393837I822J-70*
G01*
G75*
G02X399060Y393987I565J-184*
G01*
G75*
G02X399183Y394135I848J-579*
G01*
G75*
G02X399365Y394274I610J-610*
G01*
G75*
G02X399562Y394345I298J-522*
G01*
G75*
G02X399875Y394373I339J-2002*
G01*
G75*
G02X400607Y394378I632J-44894*
G01*
G75*
G02X401079Y394369I-36J-14162*
G01*
G75*
G02X401503Y394344I-334J-9344*
G01*
G75*
G02X401851Y394309I-773J-9422*
G01*
G75*
G02X401987Y394265I-45J-374*
G01*
X403637Y394081D02*
G75*
G03X403658Y394042I46J0D01*
G01*
G75*
G03X403723Y394010I157J234*
G01*
G75*
G03X403817Y393988I157J460*
G01*
G75*
G03X403929Y393981I110J855*
G01*
G75*
G02X404285Y393952I-1J-2202*
G01*
G75*
G02X404448Y393846I-40J-240*
G01*
G75*
G02X404522Y393625I-369J-246*
G01*
G75*
G02X404537Y393070I-9989J-554*
G01*
G75*
G03X404543Y392657I14492J1*
G01*
G75*
G03X404567Y392437I1388J41*
G01*
G75*
G03X404613Y392322I325J62*
G01*
G75*
G03X404687Y392281I74J47*
G01*
G75*
G03X404761Y392319I0J91*
G01*
G75*
G03X404807Y392423I-228J162*
G01*
G75*
G03X404831Y392621I-1111J237*
G01*
G75*
G03X404837Y392985I-10857J358*
G01*
G75*
G03X404828Y393385I-9148J2*
G01*
G75*
G03X404795Y393610I-1090J-47*
G01*
G75*
G03X404723Y393774I-534J-138*
G01*
G75*
G03X404592Y393935I-840J-548*
G01*
G75*
G03X404356Y394090I-493J-493*
G01*
G75*
G03X404021Y394181I-567J-1430*
G01*
G75*
G03X403731Y394186I-164J-1080*
G01*
G75*
G03X403637Y394081I12J-106*
G01*
X404820Y394149D02*
G75*
G02X404937Y393983I-528J-495D01*
G01*
G75*
G02X405001Y393794I-609J-312*
G01*
G75*
G02X405030Y393506I-1850J-335*
G01*
G75*
G02X405037Y392949I-21918J-542*
G01*
Y391981*
X404337*
Y392777*
G75*
G03X404314Y393343I-6993J2*
G01*
G75*
G03X404219Y393610I-545J-44*
G01*
G75*
G03X404022Y393741I-263J-182*
G01*
G75*
G03X403644Y393781I-379J-1785*
G01*
G75*
G02X403470Y393791I-2J1491*
G01*
G75*
G02X403388Y393830I17J140*
G01*
G75*
G02X403348Y393911I96J98*
G01*
G75*
G02X403337Y394081I1368J171*
G01*
Y394381*
X403970*
G75*
G02X404317Y394371I-5J-6576*
G01*
G75*
G02X404526Y394338I-52J-993*
G01*
G75*
G02X404678Y394269I-138J-507*
G01*
G75*
G02X404820Y394149I-443J-670*
G01*
X409137Y393334D02*
G75*
G02X409102Y392757I-4816J0D01*
G01*
G75*
G02X408963Y392513I-358J43*
G01*
G75*
G02X408666Y392403I-329J431*
G01*
G75*
G02X407887Y392381I-777J13444*
G01*
G75*
G02X407109Y392403I-2J13460*
G01*
G75*
G02X406811Y392513I31J541*
G01*
G75*
G02X406672Y392757I219J287*
G01*
G75*
G02X406637Y393334I4781J580*
G01*
G75*
G03X406631Y393722I-12596J2*
G01*
G75*
G03X406607Y393931I-1257J-39*
G01*
G75*
G03X406561Y394041I-298J-59*
G01*
G75*
G03X406487Y394081I-74J-50*
G01*
G75*
G03X406415Y394046I0J-94*
G01*
G75*
G03X406369Y393954I178J-148*
G01*
G75*
G03X406344Y393781I846J-209*
G01*
G75*
G03X406337Y393474I7361J-314*
G01*
G75*
G03X406413Y392812I2911J1*
G01*
G75*
G03X406655Y392431I665J155*
G01*
G75*
G03X407122Y392235I588J744*
G01*
G75*
G03X407974Y392181I850J6618*
G01*
G75*
G03X408472Y392189I11J15049*
G01*
G75*
G03X408735Y392222I-46J1416*
G01*
G75*
G03X408926Y392297I-149J663*
G01*
G75*
G03X409130Y392439I-707J1224*
G01*
G75*
G03X409306Y392612I-1070J1270*
G01*
G75*
G03X409392Y392762I-319J282*
G01*
G75*
G03X409429Y392968I-733J238*
G01*
G75*
G03X409437Y393389I-10287J413*
G01*
G75*
G03X409431Y393746I-10349J7*
G01*
G75*
G03X409407Y393940I-1094J-39*
G01*
G75*
G03X409361Y394043I-268J-57*
G01*
G75*
G03X409287Y394081I-74J-54*
G01*
G75*
G03X409213Y394041I0J-89*
G01*
G75*
G03X409167Y393931I252J-169*
G01*
G75*
G03X409143Y393722I1233J-248*
G01*
G75*
G03X409137Y393334I12590J-398*
G01*
X409637Y393396D02*
G75*
G02X409596Y392529I-9276J-1D01*
G01*
G75*
G02X409416Y392201I-467J44*
G01*
G75*
G02X409023Y392057I-425J550*
G01*
G75*
G02X407868Y392031I-1153J25185*
G01*
G75*
G02X406754Y392060I-3J21196*
G01*
G75*
G02X406360Y392212I35J679*
G01*
G75*
G02X406178Y392553I315J387*
G01*
G75*
G02X406137Y393442I9636J889*
G01*
Y394381*
X406837*
Y393636*
G75*
G03X406876Y393053I4429J0*
G01*
G75*
G03X407019Y392763I502J67*
G01*
G75*
G03X407308Y392619I356J355*
G01*
G75*
G03X407887Y392581I577J4300*
G01*
G75*
G03X408467Y392619I2J4342*
G01*
G75*
G03X408756Y392763I-67J498*
G01*
G75*
G03X408899Y393053I-359J357*
G01*
G75*
G03X408937Y393636I-4391J580*
G01*
Y394381*
X409637*
Y393396*
X412337Y394086D02*
G75*
G03X412363Y394047I42D01*
G01*
G75*
G03X412476Y394010I367J928*
G01*
G75*
G03X412630Y393980I335J1271*
G01*
G75*
G03X412811Y393961I339J2425*
G01*
G75*
G02X413055Y393937I-234J-3621*
G01*
G75*
G02X413197Y393898I-68J-520*
G01*
G75*
G02X413279Y393833I-85J-193*
G01*
G75*
G02X413322Y393737I-179J-138*
G01*
G75*
G02X413282Y393531I-278J-53*
G01*
G75*
G02X413108Y393387I-315J202*
G01*
G75*
G02X412763Y393304I-443J1089*
G01*
G75*
G02X412200Y393281I-562J6787*
G01*
G75*
G03X411755Y393272I6J-12293*
G01*
G75*
G03X411502Y393241I54J-1484*
G01*
G75*
G03X411326Y393177I135J-637*
G01*
G75*
G03X411169Y393063I360J-666*
G01*
G75*
G03X410998Y392870I956J-1017*
G01*
G75*
G03X410951Y392716I195J-143*
G01*
G75*
G03X411012Y392567I243J12*
G01*
G75*
G03X411201Y392388I1072J944*
G01*
G75*
G03X411386Y392278I502J639*
G01*
G75*
G03X411600Y392217I359J844*
G01*
G75*
G03X411917Y392188I377J2365*
G01*
G75*
G03X412501Y392181I577J23454*
G01*
G75*
G03X412925Y392187I8J13751*
G01*
G75*
G03X413253Y392208I-155J5035*
G01*
G75*
G03X413500Y392238I-510J5243*
G01*
G75*
G03X413500Y392323I-6J43*
G01*
G75*
G03X413256Y392354I-758J-5118*
G01*
G75*
G03X412931Y392375I-485J-4919*
G01*
G75*
G03X412512Y392382I-435J-13339*
G01*
G75*
G02X412110Y392389I30J13146*
G01*
G75*
G02X411749Y392408I267J8556*
G01*
G75*
G02X411450Y392435I750J10048*
G01*
G75*
G02X411354Y392469I24J222*
G01*
G75*
G02X411305Y392518I80J128*
G01*
G75*
G02X411269Y392598I313J188*
G01*
G75*
G02X411250Y392694I424J131*
G01*
G75*
G02X411254Y392792I443J35*
G01*
G75*
G02X411307Y392928I308J-43*
G01*
G75*
G02X411412Y393004I163J-115*
G01*
G75*
G02X411627Y393044I287J-934*
G01*
G75*
G02X412193Y393081I2234J-30134*
G01*
G75*
G03X412620Y393113I-546J9952*
G01*
G75*
G03X412946Y393161I-349J3534*
G01*
G75*
G03X413193Y393224I-401J2074*
G01*
G75*
G03X413367Y393308I-220J685*
G01*
G75*
G03X413559Y393461I-726J1105*
G01*
G75*
G03X413623Y393595I-146J152*
G01*
G75*
G03X413583Y393744I-231J19*
G01*
G75*
G03X413420Y393949I-1370J-926*
G01*
G75*
G03X413293Y394059I-585J-552*
G01*
G75*
G03X413155Y394130I-334J-479*
G01*
G75*
G03X412988Y394168I-251J-707*
G01*
G75*
G03X412770Y394181I-221J-1928*
G01*
G75*
G03X412604Y394174I3J-2015*
G01*
G75*
G03X412464Y394153I87J-1061*
G01*
G75*
G03X412363Y394123I156J-719*
G01*
G75*
G03X412337Y394086I14J-37*
G01*
X413732Y394136D02*
G75*
G02X413846Y393995I-879J-827D01*
G01*
G75*
G02X413904Y393870I-337J-232*
G01*
G75*
G02X413919Y393730I-424J-115*
G01*
G75*
G02X413895Y393536I-1521J88*
G01*
G75*
G02X413761Y393223I-766J143*
G01*
G75*
G02X413512Y393021I-502J364*
G01*
G75*
G02X413098Y392912I-536J1195*
G01*
G75*
G02X412434Y392881I-663J7049*
G01*
G75*
G03X412039Y392875I6J-13604*
G01*
G75*
G03X411809Y392853I53J-1754*
G01*
G75*
G03X411687Y392815I70J-442*
G01*
G75*
G03X411662Y392756I21J-44*
G01*
G75*
G03X411728Y392695I87J29*
G01*
G75*
G03X411948Y392654I531J2202*
G01*
G75*
G03X412279Y392622I541J3927*
G01*
G75*
G03X412770Y392602I987J18154*
G01*
X413837Y392574*
Y391981*
X412509*
G75*
G02X411472Y392002I-4J25626*
G01*
G75*
G02X411025Y392100I52J1294*
G01*
G75*
G02X410812Y392319I150J359*
G01*
G75*
G02X410737Y392721I1042J402*
G01*
G75*
G02X410789Y393112I1491J0*
G01*
G75*
G02X410950Y393337I383J-104*
G01*
G75*
G02X411265Y393450I383J-567*
G01*
G75*
G02X411862Y393481I600J-5922*
G01*
G75*
G03X412164Y393485I4J10295*
G01*
G75*
G03X412444Y393498I-225J7646*
G01*
G75*
G03X412678Y393517I-498J7622*
G01*
G75*
G03X412779Y393541I-38J383*
G01*
G75*
G03X412917Y393626I-158J412*
G01*
G75*
G03X412915Y393705I-35J39*
G01*
G75*
G03X412772Y393765I-173J-211*
G01*
G75*
G03X412487Y393781I-285J-2564*
G01*
G75*
G02X412206Y393787I-3J5796*
G01*
G75*
G02X412100Y393822I10J209*
G01*
G75*
G02X412050Y393900I63J94*
G01*
G75*
G02X412037Y394081I1237J183*
G01*
Y394381*
X412770*
G75*
G02X413191Y394372I0J-10730*
G01*
G75*
G02X413418Y394339I-44J-1097*
G01*
G75*
G02X413577Y394268I-126J-493*
G01*
G75*
G02X413732Y394136I-510J-757*
G01*
X415381Y393875D02*
G75*
G03X415187Y393571I504J-536D01*
G01*
G75*
G03X415120Y393159I1233J-412*
G01*
G75*
G03X415188Y392742I1327J2*
G01*
G75*
G03X415383Y392426I765J254*
G01*
G75*
G03X415560Y392288I636J636*
G01*
G75*
G03X415748Y392217I296J500*
G01*
G75*
G03X416037Y392187I326J1711*
G01*
G75*
G03X416675Y392181I627J31210*
G01*
G75*
G03X417313Y392187I13J29203*
G01*
G75*
G03X417612Y392219I-39J1799*
G01*
G75*
G03X417817Y392293I-131J680*
G01*
G75*
G03X418030Y392439I-644J1165*
G01*
G75*
G03X418147Y392552I-831J987*
G01*
G75*
G03X418247Y392676I-858J793*
G01*
G75*
G03X418317Y392793I-774J539*
G01*
G75*
G03X418337Y392881I-176J87*
G01*
G75*
G03X418317Y392968I-195J0*
G01*
G75*
G03X418247Y393085I-844J-422*
G01*
G75*
G03X418147Y393209I-958J-670*
G01*
G75*
G03X418030Y393322I-949J-874*
G01*
G75*
G03X417815Y393469I-847J-1005*
G01*
G75*
G03X417607Y393543I-335J-611*
G01*
G75*
G03X417302Y393574I-343J-1850*
G01*
G75*
G03X416635Y393581I-681J-32739*
G01*
G75*
G02X416169Y393587I-7J15731*
G01*
G75*
G02X415816Y393610I161J5341*
G01*
G75*
G02X415555Y393643I433J4522*
G01*
G75*
G02X415480Y393692I16J106*
G01*
G75*
G02X415476Y393801I94J58*
G01*
G75*
G02X415572Y393895I192J-100*
G01*
G75*
G02X415774Y393958I298J-596*
G01*
G75*
G02X416056Y393979I291J-2022*
G01*
G75*
G03X416203Y393988I-6J1281*
G01*
G75*
G03X416338Y394014I-116J980*
G01*
G75*
G03X416445Y394051I-193J733*
G01*
G75*
G03X416496Y394095I-45J104*
G01*
G75*
G03X416443Y394193I-55J34*
G01*
G75*
G03X416089Y394161I-19J-1724*
G01*
G75*
G03X415652Y394040I593J-3004*
G01*
G75*
G03X415381Y393875I262J-732*
G01*
X415697Y393097D02*
G75*
G03X415687Y393050I60J-37D01*
G01*
G75*
G03X415705Y392974I426J59*
G01*
G75*
G03X415743Y392886I561J188*
G01*
G75*
G03X415797Y392797I723J378*
G01*
G75*
G03X415910Y392682I394J276*
G01*
G75*
G03X416050Y392618I235J327*
G01*
G75*
G03X416268Y392588I257J1052*
G01*
G75*
G03X416685Y392581I409J11775*
G01*
G75*
G03X416978Y392585I4J9706*
G01*
G75*
G03X417251Y392598I-220J7283*
G01*
G75*
G03X417479Y392617I-481J7169*
G01*
G75*
G03X417579Y392641I-39J386*
G01*
G75*
G03X417698Y392730I-98J255*
G01*
G75*
G03X417730Y392853I-128J99*
G01*
G75*
G03X417662Y392981I-220J-33*
G01*
G75*
G03X417512Y393078I-330J-349*
G01*
G75*
G03X417192Y393149I-378J-943*
G01*
G75*
G03X416523Y393172I-826J-14143*
G01*
G75*
G03X415827Y393170I-288J-26763*
G01*
G75*
G03X415697Y393097I2J-155*
G01*
X416855Y394116D02*
G75*
G03X416894Y393949I715J81D01*
G01*
G75*
G03X416969Y393864I147J54*
G01*
G75*
G03X417119Y393818I199J383*
G01*
G75*
G03X417502Y393781I1293J11270*
G01*
G75*
G02X418020Y393700I-289J-3545*
G01*
G75*
G02X418324Y393544I-159J-683*
G01*
G75*
G02X418485Y393283I-344J-393*
G01*
G75*
G02X418537Y392872I-1573J-409*
G01*
G75*
G02X418526Y392613I-3025J-2*
G01*
G75*
G02X418487Y392446I-607J53*
G01*
G75*
G02X418410Y392317I-403J154*
G01*
G75*
G02X418274Y392188I-761J666*
G01*
G75*
G02X418076Y392075I-474J602*
G01*
G75*
G02X417838Y392015I-372J965*
G01*
G75*
G02X417462Y391987I-430J3283*
G01*
G75*
G02X416693Y391981I-769J46886*
G01*
G75*
G02X415592Y392007I-5J22430*
G01*
G75*
G02X415180Y392145I39J804*
G01*
G75*
G02X414987Y392454I252J371*
G01*
G75*
G02X414937Y393169I5060J716*
G01*
G75*
G02X414976Y393815I5317*
G01*
G75*
G02X415126Y394129I546J-67*
G01*
G75*
G02X415436Y394293I404J-389*
G01*
G75*
G02X416089Y394365I935J-5503*
G01*
X416822Y394402*
X416855Y394116*
X417862Y393274D02*
G75*
G02X417992Y393115I-151J-254D01*
G01*
G75*
G02X418040Y392839I-871J-294*
G01*
G75*
G02X418002Y392573I-849J-17*
G01*
G75*
G02X417879Y392441I-197J61*
G01*
G75*
G02X417772Y392417I-135J350*
G01*
G75*
G02X417465Y392398I-1052J14573*
G01*
G75*
G02X417097Y392385I-642J12571*
G01*
G75*
G02X416691Y392381I-402J18617*
G01*
G75*
G02X415942Y392399J15503*
G01*
G75*
G02X415620Y392483I39J806*
G01*
G75*
G02X415478Y392664I121J242*
G01*
G75*
G02X415456Y392999I1015J235*
G01*
X415487Y393331*
X416587Y393354*
G75*
G02X417031Y393356I279J-12929*
G01*
G75*
G02X417422Y393341I-104J-7857*
G01*
G75*
G02X417739Y393315I-481J-7697*
G01*
G75*
G02X417862Y393274I-31J-302*
G01*
X420139Y393917D02*
G75*
G03X419993Y393779I1103J-1312D01*
G01*
G75*
G03X419904Y393654I432J-406*
G01*
G75*
G03X419861Y393530I360J-194*
G01*
G75*
G03X419857Y393392I475J-82*
G01*
X419887Y393131*
X421186Y393081*
G75*
G02X421960Y393046I-2286J-59069*
G01*
G75*
G02X422285Y393008I-131J-2541*
G01*
G75*
G02X422448Y392945I-83J-459*
G01*
G75*
G02X422522Y392837I-86J-139*
G01*
G75*
G02X422495Y392658I-270J-51*
G01*
G75*
G02X422361Y392510I-350J183*
G01*
G75*
G02X422126Y392413I-379J584*
G01*
G75*
G02X421818Y392381I-306J1456*
G01*
G75*
G03X421672Y392373I2J-1475*
G01*
G75*
G03X421549Y392351I78J-789*
G01*
G75*
G03X421462Y392319I126J-481*
G01*
G75*
G03X421463Y392242I18J-39*
G01*
G75*
G03X421557Y392210I235J543*
G01*
G75*
G03X421690Y392188I216J889*
G01*
G75*
G03X421847Y392181I156J1702*
G01*
G75*
G03X422235Y392262I0J964*
G01*
G75*
G03X422593Y392496I-526J1198*
G01*
G75*
G03X422848Y392825I-835J910*
G01*
G75*
G03X422937Y393181I-668J355*
G01*
G75*
G03X422917Y393348I-717J0*
G01*
G75*
G03X422859Y393505I-680J-163*
G01*
G75*
G03X422755Y393665I-836J-431*
G01*
G75*
G03X422597Y393841I-1723J-1387*
G01*
G75*
G03X422366Y394046I-1815J-1815*
G01*
G75*
G03X422185Y394137I-316J-404*
G01*
G75*
G03X421938Y394173I-274J-999*
G01*
G75*
G03X421355Y394181I-584J-22799*
G01*
G75*
G03X420816Y394173I1J-18514*
G01*
G75*
G03X420544Y394139I45J-1489*
G01*
G75*
G03X420348Y394064I143J-661*
G01*
G75*
G03X420139Y393917I733J-1266*
G01*
X420695Y393720D02*
G75*
G03X420578Y393627I89J-234D01*
G01*
G75*
G03X420604Y393546I44J-30*
G01*
G75*
G03X420875Y393494I320J927*
G01*
G75*
G03X421387Y393481I510J9994*
G01*
G75*
G03X421884Y393494I4J9096*
G01*
G75*
G03X422164Y393546I-61J1108*
G01*
G75*
G03X422201Y393625I-18J57*
G01*
G75*
G03X422112Y393714I-149J-59*
G01*
G75*
G03X421901Y393760I-238J-589*
G01*
G75*
G03X421406Y393771I-548J-13046*
G01*
G75*
G03X420911Y393764I-53J-12867*
G01*
G75*
G03X420695Y393720I24J-666*
G01*
X422421Y393893D02*
G75*
G02X422470Y393843I-80J-128D01*
G01*
G75*
G02X422506Y393763I-313J-188*
G01*
G75*
G02X422524Y393667I-424J-131*
G01*
G75*
G02X422521Y393569I-443J-35*
G01*
G75*
G02X422461Y393432I-274J39*
G01*
G75*
G02X422343Y393361I-158J130*
G01*
G75*
G02X422091Y393335I-266J1324*
G01*
G75*
G02X421339Y393331I-752J65246*
G01*
G75*
G02X420647Y393335I-15J48394*
G01*
G75*
G02X420363Y393361I29J1938*
G01*
G75*
G02X420221Y393419I55J337*
G01*
G75*
G02X420153Y393524I97J137*
G01*
G75*
G02X420195Y393735I278J54*
G01*
G75*
G02X420377Y393879I312J-208*
G01*
G75*
G02X420748Y393958I460J-1241*
G01*
G75*
G02X421381Y393979I620J-9211*
G01*
G75*
G02X421738Y393972I-27J-10324*
G01*
G75*
G02X422060Y393953I-245J-6924*
G01*
G75*
G02X422327Y393926I-637J-7573*
G01*
G75*
G02X422421Y393893I-27J-224*
G01*
X422602Y394281D02*
G75*
G02X422841Y394128I-285J-706D01*
G01*
G75*
G02X423008Y393897I-534J-563*
G01*
G75*
G02X423106Y393575I-1035J-491*
G01*
G75*
G02X423137Y393150I-2852J-422*
G01*
G75*
G02X423126Y392816I-5202J-2*
G01*
G75*
G02X423087Y392615I-796J50*
G01*
G75*
G02X423003Y392455I-533J178*
G01*
G75*
G02X422845Y392273I-1375J1034*
G01*
G75*
G02X422655Y392109I-1193J1193*
G01*
G75*
G02X422488Y392026I-317J428*
G01*
G75*
G02X422266Y391989I-262J895*
G01*
G75*
G02X421845Y391981I-412J9806*
G01*
X421137*
Y392281*
G75*
G02X421149Y392457I1326J-3*
G01*
G75*
G02X421194Y392536I119J-16*
G01*
G75*
G02X421291Y392572I107J-140*
G01*
G75*
G02X421525Y392581I239J-3463*
G01*
G75*
G03X421687Y392591I1J1227*
G01*
G75*
G03X421838Y392623I-133J1005*
G01*
G75*
G03X421961Y392671I-222J755*
G01*
G75*
G03X422037Y392731I-100J205*
G01*
G75*
G03X422032Y392806I-42J35*
G01*
G75*
G03X421926Y392855I-131J-146*
G01*
G75*
G03X421628Y392876I-327J-2482*
G01*
G75*
G03X420900Y392881I-741J-63288*
G01*
X419637*
Y393423*
G75*
G02X419647Y393727I4631J-4*
G01*
G75*
G02X419684Y393907I674J-44*
G01*
G75*
G02X419761Y394040I391J-137*
G01*
G75*
G02X419901Y394173I761J-656*
G01*
G75*
G02X420090Y394284I497J-632*
G01*
G75*
G02X420308Y394344I351J-846*
G01*
G75*
G02X420639Y394371I372J-2543*
G01*
G75*
G02X421276Y394374I464J-29460*
G01*
G75*
G02X421717Y394365I-86J-15632*
G01*
G75*
G02X422124Y394344I-377J-11326*
G01*
G75*
G02X422462Y394316I-815J-11616*
G01*
G75*
G02X422602Y394281I-50J-504*
G01*
X423093Y414285D02*
G75*
G02X423367Y414106I-321J-794D01*
G01*
G75*
G02X423661Y413773I-1939J-2004*
G01*
G75*
G02X423918Y413367I-2495J-1863*
G01*
G75*
G02X424085Y412957I-1979J-1050*
G01*
G75*
G02X424596Y410635I-15582J-4646*
G01*
G75*
G02X424919Y407631I-41298J-5958*
G01*
G75*
G02X425031Y404458I-44498J-3162*
G01*
G75*
G02X424894Y401581I-30260J7*
G01*
G75*
G02X424756Y400338I-42055J4033*
G01*
G75*
G02X424607Y399413I-13474J1695*
G01*
G75*
G02X424431Y398694I-7993J1573*
G01*
G75*
G02X424210Y398103I-4123J1205*
G01*
G75*
G02X424020Y397772I-1938J895*
G01*
G75*
G02X423786Y397509I-1259J882*
G01*
G75*
G02X423535Y397338I-763J852*
G01*
G75*
G02X423291Y397281I-244J487*
G01*
G75*
G03X423191Y397263J-296*
G01*
G75*
G03X423067Y397207I297J-818*
G01*
G75*
G03X422943Y397126I485J-877*
G01*
G75*
G03X422837Y397031I522J-689*
G01*
G75*
G02X422689Y396901I-741J693*
G01*
G75*
G02X422541Y396827I-304J424*
G01*
G75*
G02X422347Y396791I-249J798*
G01*
G75*
G02X422037Y396781I-304J4685*
G01*
G75*
G02X421526Y396835J2432*
G01*
G75*
G02X421233Y397010I111J520*
G01*
G75*
G02X421080Y397348I507J432*
G01*
G75*
G02X421037Y397956I4254J609*
G01*
G75*
G02X421044Y398233I5305J-4*
G01*
G75*
G02X421067Y398478I3219J-168*
G01*
G75*
G02X421098Y398673I3293J-423*
G01*
G75*
G02X421137Y398731I85J-16*
G01*
G75*
G03X421251Y398934I-126J204*
G01*
G75*
G03X421242Y400100I-50890J188*
G01*
G75*
G03X421199Y401220I-28845J-554*
G01*
G75*
G03X421081Y401663I-1136J-66*
G01*
G75*
G03X420735Y402133I-1538J-768*
G01*
G75*
G03X420306Y402354I-582J-604*
G01*
G75*
G03X419811Y402307I-166J-893*
G01*
G75*
G03X419271Y401998I763J-1959*
G01*
G75*
G02X418247Y401198I-81718J103483*
G01*
G75*
G02X417346Y400511I-46543J60161*
G01*
G75*
G02X416545Y399913I-172811J230375*
G01*
G75*
G02X416448Y399881I-96J130*
G01*
G75*
G03X416407Y399870I1J-91*
G01*
G75*
G03X416351Y399837I202J-398*
G01*
G75*
G03X416292Y399789I319J-456*
G01*
G75*
G03X416239Y399733I422J-449*
G01*
G75*
G02X416107Y399609I-560J463*
G01*
G75*
G02X415908Y399481I-1215J1677*
G01*
G75*
G02X415532Y399278I-5613J9930*
G01*
G75*
G02X414419Y398705I-241887J468609*
G01*
G75*
G02X413947Y398471I-8817J17175*
G01*
G75*
G02X413495Y398263I-6650J13874*
G01*
G75*
G02X413109Y398100I-5891J13386*
G01*
G75*
G02X412913Y398042I-386J946*
G01*
G75*
G02X412724Y398023I-201J1078*
G01*
G75*
G02X412399Y398025I-111J8470*
G01*
G75*
G02X412023Y398043I250J9520*
G01*
G75*
G02X411641Y398075I669J10183*
G01*
G75*
G02X411114Y398138I1672J16119*
G01*
G75*
G02X410821Y398202I257J1875*
G01*
G75*
G02X410615Y398295I252J832*
G01*
G75*
G02X410422Y398444I616J994*
G01*
G75*
G02X410293Y398588I929J968*
G01*
G75*
G02X410205Y398731I603J472*
G01*
G75*
G02X410154Y398881I606J287*
G01*
G75*
G02X410137Y399046I787J166*
G01*
G75*
G02X410193Y399330I744*
G01*
G75*
G02X410352Y399496I296J-122*
G01*
G75*
G02X410623Y399544I222J-465*
G01*
G75*
G02X411024Y399469I-218J-2257*
G01*
G75*
G03X411216Y399420I857J3015*
G01*
G75*
G03X411410Y399385I652J3020*
G01*
G75*
G03X411580Y399365I400J2658*
G01*
G75*
G03X411687Y399369I39J440*
G01*
G75*
G03X412005Y399463I-197J1244*
G01*
G75*
G03X412595Y399742I-6409J14342*
G01*
G75*
G03X413208Y400066I-6229J12519*
G01*
G75*
G03X413687Y400364I-3037J5411*
G01*
G75*
G03X414820Y401212I-10113J14699*
G01*
G75*
G03X416010Y402237I-16989J20935*
G01*
G75*
G03X417041Y403222I-20836J22807*
G01*
G75*
G03X417402Y403757I-1205J1203*
G01*
G75*
G03X417472Y403950I-1735J740*
G01*
G75*
G03X417488Y404084I-371J113*
G01*
G75*
G03X417457Y404220I-417J-23*
G01*
G75*
G03X417364Y404418I-2166J-895*
G01*
G75*
G03X417120Y404756I-1322J-698*
G01*
G75*
G03X416370Y405519I-32167J-30869*
G01*
G75*
G03X415565Y406309I-66460J-66914*
G01*
G75*
G03X415387Y406381I-178J-183*
G01*
G75*
G02X415342Y406394J83*
G01*
G75*
G02X415200Y406491I3746J5679*
G01*
G75*
G02X415034Y406612I2857J4089*
G01*
G75*
G02X414851Y406756I4956J6502*
G01*
G75*
G03X414661Y406906I-10356J-12837*
G01*
G75*
G03X414475Y407050I-8960J-11426*
G01*
G75*
G03X414314Y407170I-8043J-10618*
G01*
G75*
G03X414224Y407231I-792J-1073*
G01*
G75*
G02X414118Y407307I471J769*
G01*
G75*
G02X413793Y407580I37254J44552*
G01*
G75*
G02X413410Y407909I27996J32972*
G01*
G75*
G02X412987Y408281I43737J50333*
G01*
G75*
G03X412563Y408649I-24286J-27491*
G01*
G75*
G03X412180Y408970I-15023J-17525*
G01*
G75*
G03X411853Y409235I-20731J-25271*
G01*
G75*
G03X411750Y409295I-254J-318*
G01*
G75*
G02X411554Y409417I238J600*
G01*
G75*
G02X411304Y409670I2281J2506*
G01*
G75*
G02X411053Y409983I2867J2557*
G01*
G75*
G02X410846Y410309I2666J1917*
G01*
G75*
G02X410689Y410722I1369J758*
G01*
G75*
G02X410631Y411211I2307J521*
G01*
G75*
G02X410674Y411655I2050J28*
G01*
G75*
G02X410825Y411919I480J-100*
G01*
G75*
G03X410904Y412019I-261J288*
G01*
G75*
G03X410974Y412172I-1010J559*
G01*
G75*
G03X411031Y412357I-1363J516*
G01*
G75*
G03X411065Y412556I-1709J396*
G01*
G75*
G02X411109Y412807I2065J-231*
G01*
G75*
G02X411179Y412996I812J-194*
G01*
G75*
G02X411293Y413165I764J-395*
G01*
G75*
G02X411476Y413352I1729J-1502*
G01*
G75*
G02X411705Y413540I1822J-1985*
G01*
G75*
G02X411885Y413631I362J-496*
G01*
G75*
G02X412110Y413670I268J-858*
G01*
G75*
G02X412529Y413681I424J-8800*
G01*
G75*
G02X412812Y413674I-7J-5930*
G01*
G75*
G02X413088Y413654I-254J-5393*
G01*
G75*
G02X413324Y413624I-476J-4748*
G01*
G75*
G02X413456Y413589I-88J-589*
G01*
G75*
G02X413746Y413412I-377J-947*
G01*
G75*
G02X415050Y412276I-169264J-195633*
G01*
G75*
G02X416654Y410850I-98045J-111835*
G01*
G75*
G02X418667Y409019I-254204J-281537*
G01*
G75*
G03X419321Y408429I36897J40278*
G01*
G75*
G03X419896Y407932I20111J22685*
G01*
G75*
G03X420395Y407515I45751J54272*
G01*
G75*
G03X420492Y407481I96J117*
G01*
G75*
G03X420560Y407512J90*
G01*
G75*
G03X420606Y407596I-164J143*
G01*
G75*
G03X420630Y407752I-705J192*
G01*
G75*
G03X420637Y408011I-4922J257*
G01*
G75*
G03X420631Y408220I-3304J6*
G01*
G75*
G03X420610Y408413I-2371J-156*
G01*
G75*
G03X420581Y408569I-2112J-306*
G01*
G75*
G03X420546Y408635I-136J-30*
G01*
G75*
G02X420508Y408702I114J109*
G01*
G75*
G02X420468Y408864I2552J719*
G01*
G75*
G02X420433Y409063I2799J596*
G01*
G75*
G02X420408Y409281I3919J550*
G01*
G75*
G03X420382Y409544I-8666J-735*
G01*
G75*
G03X420339Y409889I-25190J-2927*
G01*
G75*
G03X420290Y410253I-26815J-3471*
G01*
G75*
G03X420240Y410581I-17730J-2539*
G01*
G75*
G02X420158Y411277I7869J1274*
G01*
G75*
G02X420170Y411817I2868J210*
G01*
G75*
G02X420273Y412242I1763J-204*
G01*
G75*
G02X420472Y412580I1093J-415*
G01*
G75*
G03X420580Y412729I-959J809*
G01*
G75*
G03X420664Y412892I-1066J657*
G01*
G75*
G03X420719Y413054I-1006J431*
G01*
G75*
G03X420737Y413198I-564J144*
G01*
G75*
G02X420789Y413481I799J-1*
G01*
G75*
G02X420944Y413778I1341J-507*
G01*
G75*
G02X421171Y414043I1282J-871*
G01*
G75*
G02X421440Y414232I827J-893*
G01*
G75*
G02X421750Y414329I433J-835*
G01*
G75*
G02X422254Y414370I666J-5073*
G01*
G75*
G02X422762Y414361I164J-5077*
G01*
G75*
G02X423093Y414285I-74J-1074*
G01*
X424387Y393472D02*
G75*
G03X424393Y392855I35527J9D01*
G01*
G75*
G03X424415Y392546I2741J47*
G01*
G75*
G03X424459Y392382I637J84*
G01*
G75*
G03X424537Y392331I78J32*
G01*
G75*
G03X424615Y392380J86*
G01*
G75*
G03X424663Y392534I-543J255*
G01*
G75*
G03X424695Y392822I-2351J403*
G01*
G75*
G03X424716Y393374I-26658J1285*
G01*
G75*
G03X424727Y394100I-30466J842*
G01*
G75*
G03X424700Y394457I-2228J8*
G01*
G75*
G03X424629Y394620I-352J-56*
G01*
G75*
G03X424512Y394656I-83J-65*
G01*
G75*
G03X424452Y394588I29J-87*
G01*
G75*
G03X424416Y394362I2168J-459*
G01*
G75*
G03X424393Y394014I4229J-448*
G01*
G75*
G03X424387Y393472I23333J-542*
G01*
X424891Y394857D02*
G75*
G02X424911Y394757I-282J-109D01*
G01*
G75*
G02X424920Y394365I-32430J-913*
G01*
G75*
G02X424922Y393901I-21123J-340*
G01*
G75*
G02X424915Y393376I-34432J176*
G01*
X424887Y392031*
X424187*
Y394931*
X424513Y394962*
G75*
G02X424654Y394967I108J-1105*
G01*
G75*
G02X424767Y394949I-16J-476*
G01*
G75*
G02X424847Y394912I-73J-262*
G01*
G75*
G02X424891Y394857I-67J-98*
G01*
X426809Y394089D02*
G75*
G03X426538Y393948I479J-1256D01*
G01*
G75*
G03X426364Y393770I339J-506*
G01*
G75*
G03X426269Y393530I564J-361*
G01*
G75*
G03X426241Y393198I1755J-319*
G01*
G75*
G03X426329Y392687I1581J11*
G01*
G75*
G03X426580Y392380I548J192*
G01*
G75*
G03X427061Y392222I591J990*
G01*
G75*
G03X427946Y392181I881J9289*
G01*
G75*
G02X428519Y392175I-5J-30328*
G01*
G75*
G02X428734Y392146I-18J-925*
G01*
G75*
G02X428852Y392071I-58J-224*
G01*
G75*
G02X428940Y391922I-391J-331*
G01*
G75*
G03X428987Y391827I549J209*
G01*
G75*
G03X429046Y391752I320J193*
G01*
G75*
G03X429108Y391709I161J166*
G01*
G75*
G03X429163Y391706I31J67*
G01*
G75*
G03X429222Y391770I-29J85*
G01*
G75*
G03X429258Y391965I-1576J394*
G01*
G75*
G03X429281Y392261I-3134J391*
G01*
G75*
G03X429287Y392707I-15096J436*
G01*
G75*
G03X429280Y393277I-22907J1*
G01*
G75*
G03X429249Y393555I-1629J-39*
G01*
G75*
G03X429179Y393743I-606J-121*
G01*
G75*
G03X429045Y393923I-840J-484*
G01*
G75*
G03X428876Y394067I-740J-698*
G01*
G75*
G03X428706Y394141I-283J-415*
G01*
G75*
G03X428455Y394173I-285J-1241*
G01*
G75*
G03X427926Y394181I-538J-19326*
G01*
G75*
G03X427573Y394174I10J-9284*
G01*
G75*
G03X427237Y394154I290J-7699*
G01*
G75*
G03X426953Y394124I579J-7023*
G01*
G75*
G03X426809Y394089I74J-613*
G01*
X426920Y393615D02*
G75*
G03X426778Y393409I362J-400D01*
G01*
G75*
G03X426739Y393154I564J-217*
G01*
G75*
G03X426811Y392908I589J38*
G01*
G75*
G03X426977Y392728I442J242*
G01*
G75*
G03X427130Y392656I330J503*
G01*
G75*
G03X427328Y392613I354J1152*
G01*
G75*
G03X427590Y392595I280J2147*
G01*
G75*
G03X427952Y392601I67J7472*
G01*
X428687Y392631*
X428719Y393077*
G75*
G03X428698Y393440I-1414J101*
G01*
G75*
G03X428567Y393647I-326J-61*
G01*
G75*
G03X428291Y393753I-335J-459*
G01*
G75*
G03X427751Y393781I-540J-5279*
G01*
G75*
G03X427440Y393771I7J-5332*
G01*
G75*
G03X427211Y393742I96J-1669*
G01*
G75*
G03X427041Y393691I183J-919*
G01*
G75*
G03X426920Y393615I156J-381*
G01*
X428817Y393895D02*
G75*
G02X428875Y393820I-75J-118D01*
G01*
G75*
G02X428909Y393669I-805J-260*
G01*
G75*
G02X428924Y393444I-1757J-230*
G01*
G75*
G02X428917Y393122I-7191J-12*
G01*
X428887Y392431*
X427912Y392402*
G75*
G02X427085Y392399I-476J16259*
G01*
G75*
G02X426747Y392490I16J730*
G01*
G75*
G02X426585Y392708I159J286*
G01*
G75*
G02X426537Y393164I2135J457*
G01*
G75*
G02X426546Y393394I2999J-4*
G01*
G75*
G02X426572Y393606I2274J-174*
G01*
G75*
G02X426611Y393780I1913J-330*
G01*
G75*
G02X426657Y393861I174J-46*
G01*
G75*
G02X426867Y393953I224J-224*
G01*
G75*
G02X427711Y393979I1298J-28021*
G01*
G75*
G02X428544Y393978I373J-23146*
G01*
G75*
G02X428817Y393895I-11J-531*
G01*
X429297Y394170D02*
G75*
G02X429398Y394003I-386J-349D01*
G01*
G75*
G02X429454Y393778I-950J-356*
G01*
G75*
G02X429481Y393413I-3270J-423*
G01*
G75*
G02X429487Y392695I-41018J-696*
G01*
Y391431*
X429142*
G75*
G02X428957Y391441I-1J1643*
G01*
G75*
G02X428850Y391478I29J257*
G01*
G75*
G02X428784Y391552I95J152*
G01*
G75*
G02X428737Y391681I545J269*
G01*
G75*
G03X428664Y391826I-331J-77*
G01*
G75*
G03X428536Y391904I-188J-163*
G01*
G75*
G03X428279Y391943I-335J-1331*
G01*
G75*
G03X427549Y391981I-3188J-55081*
G01*
G75*
G02X426637Y392053I579J13140*
G01*
G75*
G02X426261Y392213I81J712*
G01*
G75*
G02X426083Y392533I320J387*
G01*
G75*
G02X426037Y393234I5266J701*
G01*
G75*
G02X426045Y393670I12267J-3*
G01*
G75*
G02X426078Y393884I911J-33*
G01*
G75*
G02X426154Y394030I384J-107*
G01*
G75*
G02X426301Y394173I733J-602*
G01*
G75*
G02X426497Y394285I478J-609*
G01*
G75*
G02X426731Y394346I369J-942*
G01*
G75*
G02X427097Y394374I422J-3117*
G01*
G75*
G02X427835Y394381I753J-42333*
G01*
G75*
G02X428595Y394375I-8J-49954*
G01*
G75*
G02X428937Y394348I-42J-2688*
G01*
G75*
G02X429141Y394286I-101J-704*
G01*
G75*
G02X429297Y394170I-214J-452*
G01*
X435333Y397707D02*
G75*
G03X435209Y397387I2039J-976D01*
G01*
G75*
G03X435142Y397067I1820J-549*
G01*
G75*
G03X435109Y396615I4595J-559*
G01*
G75*
G03X435096Y395764I49678J-1161*
G01*
G75*
G03X435096Y394822I83949J-541*
G01*
G75*
G03X435122Y394457I2750J16*
G01*
G75*
G03X435193Y394234I687J94*
G01*
G75*
G03X435337Y394030I811J419*
G01*
G75*
G03X435724Y393741I996J932*
G01*
G75*
G03X436205Y393589I720J1443*
G01*
G75*
G03X437094Y393495I1521J10127*
G01*
G75*
G03X440087Y393317I44613J723555*
G01*
G75*
G03X440918Y393302I590J10197*
G01*
G75*
G03X441620Y393366I-126J5318*
G01*
G75*
G03X442167Y393497I-552J3504*
G01*
G75*
G03X442506Y393698I-281J859*
G01*
G75*
G03X442614Y393954I-235J250*
G01*
G75*
G03X442472Y394118I-169J-3*
G01*
G75*
G03X441774Y394178I-766J-4832*
G01*
G75*
G03X439312Y394204I-5564J-398372*
G01*
X435887Y394231*
X435830Y396231*
G75*
G03X435806Y397000I-247509J-7219*
G01*
G75*
G03X435784Y397652I-128899J-4107*
G01*
G75*
G03X435762Y398235I-1076944J-39730*
G01*
G75*
G03X435755Y398261I-59J-2*
G01*
G75*
G03X435697Y398273I-34J-19*
G01*
G75*
G03X435600Y398177I311J-407*
G01*
G75*
G03X435476Y397986I1237J-939*
G01*
G75*
G03X435333Y397707I4746J-2613*
G01*
X436070Y408904D02*
G75*
G03X435871Y408305I2580J-1187D01*
G01*
G75*
G03X435730Y407450I9544J-2017*
G01*
G75*
G03X435655Y406483I11379J-1367*
G01*
G75*
G03X435663Y405517I11248J-396*
G01*
G75*
G03X435723Y404779I12272J630*
G01*
G75*
G03X435828Y404359I1600J179*
G01*
G75*
G03X436024Y404051I917J367*
G01*
G75*
G03X436376Y403737I1951J1827*
G01*
G75*
G03X436643Y403616I407J546*
G01*
G75*
G03X437069Y403559I594J2830*
G01*
G75*
G03X437849Y403535I837J14488*
G01*
G75*
G03X439926Y403531I2064J491785*
G01*
G75*
G03X441936Y403535I42J409888*
G01*
G75*
G03X442776Y403560I-84J17069*
G01*
G75*
G03X443263Y403617I-219J4033*
G01*
G75*
G03X443617Y403731I-241J1356*
G01*
G75*
G03X443854Y403956I-229J479*
G01*
G75*
G03X443775Y404113I-94J51*
G01*
G75*
G03X442949Y404177I-912J-6468*
G01*
G75*
G03X440262Y404204I-5600J-414956*
G01*
X436487Y404231*
X436461Y406806*
G75*
G03X436445Y407793I-92599J-983*
G01*
G75*
G03X436420Y408624I-46674J-978*
G01*
G75*
G03X436391Y409350I-228811J-8932*
G01*
G75*
G03X436361Y409379I-30J-1*
G01*
G75*
G03X436322Y409358I1J-48*
G01*
G75*
G03X436245Y409239I2284J-1570*
G01*
G75*
G03X436158Y409085I2111J-1292*
G01*
G75*
G03X436070Y408904I3787J-1965*
G01*
X449883Y409326D02*
G75*
G03X449429Y409186I1367J-5253D01*
G01*
G75*
G03X448859Y408970I4825J-13590*
G01*
G75*
G03X448286Y408734I17222J-42635*
G01*
G75*
G03X448237Y408661I31J-73*
G01*
G75*
G03X448299Y408600I62*
G01*
G75*
G03X452827Y408659I-159934J12355036*
G01*
G75*
G03X457331Y408721I-115047J8601165*
G01*
G75*
G03X457481Y408784I-3J217*
G01*
G75*
G02X457538Y408822I117J-116*
G01*
G75*
G02X457637Y408852I288J-750*
G01*
G75*
G02X457754Y408874I233J-951*
G01*
G75*
G02X457876Y408881I121J-1036*
G01*
G75*
G03X458102Y408926I1J578*
G01*
G75*
G03X458361Y409068I-594J1396*
G01*
G75*
G03X458574Y409245I-808J1190*
G01*
G75*
G03X458637Y409398I-154J152*
G01*
G75*
G03X458604Y409432I-33*
G01*
G75*
G03X457439Y409456I-15784J-725747*
G01*
G75*
G03X456122Y409474I-2091J-104177*
G01*
G75*
G03X454558Y409481I-1614J-206495*
G01*
G75*
G03X452369Y409474I55J-399426*
G01*
G75*
G03X451146Y409451I244J-44353*
G01*
G75*
G03X450366Y409407I553J-16843*
G01*
G75*
G03X449883Y409326I222J-2799*
G01*
X453137Y399985D02*
G75*
G03X451865Y399881I1913J-31378D01*
G01*
G75*
G03X450827Y399737I1456J-14298*
G01*
G75*
G03X449916Y399537I1918J-10890*
G01*
G75*
G03X449037Y399262I2692J-10150*
G01*
G75*
G03X448424Y399017I3294J-9128*
G01*
G75*
G03X447826Y398729I4011J-9107*
G01*
G75*
G03X447611Y398579I477J-913*
G01*
G75*
G03X447637Y398531I19J-21*
G01*
G75*
G02X447753Y398561I1161J-4252*
G01*
G75*
G02X447895Y398594I2335J-9485*
G01*
G75*
G02X448039Y398626I2212J-9678*
G01*
G75*
G02X448163Y398652I1117J-5178*
G01*
G75*
G03X448273Y398678I-209J1110*
G01*
G75*
G03X448374Y398714I-264J896*
G01*
G75*
G03X448456Y398754I-296J700*
G01*
G75*
G03X448494Y398792I-55J96*
G01*
G75*
G02X448536Y398826I70J-43*
G01*
G75*
G02X448632Y398854I265J-730*
G01*
G75*
G02X448754Y398874I219J-963*
G01*
G75*
G02X448887Y398881I136J-1371*
G01*
G75*
G03X449021Y398888I2J1228*
G01*
G75*
G03X449144Y398910I-101J917*
G01*
G75*
G03X449242Y398942I-172J691*
G01*
G75*
G03X449287Y398981I-37J89*
G01*
G75*
G02X449347Y399020I72J-45*
G01*
G75*
G02X449592Y399051I852J-5725*
G01*
G75*
G02X449893Y399073I501J-4776*
G01*
G75*
G02X450237Y399081I350J-8188*
G01*
G75*
G03X450582Y399088I4J8205*
G01*
G75*
G03X450883Y399110I-200J4798*
G01*
G75*
G03X451127Y399141I-608J5756*
G01*
G75*
G03X451187Y399181I-13J84*
G01*
G75*
G02X451247Y399220I72J-45*
G01*
G75*
G02X451492Y399251I852J-5725*
G01*
G75*
G02X451793Y399273I501J-4776*
G01*
G75*
G02X452137Y399281I350J-8188*
G01*
G75*
G03X452482Y399288I4J8205*
G01*
G75*
G03X452783Y399310I-200J4798*
G01*
G75*
G03X453027Y399341I-608J5756*
G01*
G75*
G03X453087Y399381I-13J84*
G01*
G75*
G02X453133Y399419I82J-51*
G01*
G75*
G02X453230Y399451I269J-659*
G01*
G75*
G02X453353Y399473I224J-894*
G01*
G75*
G02X453487Y399481I135J-1218*
G01*
G75*
G03X453621Y399488I2J1228*
G01*
G75*
G03X453744Y399510I-101J917*
G01*
G75*
G03X453842Y399542I-172J691*
G01*
G75*
G03X453887Y399581I-37J89*
G01*
G75*
G02X453928Y399619I93J-58*
G01*
G75*
G02X454001Y399651I211J-381*
G01*
G75*
G02X454091Y399673I176J-528*
G01*
G75*
G02X454187Y399681I96J-616*
G01*
G75*
G03X454283Y399688I2J626*
G01*
G75*
G03X454374Y399710I-86J550*
G01*
G75*
G03X454447Y399742I-138J413*
G01*
G75*
G03X454487Y399781I-54J96*
G01*
G75*
G02X454527Y399819I94J-59*
G01*
G75*
G02X454599Y399851I208J-367*
G01*
G75*
G02X454687Y399873I174J-509*
G01*
G75*
G02X454781Y399881I94J-585*
G01*
G75*
G03X454880Y399893J406*
G01*
G75*
G03X454985Y399929I-152J613*
G01*
G75*
G03X455080Y399983I-253J559*
G01*
G75*
G03X455150Y400046I-191J280*
G01*
G75*
G03X455224Y400143I-1143J945*
G01*
G75*
G03X455217Y400175I-19J13*
G01*
G75*
G03X455169Y400184I-35J-57*
G01*
G75*
G03X454987Y400146I1269J-6579*
G01*
G75*
G02X454795Y400115I-351J1578*
G01*
G75*
G02X454320Y400071I-4100J41574*
G01*
G75*
G02X453753Y400026I-3394J38952*
G01*
G75*
G02X453137Y399985I-3924J53841*
G01*
X460014Y406156D02*
G75*
G02X459978Y405593I-13926J604D01*
G01*
G75*
G02X459922Y405128I-6617J561*
G01*
G75*
G02X459842Y404720I-5056J783*
G01*
G75*
G02X459730Y404331I-4457J1071*
G01*
G75*
G02X459419Y403607I-4546J1528*
G01*
G75*
G02X458962Y402859I-6462J3434*
G01*
G75*
G02X458416Y402167I-6068J4223*
G01*
G75*
G02X457836Y401611I-3820J3402*
G01*
G75*
G03X457546Y401373I243152J-296990*
G01*
G75*
G03X457209Y401096I440327J-537130*
G01*
G75*
G03X456879Y400825I431559J-525222*
G01*
G75*
G03X456611Y400605I185301J-225352*
G01*
G75*
G02X456382Y400420I-7753J9402*
G01*
G75*
G02X456169Y400258I-5168J6578*
G01*
G75*
G02X455987Y400128I-5536J7558*
G01*
G75*
G02X455911Y400091I-159J227*
G01*
G75*
G03X455847Y400065I121J-383*
G01*
G75*
G03X455746Y400009I1234J-2370*
G01*
G75*
G03X455633Y399940I1514J-2610*
G01*
G75*
G03X455522Y399866I1659J-2609*
G01*
G75*
G02X455405Y399795I-621J889*
G01*
G75*
G02X455274Y399735I-624J1183*
G01*
G75*
G02X455150Y399693I-437J1100*
G01*
G75*
G02X455053Y399681I-96J356*
G01*
G75*
G03X454970Y399673I0J-464*
G01*
G75*
G03X454891Y399651I81J-449*
G01*
G75*
G03X454826Y399619I130J-344*
G01*
G75*
G03X454787Y399581I62J-102*
G01*
G75*
G02X454747Y399542I-94J57*
G01*
G75*
G02X454674Y399510I-211J381*
G01*
G75*
G02X454583Y399488I-176J528*
G01*
G75*
G02X454487Y399481I-94J619*
G01*
G75*
G03X454391Y399473I1J-624*
G01*
G75*
G03X454301Y399451I86J-550*
G01*
G75*
G03X454228Y399419I138J-413*
G01*
G75*
G03X454187Y399381I53J-96*
G01*
G75*
G02X454142Y399342I-83J50*
G01*
G75*
G02X454044Y399310I-269J659*
G01*
G75*
G02X453921Y399288I-224J894*
G01*
G75*
G02X453787Y399281I-132J1221*
G01*
G75*
G03X453653Y399273I1J-1225*
G01*
G75*
G03X453530Y399251I101J-917*
G01*
G75*
G03X453433Y399219I172J-691*
G01*
G75*
G03X453387Y399181I37J-90*
G01*
G75*
G02X453327Y399141I-73J44*
G01*
G75*
G02X453083Y399110I-852J5725*
G01*
G75*
G02X452782Y399088I-501J4776*
G01*
G75*
G02X452437Y399081I-341J8198*
G01*
G75*
G03X452093Y399073I6J-8196*
G01*
G75*
G03X451792Y399051I200J-4798*
G01*
G75*
G03X451547Y399020I608J-5756*
G01*
G75*
G03X451487Y398981I12J-85*
G01*
G75*
G02X451427Y398941I-73J44*
G01*
G75*
G02X451183Y398910I-852J5725*
G01*
G75*
G02X450882Y398888I-501J4776*
G01*
G75*
G02X450537Y398881I-341J8198*
G01*
G75*
G03X450193Y398873I6J-8196*
G01*
G75*
G03X449892Y398851I200J-4798*
G01*
G75*
G03X449647Y398820I608J-5756*
G01*
G75*
G03X449587Y398781I12J-85*
G01*
G75*
G02X449542Y398742I-83J50*
G01*
G75*
G02X449444Y398710I-269J659*
G01*
G75*
G02X449321Y398688I-224J894*
G01*
G75*
G02X449187Y398681I-132J1221*
G01*
G75*
G03X449053Y398673I1J-1225*
G01*
G75*
G03X448930Y398651I101J-917*
G01*
G75*
G03X448833Y398619I172J-691*
G01*
G75*
G03X448787Y398581I37J-90*
G01*
G75*
G02X448747Y398542I-95J58*
G01*
G75*
G02X448676Y398510I-208J367*
G01*
G75*
G02X448587Y398488I-174J511*
G01*
G75*
G02X448494Y398481I-91J583*
G01*
G75*
G03X448254Y398447I1J-884*
G01*
G75*
G03X447917Y398335I1054J-3745*
G01*
G75*
G03X447448Y398139I2900J-7565*
G01*
G75*
G03X446758Y397815I16230J-35467*
G01*
G75*
G03X445848Y397244I2080J-4325*
G01*
G75*
G03X445111Y396495I2739J-3435*
G01*
G75*
G03X444602Y395631I3153J-2438*
G01*
G75*
G03X444365Y394719I2868J-1232*
G01*
X444309Y394181*
X443793*
G75*
G03X443472Y394168I2J-4126*
G01*
G75*
G03X443305Y394119I33J-426*
G01*
G75*
G03X443168Y394007I210J-396*
G01*
G75*
G03X442966Y393741I3663J-2988*
G01*
G75*
G02X442763Y393481I-2731J1922*
G01*
G75*
G02X442600Y393348I-461J400*
G01*
G75*
G02X442383Y393265I-403J718*
G01*
G75*
G02X441960Y393178I-1912J8236*
G01*
G75*
G02X441357Y393110I-812J4541*
G01*
G75*
G02X440584Y393100I-539J11968*
G01*
G75*
G02X439406Y393144I648J33686*
G01*
G75*
G02X437237Y393269I18190J334956*
G01*
G75*
G02X436230Y393343I2365J38850*
G01*
G75*
G02X435699Y393429I319J3658*
G01*
G75*
G02X435359Y393562I303J1274*
G01*
G75*
G02X435087Y393780I529J940*
G01*
G75*
G02X434976Y393969I404J364*
G01*
G75*
G02X434919Y394233I1130J383*
G01*
G75*
G02X434895Y394685I4848J484*
G01*
G75*
G02X434893Y395716I99493J744*
G01*
G75*
G02X434903Y396824I93904J-314*
G01*
G75*
G02X434937Y397293I4101J-61*
G01*
G75*
G02X435020Y397641I1670J-218*
G01*
G75*
G02X435201Y398081I4809J-1713*
G01*
G75*
G02X435329Y398339I5520J-2569*
G01*
G75*
G02X435463Y398580I4474J-2346*
G01*
G75*
G02X435588Y398777I3912J-2335*
G01*
G75*
G02X435670Y398868I349J-234*
G01*
G75*
G03X435734Y398927I-474J576*
G01*
G75*
G03X435788Y398991I-463J444*
G01*
G75*
G03X435826Y399051I-412J305*
G01*
G75*
G03X435837Y399094I-80J43*
G01*
G75*
G02X435902Y399277I292*
G01*
G75*
G02X436352Y399820I19390J-15613*
G01*
G75*
G02X436828Y400350I10253J-8738*
G01*
G75*
G02X437220Y400717I3222J-3057*
G01*
G75*
G02X438160Y401346I3604J-4360*
G01*
G75*
G02X439196Y401769I2546J-4764*
G01*
G75*
G02X440489Y402032I2246J-7724*
G01*
G75*
G02X442249Y402179I2972J-24931*
G01*
G75*
G03X443583Y402280I-1201J24689*
G01*
G75*
G03X444983Y402457I-3128J30418*
G01*
G75*
G03X446221Y402669I-4411J29444*
G01*
G75*
G03X446887Y402874I-617J3183*
G01*
G75*
G02X446988Y402916I1487J-3481*
G01*
G75*
G02X447131Y402972I5404J-13543*
G01*
G75*
G02X447289Y403031I5756J-15008*
G01*
G75*
G02X447437Y403085I4366J-11784*
G01*
G75*
G03X448197Y403426I-1824J5090*
G01*
G75*
G03X448906Y403883I-2706J4978*
G01*
G75*
G03X449477Y404390I-2901J3841*
G01*
G75*
G03X449813Y404881I-1313J1259*
G01*
G75*
G02X449905Y405043I1068J-500*
G01*
G75*
G02X450052Y405245I3080J-2081*
G01*
G75*
G02X450224Y405452I3207J-2506*
G01*
G75*
G02X450398Y405631I2239J-1991*
G01*
G75*
G03X450625Y405869I-2327J2450*
G01*
G75*
G03X450764Y406072I-824J715*
G01*
G75*
G03X450859Y406307I-1048J557*
G01*
G75*
G03X450941Y406656I-4311J1203*
G01*
X451063Y407281*
X460062*
X460014Y406156*
X460437Y413781D02*
Y409601D01*
X459730Y409530*
G75*
G03X459387Y409487I768J-7585*
G01*
G75*
G03X459168Y409438I214J-1459*
G01*
G75*
G03X459031Y409376I175J-571*
G01*
G75*
G03X458965Y409294I82J-133*
G01*
G75*
G02X458839Y409054I-881J310*
G01*
G75*
G02X458647Y408856I-796J581*
G01*
G75*
G02X458416Y408726I-560J719*
G01*
G75*
G02X458176Y408681I-241J622*
G01*
G75*
G03X458046Y408673I1J-1146*
G01*
G75*
G03X457927Y408651I99J-870*
G01*
G75*
G03X457832Y408619I167J-651*
G01*
G75*
G03X457787Y408581I38J-91*
G01*
G75*
G02X457705Y408533I-85J52*
G01*
G75*
G02X456582Y408506I-7604J291089*
G01*
G75*
G02X455178Y408487I-1951J89069*
G01*
G75*
G02X453250Y408481I-1909J308554*
G01*
G75*
G03X450788Y408476I17J-600317*
G01*
G75*
G03X449560Y408454I193J-44979*
G01*
G75*
G03X448807Y408417I721J-22836*
G01*
G75*
G03X448581Y408334I26J-417*
G01*
G75*
G02X448497Y408277I-519J683*
G01*
G75*
G02X448403Y408229I-495J851*
G01*
G75*
G02X448314Y408195I-353J784*
G01*
G75*
G02X448247Y408184I-72J227*
G01*
G75*
G03X447941Y408113I18J-774*
G01*
G75*
G03X447483Y407873I2131J-4631*
G01*
G75*
G03X447039Y407579I2529J-4288*
G01*
G75*
G03X446760Y407307I882J-1185*
G01*
G75*
G03X446357Y406692I3333J-2623*
G01*
G75*
G03X446028Y405965I5148J-2766*
G01*
G75*
G03X445809Y405222I5215J-1940*
G01*
G75*
G03X445737Y404559I3004J-664*
G01*
Y404181*
X445231*
G75*
G03X444865Y404159I2J-3084*
G01*
G75*
G03X444582Y404091I148J-1243*
G01*
G75*
G03X444400Y403986I214J-581*
G01*
G75*
G03X444336Y403852I113J-135*
G01*
G75*
G02X444311Y403793I-84J1*
G01*
G75*
G02X444213Y403707I-750J765*
G01*
G75*
G02X444078Y403616I-826J1076*
G01*
G75*
G02X443918Y403531I-1052J1775*
G01*
G75*
G02X443554Y403416I-588J1226*
G01*
G75*
G02X443039Y403360I-742J4433*
G01*
G75*
G02X442140Y403335I-981J19589*
G01*
G75*
G02X439939Y403331I-2187J506315*
G01*
G75*
G02X437825Y403335I-20J464200*
G01*
G75*
G02X436903Y403359I100J22243*
G01*
G75*
G02X436380Y403406I278J5987*
G01*
G75*
G02X436109Y403507I87J648*
G01*
G75*
G02X435789Y403785I865J1319*
G01*
G75*
G02X435606Y404105I686J604*
G01*
G75*
G02X435509Y404589I1993J650*
G01*
G75*
G02X435457Y405506I21256J1683*
G01*
G75*
G02X435453Y406826I20001J720*
G01*
G75*
G02X435550Y407899I8926J-265*
G01*
G75*
G02X435756Y408808I6407J-973*
G01*
G75*
G02X436082Y409626I4946J-1500*
G01*
G75*
G02X436715Y410673I7011J-3519*
G01*
G75*
G02X437546Y411693I8493J-6082*
G01*
G75*
G02X438457Y412556I7101J-6578*
G01*
G75*
G02X439324Y413124I2923J-3515*
G01*
G75*
G02X440403Y413522I2296J-4557*
G01*
G75*
G02X441622Y413705I1600J-6520*
G01*
G75*
G02X443770Y413769I2257J-39815*
G01*
G75*
G02X450862Y413779I7553J-2673193*
G01*
X460437Y413781*
D02*
D22*
X134998Y451644D02*
X145659D01*
Y445707*
X134998*
Y451644*
Y497313D02*
X145659D01*
Y491376*
X134998*
Y497313*
X135785Y399675D02*
X146447D01*
Y393738*
X135785*
Y399675*
Y475659D02*
X146447D01*
Y469722*
X135785*
Y475659*
X136573Y428415D02*
X147234D01*
Y422478*
X136573*
Y428415*
X146415Y497313D02*
X157077D01*
Y491376*
X146415*
Y497313*
X146809Y451644D02*
X157470D01*
Y445707*
X146809*
Y451644*
Y475659D02*
X157470D01*
Y469722*
X146809*
Y475659*
X147203Y399675D02*
X157864D01*
Y393738*
X147203*
Y399675*
X147990Y428415D02*
X158652D01*
Y422478*
X147990*
Y428415*
X148809Y367360D02*
X138148D01*
Y373297*
X148809*
Y367360*
X152321Y364242D02*
X162982D01*
Y358305*
X152321*
Y364242*
X162589Y367360D02*
X151927D01*
Y373297*
X162589*
Y367360*
X174006Y415423D02*
Y404762D01*
X168069*
Y415423*
X174006*
X178337Y364636D02*
Y353974D01*
X172400*
Y364636*
X178337*
X193297Y502400D02*
X182636D01*
Y508337*
X193297*
Y502400*
X197628Y521691D02*
X186967D01*
Y527628*
X197628*
Y521691*
X202352Y364636D02*
Y353974D01*
X196415*
Y364636*
X202352*
X205896Y502400D02*
X195234D01*
Y508337*
X205896*
Y502400*
X223219Y426809D02*
X212557D01*
Y432746*
X223219*
Y426809*
X234998Y399281D02*
X245659D01*
Y393344*
X234998*
Y399281*
X331848Y451644D02*
X342510D01*
Y445707*
X331848*
Y451644*
Y497313D02*
X342510D01*
Y491376*
X331848*
Y497313*
X332636Y399675D02*
X343297D01*
Y393738*
X332636*
Y399675*
Y475659D02*
X343297D01*
Y469722*
X332636*
Y475659*
X333423Y428415D02*
X344085D01*
Y422478*
X333423*
Y428415*
X343266Y497313D02*
X353927D01*
Y491376*
X343266*
Y497313*
X343659Y451644D02*
X354321D01*
Y445707*
X343659*
Y451644*
Y475659D02*
X354321D01*
Y469722*
X343659*
Y475659*
X344053Y399675D02*
X354715D01*
Y393738*
X344053*
Y399675*
X344841Y428415D02*
X355502D01*
Y422478*
X344841*
Y428415*
X345659Y367360D02*
X334998D01*
Y373297*
X345659*
Y367360*
X349171Y364242D02*
X359833D01*
Y358305*
X349171*
Y364242*
X359439Y367360D02*
X348778D01*
Y373297*
X359439*
Y367360*
X370856Y415423D02*
Y404762D01*
X364919*
Y415423*
X370856*
X375187Y364636D02*
Y353974D01*
X369250*
Y364636*
X375187*
X390148Y502400D02*
X379486D01*
Y508337*
X390148*
Y502400*
X394478Y521691D02*
X383817D01*
Y527628*
X394478*
Y521691*
X399203Y364636D02*
Y353974D01*
X393266*
Y364636*
X399203*
X402746Y502400D02*
X392085D01*
Y508337*
X402746*
Y502400*
X420069Y426809D02*
X409407D01*
Y432746*
X420069*
Y426809*
X431848Y399281D02*
X442510D01*
Y393344*
X431848*
Y399281*
D02*
D23*
X123793Y496411D02*
Y492278D01*
X192494Y359207D02*
Y360978D01*
X181077*
Y359207*
X192494*
X192829Y353695D02*
Y357829D01*
X320644Y496411D02*
Y492278D01*
X389344Y359207D02*
Y360978D01*
X377927*
Y359207*
X389344*
X389679Y353695D02*
Y357829D01*
D02*
D25*
X172329Y418805D02*
G75*
G02Y419168J181D01*
G01*
G75*
G02Y418805J-181*
G01*
X369179D02*
G75*
G02Y419168J181D01*
G01*
G75*
G02Y418805J-181*
G01*
D02*
D117*
X158833Y530368D02*
X158537Y529778D01*
X157947Y529482*
X156766*
X156175Y529778*
X155880Y530368*
X156175Y530959*
X156766Y531254*
X157947*
X158537Y531549*
X158833Y532140*
X158537Y532730*
X157947Y533026*
X156766*
X156175Y532730*
X155880Y532140*
X151746Y529778D02*
X152041Y529482D01*
X152632*
X153222*
X153813Y529778*
X154108Y530368*
Y531254*
X153813Y531549*
X153222Y531844*
X152632*
X152041Y531549*
X151746Y531254*
Y530959*
X152041Y530663*
X152632Y530368*
X153222*
X153813Y530663*
X154108Y530959*
X149384Y529482D02*
Y531844D01*
Y530959D02*
X149089Y531549D01*
X148498Y531844*
X147907*
X147317Y531549*
X147022Y530959*
Y529482*
X144659Y529778D02*
X144069Y529482D01*
X142888*
X142297Y529778*
Y530368*
X142888Y530663*
X144069*
X144659Y530959*
Y531549*
X144069Y531844*
X142888*
X142297Y531549*
X139935Y530368D02*
X139640Y529778D01*
X139049Y529482*
X138459*
X137868Y529778*
X137573Y530368*
Y530959*
X137868Y531549*
X138459Y531844*
X139049*
X139640Y531549*
X139935Y530959*
Y530368*
X135211Y529482D02*
Y531844D01*
Y530959D02*
X134915Y531549D01*
X134325Y531844*
X133734*
X133144Y531549*
X128419Y531254D02*
X127829Y530959D01*
X127533Y530368*
X127829Y529778*
X128419Y529482*
X130486*
Y533026*
X128419*
X127829Y532730*
X127533Y532140*
X127829Y531549*
X128419Y531254*
X130486*
X125762Y530368D02*
X125467Y529778D01*
X124876Y529482*
X124285*
X123695Y529778*
X123400Y530368*
Y530959*
X123695Y531549*
X124285Y531844*
X124876*
X125467Y531549*
X125762Y530959*
Y530368*
X121037Y531549D02*
X120447Y531844D01*
X119561*
X118970Y531549*
X118675Y530959*
Y530073*
X118970Y529778*
X119561Y529482*
X120152*
X120742Y529778*
X121037Y530073*
Y530368*
X120742Y530663*
X120152Y530959*
X119561*
X118970Y530663*
X118675Y530368*
Y530073D02*
Y529482D01*
X116313D02*
Y531844D01*
Y530959D02*
X116018Y531549D01*
X115427Y531844*
X114837*
X114246Y531549*
X109226Y530959D02*
X109522Y531549D01*
X110112Y531844*
X110703*
X111293Y531549*
X111589Y530959*
Y530368*
X111293Y529778*
X110703Y529482*
X110112*
X109522Y529778*
X109226Y530368*
Y529482D02*
Y533026D01*
X355683Y530368D02*
X355388Y529778D01*
X354797Y529482*
X353616*
X353026Y529778*
X352730Y530368*
X353026Y530959*
X353616Y531254*
X354797*
X355388Y531549*
X355683Y532140*
X355388Y532730*
X354797Y533026*
X353616*
X353026Y532730*
X352730Y532140*
X348596Y529778D02*
X348892Y529482D01*
X349482*
X350073*
X350663Y529778*
X350959Y530368*
Y531254*
X350663Y531549*
X350073Y531844*
X349482*
X348892Y531549*
X348596Y531254*
Y530959*
X348892Y530663*
X349482Y530368*
X350073*
X350663Y530663*
X350959Y530959*
X346234Y529482D02*
Y531844D01*
Y530959D02*
X345939Y531549D01*
X345348Y531844*
X344758*
X344167Y531549*
X343872Y530959*
Y529482*
X341510Y529778D02*
X340919Y529482D01*
X339738*
X339148Y529778*
Y530368*
X339738Y530663*
X340919*
X341510Y530959*
Y531549*
X340919Y531844*
X339738*
X339148Y531549*
X336785Y530368D02*
X336490Y529778D01*
X335900Y529482*
X335309*
X334719Y529778*
X334423Y530368*
Y530959*
X334719Y531549*
X335309Y531844*
X335900*
X336490Y531549*
X336785Y530959*
Y530368*
X332061Y529482D02*
Y531844D01*
Y530959D02*
X331766Y531549D01*
X331175Y531844*
X330585*
X329994Y531549*
X325270Y531254D02*
X324679Y530959D01*
X324384Y530368*
X324679Y529778*
X325270Y529482*
X327337*
Y533026*
X325270*
X324679Y532730*
X324384Y532140*
X324679Y531549*
X325270Y531254*
X327337*
X322612Y530368D02*
X322317Y529778D01*
X321726Y529482*
X321136*
X320545Y529778*
X320250Y530368*
Y530959*
X320545Y531549*
X321136Y531844*
X321726*
X322317Y531549*
X322612Y530959*
Y530368*
X317888Y531549D02*
X317297Y531844D01*
X316411*
X315821Y531549*
X315526Y530959*
Y530073*
X315821Y529778*
X316411Y529482*
X317002*
X317593Y529778*
X317888Y530073*
Y530368*
X317593Y530663*
X317002Y530959*
X316411*
X315821Y530663*
X315526Y530368*
Y530073D02*
Y529482D01*
X313163D02*
Y531844D01*
Y530959D02*
X312868Y531549D01*
X312278Y531844*
X311687*
X311096Y531549*
X306077Y530959D02*
X306372Y531549D01*
X306963Y531844*
X307553*
X308144Y531549*
X308439Y530959*
Y530368*
X308144Y529778*
X307553Y529482*
X306963*
X306372Y529778*
X306077Y530368*
Y529482D02*
Y533026D01*
X0Y0D02*
M02*
