G04 EasyPC Gerber Version 21.0.3 Build 4286 *
G04 #@! TF.Part,Single*
G04 #@! TF.FileFunction,Copper,L2,Bot *
G04 #@! TF.FilePolarity,Positive *
%FSLAX45Y45*%
%MOIN*%
G04 #@! TA.AperFunction,SMDPad*
%ADD73R,0.02559X0.03937*%
%ADD100R,0.02559X0.04134*%
%ADD124R,0.03583X0.05472*%
G04 #@! TD.AperFunction*
%ADD22C,0.00500*%
%ADD25C,0.01000*%
%ADD120C,0.01500*%
G04 #@! TA.AperFunction,ViaPad*
%ADD84C,0.02362*%
G04 #@! TD.AperFunction*
%ADD88C,0.05000*%
G04 #@! TA.AperFunction,ViaPad*
%ADD87C,0.05600*%
G04 #@! TA.AperFunction,ComponentPad*
%ADD77C,0.06693*%
G04 #@! TA.AperFunction,WasherPad*
%ADD27C,0.24016*%
G04 #@! TA.AperFunction,SMDPad*
%ADD74R,0.03937X0.02559*%
%ADD123R,0.03827X0.03157*%
X0Y0D02*
D02*
D22*
X299671Y548613D02*
G75*
G02X274882Y553557I-11902J4944D01*
G01*
G75*
G02X282921Y565498I12888*
G01*
X123287*
G75*
G02X118439Y540669I-4848J-11941*
G01*
G75*
G02X106183Y549571I0J12888*
G01*
Y357543*
G75*
G02X131327Y353557I12256J-3986*
G01*
G75*
G02X122425Y341301I-12888J0*
G01*
X283784*
G75*
G02X287770Y366445I3986J12256*
G01*
G75*
G02X299671Y358502J-12888*
G01*
Y548613*
X289478Y392388D02*
G75*
G02X292075Y388489I-1630J-3900D01*
G01*
G75*
G02X285233Y385169I-4226*
G01*
X270817Y370752*
G75*
G02X269663Y370274I-1154J1151*
G01*
X212456*
G75*
G02X209933I-1261J1630*
G01*
X174387*
G75*
G02X173426Y368331I-3350J449*
G01*
X170480Y365385*
Y359634*
X172150*
Y364335*
X178587*
Y359276*
X176883*
G75*
G02X177124Y359142I-1515J-3020*
G01*
X183006*
G75*
G02X184661Y358709J-3380*
G01*
X185165*
Y358362*
G75*
G02Y353162I-2159J-2600*
G01*
Y352815*
X184661*
G75*
G02X183006Y352382I-1655J2947*
G01*
X175368*
G75*
G02X173612Y352874J3380*
G01*
X167100*
G75*
G02X163720Y356254J3380*
G01*
Y359644*
X162862*
Y358425*
X158543*
Y364122*
X162862*
Y362904*
X163720*
Y367179*
G75*
G02X165857Y370322I3380*
G01*
X167657Y372122*
Y389346*
G75*
G02X167357Y390801I3380J1456*
G01*
G75*
G02X174717I3680*
G01*
G75*
G02X174417Y389346I-3680*
G01*
Y373533*
X196023*
G75*
G02X198677Y376683I1392J1520*
G01*
X199799*
G75*
G02X198504Y378596I766J1913*
G01*
G75*
G02X201826Y380226I2061*
G01*
X202948*
G75*
G02X201654Y382140I766J1913*
G01*
G75*
G02X204976Y383770I2061*
G01*
X247134*
X263502Y400138*
Y428203*
G75*
G02X263981Y429357I1630*
G01*
X273234Y438610*
G75*
G02X273228Y438833I4219J223*
G01*
G75*
G02X281681I4226*
G01*
G75*
G02X274788Y435554I-4226*
G01*
X266762Y427528*
Y408713*
G75*
G02X267130Y409278I1520J-589*
G01*
X273232Y415379*
G75*
G02X281681Y415211I4223J-169*
G01*
G75*
G02X274578Y412115I-4226*
G01*
X269911Y407449*
Y396707*
G75*
G02X269433Y395553I-1630*
G01*
X251325Y377445*
G75*
G02X250171Y376967I-1154J1151*
G01*
X201826*
G75*
G02X201331Y376683I-1261J1630*
G01*
X261743*
X273623Y388562*
G75*
G02X282075Y388489I4226J-74*
G01*
G75*
G02X275019Y385349I-4226*
G01*
X263572Y373902*
G75*
G02X263008Y373533I-1154J1151*
G01*
X268987*
X283633Y388180*
G75*
G02X283622Y388489I4213J310*
G01*
G75*
G02X286219Y392388I4226*
G01*
Y411169*
G75*
G02X285825Y419110I1236J4042*
G01*
Y434933*
G75*
G02X285037Y442300I1630J3900*
G01*
Y458949*
G75*
G02Y466748I1630J3900*
G01*
Y482177*
G75*
G02Y489976I1630J3900*
G01*
Y506193*
G75*
G02X282626Y511330I1630J3900*
G01*
X269776Y524181*
G75*
G02X269250Y525447I1262J1266*
G01*
Y550415*
X267585Y552081*
G75*
G02X267707Y551431I-1665J-649*
G01*
G75*
G02Y551430I-635J0*
G01*
G75*
G02Y551428I-641J-1*
G01*
Y527415*
G75*
G02X267181Y526149I-1787*
G01*
X250778Y509746*
Y431731*
X252715Y433668*
Y488045*
G75*
G02X253240Y489311I1787*
G01*
X272665Y508736*
G75*
G02X272441Y510093I4002J1357*
G01*
G75*
G02X280894I4226*
G01*
G75*
G02X275137Y506153I-4226*
G01*
X256289Y487305*
Y468861*
G75*
G02X256500Y469120I1363J-895*
G01*
X272541Y485161*
G75*
G02X272441Y486077I4126J916*
G01*
G75*
G02X280894I4226*
G01*
G75*
G02X274462Y482472I-4226*
G01*
X259281Y467291*
Y448109*
X272665Y461492*
G75*
G02X272441Y462848I4002J1357*
G01*
G75*
G02X280894I4226*
G01*
G75*
G02X275137Y458909I-4226*
G01*
X262195Y445966*
Y431746*
G75*
G02X261669Y430480I-1787*
G01*
X227822Y396632*
G75*
G02X223701Y396707I-2060J74*
G01*
G75*
G02X224385Y398241I2061*
G01*
G75*
G02X224500Y398367I1376J-1141*
G01*
X232628Y406494*
X229980*
X223082Y399596*
G75*
G02X218976Y399856I-2044J261*
G01*
G75*
G02X220777Y401901I2061*
G01*
X228151Y409275*
G75*
G02X228410Y409486I1154J-1152*
G01*
X225715*
X219534Y403306*
G75*
G02X219556Y403006I-2040J-301*
G01*
G75*
G02X215432I-2062*
G01*
G75*
G02X215728Y404070I2062*
G01*
G75*
G02X216232Y405059I1766J-277*
G01*
X223708Y412535*
G75*
G02X223817Y412636I1265J-1265*
G01*
X185423*
Y393557*
G75*
G02X183636Y391770I-1787*
G01*
X180181*
G75*
G02X177609Y394919I-1026J1788*
G01*
X170644*
G75*
G02X168856Y396707J1787*
G01*
Y396888*
X159089*
G75*
G02X158114Y397177J1787*
G01*
Y393488*
X153055*
Y399925*
X157301*
Y422228*
X153843*
Y428665*
X157301*
Y439525*
G75*
G02X153783Y440002I-1618J1276*
G01*
X148489Y445297*
G75*
G02X148134Y445827I1151J1154*
G01*
X147480*
Y447045*
X145539*
Y445827*
X141220*
Y451524*
X145539*
Y450305*
X147480*
Y451524*
X151799*
Y446596*
X152661Y445734*
Y451894*
X157301*
Y456202*
X148378Y465126*
G75*
G02X147852Y466392I1262J1266*
G01*
Y469843*
X147480*
Y471061*
X146327*
Y469843*
X142008*
Y475539*
X146327*
Y474321*
X147480*
Y475539*
X151799*
Y469843*
X151427*
Y467132*
X160350Y458209*
G75*
G02X160589Y457915I-1262J-1266*
G01*
Y476266*
X156271Y480461*
G75*
G02X156250Y480482I1231J1275*
G01*
X147982Y488750*
G75*
G02X147459Y490014I1264J1264*
G01*
G75*
G02Y490015I635J0*
G01*
G75*
G02Y490017I641J1*
G01*
Y491496*
X147087*
Y492715*
X145539*
Y491496*
X141220*
Y492889*
G75*
G02X140486Y492715I-734J1455*
G01*
X139988*
Y491496*
X135669*
Y497193*
X138856*
Y501075*
G75*
G02X136260Y504974I1630J3900*
G01*
G75*
G02X144713I4226*
G01*
G75*
G02X142116Y501075I-4226*
G01*
Y497193*
X145539*
Y495974*
X147087*
Y497193*
X151406*
Y491496*
X151033*
Y490754*
X158769Y483019*
X163620Y478306*
G75*
G02X164163Y477022I-1244J-1284*
G01*
Y403612*
X174187*
G75*
G02X175974Y401825J-1787*
G01*
Y401644*
X178130*
G75*
G02X180485Y398281I1026J-1787*
G01*
G75*
G02X180702Y395344I-1330J-1575*
G01*
X181848*
Y414423*
G75*
G02X183636Y416211I1787*
G01*
X231714*
X247203Y431699*
Y510486*
G75*
G02X247728Y511752I1787*
G01*
X264132Y528156*
Y550691*
X256911Y557911*
X174967*
X171867Y554811*
G75*
G02X172154Y553281I-3939J-1530*
G01*
G75*
G02X163701I-4226*
G01*
G75*
G02X169284Y557284I4226*
G01*
X172960Y560961*
G75*
G02X173892Y561455I1266J-1262*
G01*
X168510*
X161867Y554811*
G75*
G02X159557Y549382I-3940J-1530*
G01*
Y547181*
G75*
G02X162154Y543281I-1630J-3900*
G01*
G75*
G02X153701I-4226*
G01*
G75*
G02X156297Y547181I4226*
G01*
Y549382*
G75*
G02X159284Y557284I1630J3900*
G01*
X166504Y564504*
G75*
G02X167770Y565030I1266J-1262*
G01*
X258951*
G75*
G02X260217Y564504J-1787*
G01*
X272299Y552422*
G75*
G02X272825Y551156I-1262J-1266*
G01*
Y526187*
X285025Y513987*
G75*
G02X290894Y510093I1642J-3894*
G01*
G75*
G02X288297Y506193I-4226*
G01*
Y489976*
G75*
G02Y482177I-1630J-3900*
G01*
Y466748*
G75*
G02Y458949I-1630J-3900*
G01*
Y442974*
G75*
G02X289085Y434933I-843J-4142*
G01*
Y419110*
G75*
G02X289478Y411500I-1630J-3900*
G01*
Y392388*
X216273Y355046D02*
G75*
G02X225466I4596D01*
G01*
G75*
G02X216273I-4596*
G01*
Y365046D02*
G75*
G02X225466I4596D01*
G01*
G75*
G02X216273I-4596*
G01*
X226643Y355046D02*
G75*
G02X235096I4226D01*
G01*
G75*
G02X226643I-4226*
G01*
Y365046D02*
G75*
G02X235096I4226D01*
G01*
G75*
G02X226643I-4226*
G01*
X236643Y355046D02*
G75*
G02X245096I4226D01*
G01*
G75*
G02X236643I-4226*
G01*
Y365046D02*
G75*
G02X245096I4226D01*
G01*
G75*
G02X236643I-4226*
G01*
X246643Y355046D02*
G75*
G02X255096I4226D01*
G01*
G75*
G02X246643I-4226*
G01*
Y365046D02*
G75*
G02X255096I4226D01*
G01*
G75*
G02X246643I-4226*
G01*
X184256Y367740D02*
X189315D01*
Y361106*
X184256*
Y367740*
X226522Y547267D02*
G75*
G02X232154Y543281I1405J-3986D01*
G01*
G75*
G02X223701I-4226*
G01*
G75*
G02X224102Y545078I4226J0*
G01*
X222528Y546652*
X220478*
G75*
G02X222154Y543281I-2550J-3370*
G01*
G75*
G02X213701I-4226*
G01*
G75*
G02X215377Y546652I4226*
G01*
X210478*
G75*
G02X212154Y543281I-2550J-3370*
G01*
G75*
G02X203701I-4226*
G01*
G75*
G02X205377Y546652I4226*
G01*
X200478*
G75*
G02X201152Y540550I-2550J-3370*
G01*
X206358Y535344*
X218281*
G75*
G02X219435Y534866J-1630*
G01*
X227700Y526601*
G75*
G02X228179Y525447I-1151J-1154*
G01*
Y437732*
G75*
G02X228610Y436470I-1630J-1261*
G01*
G75*
G02X224488I-2061*
G01*
G75*
G02X224919Y437732I2061*
G01*
Y524772*
X217606Y532085*
X205683*
G75*
G02X204529Y532563J1630*
G01*
X198036Y539057*
G75*
G02X195377Y546652I-109J4225*
G01*
X190478*
G75*
G02X192154Y543281I-2550J-3370*
G01*
G75*
G02X183701I-4226*
G01*
G75*
G02X185377Y546652I4226*
G01*
X180478*
G75*
G02X182154Y543281I-2550J-3370*
G01*
G75*
G02X174636Y540630I-4226*
G01*
Y525335*
X181244Y518727*
G75*
G02X181722Y517573I-1151J-1154*
G01*
Y517563*
G75*
G02X189161Y514817I3213J-2746*
G01*
G75*
G02X186703Y510978I-4226*
G01*
Y508217*
X187075*
Y502520*
X182756*
Y508217*
X183128*
Y510996*
G75*
G02X181722Y512071I1807J3820*
G01*
Y506156*
G75*
G02X181244Y505002I-1630*
G01*
X167943Y491701*
Y415122*
X174256*
Y410063*
X167943*
Y408671*
X168189*
Y409201*
X173886*
Y407785*
X177894*
G75*
G02X181217Y406156I1261J-1630*
G01*
G75*
G02X177894Y404526I-2061*
G01*
X171037*
G75*
G02X170020Y404882J1630*
G01*
X168189*
Y405411*
X166313*
G75*
G02X164683Y407041J1630*
G01*
Y492376*
G75*
G02X165162Y493530I1630*
G01*
X178463Y506831*
Y512489*
G75*
G02X172398Y511437I-3528J2328*
G01*
X127792*
X123866Y507511*
G75*
G02X124024Y502661I-3380J-2537*
G01*
Y498331*
X130063*
Y490358*
X124260*
Y484283*
G75*
G02Y479209I-3380J-2537*
G01*
Y460661*
G75*
G02Y455587I-3380J-2537*
G01*
Y437039*
G75*
G02Y431965I-3380J-2537*
G01*
Y411843*
G75*
G02Y406768I-3380J-2537*
G01*
Y386843*
G75*
G02Y381768I-3380J-2537*
G01*
Y379603*
X128973Y374889*
G75*
G02X131303Y373898I-62J-3380*
G01*
X137205Y367996*
G75*
G02X138197Y365604I-2388J-2392*
G01*
Y357949*
X146453Y349693*
X187185*
Y355762*
G75*
G02X188406Y358362I3380*
G01*
Y358709*
X188910*
G75*
G02X192148Y358748I1655J-2947*
G01*
X197103*
G75*
G02X197869Y359276I2281J-2494*
G01*
X196165*
Y364335*
X202602*
Y359276*
X200898*
G75*
G02X201974Y358426I-1515J-3021*
G01*
X208332*
G75*
G02X209240Y358945I2538J-3380*
G01*
Y361146*
G75*
G02X206643Y365046I1630J3900*
G01*
G75*
G02X215096I4226*
G01*
G75*
G02X212500Y361146I-4226*
G01*
Y358945*
G75*
G02X215096Y355046I-1630J-3900*
G01*
G75*
G02X208332Y351666I-4226*
G01*
X199384*
G75*
G02X197943Y351988J3380*
G01*
X193945*
Y346313*
G75*
G02X190565Y342933I-3380*
G01*
X145053*
G75*
G02X142661Y343925J3380*
G01*
X132429Y354157*
G75*
G02X131437Y356549I2388J2392*
G01*
Y364204*
X127511Y368130*
G75*
G02X125181Y369122I62J3380*
G01*
X118492Y375811*
G75*
G02X117500Y378203I2388J2392*
G01*
Y381768*
G75*
G02Y386843I3380J2537*
G01*
Y406768*
G75*
G02Y411843I3380J2537*
G01*
Y431965*
G75*
G02Y437039I3380J2537*
G01*
Y455587*
G75*
G02Y460661I3380J2537*
G01*
Y479209*
G75*
G02Y484283I3380J2537*
G01*
Y492448*
G75*
G02X116949Y494344I2986J1896*
G01*
Y502661*
G75*
G02X117106Y507512I3537J2313*
G01*
Y508911*
G75*
G02X118098Y511303I3380*
G01*
X124000Y517205*
G75*
G02X126392Y518197I2392J-2388*
G01*
X172398*
G75*
G02X176706Y518654I2537J-3380*
G01*
X172694Y522666*
G75*
G02X171376Y524266I311J1600*
G01*
Y540243*
G75*
G02X163331Y543281I-3449J3039*
G01*
G75*
G02X171376Y546320I4596*
G01*
Y548281*
G75*
G02X173006Y549911I1630*
G01*
X175377*
G75*
G02X173701Y553281I2550J3370*
G01*
G75*
G02X182154I4226*
G01*
G75*
G02X180478Y549911I-4226*
G01*
X184802*
G75*
G02X183331Y553281I3126J3370*
G01*
G75*
G02X192524I4596*
G01*
G75*
G02X191053Y549911I-4596*
G01*
X194802*
G75*
G02X193331Y553281I3126J3370*
G01*
G75*
G02X202524I4596*
G01*
G75*
G02X201053Y549911I-4596*
G01*
X204802*
G75*
G02X203331Y553281I3126J3370*
G01*
G75*
G02X212524I4596*
G01*
G75*
G02X211053Y549911I-4596*
G01*
X214802*
G75*
G02X213331Y553281I3126J3370*
G01*
G75*
G02X222524I4596*
G01*
G75*
G02X221053Y549911I-4596*
G01*
X223203*
G75*
G02X224357Y549433J-1630*
G01*
X226522Y547267*
X209939Y531689D02*
X215526D01*
Y526772*
X209939*
Y527600*
X201433*
G75*
G02X198110Y529230I-1261J1630*
G01*
G75*
G02X201433Y530860I2061*
G01*
X209939*
Y531689*
X209569Y522825D02*
X215896D01*
Y517167*
X209569*
Y522825*
X202496Y527118D02*
X208083D01*
Y522201*
X202496*
Y523030*
X196957*
Y521811*
X196722*
Y518647*
G75*
G02X199161Y514817I-1787J-3830*
G01*
G75*
G02X190709I-4226*
G01*
G75*
G02X193148Y518647I4226*
G01*
Y521811*
X192638*
Y527508*
X196957*
Y526289*
X202496*
Y527118*
X200339Y514817D02*
G75*
G02X209531I4596D01*
G01*
G75*
G02X200339I-4596*
G01*
X187087Y527508D02*
X191406D01*
Y521811*
X187087*
Y527508*
X222189Y491168D02*
G75*
G02X222667Y490014I-1151J-1154D01*
G01*
Y435289*
G75*
G02X221037Y433659I-1630*
G01*
X204976*
G75*
G02X201654Y435289I-1261J1630*
G01*
G75*
G02X204976Y436919I2061*
G01*
X219407*
Y489339*
X212094Y496652*
X202632*
G75*
G02X201478Y497130J1630*
G01*
X196363Y502246*
G75*
G02X196142Y502520I1151J1154*
G01*
X195354*
Y503738*
X192626*
Y502520*
X188307*
Y508217*
X192626*
Y506998*
X195354*
Y508217*
X199673*
Y503545*
X200535Y502683*
Y508587*
X205594*
Y502150*
X201069*
X203307Y499911*
X212770*
G75*
G02X213924Y499433J-1630*
G01*
X222189Y491168*
X235659Y426708D02*
G75*
G02X236091Y425447I-1630J-1261D01*
G01*
G75*
G02X231969I-2061*
G01*
G75*
G02X232400Y426708I2061*
G01*
Y428148*
X222547*
Y426929*
X218228*
Y432626*
X222547*
Y431407*
X234030*
G75*
G02X235659Y429778J-1630*
G01*
Y426708*
X200732Y446707D02*
G75*
G02X209925I4596D01*
G01*
G75*
G02X200732I-4596*
G01*
X212677Y432626D02*
X216996D01*
Y426929*
X212677*
Y428148*
X204976*
G75*
G02X201654Y429778I-1261J1630*
G01*
G75*
G02X204976Y431407I2061*
G01*
X212677*
Y432626*
X200732Y469541D02*
G75*
G02X209925I4596D01*
G01*
G75*
G02X200732I-4596*
G01*
Y491589D02*
G75*
G02X209925I4596D01*
G01*
G75*
G02X200732I-4596*
G01*
X191102Y446707D02*
G75*
G02X199555I4226D01*
G01*
G75*
G02X191102I-4226*
G01*
Y469541D02*
G75*
G02X199555I4226D01*
G01*
G75*
G02X191102I-4226*
G01*
Y491589D02*
G75*
G02X199555I4226D01*
G01*
G75*
G02X191102I-4226*
G01*
X171102Y446707D02*
G75*
G02X179555I4226D01*
G01*
G75*
G02X171102I-4226*
G01*
Y469541D02*
G75*
G02X179555I4226D01*
G01*
G75*
G02X171102I-4226*
G01*
Y491589D02*
G75*
G02X179555I4226D01*
G01*
G75*
G02X171102I-4226*
G01*
X181102Y446707D02*
G75*
G02X189555I4226D01*
G01*
G75*
G02X181102I-4226*
G01*
Y469541D02*
G75*
G02X189555I4226D01*
G01*
G75*
G02X181102I-4226*
G01*
Y491589D02*
G75*
G02X189555I4226D01*
G01*
G75*
G02X181102I-4226*
G01*
X136928Y459621D02*
G75*
G02X145106Y458124I3952J-1497D01*
G01*
G75*
G02X139203Y454244I-4226*
G01*
Y451524*
X139988*
Y445827*
X135669*
Y451524*
X135943*
Y458124*
G75*
G02X136928Y459621I1630*
G01*
X136654Y409305D02*
G75*
G02X145106I4226D01*
G01*
G75*
G02X140246Y405126I-4226*
G01*
Y399555*
X140776*
Y393858*
X136457*
Y399555*
X136986*
Y407661*
G75*
G02X136654Y409305I3894J1644*
G01*
X152195Y379858D02*
G75*
G02X152626Y378596I-1630J-1261D01*
G01*
G75*
G02X148504I-2061*
G01*
G75*
G02X148935Y379858I2061*
G01*
Y386447*
G75*
G02X148404Y387652I1098J1204*
G01*
Y393858*
X147874*
Y395077*
X146327*
Y393858*
X142008*
Y399555*
X146327*
Y398337*
X147874*
Y399555*
X152193*
Y393858*
X151663*
Y388856*
G75*
G02X152195Y387652I-1098J-1204*
G01*
Y379858*
X155896Y373177D02*
X156366D01*
Y367480*
X152047*
Y368699*
X148138*
Y367480*
X143819*
Y373177*
X148138*
Y371959*
X152047*
Y373177*
X152321*
Y374421*
G75*
G02X152047Y375447I1787J1026*
G01*
G75*
G02X156169I2061*
G01*
G75*
G02X155896Y374421I-2061*
G01*
Y373177*
X136654Y384305D02*
G75*
G02X145106I4226D01*
G01*
G75*
G02X142510Y380406I-4226*
G01*
Y373177*
X142587*
Y367480*
X138268*
Y373177*
X139250*
Y380406*
G75*
G02X136654Y384305I1630J3900*
G01*
X152992Y364122D02*
X157311D01*
Y358425*
X152992*
Y359644*
X145133*
G75*
G02X141811Y361274I-1261J1630*
G01*
G75*
G02X145133Y362904I2061*
G01*
X152992*
Y364122*
X136654Y434502D02*
G75*
G02X145106I4226D01*
G01*
G75*
G02X140778Y430277I-4226*
G01*
Y428295*
X141563*
Y422598*
X137244*
Y428295*
X137518*
Y431941*
G75*
G02X136654Y434502I3363J2561*
G01*
X148661Y428295D02*
X152980D01*
Y422598*
X152451*
Y417653*
G75*
G02X152882Y416392I-1630J-1261*
G01*
G75*
G02X148760I-2061*
G01*
G75*
G02X149191Y417653I2061*
G01*
Y422598*
X148661*
Y423817*
X147114*
Y422598*
X142795*
Y428295*
X147114*
Y427077*
X148661*
Y428295*
X152268Y497563D02*
X157327D01*
Y491126*
X152268*
Y497563*
X125890Y504974D02*
G75*
G02X135083I4596D01*
G01*
G75*
G02X125890I-4596*
G01*
X126283Y384305D02*
G75*
G02X135476I4596D01*
G01*
G75*
G02X126283I-4596*
G01*
Y409305D02*
G75*
G02X135476I4596D01*
G01*
G75*
G02X126283I-4596*
G01*
Y434502D02*
G75*
G02X135476I4596D01*
G01*
G75*
G02X126283I-4596*
G01*
Y458124D02*
G75*
G02X135476I4596D01*
G01*
G75*
G02X126283I-4596*
G01*
Y481746D02*
G75*
G02X135476I4596D01*
G01*
G75*
G02X126283I-4596*
G01*
X239459Y399161D02*
X239988D01*
Y393465*
X235669*
Y399161*
X236199*
Y402138*
G75*
G02X235768Y403400I1630J1261*
G01*
G75*
G02X239890I2061*
G01*
G75*
G02X239459Y402138I-2061*
G01*
Y399161*
X240850Y399531D02*
X245909D01*
Y393094*
X240850*
Y399531*
X157228Y373547D02*
X162287D01*
Y367110*
X157228*
Y373547*
X152661Y475909D02*
X157720D01*
Y469472*
X152661*
Y475909*
X136654Y481746D02*
G75*
G02X145106I4226D01*
G01*
G75*
G02X140246Y477567I-4226*
G01*
Y475539*
X140776*
Y469843*
X136457*
Y475539*
X136986*
Y480102*
G75*
G02X136654Y481746I3894J1644*
G01*
X223701Y553281D02*
G75*
G02X232154I4226D01*
G01*
G75*
G02X223701I-4226*
G01*
X233331D02*
G75*
G02X242524I4596D01*
G01*
G75*
G02X233331I-4596*
G01*
X233701Y543281D02*
G75*
G02X242154I4226D01*
G01*
G75*
G02X233701I-4226*
G01*
X243331Y553281D02*
G75*
G02X252524I4596D01*
G01*
G75*
G02X243331I-4596*
G01*
X243701Y543281D02*
G75*
G02X252154I4226D01*
G01*
G75*
G02X243701I-4226*
G01*
X274968Y355046D02*
G36*
X255096D01*
G75*
G02X246643I-4226*
G01*
X245096*
G75*
G02X236643I-4226*
G01*
X235096*
G75*
G02X226643I-4226*
G01*
X225466*
G75*
G02X216273I-4596*
G01*
X215096*
Y355045*
G75*
G02X208332Y351666I-4226*
G01*
X199384*
G75*
G02X197943Y351988I-1J3374*
G01*
X193945*
Y346313*
G75*
G02X190565Y342933I-3380*
G01*
X145053*
G75*
G02X142661Y343925I1J3381*
G01*
X132429Y354157*
G75*
G02X131790Y355046I2390J2392*
G01*
X131241*
G75*
G02X131327Y353557I-12803J-1488*
G01*
G75*
G02X123124Y341551I-12888*
G01*
X283084*
G75*
G02X274882Y353557I4685J12006*
G01*
G75*
G02X274968Y355046I12889J0*
G01*
G37*
X187185D02*
G36*
X186309D01*
G75*
G02X185165Y353162I-3303J716*
G01*
Y352815*
X184661*
G75*
G02X183006Y352382I-1656J2951*
G01*
X175368*
G75*
G02X173612Y352874I-1J3377*
G01*
X167100*
G75*
G02X163944Y355046J3380*
G01*
X141100*
X146453Y349693*
X187185*
Y355046*
G37*
X108117Y361274D02*
G36*
X106433D01*
Y358243*
G75*
G02X108117Y361274I12006J-4686*
G01*
G37*
X131790Y355046D02*
G36*
G75*
G02X131437Y356549I3029J1505D01*
G01*
Y361274*
X128761*
G75*
G02X131241Y355046I-10322J-7717*
G01*
X131790*
G37*
X172150Y361274D02*
G36*
X170480D01*
Y359634*
X172150*
Y361274*
G37*
X163944Y355046D02*
G36*
G75*
G02X163720Y356254I3157J1208D01*
G01*
Y359644*
X162862*
Y358425*
X158543*
Y361274*
X157311*
Y358425*
X152992*
Y359644*
X145133*
G75*
G02X141811Y361274I-1261J1630*
G01*
X138197*
Y357949*
X141100Y355046*
X163944*
G37*
X208963Y361274D02*
G36*
X202602D01*
Y359276*
X200898*
G75*
G02X201974Y358426I-1519J-3027*
G01*
X208332*
G75*
G02X209240Y358945I2535J-3374*
G01*
Y361146*
G75*
G02X208963Y361274I1631J3903*
G01*
G37*
X187185Y355046D02*
G36*
Y355762D01*
G75*
G02X188406Y358362I3381J0*
G01*
Y358709*
X188910*
G75*
G02X192148Y358748I1655J-2948*
G01*
X197103*
G75*
G02X197869Y359276I2285J-2500*
G01*
X196165*
Y361274*
X189315*
Y361106*
X184256*
Y361274*
X178587*
Y359276*
X176883*
G75*
G02X177124Y359142I-1631J-3230*
G01*
X183006*
G75*
G02X184661Y358709I-1J-3384*
G01*
X185165*
Y358362*
G75*
G02X186386Y355762I-2159J-2600*
G01*
G75*
G02X186309Y355046I-3380*
G01*
X187185*
G37*
X274968D02*
G36*
G75*
G02X277448Y361274I12802J-1489D01*
G01*
X252776*
G75*
G02X248963I-1906J3772*
G01*
X242776*
G75*
G02X238963I-1906J3772*
G01*
X232776*
G75*
G02X228963I-1906J3772*
G01*
X223496*
G75*
G02X218243I-2627J3772*
G01*
X212776*
G75*
G02X212500Y361146I-1906J3771*
G01*
Y358945*
G75*
G02X215096Y355046I-1631J-3900*
G01*
X216273*
G75*
G02X225466I4596*
G01*
X226643*
G75*
G02X235096I4226*
G01*
X236643*
G75*
G02X245096I4226*
G01*
X246643*
G75*
G02X255096I4226*
G01*
X274968*
G37*
X299421Y359065D02*
G36*
Y361274D01*
X298092*
G75*
G02X299421Y359065I-10323J-7716*
G01*
G37*
X108117Y361274D02*
G36*
G75*
G02X112599Y365046I10322J-7717D01*
G01*
X106433*
Y361274*
X108117*
G37*
X130596Y365046D02*
G36*
X124279D01*
G75*
G02X128761Y361274I-5840J-11489*
G01*
X131437*
Y364204*
X130596Y365046*
G37*
X163720D02*
G36*
X138197D01*
Y361274*
X141811*
G75*
G02X145133Y362904I2061*
G01*
X152992*
Y364122*
X157311*
Y361274*
X158543*
Y364122*
X162862*
Y362904*
X163720*
Y365046*
G37*
X184256D02*
G36*
X170480D01*
Y361274*
X172150*
Y364335*
X178587*
Y361274*
X184256*
Y365046*
G37*
X206643D02*
G36*
X189315D01*
Y361274*
X196165*
Y364335*
X202602*
Y361274*
X208963*
G75*
G02X206643Y365046I1907J3772*
G01*
G37*
X216273D02*
G36*
X215096D01*
G75*
G02Y365045I-5013J0*
G01*
G75*
G02X212776Y361274I-4226*
G01*
X218243*
G75*
G02X216273Y365046I2627J3772*
G01*
G37*
X226643D02*
G36*
X225466D01*
G75*
G02X223496Y361274I-4596*
G01*
X228963*
G75*
G02X226643Y365046I1906J3772*
G01*
G37*
X236643D02*
G36*
X235096D01*
G75*
G02X232776Y361274I-4226*
G01*
X238963*
G75*
G02X236643Y365046I1906J3772*
G01*
G37*
X246643D02*
G36*
X245096D01*
G75*
G02X242776Y361274I-4226*
G01*
X248963*
G75*
G02X246643Y365046I1906J3772*
G01*
G37*
X277448Y361274D02*
G36*
G75*
G02X281930Y365046I10322J-7716D01*
G01*
X255096*
G75*
G02X252776Y361274I-4226*
G01*
X277448*
G37*
X298092D02*
G36*
X299421D01*
Y365046*
X293610*
G75*
G02X298092Y361274I-5840J-11489*
G01*
G37*
X130596Y365046D02*
G36*
X127511Y368130D01*
G75*
G02X125181Y369122I62J3380*
G01*
X121809Y372494*
X106433*
Y365046*
X112599*
G75*
G02X124279I5840J-11489*
G01*
X130596*
G37*
X152047Y372494D02*
G36*
X148138D01*
Y371959*
X152047*
Y372494*
G37*
X167657D02*
G36*
X162287D01*
Y367110*
X157228*
Y372494*
X156366*
Y367480*
X152047*
Y368699*
X148138*
Y367480*
X143819*
Y372494*
X142587*
Y367480*
X138268*
Y372494*
X132707*
X137205Y367996*
G75*
G02X138197Y365604I-2390J-2393*
G01*
Y365046*
X163720*
Y367179*
G75*
G02X165857Y370322I3380*
G01*
X167657Y372122*
Y372494*
G37*
X293610Y365046D02*
G36*
X299421D01*
Y372494*
X272558*
X270817Y370752*
G75*
G02X269663Y370274I-1154J1150*
G01*
X212456*
G75*
G02X209933I-1261J1630*
G01*
X174387*
G75*
G02X173426Y368331I-3348J448*
G01*
X170480Y365385*
Y365046*
X184256*
Y367740*
X189315*
Y365046*
X206643*
G75*
G02X215096I4226*
G01*
X216273*
G75*
G02X225466I4596*
G01*
X226643*
G75*
G02X235096I4226*
G01*
X236643*
G75*
G02X245096I4226*
G01*
X246643*
G75*
G02X255096I4226*
G01*
X281930*
G75*
G02X287770Y366445I5840J-11489*
G01*
G75*
G02X293610Y365046J-12888*
G01*
G37*
X121809Y372494D02*
G36*
X118492Y375811D01*
G75*
G02X117500Y378203I2390J2393*
G01*
Y381768*
G75*
G02X116654Y384305I3380J2537*
G01*
G75*
G02X117500Y386843I4226*
G01*
Y388045*
X106433*
Y372494*
X121809*
G37*
X138912Y388045D02*
G36*
X133552D01*
G75*
G02X135476Y384305I-2672J-3740*
G01*
G75*
G02X126283I-4596*
G01*
G75*
G02X128208Y388045I4596*
G01*
X124260*
Y386843*
G75*
G02X125106Y384305I-3380J-2537*
G01*
G75*
G02X124260Y381768I-4226*
G01*
Y379603*
X128973Y374889*
G75*
G02X131303Y373898I-62J-3380*
G01*
X132707Y372494*
X138268*
Y373177*
X139250*
Y380406*
G75*
G02X136654Y384305I1631J3900*
G01*
G75*
G02X138912Y388045I4226*
G01*
G37*
X167657Y372494D02*
G36*
Y388045D01*
X152147*
G75*
G02X152195Y387653I-1579J-393*
G01*
G75*
G02Y387652I-1991J0*
G01*
Y379858*
G75*
G02X152626Y378597I-1628J-1261*
G01*
G75*
G02Y378596I-2374J0*
G01*
G75*
G02X148504I-2061*
G01*
G75*
G02Y378597I2374J0*
G01*
G75*
G02X148935Y379858I2059*
G01*
Y386447*
G75*
G02X148404Y387650I1096J1203*
G01*
G75*
G02Y387652I1991J1*
G01*
Y388045*
X142848*
G75*
G02X145106Y384305I-1968J-3740*
G01*
G75*
G02Y384304I-5013J0*
G01*
G75*
G02X142510Y380406I-4226*
G01*
Y373177*
X142587*
Y372494*
X143819*
Y373177*
X148138*
Y372494*
X152047*
Y373177*
X152321*
Y374421*
G75*
G02X152047Y375447I1788J1026*
G01*
G75*
G02X156169I2061*
G01*
G75*
G02X155896Y374421I-2062J0*
G01*
Y373177*
X156366*
Y372494*
X157228*
Y373547*
X162287*
Y372494*
X167657*
G37*
X251409Y388045D02*
G36*
X174417D01*
Y373533*
X196023*
G75*
G02X195354Y375053I1392J1520*
G01*
G75*
G02X198677Y376683I2061*
G01*
X199799*
G75*
G02X198504Y378596I767J1914*
G01*
G75*
G02X201826Y380226I2061*
G01*
X202948*
G75*
G02X201654Y382140I767J1914*
G01*
G75*
G02X204976Y383770I2061*
G01*
X247134*
X251409Y388045*
G37*
X273106D02*
G36*
X261925D01*
X251325Y377445*
G75*
G02X250171Y376967I-1154J1150*
G01*
X201826*
G75*
G02X201331Y376683I-1257J1623*
G01*
X261743*
X273106Y388045*
G37*
X283499D02*
G36*
X282052D01*
G75*
G02X275019Y385349I-4203J443*
G01*
X263572Y373902*
G75*
G02X263008Y373533I-1153J1150*
G01*
X268987*
X283499Y388045*
G37*
X292052D02*
G36*
G75*
G02X285233Y385169I-4203J443D01*
G01*
X272558Y372494*
X299421*
Y388045*
X292052*
G37*
X117500Y396313D02*
G36*
X106433D01*
Y388045*
X117500*
Y396313*
G37*
X142008D02*
G36*
X140776D01*
Y393858*
X136457*
Y396313*
X124260*
Y388045*
X128208*
G75*
G02X133552I2672J-3740*
G01*
X138912*
G75*
G02X142848I1968J-3740*
G01*
X148404*
Y393858*
X147874*
Y395077*
X146327*
Y393858*
X142008*
Y396313*
G37*
X259677D02*
G36*
X245909D01*
Y393094*
X240850*
Y396313*
X239988*
Y393465*
X235669*
Y396313*
X227785*
G75*
G02X223739I-2023J394*
G01*
X185423*
Y393557*
G75*
G02X183636Y391770I-1787*
G01*
X180181*
G75*
G02X177094Y393557I-1026J1788*
G01*
G75*
G02X177609Y394919I2061J0*
G01*
X170644*
G75*
G02X168900Y396313I0J1788*
G01*
X158114*
Y393488*
X153055*
Y396313*
X152193*
Y393858*
X151663*
Y388856*
G75*
G02X152147Y388045I-1096J-1204*
G01*
X167657*
Y389346*
G75*
G02X167357Y390800I3373J1454*
G01*
G75*
G02Y390801I3759J1*
G01*
G75*
G02X174717I3680*
G01*
G75*
G02Y390800I-3759J-1*
G01*
G75*
G02X174417Y389346I-3673*
G01*
Y388045*
X251409*
X259677Y396313*
G37*
X181848D02*
G36*
X181179D01*
G75*
G02X180702Y395344I-2023J394*
G01*
X181848*
Y396313*
G37*
X283499Y388045D02*
G36*
X283633Y388180D01*
G75*
G02X283622Y388483I4030J304*
G01*
G75*
G02Y388489I4155J3*
G01*
G75*
G02X286219Y392388I4226J1*
G01*
Y396313*
X269863*
G75*
G02X269433Y395553I-1581J394*
G01*
X261925Y388045*
X273106*
X273623Y388562*
G75*
G02X282075Y388489I4226J-74*
G01*
Y388488*
G75*
G02X282052Y388045I-4225J0*
G01*
X283499*
G37*
X292052D02*
G36*
X299421D01*
Y396313*
X289478*
Y392388*
G75*
G02X292075Y388489I-1631J-3900*
G01*
G75*
G02X292052Y388045I-4226J-1*
G01*
G37*
X117500Y403695D02*
G36*
X106433D01*
Y396313*
X117500*
Y403695*
G37*
X136457Y396313D02*
G36*
Y399555D01*
X136986*
Y403695*
X124260*
Y396313*
X136457*
G37*
X157301Y403695D02*
G36*
X140246D01*
Y399555*
X140776*
Y396313*
X142008*
Y399555*
X146327*
Y398337*
X147874*
Y399555*
X152193*
Y396313*
X153055*
Y399925*
X157301*
Y403695*
G37*
X168900Y396313D02*
G36*
G75*
G02X168856Y396707I1744J394D01*
G01*
Y396888*
X159089*
G75*
G02X158114Y397177I-1J1783*
G01*
Y396313*
X168900*
G37*
X181848Y403695D02*
G36*
X164163D01*
Y403612*
X174187*
G75*
G02X175974Y401825J-1787*
G01*
Y401644*
X178130*
G75*
G02X181217Y399856I1026J-1787*
G01*
G75*
G02X180485Y398281I-2061*
G01*
G75*
G02X181217Y396707I-1329J-1575*
G01*
G75*
G02X181179Y396313I-2061J-1*
G01*
X181848*
Y403695*
G37*
X263502D02*
G36*
X239869D01*
G75*
G02X239890Y403400I-2040J-295*
G01*
G75*
G02Y403399I-2374J0*
G01*
G75*
G02X239459Y402138I-2059*
G01*
Y399161*
X239988*
Y396313*
X240850*
Y399531*
X245909*
Y396313*
X259677*
X263502Y400138*
Y403695*
G37*
X229828D02*
G36*
X227181D01*
X223082Y399596*
G75*
G02X218976Y399856I-2044J260*
G01*
Y399856*
Y399857*
G75*
G02X220777Y401901I2061*
G01*
X222571Y403695*
X219923*
X219534Y403306*
G75*
G02X219556Y403006I-2018J-299*
G01*
Y403006*
G75*
G02X215432I-2062*
G01*
G75*
G02X215551Y403695I2068J-2*
G01*
X185423*
Y396313*
X223739*
G75*
G02X223701Y396707I2023J393*
G01*
G75*
G02Y396708I2417J1*
G01*
G75*
G02X224385Y398241I2059*
G01*
G75*
G02X224500Y398367I1428J-1187*
G01*
X229828Y403695*
G37*
X234884D02*
G36*
X227822Y396632D01*
G75*
G02X227785Y396313I-2060J74*
G01*
X235669*
Y399161*
X236199*
Y402138*
G75*
G02X235768Y403399I1628J1261*
G01*
G75*
G02Y403400I2374J0*
G01*
G75*
G02X235789Y403695I2061*
G01*
X234884*
G37*
X286219D02*
G36*
X269911D01*
Y396707*
Y396706*
G75*
G02X269863Y396313I-1629J-1*
G01*
X286219*
Y403695*
G37*
X289478D02*
G36*
Y396313D01*
X299421*
Y403695*
X289478*
G37*
X116654Y409305D02*
G36*
X106433D01*
Y403695*
X117500*
Y406768*
G75*
G02X116654Y409305I3380J2537*
G01*
G37*
X136654D02*
G36*
X135476D01*
G75*
G02X126283I-4596*
G01*
X125106*
G75*
G02X124260Y406768I-4226*
G01*
Y403695*
X136986*
Y407661*
G75*
G02X136654Y409304I3887J1642*
G01*
G75*
G02Y409305I4296J1*
G01*
G37*
X157301D02*
G36*
X145106D01*
G75*
G02X140246Y405126I-4226*
G01*
Y403695*
X157301*
Y409305*
G37*
X181848D02*
G36*
X167943D01*
Y408671*
X168189*
Y409201*
X173886*
Y407785*
X177894*
G75*
G02X181217Y406156I1261J-1630*
G01*
G75*
G02X177894Y404526I-2061*
G01*
X171037*
G75*
G02X170020Y404882I1J1632*
G01*
X168189*
Y405411*
X166313*
G75*
G02X164683Y407041J1630*
G01*
Y409305*
X164163*
Y403695*
X181848*
Y409305*
G37*
X263502Y403695D02*
G36*
Y409305D01*
X240494*
X234884Y403695*
X235789*
G75*
G02X239869I2040J-295*
G01*
X263502*
G37*
X220478Y409305D02*
G36*
X185423D01*
Y403695*
X215551*
G75*
G02X215728Y404070I1949J-690*
G01*
G75*
G02X216232Y405059I1765J-276*
G01*
X220478Y409305*
G37*
X229828Y403695D02*
G36*
X232628Y406494D01*
X229980*
X227181Y403695*
X229828*
G37*
X228182Y409305D02*
G36*
X225534D01*
X219923Y403695*
X222571*
X228151Y409275*
G75*
G02X228182Y409305I1144J-1143*
G01*
G37*
X267157D02*
G36*
X266762D01*
Y408713*
G75*
G02X267130Y409278I1519J-589*
G01*
X267157Y409305*
G37*
X286219D02*
G36*
X271768D01*
X269911Y407449*
Y403695*
X286219*
Y409305*
G37*
X289478D02*
G36*
Y403695D01*
X299421*
Y409305*
X289478*
G37*
X116654D02*
G36*
G75*
G02X117500Y411843I4226D01*
G01*
Y428006*
X106433*
Y409305*
X116654*
G37*
X153843Y428006D02*
G36*
X152980D01*
Y422598*
X152451*
Y417653*
G75*
G02X152882Y416393I-1628J-1261*
G01*
G75*
G02Y416392I-2374J0*
G01*
G75*
G02X148760I-2061*
G01*
G75*
G02Y416393I2374J0*
G01*
G75*
G02X149191Y417653I2059*
G01*
Y422598*
X148661*
Y423817*
X147114*
Y422598*
X142795*
Y428006*
X141563*
Y422598*
X137244*
Y428006*
X124260*
Y411843*
G75*
G02X125106Y409305I-3380J-2537*
G01*
X126283*
G75*
G02X135476I4596*
G01*
X136654*
G75*
G02X145106I4226*
G01*
X157301*
Y422228*
X153843*
Y428006*
G37*
X148661D02*
G36*
X147114D01*
Y427077*
X148661*
Y428006*
G37*
X164683D02*
G36*
X164163D01*
Y409305*
X164683*
Y428006*
G37*
X243509D02*
G36*
X235659D01*
Y426708*
G75*
G02X236091Y425448I-1628J-1261*
G01*
G75*
G02Y425447I-2374J0*
G01*
G75*
G02X231969I-2061*
G01*
G75*
G02Y425448I2374J0*
G01*
G75*
G02X232400Y426708I2059*
G01*
Y428006*
X222547*
Y426929*
X218228*
Y428006*
X216996*
Y426929*
X212677*
Y428006*
X204768*
G75*
G02X202661I-1053J1771*
G01*
X167943*
Y415122*
X174256*
Y410063*
X167943*
Y409305*
X181848*
Y414423*
G75*
G02X183636Y416211I1787*
G01*
X231714*
X243509Y428006*
G37*
X220478Y409305D02*
G36*
X223708Y412535D01*
G75*
G02X223817Y412636I1392J-1402*
G01*
X185423*
Y409305*
X220478*
G37*
X228182D02*
G36*
G75*
G02X228410Y409486I1113J-1169D01*
G01*
X225715*
X225534Y409305*
X228182*
G37*
X286219D02*
G36*
Y411169D01*
G75*
G02X283228Y415211I1236J4042*
G01*
G75*
G02X285825Y419110I4227*
G01*
Y428006*
X267240*
X266762Y427528*
Y409305*
X267157*
X273232Y415379*
G75*
G02X281681Y415211I4223J-169*
G01*
G75*
G02X274578Y412115I-4226*
G01*
X271768Y409305*
X286219*
G37*
X263502Y428006D02*
G36*
X259195D01*
X240494Y409305*
X263502*
Y428006*
G37*
X289478Y409305D02*
G36*
X299421D01*
Y428006*
X289085*
Y419110*
G75*
G02X291681Y415211I-1630J-3900*
G01*
G75*
G02X289478Y411500I-4226*
G01*
Y409305*
G37*
X116654Y434502D02*
G36*
X106433D01*
Y428006*
X117500*
Y431965*
G75*
G02X116654Y434502I3380J2537*
G01*
G37*
X136654D02*
G36*
X135476D01*
G75*
G02X126283I-4596*
G01*
X125106*
G75*
G02X124260Y431965I-4226*
G01*
Y428006*
X137244*
Y428295*
X137518*
Y431941*
G75*
G02X136654Y434502I3365J2562*
G01*
G37*
X157301D02*
G36*
X145106D01*
G75*
G02X140778Y430277I-4227J0*
G01*
Y428295*
X141563*
Y428006*
X142795*
Y428295*
X147114*
Y428006*
X148661*
Y428295*
X152980*
Y428006*
X153843*
Y428665*
X157301*
Y434502*
G37*
X164683D02*
G36*
X164163D01*
Y428006*
X164683*
Y434502*
G37*
X243509Y428006D02*
G36*
X247203Y431699D01*
Y434502*
X227160*
G75*
G02X225939I-611J1969*
G01*
X222464*
G75*
G02X221037Y433659I-1428J788*
G01*
X204976*
G75*
G02X201810Y434502I-1261J1630*
G01*
X167943*
Y428006*
X202661*
G75*
G02X201654Y429778I1053J1772*
G01*
G75*
G02X204976Y431407I2061*
G01*
X212677*
Y432626*
X216996*
Y428006*
X218228*
Y432626*
X222547*
Y431407*
X234030*
G75*
G02X235659Y429778J-1630*
G01*
Y428006*
X243509*
G37*
X212677D02*
G36*
Y428148D01*
X204976*
G75*
G02X204768Y428006I-1262J1630*
G01*
X212677*
G37*
X232400D02*
G36*
Y428148D01*
X222547*
Y428006*
X232400*
G37*
X269126Y434502D02*
G36*
X262195D01*
Y431746*
G75*
G02X261669Y430480I-1788*
G01*
X259195Y428006*
X263502*
Y428203*
Y428203*
G75*
G02X263981Y429357I1629*
G01*
X269126Y434502*
G37*
X252715D02*
G36*
X250778D01*
Y431731*
X252715Y433668*
Y434502*
G37*
X285825D02*
G36*
X273736D01*
X267240Y428006*
X285825*
Y434502*
G37*
X289085D02*
G36*
Y428006D01*
X299421*
Y434502*
X289085*
G37*
X116654D02*
G36*
G75*
G02X117500Y437039I4226D01*
G01*
Y446707*
X106433*
Y434502*
X116654*
G37*
X157301D02*
G36*
Y439525D01*
G75*
G02X153783Y440002I-1618J1277*
G01*
X148489Y445297*
G75*
G02X148134Y445827I1146J1151*
G01*
X147480*
Y446707*
X145539*
Y445827*
X141220*
Y446707*
X139988*
Y445827*
X135669*
Y446707*
X124260*
Y437039*
G75*
G02X125106Y434502I-3380J-2537*
G01*
X126283*
G75*
G02X135476I4596*
G01*
X136654*
G75*
G02X145106I4226*
G01*
X157301*
G37*
X152661Y446707D02*
G36*
X151799D01*
Y446596*
X152661Y445734*
Y446707*
G37*
X164683D02*
G36*
X164163D01*
Y434502*
X164683*
Y446707*
G37*
X285825Y434502D02*
G36*
Y434933D01*
G75*
G02X283228Y438833I1630J3900*
G01*
G75*
G02X285037Y442300I4226*
G01*
Y446707*
X262935*
X262195Y445966*
Y434502*
X269126*
X273234Y438610*
G75*
G02X273228Y438833I4471J230*
G01*
G75*
G02X281681I4226*
G01*
G75*
G02X274788Y435554I-4226*
G01*
X273736Y434502*
X285825*
G37*
X219407Y446707D02*
G36*
X209925D01*
G75*
G02X200732I-4596*
G01*
X199555*
G75*
G02X191102I-4226*
G01*
X189555*
G75*
G02X181102I-4226*
G01*
X179555*
G75*
G02X171102I-4226*
G01*
X167943*
Y434502*
X201810*
G75*
G02X201654Y435289I1905J787*
G01*
G75*
G02X204976Y436919I2061*
G01*
X219407*
Y446707*
G37*
X224919D02*
G36*
X222667D01*
Y435289*
G75*
G02X222464Y434502I-1631J1*
G01*
X225939*
G75*
G02X224488Y436470I611J1969*
G01*
G75*
G02Y436471I2374J0*
G01*
G75*
G02X224919Y437732I2059*
G01*
Y446707*
G37*
X247203D02*
G36*
X228179D01*
Y437732*
G75*
G02X228610Y436471I-1628J-1261*
G01*
G75*
G02Y436470I-2374J0*
G01*
G75*
G02X227160Y434502I-2061*
G01*
X247203*
Y446707*
G37*
X252715D02*
G36*
X250778D01*
Y434502*
X252715*
Y446707*
G37*
X289085Y434502D02*
G36*
X299421D01*
Y446707*
X288297*
Y442974*
G75*
G02X291681Y438833I-843J-4142*
G01*
G75*
G02X289085Y434933I-4227*
G01*
Y434502*
G37*
X116694Y458706D02*
G36*
X106433D01*
Y446707*
X117500*
Y455587*
G75*
G02X116654Y458124I3380J2537*
G01*
G75*
G02X116694Y458706I4226J0*
G01*
G37*
X136050D02*
G36*
X135439D01*
G75*
G02X135476Y458124I-4560J-582*
G01*
G75*
G02X126283I-4596*
G01*
G75*
G02X126320Y458706I4597J-1*
G01*
X125066*
G75*
G02X125106Y458124I-4186J-581*
G01*
G75*
G02X124260Y455587I-4226*
G01*
Y446707*
X135669*
Y451524*
X135943*
Y458124*
G75*
G02X136050Y458706I1630J0*
G01*
G37*
X147480Y446707D02*
G36*
Y447045D01*
X145539*
Y446707*
X147480*
G37*
X152661D02*
G36*
Y451894D01*
X157301*
Y456202*
X154798Y458706*
X145066*
G75*
G02X145106Y458124I-4185J-581*
G01*
Y458124*
G75*
G02X139203Y454244I-4226*
G01*
Y451524*
X139988*
Y446707*
X141220*
Y451524*
X145539*
Y450305*
X147480*
Y451524*
X151799*
Y446707*
X152661*
G37*
X160589Y458706D02*
G36*
X159854D01*
X160350Y458209*
G75*
G02X160589Y457915I-1261J-1265*
G01*
Y458706*
G37*
X164683D02*
G36*
X164163D01*
Y446707*
X164683*
Y458706*
G37*
X269878D02*
G36*
X259281D01*
Y448109*
X269878Y458706*
G37*
X219407D02*
G36*
X167943D01*
Y446707*
X171102*
G75*
G02X179555I4226*
G01*
X181102*
G75*
G02X189555I4226*
G01*
X191102*
G75*
G02X199555I4226*
G01*
X200732*
G75*
G02X209925I4596*
G01*
X219407*
Y458706*
G37*
X224919D02*
G36*
X222667D01*
Y446707*
X224919*
Y458706*
G37*
X247203D02*
G36*
X228179D01*
Y446707*
X247203*
Y458706*
G37*
X252715Y446707D02*
G36*
Y458706D01*
X250778*
Y446707*
X252715*
G37*
X285037Y458706D02*
G36*
X277503D01*
G75*
G02X275831I-836J4143*
G01*
X274934*
X262935Y446707*
X285037*
Y458706*
G37*
X288297D02*
G36*
Y446707D01*
X299421*
Y458706*
X288297*
G37*
X116694D02*
G36*
G75*
G02X117500Y460661I4186J-581D01*
G01*
Y469541*
X106433*
Y458706*
X116694*
G37*
X154798D02*
G36*
X148378Y465126D01*
G75*
G02X147852Y466392I1262J1266*
G01*
Y469541*
X124260*
Y460661*
G75*
G02X125066Y458706I-3380J-2537*
G01*
X126320*
G75*
G02X135439I4559J-581*
G01*
X136050*
G75*
G02X136928Y459621I1523J-581*
G01*
G75*
G02X145066Y458706I3952J-1496*
G01*
X154798*
G37*
X160589Y469541D02*
G36*
X157720D01*
Y469472*
X152661*
Y469541*
X151427*
Y467132*
X159854Y458706*
X160589*
Y469541*
G37*
X164683D02*
G36*
X164163D01*
Y458706*
X164683*
Y469541*
G37*
X256921D02*
G36*
X256289D01*
Y468861*
G75*
G02X256500Y469120I1350J-884*
G01*
X256921Y469541*
G37*
X219407D02*
G36*
X209925D01*
G75*
G02X200732I-4596*
G01*
X199555*
G75*
G02X191102I-4226*
G01*
X189555*
G75*
G02X181102I-4226*
G01*
X179555*
G75*
G02X171102I-4226*
G01*
X167943*
Y458706*
X219407*
Y469541*
G37*
X224919D02*
G36*
X222667D01*
Y458706*
X224919*
Y469541*
G37*
X247203D02*
G36*
X228179D01*
Y458706*
X247203*
Y469541*
G37*
X252715Y458706D02*
G36*
Y469541D01*
X250778*
Y458706*
X252715*
G37*
X285037Y469541D02*
G36*
X261531D01*
X259281Y467291*
Y458706*
X269878*
X272665Y461492*
G75*
G02X272441Y462848I4006J1357*
G01*
G75*
G02X280894I4226*
G01*
G75*
G02X277503Y458706I-4226*
G01*
X285037*
Y458949*
G75*
G02X282441Y462848I1630J3900*
G01*
G75*
G02X285037Y466748I4227*
G01*
Y469541*
G37*
X275831Y458706D02*
G36*
G75*
G02X275137Y458909I836J4143D01*
G01*
X274934Y458706*
X275831*
G37*
X288297Y469541D02*
G36*
Y466748D01*
G75*
G02X290894Y462848I-1630J-3900*
G01*
G75*
G02X288297Y458949I-4227*
G01*
Y458706*
X299421*
Y469541*
X288297*
G37*
X117500Y472691D02*
G36*
X106433D01*
Y469541*
X117500*
Y472691*
G37*
X142008D02*
G36*
X140776D01*
Y469843*
X136457*
Y472691*
X124260*
Y469541*
X147852*
Y469843*
X147480*
Y471061*
X146327*
Y469843*
X142008*
Y472691*
G37*
X152661D02*
G36*
X151799D01*
Y469843*
X151427*
Y469541*
X152661*
Y472691*
G37*
X160589D02*
G36*
X157720D01*
Y469541*
X160589*
Y472691*
G37*
X164683D02*
G36*
X164163D01*
Y469541*
X164683*
Y472691*
G37*
X260071D02*
G36*
X256289D01*
Y469541*
X256921*
X260071Y472691*
G37*
X171102Y469541D02*
G36*
G75*
G02X172511Y472691I4226D01*
G01*
X167943*
Y469541*
X171102*
G37*
X181102D02*
G36*
G75*
G02X182511Y472691I4226D01*
G01*
X178147*
G75*
G02X179555Y469541I-2818J-3150*
G01*
X181102*
G37*
X191102D02*
G36*
G75*
G02X192511Y472691I4226D01*
G01*
X188147*
G75*
G02X189555Y469541I-2818J-3150*
G01*
X191102*
G37*
X200732D02*
G36*
G75*
G02X201981Y472691I4596D01*
G01*
X198147*
G75*
G02X199555Y469541I-2818J-3150*
G01*
X200732*
G37*
X219407Y472691D02*
G36*
X208676D01*
G75*
G02X209925Y469541I-3348J-3150*
G01*
X219407*
Y472691*
G37*
X224919D02*
G36*
X222667D01*
Y469541*
X224919*
Y472691*
G37*
X247203D02*
G36*
X228179D01*
Y469541*
X247203*
Y472691*
G37*
X252715D02*
G36*
X250778D01*
Y469541*
X252715*
Y472691*
G37*
X285037D02*
G36*
X264681D01*
X261531Y469541*
X285037*
Y472691*
G37*
X288297D02*
G36*
Y469541D01*
X299421*
Y472691*
X288297*
G37*
X116654Y481746D02*
G36*
X106433D01*
Y472691*
X117500*
Y479209*
G75*
G02X116654Y481746I3380J2537*
G01*
G37*
X136654D02*
G36*
X135476D01*
G75*
G02X126283I-4596*
G01*
X125106*
G75*
G02X124260Y479209I-4226*
G01*
Y472691*
X136457*
Y475539*
X136986*
Y480102*
G75*
G02X136654Y481744I3887J1642*
G01*
G75*
G02Y481746I4296J1*
G01*
G37*
X160589Y472691D02*
G36*
Y476266D01*
X156271Y480461*
G75*
G02X156250Y480482I543J574*
G01*
X154986Y481746*
X145106*
G75*
G02X140246Y477567I-4226*
G01*
Y475539*
X140776*
Y472691*
X142008*
Y475539*
X146327*
Y474321*
X147480*
Y475539*
X151799*
Y472691*
X152661*
Y475909*
X157720*
Y472691*
X160589*
G37*
X164683Y481746D02*
G36*
X160079D01*
X163620Y478306*
G75*
G02X164163Y477023I-1241J-1283*
G01*
G75*
G02Y477022I-1933J0*
G01*
Y472691*
X164683*
Y481746*
G37*
X269126D02*
G36*
X256289D01*
Y472691*
X260071*
X269126Y481746*
G37*
X219407D02*
G36*
X167943D01*
Y472691*
X172511*
G75*
G02X178147I2818J-3150*
G01*
X182511*
G75*
G02X188147I2818J-3150*
G01*
X192511*
G75*
G02X198147I2818J-3150*
G01*
X201981*
G75*
G02X208676I3348J-3150*
G01*
X219407*
Y481746*
G37*
X224919D02*
G36*
X222667D01*
Y472691*
X224919*
Y481746*
G37*
X247203D02*
G36*
X228179D01*
Y472691*
X247203*
Y481746*
G37*
X252715D02*
G36*
X250778D01*
Y472691*
X252715*
Y481746*
G37*
X285037D02*
G36*
X273736D01*
X264681Y472691*
X285037*
Y481746*
G37*
X288297D02*
G36*
Y472691D01*
X299421*
Y481746*
X288297*
G37*
X117500Y491589D02*
G36*
X106433D01*
Y481746*
X116654*
G75*
G02X117500Y484283I4226*
G01*
Y491589*
G37*
X154986Y481746D02*
G36*
X147982Y488750D01*
G75*
G02X147459Y490014I1265J1265*
G01*
Y490015*
Y490017*
Y491496*
X147087*
Y491589*
X145539*
Y491496*
X141220*
Y491589*
X139988*
Y491496*
X135669*
Y491589*
X130063*
Y490358*
X124260*
Y484283*
G75*
G02X125106Y481746I-3380J-2537*
G01*
X126283*
G75*
G02X135476I4596*
G01*
X136654*
G75*
G02X145106I4226*
G01*
X154986*
G37*
X164683Y491589D02*
G36*
X157327D01*
Y491126*
X152268*
Y491589*
X151406*
Y491496*
X151033*
Y490754*
X158769Y483019*
X160079Y481746*
X164683*
Y491589*
G37*
X255517D02*
G36*
X250778D01*
Y481746*
X252715*
Y488045*
G75*
G02X253240Y489311I1788*
G01*
X255517Y491589*
G37*
X219407Y481746D02*
G36*
Y489339D01*
X217157Y491589*
X209925*
G75*
G02X200732I-4596*
G01*
X199555*
G75*
G02X191102I-4226*
G01*
X189555*
G75*
G02X181102I-4226*
G01*
X179555*
G75*
G02X171102I-4226*
G01*
X167943*
Y481746*
X219407*
G37*
X224919Y491589D02*
G36*
X221768D01*
X222189Y491168*
G75*
G02X222667Y490014I-1150J-1154*
G01*
Y490014*
Y481746*
X224919*
Y491589*
G37*
X247203D02*
G36*
X228179D01*
Y481746*
X247203*
Y491589*
G37*
X285037D02*
G36*
X260573D01*
X256289Y487305*
Y481746*
X269126*
X272541Y485161*
G75*
G02X272441Y486077I4123J915*
G01*
G75*
G02X280894I4226*
G01*
G75*
G02X274462Y482472I-4226*
G01*
X273736Y481746*
X285037*
Y482177*
G75*
G02X282441Y486077I1630J3900*
G01*
G75*
G02X285037Y489976I4227*
G01*
Y491589*
G37*
X288297D02*
G36*
Y489976D01*
G75*
G02X290894Y486077I-1630J-3900*
G01*
G75*
G02X288297Y482177I-4227*
G01*
Y481746*
X299421*
Y491589*
X288297*
G37*
X117500D02*
G36*
Y492448D01*
G75*
G02X116949Y494344I2984J1896*
G01*
Y494344*
Y502661*
G75*
G02X116259Y504974I3536J2313*
G01*
X106433*
Y491589*
X117500*
G37*
X136260Y504974D02*
G36*
X135083D01*
G75*
G02X125890I-4596*
G01*
X124713*
Y504974*
G75*
G02X124024Y502661I-4227J0*
G01*
Y498331*
X130063*
Y491589*
X135669*
Y497193*
X138856*
Y501075*
G75*
G02X136260Y504974I1631J3900*
G01*
G37*
X141220Y491589D02*
G36*
Y492889D01*
G75*
G02X140486Y492715I-735J1460*
G01*
X139988*
Y491589*
X141220*
G37*
X147087D02*
G36*
Y492715D01*
X145539*
Y491589*
X147087*
G37*
X176606Y504974D02*
G36*
X144713D01*
G75*
G02X142116Y501075I-4226J-1*
G01*
Y497193*
X145539*
Y495974*
X147087*
Y497193*
X151406*
Y491589*
X152268*
Y497563*
X157327*
Y491589*
X164683*
Y492376*
Y492376*
G75*
G02X165162Y493530I1629*
G01*
X176606Y504974*
G37*
X268903D02*
G36*
X250778D01*
Y491589*
X255517*
X268903Y504974*
G37*
X200535D02*
G36*
X199673D01*
Y503545*
X200535Y502683*
Y504974*
G37*
X217157Y491589D02*
G36*
X212094Y496652D01*
X202632*
G75*
G02X201478Y497130I0J1629*
G01*
X196363Y502246*
G75*
G02X196142Y502520I1172J1170*
G01*
X195354*
Y503738*
X192626*
Y502520*
X188307*
Y504974*
X187075*
Y502520*
X182756*
Y504974*
X181217*
X167943Y491701*
Y491589*
X171102*
G75*
G02X179555I4226*
G01*
X181102*
G75*
G02X189555I4226*
G01*
X191102*
G75*
G02X199555I4226*
G01*
X200732*
G75*
G02X209925I4596*
G01*
X217157*
G37*
X224919Y504974D02*
G36*
X205594D01*
Y502150*
X201069*
X203307Y499911*
X212770*
G75*
G02X213924Y499433I0J-1629*
G01*
X221768Y491589*
X224919*
Y504974*
G37*
X247203D02*
G36*
X228179D01*
Y491589*
X247203*
Y504974*
G37*
X285037D02*
G36*
X273959D01*
X260573Y491589*
X285037*
Y504974*
G37*
X288297D02*
G36*
Y491589D01*
X299421*
Y504974*
X288297*
G37*
X121612Y514817D02*
G36*
X106433D01*
Y504974*
X116259*
G75*
G02X117106Y507512I4226J0*
G01*
Y508911*
G75*
G02X118098Y511303I3381J-1*
G01*
X121612Y514817*
G37*
X176606Y504974D02*
G36*
X178463Y506831D01*
Y512489*
G75*
G02X172398Y511437I-3528J2328*
G01*
X127792*
X123866Y507511*
G75*
G02X124713Y504974I-3380J-2537*
G01*
X125890*
G75*
G02X135083I4596*
G01*
X136260*
G75*
G02X144713I4226*
G01*
X176606*
G37*
X182756D02*
G36*
Y508217D01*
X183128*
Y510996*
G75*
G02X181722Y512071I1813J3828*
G01*
Y506156*
Y506155*
G75*
G02X181244Y505002I-1629*
G01*
X181217Y504974*
X182756*
G37*
X285037D02*
G36*
Y506193D01*
G75*
G02X282441Y510092I1630J3899*
G01*
G75*
G02X282626Y511330I4227*
G01*
X279140Y514817*
X255849*
X250778Y509746*
Y504974*
X268903*
X272665Y508736*
G75*
G02X272441Y510093I4006J1357*
G01*
G75*
G02X280894I4226*
G01*
G75*
G02X275137Y506153I-4226*
G01*
X273959Y504974*
X285037*
G37*
X224919Y514817D02*
G36*
X209531D01*
G75*
G02X200339I-4596*
G01*
X199161*
G75*
G02X190709I-4226*
G01*
X189161*
Y514817*
G75*
G02X186703Y510978I-4226*
G01*
Y508217*
X187075*
Y504974*
X188307*
Y508217*
X192626*
Y506998*
X195354*
Y508217*
X199673*
Y504974*
X200535*
Y508587*
X205594*
Y504974*
X224919*
Y514817*
G37*
X250793D02*
G36*
X228179D01*
Y504974*
X247203*
Y510486*
G75*
G02X247728Y511752I1788*
G01*
X250793Y514817*
G37*
X288297Y504974D02*
G36*
X299421D01*
Y514817*
X284195*
X285025Y513987*
G75*
G02X290894Y510093I1642J-3894*
G01*
Y510093*
G75*
G02Y510092I-5013J0*
G01*
G75*
G02X288297Y506193I-4226*
G01*
Y504974*
G37*
X121612Y514817D02*
G36*
X124000Y517205D01*
G75*
G02X126392Y518197I2393J-2390*
G01*
X172398*
G75*
G02X176706Y518654I2537J-3380*
G01*
X175364Y519996*
X106433*
Y514817*
X121612*
G37*
X279140D02*
G36*
X273960Y519996D01*
X261028*
X255849Y514817*
X279140*
G37*
X190709D02*
G36*
G75*
G02X193148Y518647I4227D01*
G01*
Y519996*
X179974*
X181244Y518727*
G75*
G02X181722Y517573I-1150J-1154*
G01*
Y517573*
Y517563*
G75*
G02X189161Y514817I3213J-2746*
G01*
X190709*
G37*
X224919Y519996D02*
G36*
X215896D01*
Y517167*
X209569*
Y519996*
X196722*
Y518647*
G75*
G02X199161Y514818I-1787J-3829*
G01*
G75*
G02Y514817I-5639J0*
G01*
X200339*
G75*
G02X209531I4596*
G01*
X224919*
Y519996*
G37*
X255972D02*
G36*
X228179D01*
Y514817*
X250793*
X255972Y519996*
G37*
X284195Y514817D02*
G36*
X299421D01*
Y519996*
X279016*
X284195Y514817*
G37*
X175364Y519996D02*
G36*
X172694Y522666D01*
G75*
G02X171376Y524266I311J1600*
G01*
Y524659*
X106433*
Y519996*
X175364*
G37*
X273960D02*
G36*
X269776Y524181D01*
G75*
G02X269433Y524659I1262J1267*
G01*
X265691*
X261028Y519996*
X273960*
G37*
X192638Y524659D02*
G36*
X191406D01*
Y521811*
X187087*
Y524659*
X175311*
X179974Y519996*
X193148*
Y521811*
X192638*
Y524659*
G37*
X224919D02*
G36*
X208083D01*
Y522201*
X202496*
Y523030*
X196957*
Y521811*
X196722*
Y519996*
X209569*
Y522825*
X215896*
Y519996*
X224919*
Y524659*
G37*
X260635D02*
G36*
X228179D01*
Y519996*
X255972*
X260635Y524659*
G37*
X279016Y519996D02*
G36*
X299421D01*
Y524659*
X274353*
X279016Y519996*
G37*
X171376Y524659D02*
G36*
Y529230D01*
X106433*
Y524659*
X171376*
G37*
X269433D02*
G36*
G75*
G02X269250Y525447I1605J787D01*
G01*
Y529230*
X267707*
Y527415*
G75*
G02X267181Y526149I-1788*
G01*
X265691Y524659*
X269433*
G37*
X224919D02*
G36*
Y524772D01*
X220461Y529230*
X215526*
Y526772*
X209939*
Y527600*
X201433*
G75*
G02X198110Y529230I-1261J1630*
G01*
X174636*
Y525335*
X175311Y524659*
X187087*
Y527508*
X191406*
Y524659*
X192638*
Y527508*
X196957*
Y526289*
X202496*
Y527118*
X208083*
Y524659*
X224919*
G37*
X264132Y529230D02*
G36*
X225071D01*
X227700Y526601*
G75*
G02X228179Y525447I-1150J-1154*
G01*
Y525447*
Y524659*
X260635*
X264132Y528156*
Y529230*
G37*
X274353Y524659D02*
G36*
X299421D01*
Y529230*
X272825*
Y526187*
X274353Y524659*
G37*
X163331Y543281D02*
G36*
X162154D01*
G75*
G02X153701I-4226*
G01*
X126218*
G75*
G02X118439Y540669I-7779J10276*
G01*
G75*
G02X110660Y543281J12888*
G01*
X106433*
Y529230*
X171376*
Y540243*
G75*
G02X163331Y543281I-3449J3039*
G01*
G37*
X279991D02*
G36*
X272825D01*
Y529230*
X299421*
Y543281*
X295548*
G75*
G02X279991I-7779J10276*
G01*
G37*
X220461Y529230D02*
G36*
X217606Y532085D01*
X205683*
G75*
G02X204529Y532563I0J1629*
G01*
X198036Y539057*
G75*
G02X193701Y543281I-109J4225*
G01*
X192154*
G75*
G02X183701I-4226*
G01*
X182154*
G75*
G02X174636Y540630I-4226*
G01*
Y529230*
X198110*
G75*
G02X201433Y530860I2061*
G01*
X209939*
Y531689*
X215526*
Y529230*
X220461*
G37*
X264132Y543281D02*
G36*
X252154D01*
G75*
G02X243701I-4226*
G01*
X242154*
G75*
G02X233701I-4226*
G01*
X232154*
G75*
G02X223701I-4226*
G01*
X222154*
G75*
G02X213701I-4226*
G01*
X212154*
G75*
G02X203701I-4226*
G01*
X202154*
G75*
G02X201152Y540550I-4226*
G01*
X206358Y535344*
X218281*
G75*
G02X219435Y534866I0J-1629*
G01*
X225071Y529230*
X264132*
Y543281*
G37*
X269250D02*
G36*
X267707D01*
Y529230*
X269250*
Y543281*
G37*
X110660D02*
G36*
G75*
G02X106433Y548872I7779J10276D01*
G01*
Y543281*
X110660*
G37*
X274885Y553281D02*
G36*
X271439D01*
X272299Y552422*
G75*
G02X272825Y551156I-1262J-1266*
G01*
Y543281*
X279991*
G75*
G02X274885Y553281I7779J10276*
G01*
G37*
X153701Y543281D02*
G36*
G75*
G02Y543282I5013J0D01*
G01*
G75*
G02X156297Y547181I4226*
G01*
Y549382*
G75*
G02X153701Y553281I1630J3900*
G01*
X131324*
G75*
G02X126218Y543281I-12885J276*
G01*
X153701*
G37*
X173701Y553281D02*
G36*
X172154D01*
G75*
G02X163701I-4226*
G01*
X162154*
G75*
G02X159557Y549382I-4227*
G01*
Y547181*
G75*
G02X162154Y543281I-1631J-3900*
G01*
X163331*
G75*
G02X171376Y546320I4596*
G01*
Y548281*
G75*
G02X173006Y549911I1630*
G01*
X175377*
G75*
G02X173701Y553281I2550J3370*
G01*
G37*
X183701Y543281D02*
G36*
G75*
G02X185377Y546652I4226D01*
G01*
X180478*
G75*
G02X182154Y543281I-2550J-3370*
G01*
X183701*
G37*
X183331Y553281D02*
G36*
X182154D01*
G75*
G02X180478Y549911I-4226*
G01*
X184802*
G75*
G02X183331Y553281I3126J3370*
G01*
G37*
X193701Y543281D02*
G36*
G75*
G02X195377Y546652I4226D01*
G01*
X190478*
G75*
G02X192154Y543281I-2550J-3370*
G01*
X193701*
G37*
X193331Y553281D02*
G36*
X192524D01*
G75*
G02X191053Y549911I-4597J0*
G01*
X194802*
G75*
G02X193331Y553281I3126J3370*
G01*
G37*
X203701Y543281D02*
G36*
G75*
G02X205377Y546652I4226D01*
G01*
X200478*
G75*
G02X202154Y543281I-2550J-3370*
G01*
X203701*
G37*
X203331Y553281D02*
G36*
X202524D01*
G75*
G02X201053Y549911I-4597J0*
G01*
X204802*
G75*
G02X203331Y553281I3126J3370*
G01*
G37*
X213701Y543281D02*
G36*
G75*
G02X215377Y546652I4226D01*
G01*
X210478*
G75*
G02X212154Y543281I-2550J-3370*
G01*
X213701*
G37*
X213331Y553281D02*
G36*
X212524D01*
G75*
G02X211053Y549911I-4597J0*
G01*
X214802*
G75*
G02X213331Y553281I3126J3370*
G01*
G37*
X223701Y543281D02*
G36*
G75*
G02X224102Y545078I4231J-2D01*
G01*
X222528Y546652*
X220478*
G75*
G02X222154Y543281I-2550J-3370*
G01*
X223701*
G37*
X261541Y553281D02*
G36*
X252524D01*
G75*
G02X243331I-4596*
G01*
X242524*
G75*
G02X233331I-4596*
G01*
X232154*
G75*
G02X223701I-4226*
G01*
X222524*
G75*
G02X221053Y549911I-4597J0*
G01*
X223203*
G75*
G02X224357Y549433I0J-1629*
G01*
X226522Y547267*
G75*
G02X232154Y543281I1405J-3986*
G01*
X233701*
G75*
G02X242154I4226*
G01*
X243701*
G75*
G02X252154I4226*
G01*
X264132*
Y550691*
X261541Y553281*
G37*
X269250Y543281D02*
G36*
Y550415D01*
X267585Y552081*
G75*
G02X267707Y551431I-1666J-649*
G01*
Y551431*
Y551430*
Y551428*
Y543281*
X269250*
G37*
X299421Y548049D02*
G36*
G75*
G02X295548Y543281I-11652J5508D01*
G01*
X299421*
Y548049*
G37*
X282346Y565248D02*
G36*
X123863D01*
G75*
G02X131327Y553557I-5424J-11691*
G01*
G75*
G02X131324Y553281I-12891J9*
G01*
X153701*
G75*
G02X159284Y557284I4226*
G01*
X166504Y564504*
G75*
G02X167770Y565030I1266J-1262*
G01*
X258951*
G75*
G02X260217Y564504J-1788*
G01*
X271439Y553281*
X274885*
G75*
G02X274882Y553557I12898J267*
G01*
G75*
G02X282346Y565248I12888*
G01*
G37*
X163701Y553281D02*
G36*
Y553282D01*
G75*
G02X169284Y557284I4226*
G01*
X172960Y560961*
G75*
G02X173892Y561455I1267J-1263*
G01*
X168510*
X161867Y554811*
G75*
G02X162154Y553281I-3940J-1530*
G01*
X163701*
G37*
X261541D02*
G36*
X256911Y557911D01*
X174967*
X171867Y554811*
G75*
G02X172154Y553281I-3949J-1531*
G01*
X173701*
G75*
G02X182154I4226*
G01*
X183331*
G75*
G02X192524I4596*
G01*
X193331*
G75*
G02X202524I4596*
G01*
X203331*
G75*
G02X212524I4596*
G01*
X213331*
G75*
G02X222524I4596*
G01*
X223701*
G75*
G02X232154I4226*
G01*
X233331*
G75*
G02X242524I4596*
G01*
X243331*
G75*
G02X252524I4596*
G01*
X261541*
G37*
X496522Y548613D02*
G75*
G02X471732Y553557I-11902J4944D01*
G01*
G75*
G02X479772Y565498I12888*
G01*
X320138*
G75*
G02X315289Y540669I-4848J-11941*
G01*
G75*
G02X303033Y549571I0J12888*
G01*
Y357543*
G75*
G02X328177Y353557I12256J-3986*
G01*
G75*
G02X319275Y341301I-12888J0*
G01*
X480634*
G75*
G02X484620Y366445I3986J12256*
G01*
G75*
G02X496522Y358502J-12888*
G01*
Y548613*
X486329Y392388D02*
G75*
G02X488925Y388489I-1630J-3900D01*
G01*
G75*
G02X482083Y385169I-4226*
G01*
X467667Y370752*
G75*
G02X466513Y370274I-1154J1151*
G01*
X409307*
G75*
G02X406784I-1261J1630*
G01*
X371238*
G75*
G02X370276Y368331I-3350J449*
G01*
X367331Y365385*
Y359634*
X369000*
Y364335*
X375437*
Y359276*
X373733*
G75*
G02X373975Y359142I-1515J-3020*
G01*
X379856*
G75*
G02X381511Y358709J-3380*
G01*
X382016*
Y358362*
G75*
G02Y353162I-2159J-2600*
G01*
Y352815*
X381511*
G75*
G02X379856Y352382I-1655J2947*
G01*
X372219*
G75*
G02X370462Y352874J3380*
G01*
X363951*
G75*
G02X360571Y356254J3380*
G01*
Y359644*
X359713*
Y358425*
X355394*
Y364122*
X359713*
Y362904*
X360571*
Y367179*
G75*
G02X362707Y370322I3380*
G01*
X364508Y372122*
Y389346*
G75*
G02X364208Y390801I3380J1456*
G01*
G75*
G02X371568I3680*
G01*
G75*
G02X371268Y389346I-3680*
G01*
Y373533*
X392874*
G75*
G02X395527Y376683I1392J1520*
G01*
X396649*
G75*
G02X395354Y378596I766J1913*
G01*
G75*
G02X398677Y380226I2061*
G01*
X399799*
G75*
G02X398504Y382140I766J1913*
G01*
G75*
G02X401826Y383770I2061*
G01*
X443984*
X460352Y400138*
Y428203*
G75*
G02X460831Y429357I1630*
G01*
X470085Y438610*
G75*
G02X470079Y438833I4219J223*
G01*
G75*
G02X478531I4226*
G01*
G75*
G02X471639Y435554I-4226*
G01*
X463612Y427528*
Y408713*
G75*
G02X463981Y409278I1520J-589*
G01*
X470082Y415379*
G75*
G02X478531Y415211I4223J-169*
G01*
G75*
G02X471428Y412115I-4226*
G01*
X466762Y407449*
Y396707*
G75*
G02X466283Y395553I-1630*
G01*
X448176Y377445*
G75*
G02X447022Y376967I-1154J1151*
G01*
X398677*
G75*
G02X398181Y376683I-1261J1630*
G01*
X458594*
X470473Y388562*
G75*
G02X478925Y388489I4226J-74*
G01*
G75*
G02X471870Y385349I-4226*
G01*
X460423Y373902*
G75*
G02X459858Y373533I-1154J1151*
G01*
X465838*
X480484Y388180*
G75*
G02X480472Y388489I4213J310*
G01*
G75*
G02X483069Y392388I4226*
G01*
Y411169*
G75*
G02X482675Y419110I1236J4042*
G01*
Y434933*
G75*
G02X481888Y442300I1630J3900*
G01*
Y458949*
G75*
G02Y466748I1630J3900*
G01*
Y482177*
G75*
G02Y489976I1630J3900*
G01*
Y506193*
G75*
G02X479477Y511330I1630J3900*
G01*
X466626Y524181*
G75*
G02X466100Y525447I1262J1266*
G01*
Y550415*
X464435Y552081*
G75*
G02X464557Y551431I-1665J-649*
G01*
G75*
G02Y551430I-635J0*
G01*
G75*
G02Y551428I-641J-1*
G01*
Y527415*
G75*
G02X464031Y526149I-1787*
G01*
X447628Y509746*
Y431731*
X449565Y433668*
Y488045*
G75*
G02X450091Y489311I1787*
G01*
X469515Y508736*
G75*
G02X469291Y510093I4002J1357*
G01*
G75*
G02X477744I4226*
G01*
G75*
G02X471988Y506153I-4226*
G01*
X453140Y487305*
Y468861*
G75*
G02X453351Y469120I1363J-895*
G01*
X469392Y485161*
G75*
G02X469291Y486077I4126J916*
G01*
G75*
G02X477744I4226*
G01*
G75*
G02X471312Y482472I-4226*
G01*
X456132Y467291*
Y448109*
X469515Y461492*
G75*
G02X469291Y462848I4002J1357*
G01*
G75*
G02X477744I4226*
G01*
G75*
G02X471988Y458909I-4226*
G01*
X459045Y445966*
Y431746*
G75*
G02X458520Y430480I-1787*
G01*
X424672Y396632*
G75*
G02X420551Y396707I-2060J74*
G01*
G75*
G02X421236Y398241I2061*
G01*
G75*
G02X421350Y398367I1376J-1141*
G01*
X429478Y406494*
X426831*
X419932Y399596*
G75*
G02X415827Y399856I-2044J261*
G01*
G75*
G02X417627Y401901I2061*
G01*
X425002Y409275*
G75*
G02X425261Y409486I1154J-1152*
G01*
X422565*
X416384Y403306*
G75*
G02X416406Y403006I-2040J-301*
G01*
G75*
G02X412283I-2062*
G01*
G75*
G02X412579Y404070I2062*
G01*
G75*
G02X413083Y405059I1766J-277*
G01*
X420559Y412535*
G75*
G02X420668Y412636I1265J-1265*
G01*
X382274*
Y393557*
G75*
G02X380486Y391770I-1787*
G01*
X377032*
G75*
G02X374459Y394919I-1026J1788*
G01*
X367494*
G75*
G02X365707Y396707J1787*
G01*
Y396888*
X355939*
G75*
G02X354965Y397177J1787*
G01*
Y393488*
X349906*
Y399925*
X354152*
Y422228*
X350693*
Y428665*
X354152*
Y439525*
G75*
G02X350633Y440002I-1618J1276*
G01*
X345339Y445297*
G75*
G02X344984Y445827I1151J1154*
G01*
X344331*
Y447045*
X342390*
Y445827*
X338071*
Y451524*
X342390*
Y450305*
X344331*
Y451524*
X348650*
Y446596*
X349512Y445734*
Y451894*
X354152*
Y456202*
X345228Y465126*
G75*
G02X344703Y466392I1262J1266*
G01*
Y469843*
X344331*
Y471061*
X343177*
Y469843*
X338858*
Y475539*
X343177*
Y474321*
X344331*
Y475539*
X348650*
Y469843*
X348278*
Y467132*
X357201Y458209*
G75*
G02X357439Y457915I-1262J-1266*
G01*
Y476266*
X353122Y480461*
G75*
G02X353100Y480482I1231J1275*
G01*
X344833Y488750*
G75*
G02X344309Y490014I1264J1264*
G01*
G75*
G02Y490015I635J0*
G01*
G75*
G02Y490017I641J1*
G01*
Y491496*
X343937*
Y492715*
X342390*
Y491496*
X338071*
Y492889*
G75*
G02X337337Y492715I-734J1455*
G01*
X336839*
Y491496*
X332520*
Y497193*
X335707*
Y501075*
G75*
G02X333110Y504974I1630J3900*
G01*
G75*
G02X341563I4226*
G01*
G75*
G02X338967Y501075I-4226*
G01*
Y497193*
X342390*
Y495974*
X343937*
Y497193*
X348256*
Y491496*
X347884*
Y490754*
X355619Y483019*
X360470Y478306*
G75*
G02X361014Y477022I-1244J-1284*
G01*
Y403612*
X371037*
G75*
G02X372825Y401825J-1787*
G01*
Y401644*
X374980*
G75*
G02X377335Y398281I1026J-1787*
G01*
G75*
G02X377553Y395344I-1330J-1575*
G01*
X378699*
Y414423*
G75*
G02X380486Y416211I1787*
G01*
X428565*
X444053Y431699*
Y510486*
G75*
G02X444579Y511752I1787*
G01*
X460982Y528156*
Y550691*
X453761Y557911*
X371817*
X368717Y554811*
G75*
G02X369004Y553281I-3939J-1530*
G01*
G75*
G02X360551I-4226*
G01*
G75*
G02X366134Y557284I4226*
G01*
X369811Y560961*
G75*
G02X370743Y561455I1266J-1262*
G01*
X365361*
X358717Y554811*
G75*
G02X356407Y549382I-3940J-1530*
G01*
Y547181*
G75*
G02X359004Y543281I-1630J-3900*
G01*
G75*
G02X350551I-4226*
G01*
G75*
G02X353148Y547181I4226*
G01*
Y549382*
G75*
G02X356134Y557284I1630J3900*
G01*
X363354Y564504*
G75*
G02X364620Y565030I1266J-1262*
G01*
X455801*
G75*
G02X457067Y564504J-1787*
G01*
X469150Y552422*
G75*
G02X469675Y551156I-1262J-1266*
G01*
Y526187*
X481876Y513987*
G75*
G02X487744Y510093I1642J-3894*
G01*
G75*
G02X485148Y506193I-4226*
G01*
Y489976*
G75*
G02Y482177I-1630J-3900*
G01*
Y466748*
G75*
G02Y458949I-1630J-3900*
G01*
Y442974*
G75*
G02X485935Y434933I-843J-4142*
G01*
Y419110*
G75*
G02X486329Y411500I-1630J-3900*
G01*
Y392388*
X413124Y355046D02*
G75*
G02X422317I4596D01*
G01*
G75*
G02X413124I-4596*
G01*
Y365046D02*
G75*
G02X422317I4596D01*
G01*
G75*
G02X413124I-4596*
G01*
X423494Y355046D02*
G75*
G02X431946I4226D01*
G01*
G75*
G02X423494I-4226*
G01*
Y365046D02*
G75*
G02X431946I4226D01*
G01*
G75*
G02X423494I-4226*
G01*
X433494Y355046D02*
G75*
G02X441946I4226D01*
G01*
G75*
G02X433494I-4226*
G01*
Y365046D02*
G75*
G02X441946I4226D01*
G01*
G75*
G02X433494I-4226*
G01*
X443494Y355046D02*
G75*
G02X451946I4226D01*
G01*
G75*
G02X443494I-4226*
G01*
Y365046D02*
G75*
G02X451946I4226D01*
G01*
G75*
G02X443494I-4226*
G01*
X381106Y367740D02*
X386165D01*
Y361106*
X381106*
Y367740*
X423372Y547267D02*
G75*
G02X429004Y543281I1405J-3986D01*
G01*
G75*
G02X420551I-4226*
G01*
G75*
G02X420952Y545078I4226J0*
G01*
X419378Y546652*
X417328*
G75*
G02X419004Y543281I-2550J-3370*
G01*
G75*
G02X410551I-4226*
G01*
G75*
G02X412227Y546652I4226*
G01*
X407328*
G75*
G02X409004Y543281I-2550J-3370*
G01*
G75*
G02X400551I-4226*
G01*
G75*
G02X402227Y546652I4226*
G01*
X397328*
G75*
G02X398003Y540550I-2550J-3370*
G01*
X403209Y535344*
X415132*
G75*
G02X416286Y534866J-1630*
G01*
X424551Y526601*
G75*
G02X425030Y525447I-1151J-1154*
G01*
Y437732*
G75*
G02X425461Y436470I-1630J-1261*
G01*
G75*
G02X421339I-2061*
G01*
G75*
G02X421770Y437732I2061*
G01*
Y524772*
X414457Y532085*
X402533*
G75*
G02X401380Y532563J1630*
G01*
X394887Y539057*
G75*
G02X392227Y546652I-109J4225*
G01*
X387328*
G75*
G02X389004Y543281I-2550J-3370*
G01*
G75*
G02X380551I-4226*
G01*
G75*
G02X382227Y546652I4226*
G01*
X377328*
G75*
G02X379004Y543281I-2550J-3370*
G01*
G75*
G02X371486Y540630I-4226*
G01*
Y525335*
X378094Y518727*
G75*
G02X378573Y517573I-1151J-1154*
G01*
Y517563*
G75*
G02X386012Y514817I3213J-2746*
G01*
G75*
G02X383553Y510978I-4226*
G01*
Y508217*
X383925*
Y502520*
X379606*
Y508217*
X379978*
Y510996*
G75*
G02X378573Y512071I1807J3820*
G01*
Y506156*
G75*
G02X378094Y505002I-1630*
G01*
X364793Y491701*
Y415122*
X371106*
Y410063*
X364793*
Y408671*
X365039*
Y409201*
X370736*
Y407785*
X374744*
G75*
G02X378067Y406156I1261J-1630*
G01*
G75*
G02X374744Y404526I-2061*
G01*
X367888*
G75*
G02X366871Y404882J1630*
G01*
X365039*
Y405411*
X363163*
G75*
G02X361533Y407041J1630*
G01*
Y492376*
G75*
G02X362012Y493530I1630*
G01*
X375313Y506831*
Y512489*
G75*
G02X369248Y511437I-3528J2328*
G01*
X324642*
X320717Y507511*
G75*
G02X320874Y502661I-3380J-2537*
G01*
Y498331*
X326913*
Y490358*
X321110*
Y484283*
G75*
G02Y479209I-3380J-2537*
G01*
Y460661*
G75*
G02Y455587I-3380J-2537*
G01*
Y437039*
G75*
G02Y431965I-3380J-2537*
G01*
Y411843*
G75*
G02Y406768I-3380J-2537*
G01*
Y386843*
G75*
G02Y381768I-3380J-2537*
G01*
Y379603*
X325824Y374889*
G75*
G02X328154Y373898I-62J-3380*
G01*
X334056Y367996*
G75*
G02X335047Y365604I-2388J-2392*
G01*
Y357949*
X343304Y349693*
X384035*
Y355762*
G75*
G02X385256Y358362I3380*
G01*
Y358709*
X385760*
G75*
G02X388998Y358748I1655J-2947*
G01*
X393953*
G75*
G02X394720Y359276I2281J-2494*
G01*
X393016*
Y364335*
X399453*
Y359276*
X397749*
G75*
G02X398824Y358426I-1515J-3021*
G01*
X405183*
G75*
G02X406090Y358945I2538J-3380*
G01*
Y361146*
G75*
G02X403494Y365046I1630J3900*
G01*
G75*
G02X411946I4226*
G01*
G75*
G02X409350Y361146I-4226*
G01*
Y358945*
G75*
G02X411946Y355046I-1630J-3900*
G01*
G75*
G02X405183Y351666I-4226*
G01*
X396234*
G75*
G02X394794Y351988J3380*
G01*
X390795*
Y346313*
G75*
G02X387415Y342933I-3380*
G01*
X341904*
G75*
G02X339512Y343925J3380*
G01*
X329279Y354157*
G75*
G02X328287Y356549I2388J2392*
G01*
Y364204*
X324361Y368130*
G75*
G02X322031Y369122I62J3380*
G01*
X315342Y375811*
G75*
G02X314350Y378203I2388J2392*
G01*
Y381768*
G75*
G02Y386843I3380J2537*
G01*
Y406768*
G75*
G02Y411843I3380J2537*
G01*
Y431965*
G75*
G02Y437039I3380J2537*
G01*
Y455587*
G75*
G02Y460661I3380J2537*
G01*
Y479209*
G75*
G02Y484283I3380J2537*
G01*
Y492448*
G75*
G02X313799Y494344I2986J1896*
G01*
Y502661*
G75*
G02X313957Y507512I3537J2313*
G01*
Y508911*
G75*
G02X314948Y511303I3380*
G01*
X320850Y517205*
G75*
G02X323242Y518197I2392J-2388*
G01*
X369248*
G75*
G02X373556Y518654I2537J-3380*
G01*
X369545Y522666*
G75*
G02X368226Y524266I311J1600*
G01*
Y540243*
G75*
G02X360181Y543281I-3449J3039*
G01*
G75*
G02X368226Y546320I4596*
G01*
Y548281*
G75*
G02X369856Y549911I1630*
G01*
X372227*
G75*
G02X370551Y553281I2550J3370*
G01*
G75*
G02X379004I4226*
G01*
G75*
G02X377328Y549911I-4226*
G01*
X381652*
G75*
G02X380181Y553281I3126J3370*
G01*
G75*
G02X389374I4596*
G01*
G75*
G02X387903Y549911I-4596*
G01*
X391652*
G75*
G02X390181Y553281I3126J3370*
G01*
G75*
G02X399374I4596*
G01*
G75*
G02X397903Y549911I-4596*
G01*
X401652*
G75*
G02X400181Y553281I3126J3370*
G01*
G75*
G02X409374I4596*
G01*
G75*
G02X407903Y549911I-4596*
G01*
X411652*
G75*
G02X410181Y553281I3126J3370*
G01*
G75*
G02X419374I4596*
G01*
G75*
G02X417903Y549911I-4596*
G01*
X420053*
G75*
G02X421207Y549433J-1630*
G01*
X423372Y547267*
X406789Y531689D02*
X412376D01*
Y526772*
X406789*
Y527600*
X398283*
G75*
G02X394961Y529230I-1261J1630*
G01*
G75*
G02X398283Y530860I2061*
G01*
X406789*
Y531689*
X406419Y522825D02*
X412746D01*
Y517167*
X406419*
Y522825*
X399346Y527118D02*
X404933D01*
Y522201*
X399346*
Y523030*
X393807*
Y521811*
X393573*
Y518647*
G75*
G02X396012Y514817I-1787J-3830*
G01*
G75*
G02X387559I-4226*
G01*
G75*
G02X389998Y518647I4226*
G01*
Y521811*
X389488*
Y527508*
X393807*
Y526289*
X399346*
Y527118*
X397189Y514817D02*
G75*
G02X406382I4596D01*
G01*
G75*
G02X397189I-4596*
G01*
X383937Y527508D02*
X388256D01*
Y521811*
X383937*
Y527508*
X419039Y491168D02*
G75*
G02X419518Y490014I-1151J-1154D01*
G01*
Y435289*
G75*
G02X417888Y433659I-1630*
G01*
X401826*
G75*
G02X398504Y435289I-1261J1630*
G01*
G75*
G02X401826Y436919I2061*
G01*
X416258*
Y489339*
X408945Y496652*
X399482*
G75*
G02X398328Y497130J1630*
G01*
X393213Y502246*
G75*
G02X392992Y502520I1151J1154*
G01*
X392205*
Y503738*
X389476*
Y502520*
X385157*
Y508217*
X389476*
Y506998*
X392205*
Y508217*
X396524*
Y503545*
X397386Y502683*
Y508587*
X402445*
Y502150*
X397919*
X400157Y499911*
X409620*
G75*
G02X410774Y499433J-1630*
G01*
X419039Y491168*
X432510Y426708D02*
G75*
G02X432941Y425447I-1630J-1261D01*
G01*
G75*
G02X428819I-2061*
G01*
G75*
G02X429250Y426708I2061*
G01*
Y428148*
X419398*
Y426929*
X415079*
Y432626*
X419398*
Y431407*
X430880*
G75*
G02X432510Y429778J-1630*
G01*
Y426708*
X397583Y446707D02*
G75*
G02X406776I4596D01*
G01*
G75*
G02X397583I-4596*
G01*
X409528Y432626D02*
X413846D01*
Y426929*
X409528*
Y428148*
X401826*
G75*
G02X398504Y429778I-1261J1630*
G01*
G75*
G02X401826Y431407I2061*
G01*
X409528*
Y432626*
X397583Y469541D02*
G75*
G02X406776I4596D01*
G01*
G75*
G02X397583I-4596*
G01*
Y491589D02*
G75*
G02X406776I4596D01*
G01*
G75*
G02X397583I-4596*
G01*
X387953Y446707D02*
G75*
G02X396406I4226D01*
G01*
G75*
G02X387953I-4226*
G01*
Y469541D02*
G75*
G02X396406I4226D01*
G01*
G75*
G02X387953I-4226*
G01*
Y491589D02*
G75*
G02X396406I4226D01*
G01*
G75*
G02X387953I-4226*
G01*
X367953Y446707D02*
G75*
G02X376406I4226D01*
G01*
G75*
G02X367953I-4226*
G01*
Y469541D02*
G75*
G02X376406I4226D01*
G01*
G75*
G02X367953I-4226*
G01*
Y491589D02*
G75*
G02X376406I4226D01*
G01*
G75*
G02X367953I-4226*
G01*
X377953Y446707D02*
G75*
G02X386406I4226D01*
G01*
G75*
G02X377953I-4226*
G01*
Y469541D02*
G75*
G02X386406I4226D01*
G01*
G75*
G02X377953I-4226*
G01*
Y491589D02*
G75*
G02X386406I4226D01*
G01*
G75*
G02X377953I-4226*
G01*
X333778Y459621D02*
G75*
G02X341957Y458124I3952J-1497D01*
G01*
G75*
G02X336053Y454244I-4226*
G01*
Y451524*
X336839*
Y445827*
X332520*
Y451524*
X332793*
Y458124*
G75*
G02X333778Y459621I1630*
G01*
X333504Y409305D02*
G75*
G02X341957I4226D01*
G01*
G75*
G02X337096Y405126I-4226*
G01*
Y399555*
X337626*
Y393858*
X333307*
Y399555*
X333837*
Y407661*
G75*
G02X333504Y409305I3894J1644*
G01*
X349045Y379858D02*
G75*
G02X349476Y378596I-1630J-1261D01*
G01*
G75*
G02X345354I-2061*
G01*
G75*
G02X345785Y379858I2061*
G01*
Y386447*
G75*
G02X345254Y387652I1098J1204*
G01*
Y393858*
X344724*
Y395077*
X343177*
Y393858*
X338858*
Y399555*
X343177*
Y398337*
X344724*
Y399555*
X349043*
Y393858*
X348514*
Y388856*
G75*
G02X349045Y387652I-1098J-1204*
G01*
Y379858*
X352746Y373177D02*
X353217D01*
Y367480*
X348898*
Y368699*
X344988*
Y367480*
X340669*
Y373177*
X344988*
Y371959*
X348898*
Y373177*
X349171*
Y374421*
G75*
G02X348898Y375447I1787J1026*
G01*
G75*
G02X353020I2061*
G01*
G75*
G02X352746Y374421I-2061*
G01*
Y373177*
X333504Y384305D02*
G75*
G02X341957I4226D01*
G01*
G75*
G02X339360Y380406I-4226*
G01*
Y373177*
X339437*
Y367480*
X335118*
Y373177*
X336100*
Y380406*
G75*
G02X333504Y384305I1630J3900*
G01*
X349843Y364122D02*
X354161D01*
Y358425*
X349843*
Y359644*
X341984*
G75*
G02X338661Y361274I-1261J1630*
G01*
G75*
G02X341984Y362904I2061*
G01*
X349843*
Y364122*
X333504Y434502D02*
G75*
G02X341957I4226D01*
G01*
G75*
G02X337628Y430277I-4226*
G01*
Y428295*
X338413*
Y422598*
X334094*
Y428295*
X334368*
Y431941*
G75*
G02X333504Y434502I3363J2561*
G01*
X345512Y428295D02*
X349831D01*
Y422598*
X349301*
Y417653*
G75*
G02X349732Y416392I-1630J-1261*
G01*
G75*
G02X345610I-2061*
G01*
G75*
G02X346041Y417653I2061*
G01*
Y422598*
X345512*
Y423817*
X343965*
Y422598*
X339646*
Y428295*
X343965*
Y427077*
X345512*
Y428295*
X349118Y497563D02*
X354177D01*
Y491126*
X349118*
Y497563*
X322740Y504974D02*
G75*
G02X331933I4596D01*
G01*
G75*
G02X322740I-4596*
G01*
X323134Y384305D02*
G75*
G02X332327I4596D01*
G01*
G75*
G02X323134I-4596*
G01*
Y409305D02*
G75*
G02X332327I4596D01*
G01*
G75*
G02X323134I-4596*
G01*
Y434502D02*
G75*
G02X332327I4596D01*
G01*
G75*
G02X323134I-4596*
G01*
Y458124D02*
G75*
G02X332327I4596D01*
G01*
G75*
G02X323134I-4596*
G01*
Y481746D02*
G75*
G02X332327I4596D01*
G01*
G75*
G02X323134I-4596*
G01*
X436309Y399161D02*
X436839D01*
Y393465*
X432520*
Y399161*
X433049*
Y402138*
G75*
G02X432618Y403400I1630J1261*
G01*
G75*
G02X436740I2061*
G01*
G75*
G02X436309Y402138I-2061*
G01*
Y399161*
X437701Y399531D02*
X442760D01*
Y393094*
X437701*
Y399531*
X354079Y373547D02*
X359138D01*
Y367110*
X354079*
Y373547*
X349512Y475909D02*
X354571D01*
Y469472*
X349512*
Y475909*
X333504Y481746D02*
G75*
G02X341957I4226D01*
G01*
G75*
G02X337096Y477567I-4226*
G01*
Y475539*
X337626*
Y469843*
X333307*
Y475539*
X333837*
Y480102*
G75*
G02X333504Y481746I3894J1644*
G01*
X420551Y553281D02*
G75*
G02X429004I4226D01*
G01*
G75*
G02X420551I-4226*
G01*
X430181D02*
G75*
G02X439374I4596D01*
G01*
G75*
G02X430181I-4596*
G01*
X430551Y543281D02*
G75*
G02X439004I4226D01*
G01*
G75*
G02X430551I-4226*
G01*
X440181Y553281D02*
G75*
G02X449374I4596D01*
G01*
G75*
G02X440181I-4596*
G01*
X440551Y543281D02*
G75*
G02X449004I4226D01*
G01*
G75*
G02X440551I-4226*
G01*
X471819Y355046D02*
G36*
X451946D01*
G75*
G02X443494I-4226*
G01*
X441946*
G75*
G02X433494I-4226*
G01*
X431946*
G75*
G02X423494I-4226*
G01*
X422317*
G75*
G02X413124I-4596*
G01*
X411946*
Y355045*
G75*
G02X405183Y351666I-4226*
G01*
X396234*
G75*
G02X394794Y351988I-1J3374*
G01*
X390795*
Y346313*
G75*
G02X387415Y342933I-3380*
G01*
X341904*
G75*
G02X339512Y343925I1J3381*
G01*
X329279Y354157*
G75*
G02X328641Y355046I2390J2392*
G01*
X328091*
G75*
G02X328177Y353557I-12803J-1488*
G01*
G75*
G02X319975Y341551I-12888*
G01*
X479935*
G75*
G02X471732Y353557I4685J12006*
G01*
G75*
G02X471819Y355046I12889J0*
G01*
G37*
X384035D02*
G36*
X383159D01*
G75*
G02X382016Y353162I-3303J716*
G01*
Y352815*
X381511*
G75*
G02X379856Y352382I-1656J2951*
G01*
X372219*
G75*
G02X370462Y352874I-1J3377*
G01*
X363951*
G75*
G02X360794Y355046J3380*
G01*
X337951*
X343304Y349693*
X384035*
Y355046*
G37*
X304967Y361274D02*
G36*
X303283D01*
Y358243*
G75*
G02X304967Y361274I12006J-4686*
G01*
G37*
X328641Y355046D02*
G36*
G75*
G02X328287Y356549I3029J1505D01*
G01*
Y361274*
X325611*
G75*
G02X328091Y355046I-10322J-7717*
G01*
X328641*
G37*
X369000Y361274D02*
G36*
X367331D01*
Y359634*
X369000*
Y361274*
G37*
X360794Y355046D02*
G36*
G75*
G02X360571Y356254I3157J1208D01*
G01*
Y359644*
X359713*
Y358425*
X355394*
Y361274*
X354161*
Y358425*
X349843*
Y359644*
X341984*
G75*
G02X338661Y361274I-1261J1630*
G01*
X335047*
Y357949*
X337951Y355046*
X360794*
G37*
X405813Y361274D02*
G36*
X399453D01*
Y359276*
X397749*
G75*
G02X398824Y358426I-1519J-3027*
G01*
X405183*
G75*
G02X406090Y358945I2535J-3374*
G01*
Y361146*
G75*
G02X405813Y361274I1631J3903*
G01*
G37*
X384035Y355046D02*
G36*
Y355762D01*
G75*
G02X385256Y358362I3381J0*
G01*
Y358709*
X385760*
G75*
G02X388998Y358748I1655J-2948*
G01*
X393953*
G75*
G02X394720Y359276I2285J-2500*
G01*
X393016*
Y361274*
X386165*
Y361106*
X381106*
Y361274*
X375437*
Y359276*
X373733*
G75*
G02X373975Y359142I-1631J-3230*
G01*
X379856*
G75*
G02X381511Y358709I-1J-3384*
G01*
X382016*
Y358362*
G75*
G02X383236Y355762I-2159J-2600*
G01*
G75*
G02X383159Y355046I-3380*
G01*
X384035*
G37*
X471819D02*
G36*
G75*
G02X474298Y361274I12802J-1489D01*
G01*
X449626*
G75*
G02X445814I-1906J3772*
G01*
X439626*
G75*
G02X435814I-1906J3772*
G01*
X429626*
G75*
G02X425814I-1906J3772*
G01*
X420347*
G75*
G02X415093I-2627J3772*
G01*
X409627*
G75*
G02X409350Y361146I-1906J3771*
G01*
Y358945*
G75*
G02X411946Y355046I-1631J-3900*
G01*
X413124*
G75*
G02X422317I4596*
G01*
X423494*
G75*
G02X431946I4226*
G01*
X433494*
G75*
G02X441946I4226*
G01*
X443494*
G75*
G02X451946I4226*
G01*
X471819*
G37*
X496272Y359065D02*
G36*
Y361274D01*
X494943*
G75*
G02X496272Y359065I-10323J-7716*
G01*
G37*
X304967Y361274D02*
G36*
G75*
G02X309450Y365046I10322J-7717D01*
G01*
X303283*
Y361274*
X304967*
G37*
X327446Y365046D02*
G36*
X321129D01*
G75*
G02X325611Y361274I-5840J-11489*
G01*
X328287*
Y364204*
X327446Y365046*
G37*
X360571D02*
G36*
X335047D01*
Y361274*
X338661*
G75*
G02X341984Y362904I2061*
G01*
X349843*
Y364122*
X354161*
Y361274*
X355394*
Y364122*
X359713*
Y362904*
X360571*
Y365046*
G37*
X381106D02*
G36*
X367331D01*
Y361274*
X369000*
Y364335*
X375437*
Y361274*
X381106*
Y365046*
G37*
X403494D02*
G36*
X386165D01*
Y361274*
X393016*
Y364335*
X399453*
Y361274*
X405813*
G75*
G02X403494Y365046I1907J3772*
G01*
G37*
X413124D02*
G36*
X411946D01*
G75*
G02Y365045I-5013J0*
G01*
G75*
G02X409627Y361274I-4226*
G01*
X415093*
G75*
G02X413124Y365046I2627J3772*
G01*
G37*
X423494D02*
G36*
X422317D01*
G75*
G02X420347Y361274I-4596*
G01*
X425814*
G75*
G02X423494Y365046I1906J3772*
G01*
G37*
X433494D02*
G36*
X431946D01*
G75*
G02X429626Y361274I-4226*
G01*
X435814*
G75*
G02X433494Y365046I1906J3772*
G01*
G37*
X443494D02*
G36*
X441946D01*
G75*
G02X439626Y361274I-4226*
G01*
X445814*
G75*
G02X443494Y365046I1906J3772*
G01*
G37*
X474298Y361274D02*
G36*
G75*
G02X478780Y365046I10322J-7716D01*
G01*
X451946*
G75*
G02X449626Y361274I-4226*
G01*
X474298*
G37*
X494943D02*
G36*
X496272D01*
Y365046*
X490460*
G75*
G02X494943Y361274I-5840J-11489*
G01*
G37*
X327446Y365046D02*
G36*
X324361Y368130D01*
G75*
G02X322031Y369122I62J3380*
G01*
X318659Y372494*
X303283*
Y365046*
X309450*
G75*
G02X321129I5840J-11489*
G01*
X327446*
G37*
X348898Y372494D02*
G36*
X344988D01*
Y371959*
X348898*
Y372494*
G37*
X364508D02*
G36*
X359138D01*
Y367110*
X354079*
Y372494*
X353217*
Y367480*
X348898*
Y368699*
X344988*
Y367480*
X340669*
Y372494*
X339437*
Y367480*
X335118*
Y372494*
X329557*
X334056Y367996*
G75*
G02X335047Y365604I-2390J-2393*
G01*
Y365046*
X360571*
Y367179*
G75*
G02X362707Y370322I3380*
G01*
X364508Y372122*
Y372494*
G37*
X490460Y365046D02*
G36*
X496272D01*
Y372494*
X469409*
X467667Y370752*
G75*
G02X466513Y370274I-1154J1150*
G01*
X409307*
G75*
G02X406784I-1261J1630*
G01*
X371238*
G75*
G02X370276Y368331I-3348J448*
G01*
X367331Y365385*
Y365046*
X381106*
Y367740*
X386165*
Y365046*
X403494*
G75*
G02X411946I4226*
G01*
X413124*
G75*
G02X422317I4596*
G01*
X423494*
G75*
G02X431946I4226*
G01*
X433494*
G75*
G02X441946I4226*
G01*
X443494*
G75*
G02X451946I4226*
G01*
X478780*
G75*
G02X484620Y366445I5840J-11489*
G01*
G75*
G02X490460Y365046J-12888*
G01*
G37*
X318659Y372494D02*
G36*
X315342Y375811D01*
G75*
G02X314350Y378203I2390J2393*
G01*
Y381768*
G75*
G02X313504Y384305I3380J2537*
G01*
G75*
G02X314350Y386843I4226*
G01*
Y388045*
X303283*
Y372494*
X318659*
G37*
X335762Y388045D02*
G36*
X330402D01*
G75*
G02X332327Y384305I-2672J-3740*
G01*
G75*
G02X323134I-4596*
G01*
G75*
G02X325059Y388045I4596*
G01*
X321110*
Y386843*
G75*
G02X321957Y384305I-3380J-2537*
G01*
G75*
G02X321110Y381768I-4226*
G01*
Y379603*
X325824Y374889*
G75*
G02X328154Y373898I-62J-3380*
G01*
X329557Y372494*
X335118*
Y373177*
X336100*
Y380406*
G75*
G02X333504Y384305I1631J3900*
G01*
G75*
G02X335762Y388045I4226*
G01*
G37*
X364508Y372494D02*
G36*
Y388045D01*
X348997*
G75*
G02X349045Y387653I-1579J-393*
G01*
G75*
G02Y387652I-1991J0*
G01*
Y379858*
G75*
G02X349476Y378597I-1628J-1261*
G01*
G75*
G02Y378596I-2374J0*
G01*
G75*
G02X345354I-2061*
G01*
G75*
G02Y378597I2374J0*
G01*
G75*
G02X345785Y379858I2059*
G01*
Y386447*
G75*
G02X345254Y387650I1096J1203*
G01*
G75*
G02Y387652I1991J1*
G01*
Y388045*
X339698*
G75*
G02X341957Y384305I-1968J-3740*
G01*
G75*
G02Y384304I-5013J0*
G01*
G75*
G02X339360Y380406I-4226*
G01*
Y373177*
X339437*
Y372494*
X340669*
Y373177*
X344988*
Y372494*
X348898*
Y373177*
X349171*
Y374421*
G75*
G02X348898Y375447I1788J1026*
G01*
G75*
G02X353020I2061*
G01*
G75*
G02X352746Y374421I-2062J0*
G01*
Y373177*
X353217*
Y372494*
X354079*
Y373547*
X359138*
Y372494*
X364508*
G37*
X448260Y388045D02*
G36*
X371268D01*
Y373533*
X392874*
G75*
G02X392205Y375053I1392J1520*
G01*
G75*
G02X395527Y376683I2061*
G01*
X396649*
G75*
G02X395354Y378596I767J1914*
G01*
G75*
G02X398677Y380226I2061*
G01*
X399799*
G75*
G02X398504Y382140I767J1914*
G01*
G75*
G02X401826Y383770I2061*
G01*
X443984*
X448260Y388045*
G37*
X469956D02*
G36*
X458776D01*
X448176Y377445*
G75*
G02X447022Y376967I-1154J1150*
G01*
X398677*
G75*
G02X398181Y376683I-1257J1623*
G01*
X458594*
X469956Y388045*
G37*
X480350D02*
G36*
X478902D01*
G75*
G02X471870Y385349I-4203J443*
G01*
X460423Y373902*
G75*
G02X459858Y373533I-1153J1150*
G01*
X465838*
X480350Y388045*
G37*
X488902D02*
G36*
G75*
G02X482083Y385169I-4203J443D01*
G01*
X469409Y372494*
X496272*
Y388045*
X488902*
G37*
X314350Y396313D02*
G36*
X303283D01*
Y388045*
X314350*
Y396313*
G37*
X338858D02*
G36*
X337626D01*
Y393858*
X333307*
Y396313*
X321110*
Y388045*
X325059*
G75*
G02X330402I2672J-3740*
G01*
X335762*
G75*
G02X339698I1968J-3740*
G01*
X345254*
Y393858*
X344724*
Y395077*
X343177*
Y393858*
X338858*
Y396313*
G37*
X456528D02*
G36*
X442760D01*
Y393094*
X437701*
Y396313*
X436839*
Y393465*
X432520*
Y396313*
X424635*
G75*
G02X420589I-2023J394*
G01*
X382274*
Y393557*
G75*
G02X380486Y391770I-1787*
G01*
X377032*
G75*
G02X373945Y393557I-1026J1788*
G01*
G75*
G02X374459Y394919I2061J0*
G01*
X367494*
G75*
G02X365751Y396313I0J1788*
G01*
X354965*
Y393488*
X349906*
Y396313*
X349043*
Y393858*
X348514*
Y388856*
G75*
G02X348997Y388045I-1096J-1204*
G01*
X364508*
Y389346*
G75*
G02X364208Y390800I3373J1454*
G01*
G75*
G02Y390801I3759J1*
G01*
G75*
G02X371568I3680*
G01*
G75*
G02Y390800I-3759J-1*
G01*
G75*
G02X371268Y389346I-3673*
G01*
Y388045*
X448260*
X456528Y396313*
G37*
X378699D02*
G36*
X378029D01*
G75*
G02X377553Y395344I-2023J394*
G01*
X378699*
Y396313*
G37*
X480350Y388045D02*
G36*
X480484Y388180D01*
G75*
G02X480472Y388483I4030J304*
G01*
G75*
G02Y388489I4155J3*
G01*
G75*
G02X483069Y392388I4226J1*
G01*
Y396313*
X466714*
G75*
G02X466283Y395553I-1581J394*
G01*
X458776Y388045*
X469956*
X470473Y388562*
G75*
G02X478925Y388489I4226J-74*
G01*
Y388488*
G75*
G02X478902Y388045I-4225J0*
G01*
X480350*
G37*
X488902D02*
G36*
X496272D01*
Y396313*
X486329*
Y392388*
G75*
G02X488925Y388489I-1631J-3900*
G01*
G75*
G02X488902Y388045I-4226J-1*
G01*
G37*
X314350Y403695D02*
G36*
X303283D01*
Y396313*
X314350*
Y403695*
G37*
X333307Y396313D02*
G36*
Y399555D01*
X333837*
Y403695*
X321110*
Y396313*
X333307*
G37*
X354152Y403695D02*
G36*
X337096D01*
Y399555*
X337626*
Y396313*
X338858*
Y399555*
X343177*
Y398337*
X344724*
Y399555*
X349043*
Y396313*
X349906*
Y399925*
X354152*
Y403695*
G37*
X365751Y396313D02*
G36*
G75*
G02X365707Y396707I1744J394D01*
G01*
Y396888*
X355939*
G75*
G02X354965Y397177I-1J1783*
G01*
Y396313*
X365751*
G37*
X378699Y403695D02*
G36*
X361014D01*
Y403612*
X371037*
G75*
G02X372825Y401825J-1787*
G01*
Y401644*
X374980*
G75*
G02X378067Y399856I1026J-1787*
G01*
G75*
G02X377335Y398281I-2061*
G01*
G75*
G02X378067Y396707I-1329J-1575*
G01*
G75*
G02X378029Y396313I-2061J-1*
G01*
X378699*
Y403695*
G37*
X460352D02*
G36*
X436719D01*
G75*
G02X436740Y403400I-2040J-295*
G01*
G75*
G02Y403399I-2374J0*
G01*
G75*
G02X436309Y402138I-2059*
G01*
Y399161*
X436839*
Y396313*
X437701*
Y399531*
X442760*
Y396313*
X456528*
X460352Y400138*
Y403695*
G37*
X426679D02*
G36*
X424031D01*
X419932Y399596*
G75*
G02X415827Y399856I-2044J260*
G01*
Y399856*
Y399857*
G75*
G02X417627Y401901I2061*
G01*
X419421Y403695*
X416774*
X416384Y403306*
G75*
G02X416406Y403006I-2018J-299*
G01*
Y403006*
G75*
G02X412283I-2062*
G01*
G75*
G02X412402Y403695I2068J-2*
G01*
X382274*
Y396313*
X420589*
G75*
G02X420551Y396707I2023J393*
G01*
G75*
G02Y396708I2417J1*
G01*
G75*
G02X421236Y398241I2059*
G01*
G75*
G02X421350Y398367I1428J-1187*
G01*
X426679Y403695*
G37*
X431735D02*
G36*
X424672Y396632D01*
G75*
G02X424635Y396313I-2060J74*
G01*
X432520*
Y399161*
X433049*
Y402138*
G75*
G02X432618Y403399I1628J1261*
G01*
G75*
G02Y403400I2374J0*
G01*
G75*
G02X432639Y403695I2061*
G01*
X431735*
G37*
X483069D02*
G36*
X466762D01*
Y396707*
Y396706*
G75*
G02X466714Y396313I-1629J-1*
G01*
X483069*
Y403695*
G37*
X486329D02*
G36*
Y396313D01*
X496272*
Y403695*
X486329*
G37*
X313504Y409305D02*
G36*
X303283D01*
Y403695*
X314350*
Y406768*
G75*
G02X313504Y409305I3380J2537*
G01*
G37*
X333504D02*
G36*
X332327D01*
G75*
G02X323134I-4596*
G01*
X321957*
G75*
G02X321110Y406768I-4226*
G01*
Y403695*
X333837*
Y407661*
G75*
G02X333504Y409304I3887J1642*
G01*
G75*
G02Y409305I4296J1*
G01*
G37*
X354152D02*
G36*
X341957D01*
G75*
G02X337096Y405126I-4226*
G01*
Y403695*
X354152*
Y409305*
G37*
X378699D02*
G36*
X364793D01*
Y408671*
X365039*
Y409201*
X370736*
Y407785*
X374744*
G75*
G02X378067Y406156I1261J-1630*
G01*
G75*
G02X374744Y404526I-2061*
G01*
X367888*
G75*
G02X366871Y404882I1J1632*
G01*
X365039*
Y405411*
X363163*
G75*
G02X361533Y407041J1630*
G01*
Y409305*
X361014*
Y403695*
X378699*
Y409305*
G37*
X460352Y403695D02*
G36*
Y409305D01*
X437345*
X431735Y403695*
X432639*
G75*
G02X436719I2040J-295*
G01*
X460352*
G37*
X417328Y409305D02*
G36*
X382274D01*
Y403695*
X412402*
G75*
G02X412579Y404070I1949J-690*
G01*
G75*
G02X413083Y405059I1765J-276*
G01*
X417328Y409305*
G37*
X426679Y403695D02*
G36*
X429478Y406494D01*
X426831*
X424031Y403695*
X426679*
G37*
X425032Y409305D02*
G36*
X422384D01*
X416774Y403695*
X419421*
X425002Y409275*
G75*
G02X425032Y409305I1144J-1143*
G01*
G37*
X464008D02*
G36*
X463612D01*
Y408713*
G75*
G02X463981Y409278I1519J-589*
G01*
X464008Y409305*
G37*
X483069D02*
G36*
X468618D01*
X466762Y407449*
Y403695*
X483069*
Y409305*
G37*
X486329D02*
G36*
Y403695D01*
X496272*
Y409305*
X486329*
G37*
X313504D02*
G36*
G75*
G02X314350Y411843I4226D01*
G01*
Y428006*
X303283*
Y409305*
X313504*
G37*
X350693Y428006D02*
G36*
X349831D01*
Y422598*
X349301*
Y417653*
G75*
G02X349732Y416393I-1628J-1261*
G01*
G75*
G02Y416392I-2374J0*
G01*
G75*
G02X345610I-2061*
G01*
G75*
G02Y416393I2374J0*
G01*
G75*
G02X346041Y417653I2059*
G01*
Y422598*
X345512*
Y423817*
X343965*
Y422598*
X339646*
Y428006*
X338413*
Y422598*
X334094*
Y428006*
X321110*
Y411843*
G75*
G02X321957Y409305I-3380J-2537*
G01*
X323134*
G75*
G02X332327I4596*
G01*
X333504*
G75*
G02X341957I4226*
G01*
X354152*
Y422228*
X350693*
Y428006*
G37*
X345512D02*
G36*
X343965D01*
Y427077*
X345512*
Y428006*
G37*
X361533D02*
G36*
X361014D01*
Y409305*
X361533*
Y428006*
G37*
X440360D02*
G36*
X432510D01*
Y426708*
G75*
G02X432941Y425448I-1628J-1261*
G01*
G75*
G02Y425447I-2374J0*
G01*
G75*
G02X428819I-2061*
G01*
G75*
G02Y425448I2374J0*
G01*
G75*
G02X429250Y426708I2059*
G01*
Y428006*
X419398*
Y426929*
X415079*
Y428006*
X413846*
Y426929*
X409528*
Y428006*
X401618*
G75*
G02X399512I-1053J1771*
G01*
X364793*
Y415122*
X371106*
Y410063*
X364793*
Y409305*
X378699*
Y414423*
G75*
G02X380486Y416211I1787*
G01*
X428565*
X440360Y428006*
G37*
X417328Y409305D02*
G36*
X420559Y412535D01*
G75*
G02X420668Y412636I1392J-1402*
G01*
X382274*
Y409305*
X417328*
G37*
X425032D02*
G36*
G75*
G02X425261Y409486I1113J-1169D01*
G01*
X422565*
X422384Y409305*
X425032*
G37*
X483069D02*
G36*
Y411169D01*
G75*
G02X480079Y415211I1236J4042*
G01*
G75*
G02X482675Y419110I4227*
G01*
Y428006*
X464091*
X463612Y427528*
Y409305*
X464008*
X470082Y415379*
G75*
G02X478531Y415211I4223J-169*
G01*
G75*
G02X471428Y412115I-4226*
G01*
X468618Y409305*
X483069*
G37*
X460352Y428006D02*
G36*
X456046D01*
X437345Y409305*
X460352*
Y428006*
G37*
X486329Y409305D02*
G36*
X496272D01*
Y428006*
X485935*
Y419110*
G75*
G02X488531Y415211I-1630J-3900*
G01*
G75*
G02X486329Y411500I-4226*
G01*
Y409305*
G37*
X313504Y434502D02*
G36*
X303283D01*
Y428006*
X314350*
Y431965*
G75*
G02X313504Y434502I3380J2537*
G01*
G37*
X333504D02*
G36*
X332327D01*
G75*
G02X323134I-4596*
G01*
X321957*
G75*
G02X321110Y431965I-4226*
G01*
Y428006*
X334094*
Y428295*
X334368*
Y431941*
G75*
G02X333504Y434502I3365J2562*
G01*
G37*
X354152D02*
G36*
X341957D01*
G75*
G02X337628Y430277I-4227J0*
G01*
Y428295*
X338413*
Y428006*
X339646*
Y428295*
X343965*
Y428006*
X345512*
Y428295*
X349831*
Y428006*
X350693*
Y428665*
X354152*
Y434502*
G37*
X361533D02*
G36*
X361014D01*
Y428006*
X361533*
Y434502*
G37*
X440360Y428006D02*
G36*
X444053Y431699D01*
Y434502*
X424010*
G75*
G02X422789I-611J1969*
G01*
X419315*
G75*
G02X417888Y433659I-1428J788*
G01*
X401826*
G75*
G02X398660Y434502I-1261J1630*
G01*
X364793*
Y428006*
X399512*
G75*
G02X398504Y429778I1053J1772*
G01*
G75*
G02X401826Y431407I2061*
G01*
X409528*
Y432626*
X413846*
Y428006*
X415079*
Y432626*
X419398*
Y431407*
X430880*
G75*
G02X432510Y429778J-1630*
G01*
Y428006*
X440360*
G37*
X409528D02*
G36*
Y428148D01*
X401826*
G75*
G02X401618Y428006I-1262J1630*
G01*
X409528*
G37*
X429250D02*
G36*
Y428148D01*
X419398*
Y428006*
X429250*
G37*
X465976Y434502D02*
G36*
X459045D01*
Y431746*
G75*
G02X458520Y430480I-1788*
G01*
X456046Y428006*
X460352*
Y428203*
Y428203*
G75*
G02X460831Y429357I1629*
G01*
X465976Y434502*
G37*
X449565D02*
G36*
X447628D01*
Y431731*
X449565Y433668*
Y434502*
G37*
X482675D02*
G36*
X470587D01*
X464091Y428006*
X482675*
Y434502*
G37*
X485935D02*
G36*
Y428006D01*
X496272*
Y434502*
X485935*
G37*
X313504D02*
G36*
G75*
G02X314350Y437039I4226D01*
G01*
Y446707*
X303283*
Y434502*
X313504*
G37*
X354152D02*
G36*
Y439525D01*
G75*
G02X350633Y440002I-1618J1277*
G01*
X345339Y445297*
G75*
G02X344984Y445827I1146J1151*
G01*
X344331*
Y446707*
X342390*
Y445827*
X338071*
Y446707*
X336839*
Y445827*
X332520*
Y446707*
X321110*
Y437039*
G75*
G02X321957Y434502I-3380J-2537*
G01*
X323134*
G75*
G02X332327I4596*
G01*
X333504*
G75*
G02X341957I4226*
G01*
X354152*
G37*
X349512Y446707D02*
G36*
X348650D01*
Y446596*
X349512Y445734*
Y446707*
G37*
X361533D02*
G36*
X361014D01*
Y434502*
X361533*
Y446707*
G37*
X482675Y434502D02*
G36*
Y434933D01*
G75*
G02X480078Y438833I1630J3900*
G01*
G75*
G02X481888Y442300I4226*
G01*
Y446707*
X459786*
X459045Y445966*
Y434502*
X465976*
X470085Y438610*
G75*
G02X470079Y438833I4471J230*
G01*
G75*
G02X478531I4226*
G01*
G75*
G02X471639Y435554I-4226*
G01*
X470587Y434502*
X482675*
G37*
X416258Y446707D02*
G36*
X406776D01*
G75*
G02X397583I-4596*
G01*
X396406*
G75*
G02X387953I-4226*
G01*
X386406*
G75*
G02X377953I-4226*
G01*
X376406*
G75*
G02X367953I-4226*
G01*
X364793*
Y434502*
X398660*
G75*
G02X398504Y435289I1905J787*
G01*
G75*
G02X401826Y436919I2061*
G01*
X416258*
Y446707*
G37*
X421770D02*
G36*
X419518D01*
Y435289*
G75*
G02X419315Y434502I-1631J1*
G01*
X422789*
G75*
G02X421339Y436470I611J1969*
G01*
G75*
G02Y436471I2374J0*
G01*
G75*
G02X421770Y437732I2059*
G01*
Y446707*
G37*
X444053D02*
G36*
X425030D01*
Y437732*
G75*
G02X425461Y436471I-1628J-1261*
G01*
G75*
G02Y436470I-2374J0*
G01*
G75*
G02X424010Y434502I-2061*
G01*
X444053*
Y446707*
G37*
X449565D02*
G36*
X447628D01*
Y434502*
X449565*
Y446707*
G37*
X485935Y434502D02*
G36*
X496272D01*
Y446707*
X485148*
Y442974*
G75*
G02X488531Y438833I-843J-4142*
G01*
G75*
G02X485935Y434933I-4227*
G01*
Y434502*
G37*
X313544Y458706D02*
G36*
X303283D01*
Y446707*
X314350*
Y455587*
G75*
G02X313504Y458124I3380J2537*
G01*
G75*
G02X313544Y458706I4226J0*
G01*
G37*
X332900D02*
G36*
X332290D01*
G75*
G02X332327Y458124I-4560J-582*
G01*
G75*
G02X323134I-4596*
G01*
G75*
G02X323171Y458706I4597J-1*
G01*
X321917*
G75*
G02X321957Y458124I-4186J-581*
G01*
G75*
G02X321110Y455587I-4226*
G01*
Y446707*
X332520*
Y451524*
X332793*
Y458124*
G75*
G02X332900Y458706I1630J0*
G01*
G37*
X344331Y446707D02*
G36*
Y447045D01*
X342390*
Y446707*
X344331*
G37*
X349512D02*
G36*
Y451894D01*
X354152*
Y456202*
X351648Y458706*
X341917*
G75*
G02X341957Y458124I-4185J-581*
G01*
Y458124*
G75*
G02X336053Y454244I-4226*
G01*
Y451524*
X336839*
Y446707*
X338071*
Y451524*
X342390*
Y450305*
X344331*
Y451524*
X348650*
Y446707*
X349512*
G37*
X357439Y458706D02*
G36*
X356704D01*
X357201Y458209*
G75*
G02X357439Y457915I-1261J-1265*
G01*
Y458706*
G37*
X361533D02*
G36*
X361014D01*
Y446707*
X361533*
Y458706*
G37*
X466729D02*
G36*
X456132D01*
Y448109*
X466729Y458706*
G37*
X416258D02*
G36*
X364793D01*
Y446707*
X367953*
G75*
G02X376406I4226*
G01*
X377953*
G75*
G02X386406I4226*
G01*
X387953*
G75*
G02X396406I4226*
G01*
X397583*
G75*
G02X406776I4596*
G01*
X416258*
Y458706*
G37*
X421770D02*
G36*
X419518D01*
Y446707*
X421770*
Y458706*
G37*
X444053D02*
G36*
X425030D01*
Y446707*
X444053*
Y458706*
G37*
X449565Y446707D02*
G36*
Y458706D01*
X447628*
Y446707*
X449565*
G37*
X481888Y458706D02*
G36*
X474354D01*
G75*
G02X472682I-836J4143*
G01*
X471785*
X459786Y446707*
X481888*
Y458706*
G37*
X485148D02*
G36*
Y446707D01*
X496272*
Y458706*
X485148*
G37*
X313544D02*
G36*
G75*
G02X314350Y460661I4186J-581D01*
G01*
Y469541*
X303283*
Y458706*
X313544*
G37*
X351648D02*
G36*
X345228Y465126D01*
G75*
G02X344703Y466392I1262J1266*
G01*
Y469541*
X321110*
Y460661*
G75*
G02X321917Y458706I-3380J-2537*
G01*
X323171*
G75*
G02X332290I4559J-581*
G01*
X332900*
G75*
G02X333778Y459621I1523J-581*
G01*
G75*
G02X341917Y458706I3952J-1496*
G01*
X351648*
G37*
X357439Y469541D02*
G36*
X354571D01*
Y469472*
X349512*
Y469541*
X348278*
Y467132*
X356704Y458706*
X357439*
Y469541*
G37*
X361533D02*
G36*
X361014D01*
Y458706*
X361533*
Y469541*
G37*
X453772D02*
G36*
X453140D01*
Y468861*
G75*
G02X453351Y469120I1350J-884*
G01*
X453772Y469541*
G37*
X416258D02*
G36*
X406776D01*
G75*
G02X397583I-4596*
G01*
X396406*
G75*
G02X387953I-4226*
G01*
X386406*
G75*
G02X377953I-4226*
G01*
X376406*
G75*
G02X367953I-4226*
G01*
X364793*
Y458706*
X416258*
Y469541*
G37*
X421770D02*
G36*
X419518D01*
Y458706*
X421770*
Y469541*
G37*
X444053D02*
G36*
X425030D01*
Y458706*
X444053*
Y469541*
G37*
X449565Y458706D02*
G36*
Y469541D01*
X447628*
Y458706*
X449565*
G37*
X481888Y469541D02*
G36*
X458382D01*
X456132Y467291*
Y458706*
X466729*
X469515Y461492*
G75*
G02X469291Y462848I4006J1357*
G01*
G75*
G02X477744I4226*
G01*
G75*
G02X474354Y458706I-4226*
G01*
X481888*
Y458949*
G75*
G02X479291Y462848I1630J3900*
G01*
G75*
G02X481888Y466748I4227*
G01*
Y469541*
G37*
X472682Y458706D02*
G36*
G75*
G02X471988Y458909I836J4143D01*
G01*
X471785Y458706*
X472682*
G37*
X485148Y469541D02*
G36*
Y466748D01*
G75*
G02X487744Y462848I-1630J-3900*
G01*
G75*
G02X485148Y458949I-4227*
G01*
Y458706*
X496272*
Y469541*
X485148*
G37*
X314350Y472691D02*
G36*
X303283D01*
Y469541*
X314350*
Y472691*
G37*
X338858D02*
G36*
X337626D01*
Y469843*
X333307*
Y472691*
X321110*
Y469541*
X344703*
Y469843*
X344331*
Y471061*
X343177*
Y469843*
X338858*
Y472691*
G37*
X349512D02*
G36*
X348650D01*
Y469843*
X348278*
Y469541*
X349512*
Y472691*
G37*
X357439D02*
G36*
X354571D01*
Y469541*
X357439*
Y472691*
G37*
X361533D02*
G36*
X361014D01*
Y469541*
X361533*
Y472691*
G37*
X456921D02*
G36*
X453140D01*
Y469541*
X453772*
X456921Y472691*
G37*
X367953Y469541D02*
G36*
G75*
G02X369361Y472691I4226D01*
G01*
X364793*
Y469541*
X367953*
G37*
X377953D02*
G36*
G75*
G02X379361Y472691I4226D01*
G01*
X374997*
G75*
G02X376406Y469541I-2818J-3150*
G01*
X377953*
G37*
X387953D02*
G36*
G75*
G02X389361Y472691I4226D01*
G01*
X384997*
G75*
G02X386406Y469541I-2818J-3150*
G01*
X387953*
G37*
X397583D02*
G36*
G75*
G02X398831Y472691I4596D01*
G01*
X394997*
G75*
G02X396406Y469541I-2818J-3150*
G01*
X397583*
G37*
X416258Y472691D02*
G36*
X405527D01*
G75*
G02X406776Y469541I-3348J-3150*
G01*
X416258*
Y472691*
G37*
X421770D02*
G36*
X419518D01*
Y469541*
X421770*
Y472691*
G37*
X444053D02*
G36*
X425030D01*
Y469541*
X444053*
Y472691*
G37*
X449565D02*
G36*
X447628D01*
Y469541*
X449565*
Y472691*
G37*
X481888D02*
G36*
X461531D01*
X458382Y469541*
X481888*
Y472691*
G37*
X485148D02*
G36*
Y469541D01*
X496272*
Y472691*
X485148*
G37*
X313504Y481746D02*
G36*
X303283D01*
Y472691*
X314350*
Y479209*
G75*
G02X313504Y481746I3380J2537*
G01*
G37*
X333504D02*
G36*
X332327D01*
G75*
G02X323134I-4596*
G01*
X321957*
G75*
G02X321110Y479209I-4226*
G01*
Y472691*
X333307*
Y475539*
X333837*
Y480102*
G75*
G02X333504Y481744I3887J1642*
G01*
G75*
G02Y481746I4296J1*
G01*
G37*
X357439Y472691D02*
G36*
Y476266D01*
X353122Y480461*
G75*
G02X353100Y480482I543J574*
G01*
X351837Y481746*
X341957*
G75*
G02X337096Y477567I-4226*
G01*
Y475539*
X337626*
Y472691*
X338858*
Y475539*
X343177*
Y474321*
X344331*
Y475539*
X348650*
Y472691*
X349512*
Y475909*
X354571*
Y472691*
X357439*
G37*
X361533Y481746D02*
G36*
X356929D01*
X360470Y478306*
G75*
G02X361014Y477023I-1241J-1283*
G01*
G75*
G02Y477022I-1933J0*
G01*
Y472691*
X361533*
Y481746*
G37*
X465976D02*
G36*
X453140D01*
Y472691*
X456921*
X465976Y481746*
G37*
X416258D02*
G36*
X364793D01*
Y472691*
X369361*
G75*
G02X374997I2818J-3150*
G01*
X379361*
G75*
G02X384997I2818J-3150*
G01*
X389361*
G75*
G02X394997I2818J-3150*
G01*
X398831*
G75*
G02X405527I3348J-3150*
G01*
X416258*
Y481746*
G37*
X421770D02*
G36*
X419518D01*
Y472691*
X421770*
Y481746*
G37*
X444053D02*
G36*
X425030D01*
Y472691*
X444053*
Y481746*
G37*
X449565D02*
G36*
X447628D01*
Y472691*
X449565*
Y481746*
G37*
X481888D02*
G36*
X470587D01*
X461531Y472691*
X481888*
Y481746*
G37*
X485148D02*
G36*
Y472691D01*
X496272*
Y481746*
X485148*
G37*
X314350Y491589D02*
G36*
X303283D01*
Y481746*
X313504*
G75*
G02X314350Y484283I4226*
G01*
Y491589*
G37*
X351837Y481746D02*
G36*
X344833Y488750D01*
G75*
G02X344309Y490014I1265J1265*
G01*
Y490015*
Y490017*
Y491496*
X343937*
Y491589*
X342390*
Y491496*
X338071*
Y491589*
X336839*
Y491496*
X332520*
Y491589*
X326913*
Y490358*
X321110*
Y484283*
G75*
G02X321957Y481746I-3380J-2537*
G01*
X323134*
G75*
G02X332327I4596*
G01*
X333504*
G75*
G02X341957I4226*
G01*
X351837*
G37*
X361533Y491589D02*
G36*
X354177D01*
Y491126*
X349118*
Y491589*
X348256*
Y491496*
X347884*
Y490754*
X355619Y483019*
X356929Y481746*
X361533*
Y491589*
G37*
X452368D02*
G36*
X447628D01*
Y481746*
X449565*
Y488045*
G75*
G02X450091Y489311I1788*
G01*
X452368Y491589*
G37*
X416258Y481746D02*
G36*
Y489339D01*
X414008Y491589*
X406776*
G75*
G02X397583I-4596*
G01*
X396406*
G75*
G02X387953I-4226*
G01*
X386406*
G75*
G02X377953I-4226*
G01*
X376406*
G75*
G02X367953I-4226*
G01*
X364793*
Y481746*
X416258*
G37*
X421770Y491589D02*
G36*
X418618D01*
X419039Y491168*
G75*
G02X419518Y490014I-1150J-1154*
G01*
Y490014*
Y481746*
X421770*
Y491589*
G37*
X444053D02*
G36*
X425030D01*
Y481746*
X444053*
Y491589*
G37*
X481888D02*
G36*
X457424D01*
X453140Y487305*
Y481746*
X465976*
X469392Y485161*
G75*
G02X469291Y486077I4123J915*
G01*
G75*
G02X477744I4226*
G01*
G75*
G02X471312Y482472I-4226*
G01*
X470587Y481746*
X481888*
Y482177*
G75*
G02X479291Y486077I1630J3900*
G01*
G75*
G02X481888Y489976I4227*
G01*
Y491589*
G37*
X485148D02*
G36*
Y489976D01*
G75*
G02X487744Y486077I-1630J-3900*
G01*
G75*
G02X485148Y482177I-4227*
G01*
Y481746*
X496272*
Y491589*
X485148*
G37*
X314350D02*
G36*
Y492448D01*
G75*
G02X313799Y494344I2984J1896*
G01*
Y494344*
Y502661*
G75*
G02X313110Y504974I3536J2313*
G01*
X303283*
Y491589*
X314350*
G37*
X333110Y504974D02*
G36*
X331933D01*
G75*
G02X322740I-4596*
G01*
X321563*
Y504974*
G75*
G02X320874Y502661I-4227J0*
G01*
Y498331*
X326913*
Y491589*
X332520*
Y497193*
X335707*
Y501075*
G75*
G02X333110Y504974I1631J3900*
G01*
G37*
X338071Y491589D02*
G36*
Y492889D01*
G75*
G02X337337Y492715I-735J1460*
G01*
X336839*
Y491589*
X338071*
G37*
X343937D02*
G36*
Y492715D01*
X342390*
Y491589*
X343937*
G37*
X373457Y504974D02*
G36*
X341563D01*
G75*
G02X338967Y501075I-4226J-1*
G01*
Y497193*
X342390*
Y495974*
X343937*
Y497193*
X348256*
Y491589*
X349118*
Y497563*
X354177*
Y491589*
X361533*
Y492376*
Y492376*
G75*
G02X362012Y493530I1629*
G01*
X373457Y504974*
G37*
X465754D02*
G36*
X447628D01*
Y491589*
X452368*
X465754Y504974*
G37*
X397386D02*
G36*
X396524D01*
Y503545*
X397386Y502683*
Y504974*
G37*
X414008Y491589D02*
G36*
X408945Y496652D01*
X399482*
G75*
G02X398328Y497130I0J1629*
G01*
X393213Y502246*
G75*
G02X392992Y502520I1172J1170*
G01*
X392205*
Y503738*
X389476*
Y502520*
X385157*
Y504974*
X383925*
Y502520*
X379606*
Y504974*
X378067*
X364793Y491701*
Y491589*
X367953*
G75*
G02X376406I4226*
G01*
X377953*
G75*
G02X386406I4226*
G01*
X387953*
G75*
G02X396406I4226*
G01*
X397583*
G75*
G02X406776I4596*
G01*
X414008*
G37*
X421770Y504974D02*
G36*
X402445D01*
Y502150*
X397919*
X400157Y499911*
X409620*
G75*
G02X410774Y499433I0J-1629*
G01*
X418618Y491589*
X421770*
Y504974*
G37*
X444053D02*
G36*
X425030D01*
Y491589*
X444053*
Y504974*
G37*
X481888D02*
G36*
X470809D01*
X457424Y491589*
X481888*
Y504974*
G37*
X485148D02*
G36*
Y491589D01*
X496272*
Y504974*
X485148*
G37*
X318462Y514817D02*
G36*
X303283D01*
Y504974*
X313110*
G75*
G02X313957Y507512I4226J0*
G01*
Y508911*
G75*
G02X314948Y511303I3381J-1*
G01*
X318462Y514817*
G37*
X373457Y504974D02*
G36*
X375313Y506831D01*
Y512489*
G75*
G02X369248Y511437I-3528J2328*
G01*
X324642*
X320717Y507511*
G75*
G02X321563Y504974I-3380J-2537*
G01*
X322740*
G75*
G02X331933I4596*
G01*
X333110*
G75*
G02X341563I4226*
G01*
X373457*
G37*
X379606D02*
G36*
Y508217D01*
X379978*
Y510996*
G75*
G02X378573Y512071I1813J3828*
G01*
Y506156*
Y506155*
G75*
G02X378094Y505002I-1629*
G01*
X378067Y504974*
X379606*
G37*
X481888D02*
G36*
Y506193D01*
G75*
G02X479291Y510092I1630J3899*
G01*
G75*
G02X479477Y511330I4227*
G01*
X475990Y514817*
X452699*
X447628Y509746*
Y504974*
X465754*
X469515Y508736*
G75*
G02X469291Y510093I4006J1357*
G01*
G75*
G02X477744I4226*
G01*
G75*
G02X471988Y506153I-4226*
G01*
X470809Y504974*
X481888*
G37*
X421770Y514817D02*
G36*
X406382D01*
G75*
G02X397189I-4596*
G01*
X396012*
G75*
G02X387559I-4226*
G01*
X386012*
Y514817*
G75*
G02X383553Y510978I-4226*
G01*
Y508217*
X383925*
Y504974*
X385157*
Y508217*
X389476*
Y506998*
X392205*
Y508217*
X396524*
Y504974*
X397386*
Y508587*
X402445*
Y504974*
X421770*
Y514817*
G37*
X447643D02*
G36*
X425030D01*
Y504974*
X444053*
Y510486*
G75*
G02X444579Y511752I1788*
G01*
X447643Y514817*
G37*
X485148Y504974D02*
G36*
X496272D01*
Y514817*
X481046*
X481876Y513987*
G75*
G02X487744Y510093I1642J-3894*
G01*
Y510093*
G75*
G02Y510092I-5013J0*
G01*
G75*
G02X485148Y506193I-4226*
G01*
Y504974*
G37*
X318462Y514817D02*
G36*
X320850Y517205D01*
G75*
G02X323242Y518197I2393J-2390*
G01*
X369248*
G75*
G02X373556Y518654I2537J-3380*
G01*
X372215Y519996*
X303283*
Y514817*
X318462*
G37*
X475990D02*
G36*
X470811Y519996D01*
X457878*
X452699Y514817*
X475990*
G37*
X387559D02*
G36*
G75*
G02X389998Y518647I4227D01*
G01*
Y519996*
X376825*
X378094Y518727*
G75*
G02X378573Y517573I-1150J-1154*
G01*
Y517573*
Y517563*
G75*
G02X386012Y514817I3213J-2746*
G01*
X387559*
G37*
X421770Y519996D02*
G36*
X412746D01*
Y517167*
X406419*
Y519996*
X393573*
Y518647*
G75*
G02X396012Y514818I-1787J-3829*
G01*
G75*
G02Y514817I-5639J0*
G01*
X397189*
G75*
G02X406382I4596*
G01*
X421770*
Y519996*
G37*
X452822D02*
G36*
X425030D01*
Y514817*
X447643*
X452822Y519996*
G37*
X481046Y514817D02*
G36*
X496272D01*
Y519996*
X475867*
X481046Y514817*
G37*
X372215Y519996D02*
G36*
X369545Y522666D01*
G75*
G02X368226Y524266I311J1600*
G01*
Y524659*
X303283*
Y519996*
X372215*
G37*
X470811D02*
G36*
X466626Y524181D01*
G75*
G02X466283Y524659I1262J1267*
G01*
X462542*
X457878Y519996*
X470811*
G37*
X389488Y524659D02*
G36*
X388256D01*
Y521811*
X383937*
Y524659*
X372161*
X376825Y519996*
X389998*
Y521811*
X389488*
Y524659*
G37*
X421770D02*
G36*
X404933D01*
Y522201*
X399346*
Y523030*
X393807*
Y521811*
X393573*
Y519996*
X406419*
Y522825*
X412746*
Y519996*
X421770*
Y524659*
G37*
X457486D02*
G36*
X425030D01*
Y519996*
X452822*
X457486Y524659*
G37*
X475867Y519996D02*
G36*
X496272D01*
Y524659*
X471203*
X475867Y519996*
G37*
X368226Y524659D02*
G36*
Y529230D01*
X303283*
Y524659*
X368226*
G37*
X466283D02*
G36*
G75*
G02X466100Y525447I1605J787D01*
G01*
Y529230*
X464557*
Y527415*
G75*
G02X464031Y526149I-1788*
G01*
X462542Y524659*
X466283*
G37*
X421770D02*
G36*
Y524772D01*
X417311Y529230*
X412376*
Y526772*
X406789*
Y527600*
X398283*
G75*
G02X394961Y529230I-1261J1630*
G01*
X371486*
Y525335*
X372161Y524659*
X383937*
Y527508*
X388256*
Y524659*
X389488*
Y527508*
X393807*
Y526289*
X399346*
Y527118*
X404933*
Y524659*
X421770*
G37*
X460982Y529230D02*
G36*
X421921D01*
X424551Y526601*
G75*
G02X425030Y525447I-1150J-1154*
G01*
Y525447*
Y524659*
X457486*
X460982Y528156*
Y529230*
G37*
X471203Y524659D02*
G36*
X496272D01*
Y529230*
X469675*
Y526187*
X471203Y524659*
G37*
X360181Y543281D02*
G36*
X359004D01*
G75*
G02X350551I-4226*
G01*
X323068*
G75*
G02X315289Y540669I-7779J10276*
G01*
G75*
G02X307511Y543281J12888*
G01*
X303283*
Y529230*
X368226*
Y540243*
G75*
G02X360181Y543281I-3449J3039*
G01*
G37*
X476841D02*
G36*
X469675D01*
Y529230*
X496272*
Y543281*
X492399*
G75*
G02X476841I-7779J10276*
G01*
G37*
X417311Y529230D02*
G36*
X414457Y532085D01*
X402533*
G75*
G02X401380Y532563I0J1629*
G01*
X394887Y539057*
G75*
G02X390551Y543281I-109J4225*
G01*
X389004*
G75*
G02X380551I-4226*
G01*
X379004*
G75*
G02X371486Y540630I-4226*
G01*
Y529230*
X394961*
G75*
G02X398283Y530860I2061*
G01*
X406789*
Y531689*
X412376*
Y529230*
X417311*
G37*
X460982Y543281D02*
G36*
X449004D01*
G75*
G02X440551I-4226*
G01*
X439004*
G75*
G02X430551I-4226*
G01*
X429004*
G75*
G02X420551I-4226*
G01*
X419004*
G75*
G02X410551I-4226*
G01*
X409004*
G75*
G02X400551I-4226*
G01*
X399004*
G75*
G02X398003Y540550I-4226*
G01*
X403209Y535344*
X415132*
G75*
G02X416286Y534866I0J-1629*
G01*
X421921Y529230*
X460982*
Y543281*
G37*
X466100D02*
G36*
X464557D01*
Y529230*
X466100*
Y543281*
G37*
X307511D02*
G36*
G75*
G02X303283Y548872I7779J10276D01*
G01*
Y543281*
X307511*
G37*
X471735Y553281D02*
G36*
X468290D01*
X469150Y552422*
G75*
G02X469675Y551156I-1262J-1266*
G01*
Y543281*
X476841*
G75*
G02X471735Y553281I7779J10276*
G01*
G37*
X350551Y543281D02*
G36*
G75*
G02Y543282I5013J0D01*
G01*
G75*
G02X353148Y547181I4226*
G01*
Y549382*
G75*
G02X350551Y553281I1630J3900*
G01*
X328174*
G75*
G02X323068Y543281I-12885J276*
G01*
X350551*
G37*
X370551Y553281D02*
G36*
X369004D01*
G75*
G02X360551I-4226*
G01*
X359004*
G75*
G02X356407Y549382I-4227*
G01*
Y547181*
G75*
G02X359004Y543281I-1631J-3900*
G01*
X360181*
G75*
G02X368226Y546320I4596*
G01*
Y548281*
G75*
G02X369856Y549911I1630*
G01*
X372227*
G75*
G02X370551Y553281I2550J3370*
G01*
G37*
X380551Y543281D02*
G36*
G75*
G02X382227Y546652I4226D01*
G01*
X377328*
G75*
G02X379004Y543281I-2550J-3370*
G01*
X380551*
G37*
X380181Y553281D02*
G36*
X379004D01*
G75*
G02X377328Y549911I-4226*
G01*
X381652*
G75*
G02X380181Y553281I3126J3370*
G01*
G37*
X390551Y543281D02*
G36*
G75*
G02X392227Y546652I4226D01*
G01*
X387328*
G75*
G02X389004Y543281I-2550J-3370*
G01*
X390551*
G37*
X390181Y553281D02*
G36*
X389374D01*
G75*
G02X387903Y549911I-4597J0*
G01*
X391652*
G75*
G02X390181Y553281I3126J3370*
G01*
G37*
X400551Y543281D02*
G36*
G75*
G02X402227Y546652I4226D01*
G01*
X397328*
G75*
G02X399004Y543281I-2550J-3370*
G01*
X400551*
G37*
X400181Y553281D02*
G36*
X399374D01*
G75*
G02X397903Y549911I-4597J0*
G01*
X401652*
G75*
G02X400181Y553281I3126J3370*
G01*
G37*
X410551Y543281D02*
G36*
G75*
G02X412227Y546652I4226D01*
G01*
X407328*
G75*
G02X409004Y543281I-2550J-3370*
G01*
X410551*
G37*
X410181Y553281D02*
G36*
X409374D01*
G75*
G02X407903Y549911I-4597J0*
G01*
X411652*
G75*
G02X410181Y553281I3126J3370*
G01*
G37*
X420551Y543281D02*
G36*
G75*
G02X420952Y545078I4231J-2D01*
G01*
X419378Y546652*
X417328*
G75*
G02X419004Y543281I-2550J-3370*
G01*
X420551*
G37*
X458391Y553281D02*
G36*
X449374D01*
G75*
G02X440181I-4596*
G01*
X439374*
G75*
G02X430181I-4596*
G01*
X429004*
G75*
G02X420551I-4226*
G01*
X419374*
G75*
G02X417903Y549911I-4597J0*
G01*
X420053*
G75*
G02X421207Y549433I0J-1629*
G01*
X423372Y547267*
G75*
G02X429004Y543281I1405J-3986*
G01*
X430551*
G75*
G02X439004I4226*
G01*
X440551*
G75*
G02X449004I4226*
G01*
X460982*
Y550691*
X458391Y553281*
G37*
X466100Y543281D02*
G36*
Y550415D01*
X464435Y552081*
G75*
G02X464557Y551431I-1666J-649*
G01*
Y551431*
Y551430*
Y551428*
Y543281*
X466100*
G37*
X496272Y548049D02*
G36*
G75*
G02X492399Y543281I-11652J5508D01*
G01*
X496272*
Y548049*
G37*
X479196Y565248D02*
G36*
X320713D01*
G75*
G02X328177Y553557I-5424J-11691*
G01*
G75*
G02X328174Y553281I-12891J9*
G01*
X350551*
G75*
G02X356134Y557284I4226*
G01*
X363354Y564504*
G75*
G02X364620Y565030I1266J-1262*
G01*
X455801*
G75*
G02X457067Y564504J-1788*
G01*
X468290Y553281*
X471735*
G75*
G02X471732Y553557I12898J267*
G01*
G75*
G02X479196Y565248I12888*
G01*
G37*
X360551Y553281D02*
G36*
Y553282D01*
G75*
G02X366134Y557284I4226*
G01*
X369811Y560961*
G75*
G02X370743Y561455I1267J-1263*
G01*
X365361*
X358717Y554811*
G75*
G02X359004Y553281I-3940J-1530*
G01*
X360551*
G37*
X458391D02*
G36*
X453761Y557911D01*
X371817*
X368717Y554811*
G75*
G02X369004Y553281I-3949J-1531*
G01*
X370551*
G75*
G02X379004I4226*
G01*
X380181*
G75*
G02X389374I4596*
G01*
X390181*
G75*
G02X399374I4596*
G01*
X400181*
G75*
G02X409374I4596*
G01*
X410181*
G75*
G02X419374I4596*
G01*
X420551*
G75*
G02X429004I4226*
G01*
X430181*
G75*
G02X439374I4596*
G01*
X440181*
G75*
G02X449374I4596*
G01*
X458391*
G37*
D02*
D25*
X127022Y492108D02*
Y490108D01*
Y496581D02*
Y498581D01*
X127640Y504974D02*
X125640D01*
X128033Y384305D02*
X126033D01*
X128033Y409305D02*
X126033D01*
X128033Y434502D02*
X126033D01*
X128033Y481746D02*
X126033D01*
X128313Y494344D02*
X130313D01*
X128867Y456111D02*
X127453Y454697D01*
X128867Y460137D02*
X127453Y461551D01*
X130486Y502128D02*
Y500128D01*
Y507821D02*
Y509821D01*
X130880Y381459D02*
Y379459D01*
Y387152D02*
Y389152D01*
Y406459D02*
Y404459D01*
Y412152D02*
Y414152D01*
Y431656D02*
Y429656D01*
Y437348D02*
Y439348D01*
Y478900D02*
Y476900D01*
Y484593D02*
Y486593D01*
X132893Y456111D02*
X134307Y454697D01*
X132893Y460137D02*
X134307Y461551D01*
X133333Y504974D02*
X135333D01*
X133726Y384305D02*
X135726D01*
X133726Y409305D02*
X135726D01*
X133726Y434502D02*
X135726D01*
X133726Y481746D02*
X135726D01*
X154018Y494344D02*
X152018D01*
X154411Y448675D02*
X152411D01*
X154411Y472691D02*
X152411D01*
X154797Y492876D02*
Y490876D01*
Y495813D02*
Y497813D01*
X154805Y396707D02*
X152805D01*
X155191Y450144D02*
Y452144D01*
Y471222D02*
Y469222D01*
Y474159D02*
Y476159D01*
X155577Y494344D02*
X157577D01*
X155585Y395238D02*
Y393238D01*
Y398175D02*
Y400175D01*
X155593Y425447D02*
X153593D01*
X155970Y472691D02*
X157970D01*
X156364Y396707D02*
X158364D01*
X156372Y423978D02*
Y421978D01*
Y426915D02*
Y428915D01*
X158978Y370329D02*
X156978D01*
X159758Y368860D02*
Y366860D01*
Y371797D02*
Y373797D01*
X160537Y370329D02*
X162537D01*
X165081Y543281D02*
X163081D01*
X167927Y540435D02*
Y538435D01*
Y546128D02*
Y548128D01*
X170111Y411667D02*
X168258Y409813D01*
X170111Y413519D02*
X168258Y415372D01*
X171963Y411667D02*
X173817Y409813D01*
X171963Y413519D02*
X173817Y415372D01*
X173900Y361805D02*
X171900D01*
X175368Y362585D02*
Y364585D01*
X176837Y361805D02*
X178837D01*
X185081Y553281D02*
X183081D01*
X186006Y364423D02*
X184006D01*
X186785Y362856D02*
Y360856D01*
Y365990D02*
Y367990D01*
X187565Y364423D02*
X189565D01*
X190774Y553281D02*
X192774D01*
X195081D02*
X193081D01*
X198458Y360879D02*
X196604Y359026D01*
X198458Y362731D02*
X196604Y364585D01*
X200310Y360879D02*
X202163Y359026D01*
X200310Y362731D02*
X202163Y364585D01*
X200774Y553281D02*
X202774D01*
X202089Y514817D02*
X200089D01*
X202285Y505368D02*
X200285D01*
X202482Y446707D02*
X200482D01*
X202482Y469541D02*
X200482D01*
X203065Y503900D02*
Y501900D01*
Y506837D02*
Y508837D01*
X203316Y489576D02*
X201902Y488162D01*
X203316Y493601D02*
X201902Y495015D01*
X203844Y505368D02*
X205844D01*
X204935Y511970D02*
Y509970D01*
Y517663D02*
Y519663D01*
X205081Y553281D02*
X203081D01*
X205329Y443860D02*
Y441860D01*
Y449553D02*
Y451553D01*
Y466695D02*
Y464695D01*
Y472388D02*
Y474388D01*
X207341Y489576D02*
X208756Y488162D01*
X207341Y493601D02*
X208756Y495015D01*
X207781Y514817D02*
X209781D01*
X208175Y446707D02*
X210175D01*
X208175Y469541D02*
X210175D01*
X210774Y553281D02*
X212774D01*
X211319Y519995D02*
X209317D01*
X212732Y518916D02*
Y516915D01*
Y521074D02*
Y523073D01*
X214145Y519995D02*
X216144D01*
X215081Y553281D02*
X213081D01*
X218023Y355046D02*
X216023D01*
X218023Y365046D02*
X216023D01*
X220774Y553281D02*
X222774D01*
X220870Y352199D02*
Y350199D01*
Y357892D02*
Y359892D01*
Y362199D02*
Y360199D01*
Y367892D02*
Y369892D01*
X223716Y355046D02*
X225716D01*
X223716Y365046D02*
X225716D01*
X235915Y551269D02*
X234500Y549855D01*
X235915Y555294D02*
X234500Y556708D01*
X239940Y551269D02*
X241354Y549855D01*
X239940Y555294D02*
X241354Y556708D01*
X242600Y396313D02*
X240600D01*
X243380Y394844D02*
Y392844D01*
Y397781D02*
Y399781D01*
X244159Y396313D02*
X246159D01*
X245915Y551269D02*
X244500Y549855D01*
X245915Y555294D02*
X244500Y556708D01*
X249940Y551269D02*
X251354Y549855D01*
X249940Y555294D02*
X251354Y556708D01*
X323872Y492108D02*
Y490108D01*
Y496581D02*
Y498581D01*
X324490Y504974D02*
X322490D01*
X324884Y384305D02*
X322884D01*
X324884Y409305D02*
X322884D01*
X324884Y434502D02*
X322884D01*
X324884Y481746D02*
X322884D01*
X325163Y494344D02*
X327163D01*
X325718Y456111D02*
X324304Y454697D01*
X325718Y460137D02*
X324304Y461551D01*
X327337Y502128D02*
Y500128D01*
Y507821D02*
Y509821D01*
X327730Y381459D02*
Y379459D01*
Y387152D02*
Y389152D01*
Y406459D02*
Y404459D01*
Y412152D02*
Y414152D01*
Y431656D02*
Y429656D01*
Y437348D02*
Y439348D01*
Y478900D02*
Y476900D01*
Y484593D02*
Y486593D01*
X329743Y456111D02*
X331157Y454697D01*
X329743Y460137D02*
X331157Y461551D01*
X330183Y504974D02*
X332183D01*
X330577Y384305D02*
X332577D01*
X330577Y409305D02*
X332577D01*
X330577Y434502D02*
X332577D01*
X330577Y481746D02*
X332577D01*
X350868Y494344D02*
X348868D01*
X351262Y448675D02*
X349262D01*
X351262Y472691D02*
X349262D01*
X351648Y492876D02*
Y490876D01*
Y495813D02*
Y497813D01*
X351656Y396707D02*
X349656D01*
X352041Y450144D02*
Y452144D01*
Y471222D02*
Y469222D01*
Y474159D02*
Y476159D01*
X352427Y494344D02*
X354427D01*
X352435Y395238D02*
Y393238D01*
Y398175D02*
Y400175D01*
X352443Y425447D02*
X350443D01*
X352821Y472691D02*
X354821D01*
X353215Y396707D02*
X355215D01*
X353222Y423978D02*
Y421978D01*
Y426915D02*
Y428915D01*
X355829Y370329D02*
X353829D01*
X356608Y368860D02*
Y366860D01*
Y371797D02*
Y373797D01*
X357388Y370329D02*
X359388D01*
X361931Y543281D02*
X359931D01*
X364778Y540435D02*
Y538435D01*
Y546128D02*
Y548128D01*
X366962Y411667D02*
X365108Y409813D01*
X366962Y413519D02*
X365108Y415372D01*
X368814Y411667D02*
X370667Y409813D01*
X368814Y413519D02*
X370667Y415372D01*
X370750Y361805D02*
X368750D01*
X372219Y362585D02*
Y364585D01*
X373687Y361805D02*
X375687D01*
X381931Y553281D02*
X379931D01*
X382856Y364423D02*
X380856D01*
X383636Y362856D02*
Y360856D01*
Y365990D02*
Y367990D01*
X384415Y364423D02*
X386415D01*
X387624Y553281D02*
X389624D01*
X391931D02*
X389931D01*
X395308Y360879D02*
X393455Y359026D01*
X395308Y362731D02*
X393455Y364585D01*
X397160Y360879D02*
X399014Y359026D01*
X397160Y362731D02*
X399014Y364585D01*
X397624Y553281D02*
X399624D01*
X398939Y514817D02*
X396939D01*
X399136Y505368D02*
X397136D01*
X399333Y446707D02*
X397333D01*
X399333Y469541D02*
X397333D01*
X399915Y503900D02*
Y501900D01*
Y506837D02*
Y508837D01*
X400167Y489576D02*
X398752Y488162D01*
X400167Y493601D02*
X398752Y495015D01*
X400695Y505368D02*
X402695D01*
X401785Y511970D02*
Y509970D01*
Y517663D02*
Y519663D01*
X401931Y553281D02*
X399931D01*
X402179Y443860D02*
Y441860D01*
Y449553D02*
Y451553D01*
Y466695D02*
Y464695D01*
Y472388D02*
Y474388D01*
X404192Y489576D02*
X405606Y488162D01*
X404192Y493601D02*
X405606Y495015D01*
X404632Y514817D02*
X406632D01*
X405026Y446707D02*
X407026D01*
X405026Y469541D02*
X407026D01*
X407624Y553281D02*
X409624D01*
X408169Y519995D02*
X406167D01*
X409582Y518916D02*
Y516915D01*
Y521074D02*
Y523073D01*
X410996Y519995D02*
X412994D01*
X411931Y553281D02*
X409931D01*
X414874Y355046D02*
X412874D01*
X414874Y365046D02*
X412874D01*
X417624Y553281D02*
X419624D01*
X417720Y352199D02*
Y350199D01*
Y357892D02*
Y359892D01*
Y362199D02*
Y360199D01*
Y367892D02*
Y369892D01*
X420567Y355046D02*
X422567D01*
X420567Y365046D02*
X422567D01*
X432765Y551269D02*
X431351Y549855D01*
X432765Y555294D02*
X431351Y556708D01*
X436790Y551269D02*
X438204Y549855D01*
X436790Y555294D02*
X438204Y556708D01*
X439451Y396313D02*
X437451D01*
X440230Y394844D02*
Y392844D01*
Y397781D02*
Y399781D01*
X441010Y396313D02*
X443010D01*
X442765Y551269D02*
X441351Y549855D01*
X442765Y555294D02*
X441351Y556708D01*
X446790Y551269D02*
X448204Y549855D01*
X446790Y555294D02*
X448204Y556708D01*
D02*
D27*
X118439Y353557D03*
Y553557D03*
X287770Y353557D03*
Y553557D03*
X315289Y353557D03*
Y553557D03*
X484620Y353557D03*
Y553557D03*
D02*
D73*
X137829Y448675D03*
Y494344D03*
X138616Y396707D03*
Y472691D03*
X139404Y425447D03*
X140427Y370329D03*
X143380Y448675D03*
Y494344D03*
X144167Y396707D03*
Y472691D03*
X144955Y425447D03*
X145978Y370329D03*
X149246Y494344D03*
X149640Y448675D03*
Y472691D03*
X150033Y396707D03*
X150821Y425447D03*
X154207Y370329D03*
X154797Y494344D03*
X155152Y361274D03*
X155191Y448675D03*
Y472691D03*
X155585Y396707D03*
X156372Y425447D03*
X159758Y370329D03*
X160703Y361274D03*
X184915Y505368D03*
X189246Y524659D03*
X190467Y505368D03*
X194797Y524659D03*
X197514Y505368D03*
X203065D03*
X214837Y429778D03*
X220388D03*
X237829Y396313D03*
X243380D03*
X334679Y448675D03*
Y494344D03*
X335467Y396707D03*
Y472691D03*
X336254Y425447D03*
X337278Y370329D03*
X340230Y448675D03*
Y494344D03*
X341018Y396707D03*
Y472691D03*
X341805Y425447D03*
X342829Y370329D03*
X346096Y494344D03*
X346490Y448675D03*
Y472691D03*
X346884Y396707D03*
X347671Y425447D03*
X351057Y370329D03*
X351648Y494344D03*
X352002Y361274D03*
X352041Y448675D03*
Y472691D03*
X352435Y396707D03*
X353222Y425447D03*
X356608Y370329D03*
X357553Y361274D03*
X381766Y505368D03*
X386096Y524659D03*
X387317Y505368D03*
X391648Y524659D03*
X394364Y505368D03*
X399915D03*
X411687Y429778D03*
X417238D03*
X434679Y396313D03*
X440230D03*
D02*
D74*
X171037Y407041D03*
Y412593D03*
X175368Y356254D03*
Y361805D03*
X199384Y356254D03*
Y361805D03*
X367888Y407041D03*
Y412593D03*
X372219Y356254D03*
Y361805D03*
X396234Y356254D03*
Y361805D03*
D02*
D77*
X120486Y504974D03*
X120880Y384305D03*
Y409305D03*
Y434502D03*
Y458124D03*
Y481746D03*
X130486Y504974D03*
X130880Y384305D03*
Y409305D03*
Y434502D03*
Y458124D03*
Y481746D03*
X140486Y504974D03*
X140880Y384305D03*
Y409305D03*
Y434502D03*
Y458124D03*
Y481746D03*
X157927Y543281D03*
Y553281D03*
X167927Y543281D03*
Y553281D03*
X174935Y514817D03*
X175329Y446707D03*
Y469541D03*
Y491589D03*
X177927Y543281D03*
Y553281D03*
X184935Y514817D03*
X185329Y446707D03*
Y469541D03*
Y491589D03*
X187927Y543281D03*
Y553281D03*
X194935Y514817D03*
X195329Y446707D03*
Y469541D03*
Y491589D03*
X197927Y543281D03*
Y553281D03*
X204935Y514817D03*
X205329Y446707D03*
Y469541D03*
Y491589D03*
X207927Y543281D03*
Y553281D03*
X210870Y355046D03*
Y365046D03*
X217927Y543281D03*
Y553281D03*
X220870Y355046D03*
Y365046D03*
X227927Y543281D03*
Y553281D03*
X230870Y355046D03*
Y365046D03*
X237927Y543281D03*
Y553281D03*
X240870Y355046D03*
Y365046D03*
X247927Y543281D03*
Y553281D03*
X250870Y355046D03*
Y365046D03*
X276667Y462848D03*
Y486077D03*
Y510093D03*
X277455Y415211D03*
Y438833D03*
X277848Y388489D03*
X286667Y462848D03*
Y486077D03*
Y510093D03*
X287455Y415211D03*
Y438833D03*
X287848Y388489D03*
X317337Y504974D03*
X317730Y384305D03*
Y409305D03*
Y434502D03*
Y458124D03*
Y481746D03*
X327337Y504974D03*
X327730Y384305D03*
Y409305D03*
Y434502D03*
Y458124D03*
Y481746D03*
X337337Y504974D03*
X337730Y384305D03*
Y409305D03*
Y434502D03*
Y458124D03*
Y481746D03*
X354778Y543281D03*
Y553281D03*
X364778Y543281D03*
Y553281D03*
X371785Y514817D03*
X372179Y446707D03*
Y469541D03*
Y491589D03*
X374778Y543281D03*
Y553281D03*
X381785Y514817D03*
X382179Y446707D03*
Y469541D03*
Y491589D03*
X384778Y543281D03*
Y553281D03*
X391785Y514817D03*
X392179Y446707D03*
Y469541D03*
Y491589D03*
X394778Y543281D03*
Y553281D03*
X401785Y514817D03*
X402179Y446707D03*
Y469541D03*
Y491589D03*
X404778Y543281D03*
Y553281D03*
X407720Y355046D03*
Y365046D03*
X414778Y543281D03*
Y553281D03*
X417720Y355046D03*
Y365046D03*
X424778Y543281D03*
Y553281D03*
X427720Y355046D03*
Y365046D03*
X434778Y543281D03*
Y553281D03*
X437720Y355046D03*
Y365046D03*
X444778Y543281D03*
Y553281D03*
X447720Y355046D03*
Y365046D03*
X473518Y462848D03*
Y486077D03*
Y510093D03*
X474305Y415211D03*
Y438833D03*
X474699Y388489D03*
X483518Y462848D03*
Y486077D03*
Y510093D03*
X484305Y415211D03*
Y438833D03*
X484699Y388489D03*
D02*
D84*
X111982Y371510D03*
X130880Y396313D03*
Y422691D03*
Y444344D03*
X131274Y470722D03*
X132455Y489620D03*
X143872Y361274D03*
X150565Y378596D03*
X150821Y416392D03*
X154108Y375447D03*
X155683Y440801D03*
X163951Y394344D03*
X174581Y437652D03*
X176156Y366785D03*
X179156Y393557D03*
Y396707D03*
Y399856D03*
Y406156D03*
X189246Y524659D03*
X190329Y396707D03*
Y401037D03*
Y405368D03*
Y409699D03*
X193872Y396707D03*
Y401037D03*
Y405368D03*
Y409699D03*
X196628Y366785D03*
X197415Y375053D03*
X198203Y396707D03*
Y401037D03*
Y405368D03*
Y409699D03*
X200171Y529230D03*
X200565Y378596D03*
X202140Y396707D03*
Y401037D03*
Y405368D03*
Y409699D03*
X203715Y382140D03*
Y429778D03*
Y435289D03*
X211195Y371904D03*
X213951Y490407D03*
X215132Y467179D03*
Y509699D03*
X215526Y446313D03*
X217494Y403006D03*
X221037Y399856D03*
X225762Y396707D03*
X226549Y436470D03*
X234030Y425447D03*
X235604Y388833D03*
X237829Y396313D03*
Y403400D03*
X239541Y388833D03*
X243872D03*
X247809D03*
X254502Y553006D03*
X308833Y371510D03*
X327730Y396313D03*
Y422691D03*
Y444344D03*
X328124Y470722D03*
X329305Y489620D03*
X340722Y361274D03*
X347415Y378596D03*
X347671Y416392D03*
X350959Y375447D03*
X352533Y440801D03*
X360801Y394344D03*
X371431Y437652D03*
X373006Y366785D03*
X376006Y393557D03*
Y396707D03*
Y399856D03*
Y406156D03*
X386096Y524659D03*
X387179Y396707D03*
Y401037D03*
Y405368D03*
Y409699D03*
X390722Y396707D03*
Y401037D03*
Y405368D03*
Y409699D03*
X393478Y366785D03*
X394266Y375053D03*
X395053Y396707D03*
Y401037D03*
Y405368D03*
Y409699D03*
X397022Y529230D03*
X397415Y378596D03*
X398990Y396707D03*
Y401037D03*
Y405368D03*
Y409699D03*
X400565Y382140D03*
Y429778D03*
Y435289D03*
X408045Y371904D03*
X410801Y490407D03*
X411982Y467179D03*
Y509699D03*
X412376Y446313D03*
X414344Y403006D03*
X417888Y399856D03*
X422612Y396707D03*
X423400Y436470D03*
X430880Y425447D03*
X432455Y388833D03*
X434679Y396313D03*
Y403400D03*
X436392Y388833D03*
X440722D03*
X444659D03*
X451352Y553006D03*
D02*
D87*
X171037Y390801D03*
X367888D03*
D02*
D88*
X120486Y504974D02*
Y508911D01*
X126392Y514817*
X174935*
X120486Y504974D02*
Y494344D01*
X120565*
X120880Y384305D02*
Y409305D01*
Y384305D02*
Y378203D01*
X127573Y371510*
X128911*
X134817Y365604*
Y356549*
X145053Y346313*
X190565*
Y355762*
X120880Y409305D02*
Y434502D01*
Y458124*
Y481746*
Y494344*
X120565*
X167100Y361274D02*
Y367179D01*
X167494*
X171037Y370722*
Y372691*
Y390801*
X175368Y356254D02*
X167100D01*
Y361274*
X183006Y355762D02*
X175368D01*
Y356254*
X199384D02*
Y355368D01*
X190565*
Y355762*
X210870Y355046D02*
X199384D01*
Y356254*
X317337Y504974D02*
Y508911D01*
X323242Y514817*
X371785*
X317337Y504974D02*
Y494344D01*
X317415*
X317730Y384305D02*
Y409305D01*
Y384305D02*
Y378203D01*
X324423Y371510*
X325762*
X331667Y365604*
Y356549*
X341904Y346313*
X387415*
Y355762*
X317730Y409305D02*
Y434502D01*
Y458124*
Y481746*
Y494344*
X317415*
X363951Y361274D02*
Y367179D01*
X364344*
X367888Y370722*
Y372691*
Y390801*
X372219Y356254D02*
X363951D01*
Y361274*
X379856Y355762D02*
X372219D01*
Y356254*
X396234D02*
Y355368D01*
X387415*
Y355762*
X407720Y355046D02*
X396234D01*
Y356254*
D02*
D100*
X183006Y355762D03*
X186785Y364423D03*
X190565Y355762D03*
X379856D03*
X383636Y364423D03*
X387415Y355762D03*
D02*
D120*
X137829Y448675D02*
X137573D01*
Y458124*
X140880*
X137829Y494344D02*
X140486D01*
Y504974*
X138616Y472691D02*
Y481746D01*
X140880*
X139404Y425447D02*
X139148D01*
Y434502*
X140880*
X140427Y370329D02*
X140880D01*
Y384305*
Y409305D02*
X138616D01*
Y396707*
X143380Y494344D02*
X149246D01*
X144167Y396707D02*
X150033D01*
X144955Y425447D02*
X150821D01*
X145978Y370329D02*
X154207D01*
X149246Y494344D02*
Y490014D01*
X157514Y481746*
X157652*
X162376Y477022*
Y401825*
X174187*
Y399856*
X179156*
X149640Y448675D02*
X143380D01*
X149640D02*
Y446451D01*
X155289Y440801*
X155683*
X149640Y472691D02*
X144167D01*
X149640D02*
Y466392D01*
X159089Y456943*
X159226*
Y398675*
X170644*
Y396707*
X179156*
X150033D02*
Y387652D01*
X150565*
Y378596*
X150821Y416392D02*
Y425447D01*
X154108Y375447D02*
X154207D01*
Y370329*
X155152Y361274D02*
X143872D01*
X157927Y553281D02*
Y543281D01*
X160703Y361274D02*
X167100D01*
X171037Y407041D02*
X166313D01*
Y492376*
X180093Y506156*
Y517573*
X173400Y524266*
X173006*
Y548281*
X223203*
X227927Y543557*
Y543281*
X179156Y393557D02*
X183636D01*
Y414423*
X232455*
X248990Y430959*
Y510486*
X265919Y527415*
Y551431*
X257652Y559699*
X174226*
X167927Y553400*
Y553281*
X179156Y406156D02*
X171037D01*
Y407041*
X184915Y505368D02*
X184935D01*
Y514817*
X189246Y524659D02*
X194797*
X205289D01*
X194935Y514817D02*
X194797D01*
Y524659*
X197415Y375053D02*
X262419D01*
X275854Y388489*
X277848*
X197514Y505368D02*
Y503400D01*
X202632Y498281*
X212770*
X221037Y490014*
Y435289*
X203715*
X197514Y505368D02*
X190467D01*
X200565Y378596D02*
X250171D01*
X268281Y396707*
Y408124*
X275368Y415211*
X277455*
X203715Y382140D02*
X247809D01*
X265132Y399463*
Y428203*
X275762Y438833*
X277455*
X203715Y429778D02*
X214837D01*
X210870Y355046D02*
Y365046D01*
X211195Y371904D02*
X171037D01*
Y372691*
X212732Y529230D02*
X200171D01*
X217494Y403006D02*
Y403793D01*
X224974Y411274*
X232848*
X254502Y432927*
Y488045*
X276549Y510093*
X276667*
X220388Y429778D02*
X234030D01*
Y425447*
X221037Y399856D02*
X229305Y408124D01*
X233242*
X257652Y432533*
Y467967*
X275762Y486077*
X276667*
X225762Y396707D02*
Y397100D01*
X260407Y431746*
Y446707*
X276549Y462848*
X276667*
X226549Y436470D02*
Y525447D01*
X218281Y533715*
X205683*
X197691Y541707*
X197927*
Y543281*
X237829Y396313D02*
Y403400D01*
Y396313D02*
X286667Y462848*
Y486077D01*
Y510093*
X286392*
X271037Y525447*
Y551156*
X258951Y563242*
X167770*
X157927Y553400*
Y553281*
X287455Y415211D02*
Y438833D01*
X286667*
Y462848*
X287848Y388489D02*
Y415211D01*
X287455*
X287848Y388489D02*
X286248D01*
X269663Y371904*
X211195*
X334679Y448675D02*
X334423D01*
Y458124*
X337730*
X334679Y494344D02*
X337337D01*
Y504974*
X335467Y472691D02*
Y481746D01*
X337730*
X336254Y425447D02*
X335998D01*
Y434502*
X337730*
X337278Y370329D02*
X337730D01*
Y384305*
Y409305D02*
X335467D01*
Y396707*
X340230Y494344D02*
X346096D01*
X341018Y396707D02*
X346884D01*
X341805Y425447D02*
X347671D01*
X342829Y370329D02*
X351057D01*
X346096Y494344D02*
Y490014D01*
X354364Y481746*
X354502*
X359226Y477022*
Y401825*
X371037*
Y399856*
X376006*
X346490Y448675D02*
X340230D01*
X346490D02*
Y446451D01*
X352140Y440801*
X352533*
X346490Y472691D02*
X341018D01*
X346490D02*
Y466392D01*
X355939Y456943*
X356077*
Y398675*
X367494*
Y396707*
X376006*
X346884D02*
Y387652D01*
X347415*
Y378596*
X347671Y416392D02*
Y425447D01*
X350959Y375447D02*
X351057D01*
Y370329*
X352002Y361274D02*
X340722D01*
X354778Y553281D02*
Y543281D01*
X357553Y361274D02*
X363951D01*
X367888Y407041D02*
X363163D01*
Y492376*
X376943Y506156*
Y517573*
X370250Y524266*
X369856*
Y548281*
X420053*
X424778Y543557*
Y543281*
X376006Y393557D02*
X380486D01*
Y414423*
X429305*
X445841Y430959*
Y510486*
X462770Y527415*
Y551431*
X454502Y559699*
X371077*
X364778Y553400*
Y553281*
X376006Y406156D02*
X367888D01*
Y407041*
X381766Y505368D02*
X381785D01*
Y514817*
X386096Y524659D02*
X391648*
X402140D01*
X391785Y514817D02*
X391648D01*
Y524659*
X394266Y375053D02*
X459269D01*
X472704Y388489*
X474699*
X394364Y505368D02*
Y503400D01*
X399482Y498281*
X409620*
X417888Y490014*
Y435289*
X400565*
X394364Y505368D02*
X387317D01*
X397415Y378596D02*
X447022D01*
X465132Y396707*
Y408124*
X472219Y415211*
X474305*
X400565Y382140D02*
X444659D01*
X461982Y399463*
Y428203*
X472612Y438833*
X474305*
X400565Y429778D02*
X411687D01*
X407720Y355046D02*
Y365046D01*
X408045Y371904D02*
X367888D01*
Y372691*
X409582Y529230D02*
X397022D01*
X414344Y403006D02*
Y403793D01*
X421825Y411274*
X429699*
X451352Y432927*
Y488045*
X473400Y510093*
X473518*
X417238Y429778D02*
X430880D01*
Y425447*
X417888Y399856D02*
X426156Y408124D01*
X430093*
X454502Y432533*
Y467967*
X472612Y486077*
X473518*
X422612Y396707D02*
Y397100D01*
X457258Y431746*
Y446707*
X473400Y462848*
X473518*
X423400Y436470D02*
Y525447D01*
X415132Y533715*
X402533*
X394541Y541707*
X394778*
Y543281*
X434679Y396313D02*
Y403400D01*
Y396313D02*
X483518Y462848*
Y486077D01*
Y510093*
X483242*
X467888Y525447*
Y551156*
X455801Y563242*
X364620*
X354778Y553400*
Y553281*
X484305Y415211D02*
Y438833D01*
X483518*
Y462848*
X484699Y388489D02*
Y415211D01*
X484305*
X484699Y388489D02*
X483098D01*
X466513Y371904*
X408045*
D02*
D123*
X205289Y524659D03*
X212732Y519995D03*
Y529230D03*
X402140Y524659D03*
X409582Y519995D03*
Y529230D03*
D02*
D124*
X120565Y494344D03*
X127022D03*
X317415D03*
X323872D03*
X0Y0D02*
M02*
