G04 EasyPC Gerber Version 21.0.3 Build 4286 *
G04 #@! TF.Part,Single*
G04 #@! TF.FileFunction,Copper,L1,Top *
G04 #@! TF.FilePolarity,Positive *
%FSLAX45Y45*%
%MOIN*%
G04 #@! TA.AperFunction,SMDPad*
%ADD119R,0.02362X0.05807*%
%ADD73R,0.02559X0.03937*%
%ADD76R,0.02559X0.05906*%
%ADD78R,0.03346X0.03740*%
G04 #@! TD.AperFunction*
%ADD22C,0.00500*%
%ADD25C,0.01000*%
%ADD120C,0.01500*%
G04 #@! TA.AperFunction,ViaPad*
%ADD84C,0.02362*%
G04 #@! TD.AperFunction*
%ADD88C,0.05000*%
G04 #@! TA.AperFunction,ViaPad*
%ADD87C,0.05600*%
G04 #@! TA.AperFunction,ComponentPad*
%ADD77C,0.06693*%
G04 #@! TA.AperFunction,WasherPad*
%ADD27C,0.24016*%
G04 #@! TA.AperFunction,SMDPad*
%ADD75R,0.08268X0.01575*%
%ADD118R,0.05807X0.02362*%
%ADD74R,0.03937X0.02559*%
X0Y0D02*
D02*
D22*
X160463Y421553D02*
Y392431D01*
X167500*
Y399394*
X162858*
Y405831*
X167917*
Y404279*
G75*
G02X168780Y405335I3120J-1667*
G01*
Y405461*
X168940*
G75*
G02X173939Y404636I2098J-2848*
G01*
X175372*
Y407675*
X174862*
X174160Y406973*
G75*
G02X173006Y406494I-1154J1151*
G01*
X172508*
Y406457*
X162480*
Y409791*
X172368*
X173033Y410456*
G75*
G02X174187Y410935I1154J-1151*
G01*
X174779*
G75*
G02X174214Y411304I589J1520*
G01*
X172878Y412640*
Y410811*
X162110*
Y414886*
X170632*
X169612Y415906*
X162480*
Y419240*
X172508*
Y417620*
X175372Y414756*
Y417665*
X177526*
Y421553*
X170736*
Y421024*
X165039*
Y421553*
X160463*
G36*
Y392431*
X167500*
Y399394*
X162858*
Y405831*
X167917*
Y404279*
G75*
G02X168780Y405335I3120J-1667*
G01*
Y405461*
X168940*
G75*
G02X173939Y404636I2098J-2848*
G01*
X175372*
Y407675*
X174862*
X174160Y406973*
G75*
G02X173006Y406494I-1154J1151*
G01*
X172508*
Y406457*
X162480*
Y409791*
X172368*
X173033Y410456*
G75*
G02X174187Y410935I1154J-1151*
G01*
X174779*
G75*
G02X174214Y411304I589J1520*
G01*
X172878Y412640*
Y410811*
X162110*
Y414886*
X170632*
X169612Y415906*
X162480*
Y419240*
X172508*
Y417620*
X175372Y414756*
Y417665*
X177526*
Y421553*
X170736*
Y421024*
X165039*
Y421553*
X160463*
G37*
X182939Y417112D02*
Y391679D01*
X204433*
Y392049*
X208742*
Y417482*
X187248*
Y417112*
X182939*
G36*
Y391679*
X204433*
Y392049*
X208742*
Y417482*
X187248*
Y417112*
X182939*
G37*
X299671Y548613D02*
G75*
G02X274882Y553557I-11902J4944D01*
G01*
G75*
G02X282921Y565498I12888*
G01*
X123287*
G75*
G02X118439Y540669I-4848J-11941*
G01*
G75*
G02X106183Y549571I0J12888*
G01*
Y357543*
G75*
G02X131327Y353557I12256J-3986*
G01*
G75*
G02X122425Y341301I-12888J0*
G01*
X283784*
G75*
G02X287770Y366445I3986J12256*
G01*
G75*
G02X299671Y358502J-12888*
G01*
Y548613*
X282441Y462848D02*
G75*
G02X290894I4226D01*
G01*
G75*
G02X282441I-4226*
G01*
X283228Y415211D02*
G75*
G02X291681I4226D01*
G01*
G75*
G02X283228I-4226*
G01*
X283622Y388489D02*
G75*
G02X292075I4226D01*
G01*
G75*
G02X283622I-4226*
G01*
X283228Y438833D02*
G75*
G02X291681I4226D01*
G01*
G75*
G02X283228I-4226*
G01*
X282441Y486077D02*
G75*
G02X290894I4226D01*
G01*
G75*
G02X282441I-4226*
G01*
Y510093D02*
G75*
G02X290894I4226D01*
G01*
G75*
G02X282441I-4226*
G01*
X136260Y504974D02*
G75*
G02X144713I4226D01*
G01*
G75*
G02X136260I-4226*
G01*
X136654Y384305D02*
G75*
G02X145106I4226D01*
G01*
G75*
G02X136654I-4226*
G01*
X145502Y355362D02*
X146425D01*
Y349862*
X141319*
Y355362*
X142242*
Y360012*
G75*
G02X141811Y361274I1630J1261*
G01*
G75*
G02X145933I2061*
G01*
G75*
G02X145502Y360012I-2061*
G01*
Y355362*
X136654Y409305D02*
G75*
G02X145106I4226D01*
G01*
G75*
G02X136654I-4226*
G01*
Y434502D02*
G75*
G02X145106I4226D01*
G01*
G75*
G02X136654I-4226*
G01*
Y458124D02*
G75*
G02X145106I4226D01*
G01*
G75*
G02X136654I-4226*
G01*
Y481746D02*
G75*
G02X145106I4226D01*
G01*
G75*
G02X136654I-4226*
G01*
X249459Y407232D02*
X249988D01*
Y399567*
X245669*
Y407232*
X246199*
Y416730*
X226043*
X217467Y408154*
G75*
G02X216902Y407785I-1154J1151*
G01*
X223793*
G75*
G02X225423Y406156J-1630*
G01*
Y405030*
X230669*
Y407232*
X234988*
Y399567*
X230669*
Y401770*
X223793*
G75*
G02X222163Y403400J1630*
G01*
Y404526*
X218886*
G75*
G02Y401486I-1392J-1520*
G01*
X219776*
G75*
G02X222430Y398337I1261J-1630*
G01*
X224500*
G75*
G02X227823Y396707I1261J-1630*
G01*
G75*
G02X224500Y395077I-2061*
G01*
X224264*
G75*
G02X225030Y393695I-864J-1382*
G01*
Y390801*
G75*
G02X223469Y389173I-1630*
G01*
Y385614*
X217031*
Y388821*
X212825Y384614*
Y373165*
G75*
G02X213256Y371904I-1630J-1261*
G01*
G75*
G02X209134I-2061*
G01*
G75*
G02X209565Y373165I2061*
G01*
Y385289*
G75*
G02X210044Y386443I1630*
G01*
X215096Y391496*
X209295*
Y383742*
X205344*
Y383401*
G75*
G02X202195Y380748I-1630J-1261*
G01*
Y379858*
G75*
G02X199045Y377204I-1630J-1261*
G01*
Y376315*
G75*
G02X199476Y375053I-1630J-1261*
G01*
G75*
G02X195354I-2061*
G01*
G75*
G02X195785Y376315I2061*
G01*
Y382731*
G75*
G02X195417Y382167I-1520J589*
G01*
X187546Y374296*
G75*
G02X186392Y373817I-1154J1151*
G01*
X155370*
G75*
G02X152716Y376967I-1261J1630*
G01*
X151826*
G75*
G02X148504Y378596I-1261J1630*
G01*
G75*
G02X151636Y380357I2061*
G01*
G75*
G02X151297Y381352I1291J995*
G01*
Y414387*
G75*
G02X148760Y416392I-476J2005*
G01*
G75*
G02X152082Y418022I2061*
G01*
X152927*
G75*
G02X154053Y417570J-1630*
G01*
Y439540*
G75*
G02X157203Y442193I1630J1261*
G01*
Y446707*
G75*
G02X158833Y448337I1630*
G01*
X171429*
G75*
G02X173699Y450606I3900J-1630*
G01*
Y465642*
G75*
G02Y473441I1630J3900*
G01*
Y487689*
G75*
G02X171102Y491589I1630J3900*
G01*
G75*
G02X179555I4226*
G01*
G75*
G02X176959Y487689I-4226*
G01*
Y473441*
G75*
G02Y465642I-1630J-3900*
G01*
Y450606*
G75*
G02X179555Y446707I-1630J-3900*
G01*
G75*
G02X171429Y445077I-4226*
G01*
X160463*
Y424813*
X165039*
Y425343*
X170736*
Y424813*
X179156*
G75*
G02X180785Y423183J-1630*
G01*
Y417665*
X182386*
Y425419*
X186337*
Y426929*
X185157*
Y432626*
X189476*
Y430392*
G75*
G02X189486Y430367I-1512J-614*
G01*
Y433039*
X184861Y437665*
G75*
G02X183699Y439226I468J1561*
G01*
Y442807*
G75*
G02Y450606I1630J3900*
G01*
Y465642*
G75*
G02Y473441I1630J3900*
G01*
Y487689*
G75*
G02X181102Y491589I1630J3900*
G01*
G75*
G02X189555I4226*
G01*
G75*
G02X186959Y487689I-4226*
G01*
Y473441*
G75*
G02Y465642I-1630J-3900*
G01*
Y450606*
G75*
G02Y442807I-1630J-3900*
G01*
Y440177*
X192267Y434869*
G75*
G02X192636Y434304I-1151J-1154*
G01*
Y443449*
G75*
G02X193699Y450606I2693J3257*
G01*
Y465642*
G75*
G02Y473441I1630J3900*
G01*
Y487689*
G75*
G02X191102Y491589I1630J3900*
G01*
G75*
G02X198541Y494335I4226*
G01*
Y512613*
G75*
G02X190709Y514817I-3606J2204*
G01*
G75*
G02X198541Y517021I4226*
G01*
Y527969*
G75*
G02X198110Y529230I1630J1261*
G01*
G75*
G02X202232I2061*
G01*
G75*
G02X201801Y527969I-2061*
G01*
Y518180*
G75*
G02X209531Y514817I3134J-3363*
G01*
G75*
G02X201801Y511454I-4596*
G01*
Y494535*
G75*
G02X209925Y491589I3528J-2947*
G01*
G75*
G02X201801Y488642I-4596*
G01*
Y472488*
G75*
G02X209925Y469541I3528J-2947*
G01*
G75*
G02X201801Y466594I-4596*
G01*
Y449654*
G75*
G02X209925Y446707I3528J-2947*
G01*
G75*
G02X201801Y443760I-4596*
G01*
Y440801*
G75*
G02X201322Y439647I-1630*
G01*
X199045Y437370*
Y435879*
G75*
G02X200565Y436919I1520J-589*
G01*
X202453*
G75*
G02X205776Y435289I1261J-1630*
G01*
G75*
G02X202453Y433659I-2061*
G01*
X202195*
Y431170*
G75*
G02X205344Y428516I1520J-1392*
G01*
Y425249*
G75*
G02X205713Y425813I1520J-589*
G01*
X224526Y444626*
Y522016*
X214457Y532085*
X173006*
G75*
G02X171376Y533715J1630*
G01*
Y540243*
G75*
G02X163331Y543281I-3449J3039*
G01*
G75*
G02X171376Y546320I4596*
G01*
Y550839*
G75*
G02X163701Y553281I-3449J2443*
G01*
G75*
G02X171963Y554535I4226*
G01*
G75*
G02X173006Y554911I1042J-1253*
G01*
X174028*
G75*
G02X182154Y553281I3900J-1630*
G01*
G75*
G02X174636Y550630I-4226*
G01*
Y545933*
G75*
G02X182154Y543281I3291J-2651*
G01*
G75*
G02X174636Y540630I-4226*
G01*
Y535344*
X215132*
G75*
G02X215881Y535162J-1630*
G01*
X215179Y535864*
X193439*
G75*
G02X192173Y536390J1787*
G01*
X189284Y539279*
G75*
G02X183701Y543281I-1357J4003*
G01*
G75*
G02X192154I4226*
G01*
G75*
G02X191867Y541752I-4226*
G01*
X194180Y539439*
X196167*
G75*
G02X193701Y543281I1760J3843*
G01*
G75*
G02X202154I4226*
G01*
G75*
G02X199687Y539439I-4226*
G01*
X206167*
G75*
G02X203701Y543281I1760J3843*
G01*
G75*
G02X212154I4226*
G01*
G75*
G02X209687Y539439I-4226*
G01*
X215919*
G75*
G02X216226Y539412I-1J-1787*
G01*
G75*
G02X213701Y543281I1701J3869*
G01*
G75*
G02X222154I4226*
G01*
G75*
G02X216796Y539209I-4226*
G01*
G75*
G02X217185Y538913I-876J-1558*
G01*
X232142Y523957*
G75*
G02X232667Y522691I-1262J-1266*
G01*
Y427809*
G75*
G02X232142Y426543I-1787*
G01*
X225589Y419990*
X247829*
G75*
G02X249459Y418360J-1630*
G01*
Y407232*
X179236Y432996D02*
X184295D01*
Y426559*
X179236*
Y432996*
X164669Y431264D02*
X171106D01*
Y426205*
X164669*
Y431264*
X187985Y526289D02*
G75*
G02X191307Y524659I1261J-1630D01*
G01*
G75*
G02X187985Y523030I-2061*
G01*
X176565*
Y518717*
G75*
G02X179161Y514817I-1630J-3900*
G01*
G75*
G02X170709I-4226*
G01*
G75*
G02X173305Y518717I4226*
G01*
Y524659*
G75*
G02X174935Y526289I1630*
G01*
X187985*
X180709Y514817D02*
G75*
G02X189161I4226D01*
G01*
G75*
G02X180709I-4226*
G01*
X240925Y428197D02*
X246031D01*
Y422697*
X240925*
Y423817*
X235291*
G75*
G02X231969Y425447I-1261J1630*
G01*
G75*
G02X235291Y427077I2061*
G01*
X240925*
Y428197*
X235669Y407232D02*
X239988D01*
Y399567*
X235669*
Y407232*
X244774Y377508D02*
X245146D01*
Y371811*
X244616*
Y370329*
G75*
G02X242995Y368699I-1630*
G01*
G75*
G02X245096Y365046I-2125J-3653*
G01*
G75*
G02X236643I-4226*
G01*
G75*
G02X238744Y368699I4226*
G01*
X232995*
G75*
G02X235096Y365046I-2125J-3653*
G01*
G75*
G02X227392Y362644I-4226*
G01*
Y360445*
X229000Y358836*
G75*
G02X235096Y355046I1869J-3791*
G01*
G75*
G02X226643I-4226*
G01*
G75*
G02X226856Y356370I4227*
G01*
X224611Y358616*
G75*
G02X224132Y359770I1151J1154*
G01*
Y361807*
G75*
G02X216529Y363534I-3262J3238*
G01*
G75*
G02X215919Y363416I-609J1511*
G01*
X214769*
G75*
G02X206643Y365046I-3900J1630*
G01*
G75*
G02X214289Y367529I4226*
G01*
Y380171*
G75*
G02X215919Y381801I1630*
G01*
X226494*
Y392376*
G75*
G02X228124Y394006I1630*
G01*
X233748*
X235785Y396043*
G75*
G02X235768Y396313I2043J270*
G01*
G75*
G02X239890I2061*
G01*
G75*
G02X238912Y394559I-2061*
G01*
X235577Y391225*
G75*
G02X234423Y390746I-1154J1151*
G01*
X229754*
Y380171*
G75*
G02X228124Y378541I-1630*
G01*
X217549*
Y368224*
G75*
G02X224132Y368284I3320J-3178*
G01*
Y374659*
G75*
G02X225762Y376289I1630*
G01*
X235276*
Y377508*
X236199*
Y378307*
X235669*
Y385972*
X239988*
Y378307*
X239459*
Y377508*
X239594*
Y371959*
X240827*
Y377508*
X241199*
Y378307*
X240669*
Y385972*
X244988*
Y378307*
X244774*
Y377508*
X230669Y385972D02*
X234988D01*
Y378307*
X230669*
Y385972*
X236643Y355046D02*
G75*
G02X245096I4226D01*
G01*
G75*
G02X236643I-4226*
G01*
X216273D02*
G75*
G02X225466I4596D01*
G01*
G75*
G02X216273I-4596*
G01*
X240299Y407602D02*
X245358D01*
Y399197*
X240299*
Y407602*
X252992Y384594D02*
X257311D01*
Y378898*
X252992*
Y380510*
X249988*
Y378307*
X245669*
Y385972*
X249988*
Y383770*
X252992*
Y384594*
X246643Y365046D02*
G75*
G02X255096I4226D01*
G01*
G75*
G02X254250Y362508I-4226*
G01*
Y357583*
G75*
G02X255096Y355046I-3380J-2537*
G01*
G75*
G02X246643I-4226*
G01*
G75*
G02X247490Y357583I4226*
G01*
Y362508*
G75*
G02X246643Y365046I3380J2537*
G01*
X206643Y355046D02*
G75*
G02X215096I4226D01*
G01*
G75*
G02X206643I-4226*
G01*
X153701Y543281D02*
G75*
G02X162154I4226D01*
G01*
G75*
G02X153701I-4226*
G01*
Y553281D02*
G75*
G02X162154I4226D01*
G01*
G75*
G02X153701I-4226*
G01*
X183331D02*
G75*
G02X192524I4596D01*
G01*
G75*
G02X183331I-4596*
G01*
X193331D02*
G75*
G02X202524I4596D01*
G01*
G75*
G02X193331I-4596*
G01*
X203331D02*
G75*
G02X212524I4596D01*
G01*
G75*
G02X203331I-4596*
G01*
X213331D02*
G75*
G02X222524I4596D01*
G01*
G75*
G02X213331I-4596*
G01*
X223701Y543281D02*
G75*
G02X232154I4226D01*
G01*
G75*
G02X223701I-4226*
G01*
Y553281D02*
G75*
G02X232154I4226D01*
G01*
G75*
G02X223701I-4226*
G01*
X233331D02*
G75*
G02X242524I4596D01*
G01*
G75*
G02X233331I-4596*
G01*
X233701Y543281D02*
G75*
G02X242154I4226D01*
G01*
G75*
G02X233701I-4226*
G01*
X243331Y553281D02*
G75*
G02X252524I4596D01*
G01*
G75*
G02X243331I-4596*
G01*
X243701Y543281D02*
G75*
G02X252154I4226D01*
G01*
G75*
G02X243701I-4226*
G01*
X246854Y428567D02*
X252701D01*
Y422327*
X246854*
Y428567*
X258173Y384965D02*
X263232D01*
Y378528*
X258173*
Y384965*
X272441Y462848D02*
G75*
G02X280894I4226D01*
G01*
G75*
G02X272441I-4226*
G01*
X273228Y415211D02*
G75*
G02X281681I4226D01*
G01*
G75*
G02X273228I-4226*
G01*
X273622Y388489D02*
G75*
G02X282075I4226D01*
G01*
G75*
G02X273622I-4226*
G01*
X273228Y438833D02*
G75*
G02X281681I4226D01*
G01*
G75*
G02X273228I-4226*
G01*
X272441Y486077D02*
G75*
G02X280894I4226D01*
G01*
G75*
G02X272441I-4226*
G01*
Y510093D02*
G75*
G02X280894I4226D01*
G01*
G75*
G02X272441I-4226*
G01*
X125890Y504974D02*
G75*
G02X135083I4596D01*
G01*
G75*
G02X125890I-4596*
G01*
X126283Y384305D02*
G75*
G02X135476I4596D01*
G01*
G75*
G02X126283I-4596*
G01*
X134650Y355732D02*
X140496D01*
Y349492*
X134650*
Y355732*
X126283Y409305D02*
G75*
G02X135476I4596D01*
G01*
G75*
G02X126283I-4596*
G01*
Y434502D02*
G75*
G02X135476I4596D01*
G01*
G75*
G02X126283I-4596*
G01*
Y458124D02*
G75*
G02X135476I4596D01*
G01*
G75*
G02X126283I-4596*
G01*
Y481746D02*
G75*
G02X135476I4596D01*
G01*
G75*
G02X126283I-4596*
G01*
X116260Y504974D02*
G75*
G02X124713I4226D01*
G01*
G75*
G02X116260I-4226*
G01*
X116654Y384305D02*
G75*
G02X125106I4226D01*
G01*
G75*
G02X116654I-4226*
G01*
Y409305D02*
G75*
G02X125106I4226D01*
G01*
G75*
G02X116654I-4226*
G01*
Y434502D02*
G75*
G02X125106I4226D01*
G01*
G75*
G02X116654I-4226*
G01*
Y458124D02*
G75*
G02X125106I4226D01*
G01*
G75*
G02X116654I-4226*
G01*
Y481746D02*
G75*
G02X125106I4226D01*
G01*
G75*
G02X116654I-4226*
G01*
X274917Y352612D02*
G36*
X254325D01*
G75*
G02X247414I-3456J2433*
G01*
X244325*
G75*
G02X237414I-3456J2433*
G01*
X234325*
G75*
G02X227414I-3456J2433*
G01*
X224769*
G75*
G02X216970I-3900J2433*
G01*
X214325*
G75*
G02X207414I-3456J2433*
G01*
X146425*
Y349862*
X141319*
Y352612*
X140496*
Y349492*
X134650*
Y352612*
X131292*
G75*
G02X123124Y341551I-12853J945*
G01*
X283084*
G75*
G02X274917Y352612I4685J12006*
G01*
G37*
X275246Y356598D02*
G36*
X254800D01*
G75*
G02X255096Y355046I-3933J-1554*
G01*
G75*
G02X254325Y352612I-4226*
G01*
X274917*
G75*
G02X274882Y353557I12855J944*
G01*
G75*
G02X275246Y356598I12889J-1*
G01*
G37*
X141319Y352612D02*
G36*
Y355362D01*
X142242*
Y356598*
X130963*
G75*
G02X131327Y353557I-12524J-3042*
G01*
G75*
G02X131292Y352612I-12889J0*
G01*
X134650*
Y355732*
X140496*
Y352612*
X141319*
G37*
X206939Y356598D02*
G36*
X145502D01*
Y355362*
X146425*
Y352612*
X207414*
G75*
G02X206643Y355046I3456J2433*
G01*
G75*
G02X206939Y356598I4226J0*
G01*
G37*
X216543D02*
G36*
X214800D01*
G75*
G02X215096Y355046I-3931J-1553*
G01*
G75*
G02X214325Y352612I-4226*
G01*
X216970*
G75*
G02X216273Y355046I3900J2433*
G01*
G75*
G02X216543Y356598I4596J0*
G01*
G37*
X226628D02*
G36*
X225196D01*
G75*
G02X225466Y355046I-4326J-1552*
G01*
G75*
G02X224769Y352612I-4596J0*
G01*
X227414*
G75*
G02X226643Y355046I3456J2433*
G01*
Y355046*
G75*
G02X226856Y356370I4224*
G01*
X226628Y356598*
G37*
X236939D02*
G36*
X234800D01*
G75*
G02X235096Y355046I-3931J-1553*
G01*
G75*
G02X234325Y352612I-4226*
G01*
X237414*
G75*
G02X236643Y355046I3456J2433*
G01*
G75*
G02X236939Y356598I4226J0*
G01*
G37*
X246939D02*
G36*
X244800D01*
G75*
G02X245096Y355046I-3931J-1553*
G01*
G75*
G02X244325Y352612I-4226*
G01*
X247414*
G75*
G02X246643Y355046I3456J2433*
G01*
G75*
G02X246939Y356598I4229J-1*
G01*
G37*
X226628D02*
G36*
X224611Y358616D01*
G75*
G02X224132Y359770I1150J1154*
G01*
Y359770*
Y361807*
G75*
G02X216529Y363534I-3262J3238*
G01*
G75*
G02X215919Y363416I-611J1521*
G01*
X214769*
G75*
G02X206643Y365046I-3900J1630*
G01*
G75*
G02X214289Y367529I4226*
G01*
Y380171*
G75*
G02X215919Y381801I1630*
G01*
X226494*
Y384305*
X212825*
Y373165*
G75*
G02X213256Y371904I-1628J-1261*
G01*
G75*
G02X209134Y371904I-2061J-1*
G01*
G75*
G02X209565Y373165I2059J1*
G01*
Y384305*
X209295*
Y383742*
X205344*
Y383401*
G75*
G02X205776Y382140I-1630J-1261*
G01*
G75*
G02X202195Y380748I-2061*
G01*
Y379858*
G75*
G02X202626Y378596I-1630J-1261*
G01*
G75*
G02X199045Y377204I-2061*
G01*
Y376315*
G75*
G02X199476Y375054I-1628J-1261*
G01*
G75*
G02Y375053I-2374J0*
G01*
G75*
G02X195354I-2061*
G01*
G75*
G02Y375054I2374J0*
G01*
G75*
G02X195785Y376315I2059*
G01*
Y382731*
G75*
G02X195417Y382167I-1519J589*
G01*
X187546Y374296*
G75*
G02X186392Y373817I-1154J1150*
G01*
X155370*
G75*
G02X152047Y375447I-1261J1630*
G01*
G75*
G02X152716Y376967I2061*
G01*
X151826*
G75*
G02X148504Y378596I-1261J1630*
G01*
G75*
G02X151636Y380357I2061J0*
G01*
G75*
G02X151297Y381352I1291J995*
G01*
Y384305*
X145106*
G75*
G02X136654I-4226*
G01*
X135476*
G75*
G02X126283I-4596*
G01*
X125106*
G75*
G02X116654I-4226*
G01*
X106433*
Y358243*
G75*
G02X130963Y356598I12006J-4685*
G01*
X142242*
Y360012*
G75*
G02X141811Y361273I1628J1261*
G01*
G75*
G02Y361274I2374J0*
G01*
G75*
G02X145933I2061*
G01*
G75*
G02Y361273I-2374J0*
G01*
G75*
G02X145502Y360012I-2059*
G01*
Y356598*
X206939*
G75*
G02X214800I3931J-1553*
G01*
X216543*
G75*
G02X225196I4326J-1553*
G01*
X226628*
G37*
X235669Y384305D02*
G36*
X234988D01*
Y378307*
X230669*
Y384305*
X229754*
Y380171*
G75*
G02X228124Y378541I-1630*
G01*
X217549*
Y368224*
G75*
G02X224132Y368284I3320J-3178*
G01*
Y374659*
G75*
G02X225762Y376289I1630*
G01*
X235276*
Y377508*
X236199*
Y378307*
X235669*
Y384305*
G37*
X240669D02*
G36*
X239988D01*
Y378307*
X239459*
Y377508*
X239594*
Y371959*
X240827*
Y377508*
X241199*
Y378307*
X240669*
Y384305*
G37*
X252992D02*
G36*
X249988D01*
Y383770*
X252992*
Y384305*
G37*
X299421Y359065D02*
G36*
Y384305D01*
X288449*
G75*
G02X287248I-601J4184*
G01*
X278449*
G75*
G02X277248I-601J4184*
G01*
X263232*
Y378528*
X258173*
Y384305*
X257311*
Y378898*
X252992*
Y380510*
X249988*
Y378307*
X245669*
Y384305*
X244988*
Y378307*
X244774*
Y377508*
X245146*
Y371811*
X244616*
Y370329*
G75*
G02X242995Y368699I-1630*
G01*
G75*
G02X245096Y365046I-2124J-3653*
G01*
Y365046*
G75*
G02X236643I-4226*
G01*
Y365046*
G75*
G02X238744Y368699I4226*
G01*
X232995*
G75*
G02X235096Y365046I-2124J-3653*
G01*
Y365046*
G75*
G02X227392Y362644I-4226*
G01*
Y360445*
X229000Y358836*
G75*
G02X234800Y356598I1869J-3791*
G01*
X236939*
G75*
G02X244800I3931J-1553*
G01*
X246939*
G75*
G02X247490Y357583I3933J-1554*
G01*
Y362508*
G75*
G02X246643Y365046I3382J2538*
G01*
G75*
G02X255096I4226*
G01*
G75*
G02X254250Y362508I-4229J1*
G01*
Y357583*
G75*
G02X254800Y356598I-3383J-2539*
G01*
X275246*
G75*
G02X287770Y366445I12524J-3041*
G01*
G75*
G02X299421Y359065J-12888*
G01*
G37*
X116654Y384305D02*
G36*
G75*
G02X120279Y388489I4226D01*
G01*
X106433*
Y384305*
X116654*
G37*
X126283D02*
G36*
G75*
G02X128976Y388489I4596D01*
G01*
X121481*
G75*
G02X125106Y384305I-601J-4183*
G01*
X126283*
G37*
X136654D02*
G36*
G75*
G02X140279Y388489I4226D01*
G01*
X132784*
G75*
G02X135476Y384305I-1904J-4183*
G01*
X136654*
G37*
X151297Y388489D02*
G36*
X141481D01*
G75*
G02X145106Y384305I-601J-4183*
G01*
X151297*
Y388489*
G37*
X212089D02*
G36*
X209295D01*
Y384305*
X209565*
Y385289*
Y385290*
G75*
G02X210044Y386443I1629*
G01*
X212089Y388489*
G37*
X226494D02*
G36*
X223469D01*
Y385614*
X217031*
Y388489*
X216699*
X212825Y384614*
Y384305*
X226494*
Y388489*
G37*
X273622D02*
G36*
X229754D01*
Y384305*
X230669*
Y385972*
X234988*
Y384305*
X235669*
Y385972*
X239988*
Y384305*
X240669*
Y385972*
X244988*
Y384305*
X245669*
Y385972*
X249988*
Y384305*
X252992*
Y384594*
X257311*
Y384305*
X258173*
Y384965*
X263232*
Y384305*
X277248*
G75*
G02X273622Y388489I601J4183*
G01*
G37*
X283622D02*
G36*
X282075D01*
G75*
G02X278449Y384305I-4226*
G01*
X287248*
G75*
G02X283622Y388489I601J4183*
G01*
G37*
X292075D02*
G36*
G75*
G02X288449Y384305I-4226D01*
G01*
X299421*
Y388489*
X292075*
G37*
X151297Y403400D02*
G36*
X106433D01*
Y388489*
X120279*
G75*
G02X121481I601J-4184*
G01*
X128976*
G75*
G02X132784I1904J-4184*
G01*
X140279*
G75*
G02X141481I601J-4184*
G01*
X151297*
Y403400*
G37*
X212089Y388489D02*
G36*
X215096Y391496D01*
X209295*
Y388489*
X212089*
G37*
X217031D02*
G36*
Y388821D01*
X216699Y388489*
X217031*
G37*
X249988Y403400D02*
G36*
Y399567D01*
X245669*
Y403400*
X245358*
Y399197*
X240299*
Y403400*
X239988*
Y399567*
X235669*
Y403400*
X234988*
Y399567*
X230669*
Y401770*
X223793*
G75*
G02X222163Y403400J1630*
G01*
X219517*
G75*
G02X219555Y403006I-2023J-393*
G01*
G75*
G02X218886Y401486I-2061*
G01*
X219776*
G75*
G02X223098Y399856I1261J-1630*
G01*
G75*
G02X222430Y398337I-2061*
G01*
X224500*
G75*
G02X227823Y396707I1261J-1630*
G01*
G75*
G02X224500Y395077I-2061*
G01*
X224264*
G75*
G02X225030Y393695I-865J-1383*
G01*
Y390801*
Y390801*
G75*
G02X223469Y389173I-1630*
G01*
Y388489*
X226494*
Y392376*
G75*
G02X228124Y394006I1630*
G01*
X233748*
X235785Y396043*
G75*
G02X235768Y396310I2001J267*
G01*
G75*
G02Y396313I1926J2*
G01*
G75*
G02X239890I2061*
G01*
G75*
G02X238912Y394559I-2061*
G01*
X235577Y391225*
G75*
G02X234423Y390746I-1154J1150*
G01*
X229754*
Y388489*
X273622*
G75*
G02X282075I4226*
G01*
X283622*
G75*
G02X292075I4226*
G01*
X299421*
Y403400*
X249988*
G37*
X151297D02*
G36*
Y409305D01*
X145106*
G75*
G02X136654I-4226*
G01*
X135476*
G75*
G02X126283I-4596*
G01*
X125106*
G75*
G02X116654I-4226*
G01*
X106433*
Y403400*
X151297*
G37*
X245669D02*
G36*
Y407232D01*
X246199*
Y409305*
X218618*
X217467Y408154*
G75*
G02X216902Y407785I-1153J1150*
G01*
X223793*
G75*
G02X225423Y406156J-1630*
G01*
Y405030*
X230669*
Y407232*
X234988*
Y403400*
X235669*
Y407232*
X239988*
Y403400*
X240299*
Y407602*
X245358*
Y403400*
X245669*
G37*
X222163D02*
G36*
Y404526D01*
X218886*
G75*
G02X219517Y403400I-1392J-1520*
G01*
X222163*
G37*
X249988D02*
G36*
X299421D01*
Y409305*
X249459*
Y407232*
X249988*
Y403400*
G37*
X149132Y415211D02*
G36*
X106433D01*
Y409305*
X116654*
G75*
G02X125106I4226*
G01*
X126283*
G75*
G02X135476I4596*
G01*
X136654*
G75*
G02X145106I4226*
G01*
X151297*
Y414387*
G75*
G02X149132Y415211I-476J2005*
G01*
G37*
X246199D02*
G36*
X224524D01*
X218618Y409305*
X246199*
Y415211*
G37*
X249459D02*
G36*
Y409305D01*
X299421*
Y415211*
X291681*
G75*
G02X283228I-4226*
G01*
X281681*
G75*
G02X273228I-4226*
G01*
X249459*
G37*
X149132D02*
G36*
G75*
G02X148760Y416392I1689J1181D01*
G01*
G75*
G02X152082Y418022I2061*
G01*
X152927*
G75*
G02X154053Y417570I-1J-1632*
G01*
Y425447*
X106433*
Y415211*
X149132*
G37*
X186337Y425447D02*
G36*
X160463D01*
Y424813*
X165039*
Y425343*
X170736*
Y424813*
X179156*
G75*
G02X180785Y423183J-1630*
G01*
Y417665*
X182386*
Y425419*
X186337*
Y425447*
G37*
X205437D02*
G36*
X205344D01*
Y425249*
G75*
G02X205437Y425447I1519J-589*
G01*
G37*
X246199Y415211D02*
G36*
Y416730D01*
X226043*
X224524Y415211*
X246199*
G37*
X252701Y425447D02*
G36*
Y422327D01*
X246854*
Y425447*
X246031*
Y422697*
X240925*
Y423817*
X235291*
G75*
G02X231969Y425447I-1261J1630*
G01*
X231046*
X225589Y419990*
X247829*
G75*
G02X249459Y418360J-1630*
G01*
Y415211*
X273228*
G75*
G02X281681I4226*
G01*
X283228*
G75*
G02X291681I4226*
G01*
X299421*
Y425447*
X252701*
G37*
X154053Y429778D02*
G36*
X106433D01*
Y425447*
X154053*
Y429778*
G37*
X185157D02*
G36*
X184295D01*
Y426559*
X179236*
Y429778*
X171106*
Y426205*
X164669*
Y429778*
X160463*
Y425447*
X186337*
Y426929*
X185157*
Y429778*
G37*
X209677D02*
G36*
X205776D01*
G75*
G02X205344Y428516I-2061*
G01*
Y425447*
X205437*
G75*
G02X205713Y425813I1426J-787*
G01*
X209677Y429778*
G37*
X246031Y425447D02*
G36*
X246854D01*
Y428567*
X252701*
Y425447*
X299421*
Y429778*
X232667*
Y427809*
G75*
G02X232142Y426543I-1788*
G01*
X231046Y425447*
X231969*
G75*
G02X235291Y427077I2061*
G01*
X240925*
Y428197*
X246031*
Y425447*
G37*
X154053Y434502D02*
G36*
X145106D01*
G75*
G02X136654I-4226*
G01*
X135476*
G75*
G02X126283I-4596*
G01*
X125106*
G75*
G02X116654I-4226*
G01*
X106433*
Y429778*
X154053*
Y434502*
G37*
X185157Y429778D02*
G36*
Y432626D01*
X189476*
Y430392*
G75*
G02X189486Y430367I-319J-141*
G01*
Y433039*
X188024Y434502*
X160463*
Y429778*
X164669*
Y431264*
X171106*
Y429778*
X179236*
Y432996*
X184295*
Y429778*
X185157*
G37*
X192636Y434502D02*
G36*
X192543D01*
G75*
G02X192636Y434304I-1426J-787*
G01*
Y434502*
G37*
X214402D02*
G36*
X205619D01*
G75*
G02X202453Y433659I-1905J787*
G01*
X202195*
Y431170*
G75*
G02X205776Y429778I1520J-1392*
G01*
X209677*
X214402Y434502*
G37*
X232667D02*
G36*
Y429778D01*
X299421*
Y434502*
X232667*
G37*
X126283D02*
G36*
G75*
G02X129340Y438833I4596D01*
G01*
X106433*
Y434502*
X116654*
G75*
G02X125106I4226*
G01*
X126283*
G37*
X154053Y438833D02*
G36*
X132420D01*
G75*
G02X135476Y434502I-1540J-4331*
G01*
X136654*
G75*
G02X145106I4226*
G01*
X154053*
Y438833*
G37*
X188024Y434502D02*
G36*
X184861Y437665D01*
G75*
G02X183747Y438833I469J1561*
G01*
X160463*
Y434502*
X188024*
G37*
X218732Y438833D02*
G36*
X200508D01*
X199045Y437370*
Y435879*
G75*
G02X200565Y436919I1520J-589*
G01*
X202453*
G75*
G02X205776Y435289I1261J-1630*
G01*
G75*
G02X205619Y434502I-2061*
G01*
X214402*
X218732Y438833*
G37*
X192636Y434502D02*
G36*
Y438833D01*
X188303*
X192267Y434869*
G75*
G02X192543Y434502I-1150J-1153*
G01*
X192636*
G37*
X232667Y438833D02*
G36*
Y434502D01*
X299421*
Y438833*
X291681*
G75*
G02X283228I-4226*
G01*
X281681*
G75*
G02X273228I-4226*
G01*
X232667*
G37*
X173699Y458124D02*
G36*
X145106D01*
G75*
G02X136654I-4226*
G01*
X135476*
G75*
G02X126283I-4596*
G01*
X125106*
G75*
G02X116654I-4226*
G01*
X106433*
Y438833*
X129340*
G75*
G02X132420I1540J-4331*
G01*
X154053*
Y439540*
G75*
G02X153622Y440801I1630J1261*
G01*
G75*
G02X157203Y442193I2061*
G01*
Y446707*
G75*
G02X158833Y448337I1630*
G01*
X171429*
G75*
G02X173699Y450606I3900J-1630*
G01*
Y458124*
G37*
X183747Y438833D02*
G36*
G75*
G02X183699Y439226I1582J394D01*
G01*
Y442807*
G75*
G02X181102Y446707I1630J3900*
G01*
G75*
G02X183699Y450606I4227*
G01*
Y458124*
X176959*
Y450606*
G75*
G02X179555Y446707I-1631J-3900*
G01*
G75*
G02X171429Y445077I-4226J0*
G01*
X160463*
Y438833*
X183747*
G37*
X224526Y458124D02*
G36*
X201801D01*
Y449654*
G75*
G02X209925Y446707I3528J-2947*
G01*
G75*
G02X201801Y443760I-4596J0*
G01*
Y440801*
Y440801*
G75*
G02X201322Y439647I-1629*
G01*
X200508Y438833*
X218732*
X224526Y444626*
Y458124*
G37*
X193699D02*
G36*
X186959D01*
Y450606*
G75*
G02X189555Y446707I-1630J-3900*
G01*
G75*
G02X186959Y442807I-4227*
G01*
Y440177*
X188303Y438833*
X192636*
Y443449*
G75*
G02X191102Y446707I2693J3257*
G01*
G75*
G02X193699Y450606I4226*
G01*
Y458124*
G37*
X232667D02*
G36*
Y438833D01*
X273228*
G75*
G02X281681I4226*
G01*
X283228*
G75*
G02X291681I4226*
G01*
X299421*
Y458124*
X232667*
G37*
X173699Y462848D02*
G36*
X106433D01*
Y458124*
X116654*
G75*
G02X125106I4226*
G01*
X126283*
G75*
G02X135476I4596*
G01*
X136654*
G75*
G02X145106I4226*
G01*
X173699*
Y462848*
G37*
X224526D02*
G36*
X201801D01*
Y458124*
X224526*
Y462848*
G37*
X183699D02*
G36*
X176959D01*
Y458124*
X183699*
Y462848*
G37*
X193699D02*
G36*
X186959D01*
Y458124*
X193699*
Y462848*
G37*
X232667D02*
G36*
Y458124D01*
X299421*
Y462848*
X290894*
G75*
G02X282441I-4226*
G01*
X280894*
G75*
G02X272441I-4226*
G01*
X232667*
G37*
X173699Y481746D02*
G36*
X145106D01*
G75*
G02X136654I-4226*
G01*
X135476*
G75*
G02X126283I-4596*
G01*
X125106*
G75*
G02X116654I-4226*
G01*
X106433*
Y462848*
X173699*
Y465642*
G75*
G02X171102Y469541I1630J3900*
G01*
G75*
G02X173699Y473441I4227*
G01*
Y481746*
G37*
X224526D02*
G36*
X201801D01*
Y472488*
G75*
G02X209925Y469541I3528J-2947*
G01*
G75*
G02X201801Y466594I-4596J0*
G01*
Y462848*
X224526*
Y481746*
G37*
X183699D02*
G36*
X176959D01*
Y473441*
G75*
G02X179555Y469541I-1630J-3900*
G01*
G75*
G02X176959Y465642I-4227*
G01*
Y462848*
X183699*
Y465642*
G75*
G02X181102Y469541I1630J3900*
G01*
G75*
G02X183699Y473441I4227*
G01*
Y481746*
G37*
X193699D02*
G36*
X186959D01*
Y473441*
G75*
G02X189555Y469541I-1630J-3900*
G01*
G75*
G02X186959Y465642I-4227*
G01*
Y462848*
X193699*
Y465642*
G75*
G02X191102Y469541I1630J3900*
G01*
G75*
G02X193699Y473441I4227*
G01*
Y481746*
G37*
X232667D02*
G36*
Y462848D01*
X272441*
G75*
G02X280894I4226*
G01*
X282441*
G75*
G02X290894I4226*
G01*
X299421*
Y481746*
X232667*
G37*
X126283D02*
G36*
G75*
G02X129340Y486077I4596D01*
G01*
X106433*
Y481746*
X116654*
G75*
G02X125106I4226*
G01*
X126283*
G37*
X173699Y486077D02*
G36*
X132420D01*
G75*
G02X135476Y481746I-1540J-4331*
G01*
X136654*
G75*
G02X145106I4226*
G01*
X173699*
Y486077*
G37*
X224526D02*
G36*
X201801D01*
Y481746*
X224526*
Y486077*
G37*
X183699D02*
G36*
X176959D01*
Y481746*
X183699*
Y486077*
G37*
X193699D02*
G36*
X186959D01*
Y481746*
X193699*
Y486077*
G37*
X232667D02*
G36*
Y481746D01*
X299421*
Y486077*
X290894*
G75*
G02X282441I-4226*
G01*
X280894*
G75*
G02X272441I-4226*
G01*
X232667*
G37*
X198541Y504974D02*
G36*
X144713D01*
G75*
G02X136260I-4226*
G01*
X135083*
G75*
G02X125890I-4596*
G01*
X124713*
G75*
G02X116260I-4226*
G01*
X106433*
Y486077*
X129340*
G75*
G02X132420I1540J-4331*
G01*
X173699*
Y487689*
G75*
G02X171102Y491589I1631J3900*
G01*
G75*
G02X179555I4226*
G01*
G75*
G02Y491588I-5013J0*
G01*
G75*
G02X176959Y487689I-4226*
G01*
Y486077*
X183699*
Y487689*
G75*
G02X181102Y491589I1631J3900*
G01*
G75*
G02X189555I4226*
G01*
G75*
G02Y491588I-5013J0*
G01*
G75*
G02X186959Y487689I-4226*
G01*
Y486077*
X193699*
Y487689*
G75*
G02X191102Y491589I1631J3900*
G01*
G75*
G02X198541Y494335I4226J0*
G01*
Y504974*
G37*
X224526D02*
G36*
X201801D01*
Y494535*
G75*
G02X209925Y491589I3528J-2947*
G01*
G75*
G02X201801Y488642I-4596J0*
G01*
Y486077*
X224526*
Y504974*
G37*
X232667D02*
G36*
Y486077D01*
X272441*
G75*
G02X280894I4226*
G01*
X282441*
G75*
G02X290894I4226*
G01*
X299421*
Y504974*
X232667*
G37*
X198541Y510093D02*
G36*
X106433D01*
Y504974*
X116260*
G75*
G02X124713I4226*
G01*
X125890*
G75*
G02X135083I4596*
G01*
X136260*
G75*
G02X144713I4226*
G01*
X198541*
Y510093*
G37*
X224526D02*
G36*
X201801D01*
Y504974*
X224526*
Y510093*
G37*
X232667D02*
G36*
Y504974D01*
X299421*
Y510093*
X290894*
G75*
G02X282441I-4226*
G01*
X280894*
G75*
G02X272441I-4226*
G01*
X232667*
G37*
X198541D02*
G36*
Y512613D01*
G75*
G02X190709Y514817I-3606J2204*
G01*
G75*
G02X193166Y518656I4226*
G01*
X186704*
G75*
G02X189161Y514817I-1769J-3839*
G01*
G75*
G02X180709I-4226*
G01*
G75*
G02X183167Y518656I4226*
G01*
X176704*
G75*
G02X179161Y514817I-1770J-3839*
G01*
G75*
G02X170709I-4226*
G01*
G75*
G02Y514818I5013J0*
G01*
G75*
G02X173166Y518656I4226*
G01*
X106433*
Y510093*
X198541*
G37*
X224526Y518656D02*
G36*
X207463D01*
G75*
G02X209531Y514817I-2528J-3839*
G01*
G75*
G02X201801Y511454I-4596*
G01*
Y510093*
X224526*
Y518656*
G37*
X198541D02*
G36*
X196704D01*
G75*
G02X198541Y517021I-1769J-3838*
G01*
Y518656*
G37*
X202407D02*
G36*
X201801D01*
Y518180*
G75*
G02X202407Y518656I3134J-3364*
G01*
G37*
X232667D02*
G36*
Y510093D01*
X272441*
G75*
G02X280894I4226*
G01*
X282441*
G75*
G02X290894I4226*
G01*
X299421*
Y518656*
X232667*
G37*
X224526D02*
G36*
Y522016D01*
X214457Y532085*
X173006*
G75*
G02X171376Y533715J1630*
G01*
Y540243*
G75*
G02X163331Y543281I-3449J3039*
G01*
X162154*
G75*
G02X153701I-4226*
G01*
X126218*
G75*
G02X118439Y540669I-7779J10276*
G01*
G75*
G02X110660Y543281J12888*
G01*
X106433*
Y518656*
X173166*
G75*
G02X173305Y518717I1768J-3838*
G01*
Y524659*
G75*
G02X174935Y526289I1630*
G01*
X187985*
G75*
G02X191307Y524659I1261J-1630*
G01*
G75*
G02X187985Y523030I-2061*
G01*
X176565*
Y518717*
G75*
G02X176704Y518656I-1631J-3903*
G01*
X183167*
G75*
G02X186704I1769J-3839*
G01*
X193166*
G75*
G02X196704I1769J-3839*
G01*
X198541*
Y527969*
G75*
G02X198110Y529230I1628J1261*
G01*
G75*
G02X202232Y529230I2061J1*
G01*
G75*
G02X201801Y527969I-2059J-1*
G01*
Y518656*
X202407*
G75*
G02X207463I2528J-3839*
G01*
X224526*
G37*
X183701Y543281D02*
G36*
X182154D01*
G75*
G02X174636Y540630I-4226*
G01*
Y535344*
X215132*
G75*
G02X215881Y535162I1J-1626*
G01*
X215179Y535864*
X193439*
G75*
G02X192173Y536390J1788*
G01*
X189284Y539279*
G75*
G02X183701Y543281I-1357J4002*
G01*
Y543281*
G37*
X193701D02*
G36*
X192154D01*
G75*
G02X191867Y541752I-4235J2*
G01*
X194180Y539439*
X196167*
G75*
G02X193701Y543281I1760J3843*
G01*
G37*
X203701D02*
G36*
X202154D01*
G75*
G02X199687Y539439I-4226*
G01*
X206167*
G75*
G02X203701Y543281I1760J3843*
G01*
G37*
X213701D02*
G36*
X212154D01*
G75*
G02X209687Y539439I-4226*
G01*
X215919*
G75*
G02X216226Y539412J-1776*
G01*
G75*
G02X213701Y543281I1702J3870*
G01*
G37*
X279991D02*
G36*
X252154D01*
G75*
G02X243701I-4226*
G01*
X242154*
G75*
G02X233701I-4226*
G01*
X232154*
G75*
G02X223701I-4226*
G01*
X222154*
Y543281*
G75*
G02X216796Y539209I-4226*
G01*
G75*
G02X217185Y538913I-875J-1557*
G01*
X232142Y523957*
G75*
G02X232667Y522691I-1262J-1266*
G01*
Y518656*
X299421*
Y543281*
X295548*
G75*
G02X279991I-7779J10276*
G01*
G37*
X110660D02*
G36*
G75*
G02X106433Y548872I7779J10276D01*
G01*
Y543281*
X110660*
G37*
X274885Y553281D02*
G36*
X252524D01*
G75*
G02X243331I-4596*
G01*
X242524*
G75*
G02X233331I-4596*
G01*
X232154*
G75*
G02X223701I-4226*
G01*
X222524*
G75*
G02X213331I-4596*
G01*
X212524*
G75*
G02X203331I-4596*
G01*
X202524*
G75*
G02X193331I-4596*
G01*
X192524*
G75*
G02X183331I-4596*
G01*
X182154*
G75*
G02X174636Y550630I-4226*
G01*
Y545933*
G75*
G02X182154Y543281I3291J-2651*
G01*
X183701*
G75*
G02X192154I4226*
G01*
X193701*
G75*
G02X202154I4226*
G01*
X203701*
G75*
G02X212154I4226*
G01*
X213701*
G75*
G02X222154I4226*
G01*
X223701*
G75*
G02X232154I4226*
G01*
X233701*
G75*
G02X242154I4226*
G01*
X243701*
G75*
G02X252154I4226*
G01*
X279991*
G75*
G02X274885Y553281I7779J10276*
G01*
G37*
X163701D02*
G36*
X162154D01*
G75*
G02X153701I-4226*
G01*
X131324*
G75*
G02X126218Y543281I-12885J276*
G01*
X153701*
G75*
G02X162154I4226*
G01*
X163331*
G75*
G02X171376Y546320I4596*
G01*
Y550839*
G75*
G02X163701Y553281I-3449J2443*
G01*
G37*
X299421Y548049D02*
G36*
G75*
G02X295548Y543281I-11652J5508D01*
G01*
X299421*
Y548049*
G37*
X282346Y565248D02*
G36*
X123863D01*
G75*
G02X131327Y553557I-5424J-11691*
G01*
G75*
G02X131324Y553281I-12891J9*
G01*
X153701*
G75*
G02X162154I4226*
G01*
X163701*
Y553282*
G75*
G02X171963Y554535I4226*
G01*
G75*
G02X173006Y554911I1041J-1250*
G01*
X174028*
G75*
G02X182154Y553281I3900J-1630*
G01*
X183331*
G75*
G02X192524I4596*
G01*
X193331*
G75*
G02X202524I4596*
G01*
X203331*
G75*
G02X212524I4596*
G01*
X213331*
G75*
G02X222524I4596*
G01*
X223701*
G75*
G02X232154I4226*
G01*
X233331*
G75*
G02X242524I4596*
G01*
X243331*
G75*
G02X252524I4596*
G01*
X274885*
G75*
G02X274882Y553557I12898J267*
G01*
G75*
G02X282346Y565248I12888*
G01*
G37*
X357313Y421553D02*
Y392431D01*
X364350*
Y399394*
X359709*
Y405831*
X364768*
Y404279*
G75*
G02X365630Y405335I3120J-1667*
G01*
Y405461*
X365790*
G75*
G02X370789Y404636I2098J-2848*
G01*
X372222*
Y407675*
X371713*
X371010Y406973*
G75*
G02X369856Y406494I-1154J1151*
G01*
X369358*
Y406457*
X359331*
Y409791*
X369219*
X369883Y410456*
G75*
G02X371037Y410935I1154J-1151*
G01*
X371629*
G75*
G02X371065Y411304I589J1520*
G01*
X369728Y412640*
Y410811*
X358961*
Y414886*
X367482*
X366463Y415906*
X359331*
Y419240*
X369358*
Y417620*
X372222Y414756*
Y417665*
X374376*
Y421553*
X367587*
Y421024*
X361890*
Y421553*
X357313*
G36*
Y392431*
X364350*
Y399394*
X359709*
Y405831*
X364768*
Y404279*
G75*
G02X365630Y405335I3120J-1667*
G01*
Y405461*
X365790*
G75*
G02X370789Y404636I2098J-2848*
G01*
X372222*
Y407675*
X371713*
X371010Y406973*
G75*
G02X369856Y406494I-1154J1151*
G01*
X369358*
Y406457*
X359331*
Y409791*
X369219*
X369883Y410456*
G75*
G02X371037Y410935I1154J-1151*
G01*
X371629*
G75*
G02X371065Y411304I589J1520*
G01*
X369728Y412640*
Y410811*
X358961*
Y414886*
X367482*
X366463Y415906*
X359331*
Y419240*
X369358*
Y417620*
X372222Y414756*
Y417665*
X374376*
Y421553*
X367587*
Y421024*
X361890*
Y421553*
X357313*
G37*
X379789Y417112D02*
Y391679D01*
X401283*
Y392049*
X405593*
Y417482*
X384098*
Y417112*
X379789*
G36*
Y391679*
X401283*
Y392049*
X405593*
Y417482*
X384098*
Y417112*
X379789*
G37*
X496522Y548613D02*
G75*
G02X471732Y553557I-11902J4944D01*
G01*
G75*
G02X479772Y565498I12888*
G01*
X320138*
G75*
G02X315289Y540669I-4848J-11941*
G01*
G75*
G02X303033Y549571I0J12888*
G01*
Y357543*
G75*
G02X328177Y353557I12256J-3986*
G01*
G75*
G02X319275Y341301I-12888J0*
G01*
X480634*
G75*
G02X484620Y366445I3986J12256*
G01*
G75*
G02X496522Y358502J-12888*
G01*
Y548613*
X479291Y462848D02*
G75*
G02X487744I4226D01*
G01*
G75*
G02X479291I-4226*
G01*
X480079Y415211D02*
G75*
G02X488531I4226D01*
G01*
G75*
G02X480079I-4226*
G01*
X480472Y388489D02*
G75*
G02X488925I4226D01*
G01*
G75*
G02X480472I-4226*
G01*
X480079Y438833D02*
G75*
G02X488531I4226D01*
G01*
G75*
G02X480079I-4226*
G01*
X479291Y486077D02*
G75*
G02X487744I4226D01*
G01*
G75*
G02X479291I-4226*
G01*
Y510093D02*
G75*
G02X487744I4226D01*
G01*
G75*
G02X479291I-4226*
G01*
X333110Y504974D02*
G75*
G02X341563I4226D01*
G01*
G75*
G02X333110I-4226*
G01*
X333504Y384305D02*
G75*
G02X341957I4226D01*
G01*
G75*
G02X333504I-4226*
G01*
X342352Y355362D02*
X343276D01*
Y349862*
X338169*
Y355362*
X339093*
Y360012*
G75*
G02X338661Y361274I1630J1261*
G01*
G75*
G02X342783I2061*
G01*
G75*
G02X342352Y360012I-2061*
G01*
Y355362*
X333504Y409305D02*
G75*
G02X341957I4226D01*
G01*
G75*
G02X333504I-4226*
G01*
Y434502D02*
G75*
G02X341957I4226D01*
G01*
G75*
G02X333504I-4226*
G01*
Y458124D02*
G75*
G02X341957I4226D01*
G01*
G75*
G02X333504I-4226*
G01*
Y481746D02*
G75*
G02X341957I4226D01*
G01*
G75*
G02X333504I-4226*
G01*
X446309Y407232D02*
X446839D01*
Y399567*
X442520*
Y407232*
X443049*
Y416730*
X422894*
X414317Y408154*
G75*
G02X413753Y407785I-1154J1151*
G01*
X420644*
G75*
G02X422274Y406156J-1630*
G01*
Y405030*
X427520*
Y407232*
X431839*
Y399567*
X427520*
Y401770*
X420644*
G75*
G02X419014Y403400J1630*
G01*
Y404526*
X415737*
G75*
G02Y401486I-1392J-1520*
G01*
X416626*
G75*
G02X419280Y398337I1261J-1630*
G01*
X421351*
G75*
G02X424673Y396707I1261J-1630*
G01*
G75*
G02X421351Y395077I-2061*
G01*
X421114*
G75*
G02X421880Y393695I-864J-1382*
G01*
Y390801*
G75*
G02X420319Y389173I-1630*
G01*
Y385614*
X413882*
Y388821*
X409675Y384614*
Y373165*
G75*
G02X410106Y371904I-1630J-1261*
G01*
G75*
G02X405984I-2061*
G01*
G75*
G02X406415Y373165I2061*
G01*
Y385289*
G75*
G02X406894Y386443I1630*
G01*
X411947Y391496*
X406146*
Y383742*
X402195*
Y383401*
G75*
G02X399045Y380748I-1630J-1261*
G01*
Y379858*
G75*
G02X395896Y377204I-1630J-1261*
G01*
Y376315*
G75*
G02X396327Y375053I-1630J-1261*
G01*
G75*
G02X392205I-2061*
G01*
G75*
G02X392636Y376315I2061*
G01*
Y382731*
G75*
G02X392267Y382167I-1520J589*
G01*
X384396Y374296*
G75*
G02X383242Y373817I-1154J1151*
G01*
X352220*
G75*
G02X349567Y376967I-1261J1630*
G01*
X348677*
G75*
G02X345354Y378596I-1261J1630*
G01*
G75*
G02X348487Y380357I2061*
G01*
G75*
G02X348148Y381352I1291J995*
G01*
Y414387*
G75*
G02X345610Y416392I-476J2005*
G01*
G75*
G02X348933Y418022I2061*
G01*
X349778*
G75*
G02X350904Y417570J-1630*
G01*
Y439540*
G75*
G02X354053Y442193I1630J1261*
G01*
Y446707*
G75*
G02X355683Y448337I1630*
G01*
X368280*
G75*
G02X370549Y450606I3900J-1630*
G01*
Y465642*
G75*
G02Y473441I1630J3900*
G01*
Y487689*
G75*
G02X367953Y491589I1630J3900*
G01*
G75*
G02X376406I4226*
G01*
G75*
G02X373809Y487689I-4226*
G01*
Y473441*
G75*
G02Y465642I-1630J-3900*
G01*
Y450606*
G75*
G02X376406Y446707I-1630J-3900*
G01*
G75*
G02X368280Y445077I-4226*
G01*
X357313*
Y424813*
X361890*
Y425343*
X367587*
Y424813*
X376006*
G75*
G02X377636Y423183J-1630*
G01*
Y417665*
X379236*
Y425419*
X383187*
Y426929*
X382008*
Y432626*
X386327*
Y430392*
G75*
G02X386337Y430367I-1512J-614*
G01*
Y433039*
X381711Y437665*
G75*
G02X380549Y439226I468J1561*
G01*
Y442807*
G75*
G02Y450606I1630J3900*
G01*
Y465642*
G75*
G02Y473441I1630J3900*
G01*
Y487689*
G75*
G02X377953Y491589I1630J3900*
G01*
G75*
G02X386406I4226*
G01*
G75*
G02X383809Y487689I-4226*
G01*
Y473441*
G75*
G02Y465642I-1630J-3900*
G01*
Y450606*
G75*
G02Y442807I-1630J-3900*
G01*
Y440177*
X389118Y434869*
G75*
G02X389486Y434304I-1151J-1154*
G01*
Y443449*
G75*
G02X390549Y450606I2693J3257*
G01*
Y465642*
G75*
G02Y473441I1630J3900*
G01*
Y487689*
G75*
G02X387953Y491589I1630J3900*
G01*
G75*
G02X395392Y494335I4226*
G01*
Y512613*
G75*
G02X387559Y514817I-3606J2204*
G01*
G75*
G02X395392Y517021I4226*
G01*
Y527969*
G75*
G02X394961Y529230I1630J1261*
G01*
G75*
G02X399083I2061*
G01*
G75*
G02X398652Y527969I-2061*
G01*
Y518180*
G75*
G02X406382Y514817I3134J-3363*
G01*
G75*
G02X398652Y511454I-4596*
G01*
Y494535*
G75*
G02X406776Y491589I3528J-2947*
G01*
G75*
G02X398652Y488642I-4596*
G01*
Y472488*
G75*
G02X406776Y469541I3528J-2947*
G01*
G75*
G02X398652Y466594I-4596*
G01*
Y449654*
G75*
G02X406776Y446707I3528J-2947*
G01*
G75*
G02X398652Y443760I-4596*
G01*
Y440801*
G75*
G02X398173Y439647I-1630*
G01*
X395896Y437370*
Y435879*
G75*
G02X397415Y436919I1520J-589*
G01*
X399304*
G75*
G02X402626Y435289I1261J-1630*
G01*
G75*
G02X399304Y433659I-2061*
G01*
X399045*
Y431170*
G75*
G02X402195Y428516I1520J-1392*
G01*
Y425249*
G75*
G02X402563Y425813I1520J-589*
G01*
X421376Y444626*
Y522016*
X411307Y532085*
X369856*
G75*
G02X368226Y533715J1630*
G01*
Y540243*
G75*
G02X360181Y543281I-3449J3039*
G01*
G75*
G02X368226Y546320I4596*
G01*
Y550839*
G75*
G02X360551Y553281I-3449J2443*
G01*
G75*
G02X368814Y554535I4226*
G01*
G75*
G02X369856Y554911I1042J-1253*
G01*
X370878*
G75*
G02X379004Y553281I3900J-1630*
G01*
G75*
G02X371486Y550630I-4226*
G01*
Y545933*
G75*
G02X379004Y543281I3291J-2651*
G01*
G75*
G02X371486Y540630I-4226*
G01*
Y535344*
X411982*
G75*
G02X412731Y535162J-1630*
G01*
X412029Y535864*
X390289*
G75*
G02X389023Y536390J1787*
G01*
X386134Y539279*
G75*
G02X380551Y543281I-1357J4003*
G01*
G75*
G02X389004I4226*
G01*
G75*
G02X388717Y541752I-4226*
G01*
X391030Y539439*
X393018*
G75*
G02X390551Y543281I1760J3843*
G01*
G75*
G02X399004I4226*
G01*
G75*
G02X396537Y539439I-4226*
G01*
X403018*
G75*
G02X400551Y543281I1760J3843*
G01*
G75*
G02X409004I4226*
G01*
G75*
G02X406537Y539439I-4226*
G01*
X412770*
G75*
G02X413077Y539412I-1J-1787*
G01*
G75*
G02X410551Y543281I1701J3869*
G01*
G75*
G02X419004I4226*
G01*
G75*
G02X413646Y539209I-4226*
G01*
G75*
G02X414036Y538913I-876J-1558*
G01*
X428992Y523957*
G75*
G02X429518Y522691I-1262J-1266*
G01*
Y427809*
G75*
G02X428992Y426543I-1787*
G01*
X422439Y419990*
X444679*
G75*
G02X446309Y418360J-1630*
G01*
Y407232*
X376087Y432996D02*
X381146D01*
Y426559*
X376087*
Y432996*
X361520Y431264D02*
X367957D01*
Y426205*
X361520*
Y431264*
X384835Y526289D02*
G75*
G02X388157Y524659I1261J-1630D01*
G01*
G75*
G02X384835Y523030I-2061*
G01*
X373415*
Y518717*
G75*
G02X376012Y514817I-1630J-3900*
G01*
G75*
G02X367559I-4226*
G01*
G75*
G02X370156Y518717I4226*
G01*
Y524659*
G75*
G02X371785Y526289I1630*
G01*
X384835*
X377559Y514817D02*
G75*
G02X386012I4226D01*
G01*
G75*
G02X377559I-4226*
G01*
X437776Y428197D02*
X442882D01*
Y422697*
X437776*
Y423817*
X432141*
G75*
G02X428819Y425447I-1261J1630*
G01*
G75*
G02X432141Y427077I2061*
G01*
X437776*
Y428197*
X432520Y407232D02*
X436839D01*
Y399567*
X432520*
Y407232*
X441624Y377508D02*
X441996D01*
Y371811*
X441467*
Y370329*
G75*
G02X439845Y368699I-1630*
G01*
G75*
G02X441946Y365046I-2125J-3653*
G01*
G75*
G02X433494I-4226*
G01*
G75*
G02X435595Y368699I4226*
G01*
X429845*
G75*
G02X431946Y365046I-2125J-3653*
G01*
G75*
G02X424242Y362644I-4226*
G01*
Y360445*
X425851Y358836*
G75*
G02X431946Y355046I1869J-3791*
G01*
G75*
G02X423494I-4226*
G01*
G75*
G02X423707Y356370I4227*
G01*
X421461Y358616*
G75*
G02X420982Y359770I1151J1154*
G01*
Y361807*
G75*
G02X413379Y363534I-3262J3238*
G01*
G75*
G02X412770Y363416I-609J1511*
G01*
X411620*
G75*
G02X403494Y365046I-3900J1630*
G01*
G75*
G02X411140Y367529I4226*
G01*
Y380171*
G75*
G02X412770Y381801I1630*
G01*
X423344*
Y392376*
G75*
G02X424974Y394006I1630*
G01*
X430598*
X432636Y396043*
G75*
G02X432618Y396313I2043J270*
G01*
G75*
G02X436740I2061*
G01*
G75*
G02X435762Y394559I-2061*
G01*
X432428Y391225*
G75*
G02X431274Y390746I-1154J1151*
G01*
X426604*
Y380171*
G75*
G02X424974Y378541I-1630*
G01*
X414400*
Y368224*
G75*
G02X420982Y368284I3320J-3178*
G01*
Y374659*
G75*
G02X422612Y376289I1630*
G01*
X432126*
Y377508*
X433049*
Y378307*
X432520*
Y385972*
X436839*
Y378307*
X436309*
Y377508*
X436445*
Y371959*
X437677*
Y377508*
X438049*
Y378307*
X437520*
Y385972*
X441839*
Y378307*
X441624*
Y377508*
X427520Y385972D02*
X431839D01*
Y378307*
X427520*
Y385972*
X433494Y355046D02*
G75*
G02X441946I4226D01*
G01*
G75*
G02X433494I-4226*
G01*
X413124D02*
G75*
G02X422317I4596D01*
G01*
G75*
G02X413124I-4596*
G01*
X437150Y407602D02*
X442209D01*
Y399197*
X437150*
Y407602*
X449843Y384594D02*
X454161D01*
Y378898*
X449843*
Y380510*
X446839*
Y378307*
X442520*
Y385972*
X446839*
Y383770*
X449843*
Y384594*
X443494Y365046D02*
G75*
G02X451946I4226D01*
G01*
G75*
G02X451100Y362508I-4226*
G01*
Y357583*
G75*
G02X451946Y355046I-3380J-2537*
G01*
G75*
G02X443494I-4226*
G01*
G75*
G02X444340Y357583I4226*
G01*
Y362508*
G75*
G02X443494Y365046I3380J2537*
G01*
X403494Y355046D02*
G75*
G02X411946I4226D01*
G01*
G75*
G02X403494I-4226*
G01*
X350551Y543281D02*
G75*
G02X359004I4226D01*
G01*
G75*
G02X350551I-4226*
G01*
Y553281D02*
G75*
G02X359004I4226D01*
G01*
G75*
G02X350551I-4226*
G01*
X380181D02*
G75*
G02X389374I4596D01*
G01*
G75*
G02X380181I-4596*
G01*
X390181D02*
G75*
G02X399374I4596D01*
G01*
G75*
G02X390181I-4596*
G01*
X400181D02*
G75*
G02X409374I4596D01*
G01*
G75*
G02X400181I-4596*
G01*
X410181D02*
G75*
G02X419374I4596D01*
G01*
G75*
G02X410181I-4596*
G01*
X420551Y543281D02*
G75*
G02X429004I4226D01*
G01*
G75*
G02X420551I-4226*
G01*
Y553281D02*
G75*
G02X429004I4226D01*
G01*
G75*
G02X420551I-4226*
G01*
X430181D02*
G75*
G02X439374I4596D01*
G01*
G75*
G02X430181I-4596*
G01*
X430551Y543281D02*
G75*
G02X439004I4226D01*
G01*
G75*
G02X430551I-4226*
G01*
X440181Y553281D02*
G75*
G02X449374I4596D01*
G01*
G75*
G02X440181I-4596*
G01*
X440551Y543281D02*
G75*
G02X449004I4226D01*
G01*
G75*
G02X440551I-4226*
G01*
X443705Y428567D02*
X449551D01*
Y422327*
X443705*
Y428567*
X455024Y384965D02*
X460083D01*
Y378528*
X455024*
Y384965*
X469291Y462848D02*
G75*
G02X477744I4226D01*
G01*
G75*
G02X469291I-4226*
G01*
X470079Y415211D02*
G75*
G02X478531I4226D01*
G01*
G75*
G02X470079I-4226*
G01*
X470472Y388489D02*
G75*
G02X478925I4226D01*
G01*
G75*
G02X470472I-4226*
G01*
X470079Y438833D02*
G75*
G02X478531I4226D01*
G01*
G75*
G02X470079I-4226*
G01*
X469291Y486077D02*
G75*
G02X477744I4226D01*
G01*
G75*
G02X469291I-4226*
G01*
Y510093D02*
G75*
G02X477744I4226D01*
G01*
G75*
G02X469291I-4226*
G01*
X322740Y504974D02*
G75*
G02X331933I4596D01*
G01*
G75*
G02X322740I-4596*
G01*
X323134Y384305D02*
G75*
G02X332327I4596D01*
G01*
G75*
G02X323134I-4596*
G01*
X331500Y355732D02*
X337346D01*
Y349492*
X331500*
Y355732*
X323134Y409305D02*
G75*
G02X332327I4596D01*
G01*
G75*
G02X323134I-4596*
G01*
Y434502D02*
G75*
G02X332327I4596D01*
G01*
G75*
G02X323134I-4596*
G01*
Y458124D02*
G75*
G02X332327I4596D01*
G01*
G75*
G02X323134I-4596*
G01*
Y481746D02*
G75*
G02X332327I4596D01*
G01*
G75*
G02X323134I-4596*
G01*
X313110Y504974D02*
G75*
G02X321563I4226D01*
G01*
G75*
G02X313110I-4226*
G01*
X313504Y384305D02*
G75*
G02X321957I4226D01*
G01*
G75*
G02X313504I-4226*
G01*
Y409305D02*
G75*
G02X321957I4226D01*
G01*
G75*
G02X313504I-4226*
G01*
Y434502D02*
G75*
G02X321957I4226D01*
G01*
G75*
G02X313504I-4226*
G01*
Y458124D02*
G75*
G02X321957I4226D01*
G01*
G75*
G02X313504I-4226*
G01*
Y481746D02*
G75*
G02X321957I4226D01*
G01*
G75*
G02X313504I-4226*
G01*
X471767Y352612D02*
G36*
X451176D01*
G75*
G02X444265I-3456J2433*
G01*
X441176*
G75*
G02X434265I-3456J2433*
G01*
X431176*
G75*
G02X424265I-3456J2433*
G01*
X421620*
G75*
G02X413820I-3900J2433*
G01*
X411176*
G75*
G02X404265I-3456J2433*
G01*
X343276*
Y349862*
X338169*
Y352612*
X337346*
Y349492*
X331500*
Y352612*
X328143*
G75*
G02X319975Y341551I-12853J945*
G01*
X479935*
G75*
G02X471767Y352612I4685J12006*
G01*
G37*
X472096Y356598D02*
G36*
X451651D01*
G75*
G02X451946Y355046I-3933J-1554*
G01*
G75*
G02X451176Y352612I-4226*
G01*
X471767*
G75*
G02X471732Y353557I12855J944*
G01*
G75*
G02X472096Y356598I12889J-1*
G01*
G37*
X338169Y352612D02*
G36*
Y355362D01*
X339093*
Y356598*
X327813*
G75*
G02X328177Y353557I-12524J-3042*
G01*
G75*
G02X328143Y352612I-12889J0*
G01*
X331500*
Y355732*
X337346*
Y352612*
X338169*
G37*
X403789Y356598D02*
G36*
X342352D01*
Y355362*
X343276*
Y352612*
X404265*
G75*
G02X403494Y355046I3456J2433*
G01*
G75*
G02X403789Y356598I4226J0*
G01*
G37*
X413394D02*
G36*
X411651D01*
G75*
G02X411946Y355046I-3931J-1553*
G01*
G75*
G02X411176Y352612I-4226*
G01*
X413820*
G75*
G02X413124Y355046I3900J2433*
G01*
G75*
G02X413394Y356598I4596J0*
G01*
G37*
X423479D02*
G36*
X422046D01*
G75*
G02X422317Y355046I-4326J-1552*
G01*
G75*
G02X421620Y352612I-4596J0*
G01*
X424265*
G75*
G02X423494Y355046I3456J2433*
G01*
Y355046*
G75*
G02X423707Y356370I4224*
G01*
X423479Y356598*
G37*
X433789D02*
G36*
X431651D01*
G75*
G02X431946Y355046I-3931J-1553*
G01*
G75*
G02X431176Y352612I-4226*
G01*
X434265*
G75*
G02X433494Y355046I3456J2433*
G01*
G75*
G02X433789Y356598I4226J0*
G01*
G37*
X443789D02*
G36*
X441651D01*
G75*
G02X441946Y355046I-3931J-1553*
G01*
G75*
G02X441176Y352612I-4226*
G01*
X444265*
G75*
G02X443494Y355046I3456J2433*
G01*
G75*
G02X443789Y356598I4229J-1*
G01*
G37*
X423479D02*
G36*
X421461Y358616D01*
G75*
G02X420982Y359770I1150J1154*
G01*
Y359770*
Y361807*
G75*
G02X413379Y363534I-3262J3238*
G01*
G75*
G02X412770Y363416I-611J1521*
G01*
X411620*
G75*
G02X403494Y365046I-3900J1630*
G01*
G75*
G02X411140Y367529I4226*
G01*
Y380171*
G75*
G02X412770Y381801I1630*
G01*
X423344*
Y384305*
X409675*
Y373165*
G75*
G02X410106Y371904I-1628J-1261*
G01*
G75*
G02X405984Y371904I-2061J-1*
G01*
G75*
G02X406415Y373165I2059J1*
G01*
Y384305*
X406146*
Y383742*
X402195*
Y383401*
G75*
G02X402626Y382140I-1630J-1261*
G01*
G75*
G02X399045Y380748I-2061*
G01*
Y379858*
G75*
G02X399476Y378596I-1630J-1261*
G01*
G75*
G02X395896Y377204I-2061*
G01*
Y376315*
G75*
G02X396327Y375054I-1628J-1261*
G01*
G75*
G02Y375053I-2374J0*
G01*
G75*
G02X392205I-2061*
G01*
G75*
G02Y375054I2374J0*
G01*
G75*
G02X392636Y376315I2059*
G01*
Y382731*
G75*
G02X392267Y382167I-1519J589*
G01*
X384396Y374296*
G75*
G02X383242Y373817I-1154J1150*
G01*
X352220*
G75*
G02X348898Y375447I-1261J1630*
G01*
G75*
G02X349567Y376967I2061*
G01*
X348677*
G75*
G02X345354Y378596I-1261J1630*
G01*
G75*
G02X348487Y380357I2061J0*
G01*
G75*
G02X348148Y381352I1291J995*
G01*
Y384305*
X341957*
G75*
G02X333504I-4226*
G01*
X332327*
G75*
G02X323134I-4596*
G01*
X321957*
G75*
G02X313504I-4226*
G01*
X303283*
Y358243*
G75*
G02X327813Y356598I12006J-4685*
G01*
X339093*
Y360012*
G75*
G02X338661Y361273I1628J1261*
G01*
G75*
G02Y361274I2374J0*
G01*
G75*
G02X342783I2061*
G01*
G75*
G02Y361273I-2374J0*
G01*
G75*
G02X342352Y360012I-2059*
G01*
Y356598*
X403789*
G75*
G02X411651I3931J-1553*
G01*
X413394*
G75*
G02X422046I4326J-1553*
G01*
X423479*
G37*
X432520Y384305D02*
G36*
X431839D01*
Y378307*
X427520*
Y384305*
X426604*
Y380171*
G75*
G02X424974Y378541I-1630*
G01*
X414400*
Y368224*
G75*
G02X420982Y368284I3320J-3178*
G01*
Y374659*
G75*
G02X422612Y376289I1630*
G01*
X432126*
Y377508*
X433049*
Y378307*
X432520*
Y384305*
G37*
X437520D02*
G36*
X436839D01*
Y378307*
X436309*
Y377508*
X436445*
Y371959*
X437677*
Y377508*
X438049*
Y378307*
X437520*
Y384305*
G37*
X449843D02*
G36*
X446839D01*
Y383770*
X449843*
Y384305*
G37*
X496272Y359065D02*
G36*
Y384305D01*
X485300*
G75*
G02X484098I-601J4184*
G01*
X475300*
G75*
G02X474098I-601J4184*
G01*
X460083*
Y378528*
X455024*
Y384305*
X454161*
Y378898*
X449843*
Y380510*
X446839*
Y378307*
X442520*
Y384305*
X441839*
Y378307*
X441624*
Y377508*
X441996*
Y371811*
X441467*
Y370329*
G75*
G02X439845Y368699I-1630*
G01*
G75*
G02X441946Y365046I-2124J-3653*
G01*
Y365046*
G75*
G02X433494I-4226*
G01*
Y365046*
G75*
G02X435595Y368699I4226*
G01*
X429845*
G75*
G02X431946Y365046I-2124J-3653*
G01*
Y365046*
G75*
G02X424242Y362644I-4226*
G01*
Y360445*
X425851Y358836*
G75*
G02X431651Y356598I1869J-3791*
G01*
X433789*
G75*
G02X441651I3931J-1553*
G01*
X443789*
G75*
G02X444340Y357583I3933J-1554*
G01*
Y362508*
G75*
G02X443494Y365046I3382J2538*
G01*
G75*
G02X451946I4226*
G01*
G75*
G02X451100Y362508I-4229J1*
G01*
Y357583*
G75*
G02X451651Y356598I-3383J-2539*
G01*
X472096*
G75*
G02X484620Y366445I12524J-3041*
G01*
G75*
G02X496272Y359065J-12888*
G01*
G37*
X313504Y384305D02*
G36*
G75*
G02X317130Y388489I4226D01*
G01*
X303283*
Y384305*
X313504*
G37*
X323134D02*
G36*
G75*
G02X325826Y388489I4596D01*
G01*
X318331*
G75*
G02X321957Y384305I-601J-4183*
G01*
X323134*
G37*
X333504D02*
G36*
G75*
G02X337130Y388489I4226D01*
G01*
X329635*
G75*
G02X332327Y384305I-1904J-4183*
G01*
X333504*
G37*
X348148Y388489D02*
G36*
X338331D01*
G75*
G02X341957Y384305I-601J-4183*
G01*
X348148*
Y388489*
G37*
X408939D02*
G36*
X406146D01*
Y384305*
X406415*
Y385289*
Y385290*
G75*
G02X406894Y386443I1629*
G01*
X408939Y388489*
G37*
X423344D02*
G36*
X420319D01*
Y385614*
X413882*
Y388489*
X413550*
X409675Y384614*
Y384305*
X423344*
Y388489*
G37*
X470472D02*
G36*
X426604D01*
Y384305*
X427520*
Y385972*
X431839*
Y384305*
X432520*
Y385972*
X436839*
Y384305*
X437520*
Y385972*
X441839*
Y384305*
X442520*
Y385972*
X446839*
Y384305*
X449843*
Y384594*
X454161*
Y384305*
X455024*
Y384965*
X460083*
Y384305*
X474098*
G75*
G02X470472Y388489I601J4183*
G01*
G37*
X480472D02*
G36*
X478925D01*
G75*
G02X475300Y384305I-4226*
G01*
X484098*
G75*
G02X480472Y388489I601J4183*
G01*
G37*
X488925D02*
G36*
G75*
G02X485300Y384305I-4226D01*
G01*
X496272*
Y388489*
X488925*
G37*
X348148Y403400D02*
G36*
X303283D01*
Y388489*
X317130*
G75*
G02X318331I601J-4184*
G01*
X325826*
G75*
G02X329635I1904J-4184*
G01*
X337130*
G75*
G02X338331I601J-4184*
G01*
X348148*
Y403400*
G37*
X408939Y388489D02*
G36*
X411947Y391496D01*
X406146*
Y388489*
X408939*
G37*
X413882D02*
G36*
Y388821D01*
X413550Y388489*
X413882*
G37*
X446839Y403400D02*
G36*
Y399567D01*
X442520*
Y403400*
X442209*
Y399197*
X437150*
Y403400*
X436839*
Y399567*
X432520*
Y403400*
X431839*
Y399567*
X427520*
Y401770*
X420644*
G75*
G02X419014Y403400J1630*
G01*
X416368*
G75*
G02X416406Y403006I-2023J-393*
G01*
G75*
G02X415737Y401486I-2061*
G01*
X416626*
G75*
G02X419949Y399856I1261J-1630*
G01*
G75*
G02X419280Y398337I-2061*
G01*
X421351*
G75*
G02X424673Y396707I1261J-1630*
G01*
G75*
G02X421351Y395077I-2061*
G01*
X421114*
G75*
G02X421880Y393695I-865J-1383*
G01*
Y390801*
Y390801*
G75*
G02X420319Y389173I-1630*
G01*
Y388489*
X423344*
Y392376*
G75*
G02X424974Y394006I1630*
G01*
X430598*
X432636Y396043*
G75*
G02X432618Y396310I2001J267*
G01*
G75*
G02Y396313I1926J2*
G01*
G75*
G02X436740I2061*
G01*
G75*
G02X435762Y394559I-2061*
G01*
X432428Y391225*
G75*
G02X431274Y390746I-1154J1150*
G01*
X426604*
Y388489*
X470472*
G75*
G02X478925I4226*
G01*
X480472*
G75*
G02X488925I4226*
G01*
X496272*
Y403400*
X446839*
G37*
X348148D02*
G36*
Y409305D01*
X341957*
G75*
G02X333504I-4226*
G01*
X332327*
G75*
G02X323134I-4596*
G01*
X321957*
G75*
G02X313504I-4226*
G01*
X303283*
Y403400*
X348148*
G37*
X442520D02*
G36*
Y407232D01*
X443049*
Y409305*
X415469*
X414317Y408154*
G75*
G02X413753Y407785I-1153J1150*
G01*
X420644*
G75*
G02X422274Y406156J-1630*
G01*
Y405030*
X427520*
Y407232*
X431839*
Y403400*
X432520*
Y407232*
X436839*
Y403400*
X437150*
Y407602*
X442209*
Y403400*
X442520*
G37*
X419014D02*
G36*
Y404526D01*
X415737*
G75*
G02X416368Y403400I-1392J-1520*
G01*
X419014*
G37*
X446839D02*
G36*
X496272D01*
Y409305*
X446309*
Y407232*
X446839*
Y403400*
G37*
X345982Y415211D02*
G36*
X303283D01*
Y409305*
X313504*
G75*
G02X321957I4226*
G01*
X323134*
G75*
G02X332327I4596*
G01*
X333504*
G75*
G02X341957I4226*
G01*
X348148*
Y414387*
G75*
G02X345982Y415211I-476J2005*
G01*
G37*
X443049D02*
G36*
X421374D01*
X415469Y409305*
X443049*
Y415211*
G37*
X446309D02*
G36*
Y409305D01*
X496272*
Y415211*
X488531*
G75*
G02X480079I-4226*
G01*
X478531*
G75*
G02X470079I-4226*
G01*
X446309*
G37*
X345982D02*
G36*
G75*
G02X345610Y416392I1689J1181D01*
G01*
G75*
G02X348933Y418022I2061*
G01*
X349778*
G75*
G02X350904Y417570I-1J-1632*
G01*
Y425447*
X303283*
Y415211*
X345982*
G37*
X383187Y425447D02*
G36*
X357313D01*
Y424813*
X361890*
Y425343*
X367587*
Y424813*
X376006*
G75*
G02X377636Y423183J-1630*
G01*
Y417665*
X379236*
Y425419*
X383187*
Y425447*
G37*
X402287D02*
G36*
X402195D01*
Y425249*
G75*
G02X402287Y425447I1519J-589*
G01*
G37*
X443049Y415211D02*
G36*
Y416730D01*
X422894*
X421374Y415211*
X443049*
G37*
X449551Y425447D02*
G36*
Y422327D01*
X443705*
Y425447*
X442882*
Y422697*
X437776*
Y423817*
X432141*
G75*
G02X428819Y425447I-1261J1630*
G01*
X427896*
X422439Y419990*
X444679*
G75*
G02X446309Y418360J-1630*
G01*
Y415211*
X470079*
G75*
G02X478531I4226*
G01*
X480079*
G75*
G02X488531I4226*
G01*
X496272*
Y425447*
X449551*
G37*
X350904Y429778D02*
G36*
X303283D01*
Y425447*
X350904*
Y429778*
G37*
X382008D02*
G36*
X381146D01*
Y426559*
X376087*
Y429778*
X367957*
Y426205*
X361520*
Y429778*
X357313*
Y425447*
X383187*
Y426929*
X382008*
Y429778*
G37*
X406528D02*
G36*
X402626D01*
G75*
G02X402195Y428516I-2061*
G01*
Y425447*
X402287*
G75*
G02X402563Y425813I1426J-787*
G01*
X406528Y429778*
G37*
X442882Y425447D02*
G36*
X443705D01*
Y428567*
X449551*
Y425447*
X496272*
Y429778*
X429518*
Y427809*
G75*
G02X428992Y426543I-1788*
G01*
X427896Y425447*
X428819*
G75*
G02X432141Y427077I2061*
G01*
X437776*
Y428197*
X442882*
Y425447*
G37*
X350904Y434502D02*
G36*
X341957D01*
G75*
G02X333504I-4226*
G01*
X332327*
G75*
G02X323134I-4596*
G01*
X321957*
G75*
G02X313504I-4226*
G01*
X303283*
Y429778*
X350904*
Y434502*
G37*
X382008Y429778D02*
G36*
Y432626D01*
X386327*
Y430392*
G75*
G02X386337Y430367I-319J-141*
G01*
Y433039*
X384874Y434502*
X357313*
Y429778*
X361520*
Y431264*
X367957*
Y429778*
X376087*
Y432996*
X381146*
Y429778*
X382008*
G37*
X389486Y434502D02*
G36*
X389394D01*
G75*
G02X389486Y434304I-1426J-787*
G01*
Y434502*
G37*
X411252D02*
G36*
X402470D01*
G75*
G02X399304Y433659I-1905J787*
G01*
X399045*
Y431170*
G75*
G02X402626Y429778I1520J-1392*
G01*
X406528*
X411252Y434502*
G37*
X429518D02*
G36*
Y429778D01*
X496272*
Y434502*
X429518*
G37*
X323134D02*
G36*
G75*
G02X326190Y438833I4596D01*
G01*
X303283*
Y434502*
X313504*
G75*
G02X321957I4226*
G01*
X323134*
G37*
X350904Y438833D02*
G36*
X329270D01*
G75*
G02X332327Y434502I-1540J-4331*
G01*
X333504*
G75*
G02X341957I4226*
G01*
X350904*
Y438833*
G37*
X384874Y434502D02*
G36*
X381711Y437665D01*
G75*
G02X380598Y438833I469J1561*
G01*
X357313*
Y434502*
X384874*
G37*
X415583Y438833D02*
G36*
X397358D01*
X395896Y437370*
Y435879*
G75*
G02X397415Y436919I1520J-589*
G01*
X399304*
G75*
G02X402626Y435289I1261J-1630*
G01*
G75*
G02X402470Y434502I-2061*
G01*
X411252*
X415583Y438833*
G37*
X389486Y434502D02*
G36*
Y438833D01*
X385154*
X389118Y434869*
G75*
G02X389394Y434502I-1150J-1153*
G01*
X389486*
G37*
X429518Y438833D02*
G36*
Y434502D01*
X496272*
Y438833*
X488531*
G75*
G02X480079I-4226*
G01*
X478531*
G75*
G02X470079I-4226*
G01*
X429518*
G37*
X370549Y458124D02*
G36*
X341957D01*
G75*
G02X333504I-4226*
G01*
X332327*
G75*
G02X323134I-4596*
G01*
X321957*
G75*
G02X313504I-4226*
G01*
X303283*
Y438833*
X326190*
G75*
G02X329270I1540J-4331*
G01*
X350904*
Y439540*
G75*
G02X350472Y440801I1630J1261*
G01*
G75*
G02X354053Y442193I2061*
G01*
Y446707*
G75*
G02X355683Y448337I1630*
G01*
X368280*
G75*
G02X370549Y450606I3900J-1630*
G01*
Y458124*
G37*
X380598Y438833D02*
G36*
G75*
G02X380549Y439226I1582J394D01*
G01*
Y442807*
G75*
G02X377953Y446707I1630J3900*
G01*
G75*
G02X380549Y450606I4227*
G01*
Y458124*
X373809*
Y450606*
G75*
G02X376406Y446707I-1631J-3900*
G01*
G75*
G02X368280Y445077I-4226J0*
G01*
X357313*
Y438833*
X380598*
G37*
X421376Y458124D02*
G36*
X398652D01*
Y449654*
G75*
G02X406776Y446707I3528J-2947*
G01*
G75*
G02X398652Y443760I-4596J0*
G01*
Y440801*
Y440801*
G75*
G02X398173Y439647I-1629*
G01*
X397358Y438833*
X415583*
X421376Y444626*
Y458124*
G37*
X390549D02*
G36*
X383809D01*
Y450606*
G75*
G02X386406Y446707I-1630J-3900*
G01*
G75*
G02X383809Y442807I-4227*
G01*
Y440177*
X385154Y438833*
X389486*
Y443449*
G75*
G02X387953Y446707I2693J3257*
G01*
G75*
G02X390549Y450606I4226*
G01*
Y458124*
G37*
X429518D02*
G36*
Y438833D01*
X470079*
G75*
G02X478531I4226*
G01*
X480079*
G75*
G02X488531I4226*
G01*
X496272*
Y458124*
X429518*
G37*
X370549Y462848D02*
G36*
X303283D01*
Y458124*
X313504*
G75*
G02X321957I4226*
G01*
X323134*
G75*
G02X332327I4596*
G01*
X333504*
G75*
G02X341957I4226*
G01*
X370549*
Y462848*
G37*
X421376D02*
G36*
X398652D01*
Y458124*
X421376*
Y462848*
G37*
X380549D02*
G36*
X373809D01*
Y458124*
X380549*
Y462848*
G37*
X390549D02*
G36*
X383809D01*
Y458124*
X390549*
Y462848*
G37*
X429518D02*
G36*
Y458124D01*
X496272*
Y462848*
X487744*
G75*
G02X479291I-4226*
G01*
X477744*
G75*
G02X469291I-4226*
G01*
X429518*
G37*
X370549Y481746D02*
G36*
X341957D01*
G75*
G02X333504I-4226*
G01*
X332327*
G75*
G02X323134I-4596*
G01*
X321957*
G75*
G02X313504I-4226*
G01*
X303283*
Y462848*
X370549*
Y465642*
G75*
G02X367953Y469541I1630J3900*
G01*
G75*
G02X370549Y473441I4227*
G01*
Y481746*
G37*
X421376D02*
G36*
X398652D01*
Y472488*
G75*
G02X406776Y469541I3528J-2947*
G01*
G75*
G02X398652Y466594I-4596J0*
G01*
Y462848*
X421376*
Y481746*
G37*
X380549D02*
G36*
X373809D01*
Y473441*
G75*
G02X376406Y469541I-1630J-3900*
G01*
G75*
G02X373809Y465642I-4227*
G01*
Y462848*
X380549*
Y465642*
G75*
G02X377953Y469541I1630J3900*
G01*
G75*
G02X380549Y473441I4227*
G01*
Y481746*
G37*
X390549D02*
G36*
X383809D01*
Y473441*
G75*
G02X386406Y469541I-1630J-3900*
G01*
G75*
G02X383809Y465642I-4227*
G01*
Y462848*
X390549*
Y465642*
G75*
G02X387953Y469541I1630J3900*
G01*
G75*
G02X390549Y473441I4227*
G01*
Y481746*
G37*
X429518D02*
G36*
Y462848D01*
X469291*
G75*
G02X477744I4226*
G01*
X479291*
G75*
G02X487744I4226*
G01*
X496272*
Y481746*
X429518*
G37*
X323134D02*
G36*
G75*
G02X326190Y486077I4596D01*
G01*
X303283*
Y481746*
X313504*
G75*
G02X321957I4226*
G01*
X323134*
G37*
X370549Y486077D02*
G36*
X329270D01*
G75*
G02X332327Y481746I-1540J-4331*
G01*
X333504*
G75*
G02X341957I4226*
G01*
X370549*
Y486077*
G37*
X421376D02*
G36*
X398652D01*
Y481746*
X421376*
Y486077*
G37*
X380549D02*
G36*
X373809D01*
Y481746*
X380549*
Y486077*
G37*
X390549D02*
G36*
X383809D01*
Y481746*
X390549*
Y486077*
G37*
X429518D02*
G36*
Y481746D01*
X496272*
Y486077*
X487744*
G75*
G02X479291I-4226*
G01*
X477744*
G75*
G02X469291I-4226*
G01*
X429518*
G37*
X395392Y504974D02*
G36*
X341563D01*
G75*
G02X333110I-4226*
G01*
X331933*
G75*
G02X322740I-4596*
G01*
X321563*
G75*
G02X313110I-4226*
G01*
X303283*
Y486077*
X326190*
G75*
G02X329270I1540J-4331*
G01*
X370549*
Y487689*
G75*
G02X367953Y491589I1631J3900*
G01*
G75*
G02X376406I4226*
G01*
G75*
G02Y491588I-5013J0*
G01*
G75*
G02X373809Y487689I-4226*
G01*
Y486077*
X380549*
Y487689*
G75*
G02X377953Y491589I1631J3900*
G01*
G75*
G02X386406I4226*
G01*
G75*
G02Y491588I-5013J0*
G01*
G75*
G02X383809Y487689I-4226*
G01*
Y486077*
X390549*
Y487689*
G75*
G02X387953Y491589I1631J3900*
G01*
G75*
G02X395392Y494335I4226J0*
G01*
Y504974*
G37*
X421376D02*
G36*
X398652D01*
Y494535*
G75*
G02X406776Y491589I3528J-2947*
G01*
G75*
G02X398652Y488642I-4596J0*
G01*
Y486077*
X421376*
Y504974*
G37*
X429518D02*
G36*
Y486077D01*
X469291*
G75*
G02X477744I4226*
G01*
X479291*
G75*
G02X487744I4226*
G01*
X496272*
Y504974*
X429518*
G37*
X395392Y510093D02*
G36*
X303283D01*
Y504974*
X313110*
G75*
G02X321563I4226*
G01*
X322740*
G75*
G02X331933I4596*
G01*
X333110*
G75*
G02X341563I4226*
G01*
X395392*
Y510093*
G37*
X421376D02*
G36*
X398652D01*
Y504974*
X421376*
Y510093*
G37*
X429518D02*
G36*
Y504974D01*
X496272*
Y510093*
X487744*
G75*
G02X479291I-4226*
G01*
X477744*
G75*
G02X469291I-4226*
G01*
X429518*
G37*
X395392D02*
G36*
Y512613D01*
G75*
G02X387559Y514817I-3606J2204*
G01*
G75*
G02X390017Y518656I4226*
G01*
X383554*
G75*
G02X386012Y514817I-1769J-3839*
G01*
G75*
G02X377559I-4226*
G01*
G75*
G02X380017Y518656I4226*
G01*
X373554*
G75*
G02X376012Y514817I-1770J-3839*
G01*
G75*
G02X367559I-4226*
G01*
G75*
G02Y514818I5013J0*
G01*
G75*
G02X370017Y518656I4226*
G01*
X303283*
Y510093*
X395392*
G37*
X421376Y518656D02*
G36*
X404314D01*
G75*
G02X406382Y514817I-2528J-3839*
G01*
G75*
G02X398652Y511454I-4596*
G01*
Y510093*
X421376*
Y518656*
G37*
X395392D02*
G36*
X393554D01*
G75*
G02X395392Y517021I-1769J-3838*
G01*
Y518656*
G37*
X399257D02*
G36*
X398652D01*
Y518180*
G75*
G02X399257Y518656I3134J-3364*
G01*
G37*
X429518D02*
G36*
Y510093D01*
X469291*
G75*
G02X477744I4226*
G01*
X479291*
G75*
G02X487744I4226*
G01*
X496272*
Y518656*
X429518*
G37*
X421376D02*
G36*
Y522016D01*
X411307Y532085*
X369856*
G75*
G02X368226Y533715J1630*
G01*
Y540243*
G75*
G02X360181Y543281I-3449J3039*
G01*
X359004*
G75*
G02X350551I-4226*
G01*
X323068*
G75*
G02X315289Y540669I-7779J10276*
G01*
G75*
G02X307511Y543281J12888*
G01*
X303283*
Y518656*
X370017*
G75*
G02X370156Y518717I1768J-3838*
G01*
Y524659*
G75*
G02X371785Y526289I1630*
G01*
X384835*
G75*
G02X388157Y524659I1261J-1630*
G01*
G75*
G02X384835Y523030I-2061*
G01*
X373415*
Y518717*
G75*
G02X373554Y518656I-1631J-3903*
G01*
X380017*
G75*
G02X383554I1769J-3839*
G01*
X390017*
G75*
G02X393554I1769J-3839*
G01*
X395392*
Y527969*
G75*
G02X394961Y529230I1628J1261*
G01*
G75*
G02X399083Y529230I2061J1*
G01*
G75*
G02X398652Y527969I-2059J-1*
G01*
Y518656*
X399257*
G75*
G02X404314I2528J-3839*
G01*
X421376*
G37*
X380551Y543281D02*
G36*
X379004D01*
G75*
G02X371486Y540630I-4226*
G01*
Y535344*
X411982*
G75*
G02X412731Y535162I1J-1626*
G01*
X412029Y535864*
X390289*
G75*
G02X389023Y536390J1788*
G01*
X386134Y539279*
G75*
G02X380551Y543281I-1357J4002*
G01*
Y543281*
G37*
X390551D02*
G36*
X389004D01*
G75*
G02X388717Y541752I-4235J2*
G01*
X391030Y539439*
X393018*
G75*
G02X390551Y543281I1760J3843*
G01*
G37*
X400551D02*
G36*
X399004D01*
G75*
G02X396537Y539439I-4226*
G01*
X403018*
G75*
G02X400551Y543281I1760J3843*
G01*
G37*
X410551D02*
G36*
X409004D01*
G75*
G02X406537Y539439I-4226*
G01*
X412770*
G75*
G02X413077Y539412J-1776*
G01*
G75*
G02X410551Y543281I1702J3870*
G01*
G37*
X476841D02*
G36*
X449004D01*
G75*
G02X440551I-4226*
G01*
X439004*
G75*
G02X430551I-4226*
G01*
X429004*
G75*
G02X420551I-4226*
G01*
X419004*
Y543281*
G75*
G02X413646Y539209I-4226*
G01*
G75*
G02X414036Y538913I-875J-1557*
G01*
X428992Y523957*
G75*
G02X429518Y522691I-1262J-1266*
G01*
Y518656*
X496272*
Y543281*
X492399*
G75*
G02X476841I-7779J10276*
G01*
G37*
X307511D02*
G36*
G75*
G02X303283Y548872I7779J10276D01*
G01*
Y543281*
X307511*
G37*
X471735Y553281D02*
G36*
X449374D01*
G75*
G02X440181I-4596*
G01*
X439374*
G75*
G02X430181I-4596*
G01*
X429004*
G75*
G02X420551I-4226*
G01*
X419374*
G75*
G02X410181I-4596*
G01*
X409374*
G75*
G02X400181I-4596*
G01*
X399374*
G75*
G02X390181I-4596*
G01*
X389374*
G75*
G02X380181I-4596*
G01*
X379004*
G75*
G02X371486Y550630I-4226*
G01*
Y545933*
G75*
G02X379004Y543281I3291J-2651*
G01*
X380551*
G75*
G02X389004I4226*
G01*
X390551*
G75*
G02X399004I4226*
G01*
X400551*
G75*
G02X409004I4226*
G01*
X410551*
G75*
G02X419004I4226*
G01*
X420551*
G75*
G02X429004I4226*
G01*
X430551*
G75*
G02X439004I4226*
G01*
X440551*
G75*
G02X449004I4226*
G01*
X476841*
G75*
G02X471735Y553281I7779J10276*
G01*
G37*
X360551D02*
G36*
X359004D01*
G75*
G02X350551I-4226*
G01*
X328174*
G75*
G02X323068Y543281I-12885J276*
G01*
X350551*
G75*
G02X359004I4226*
G01*
X360181*
G75*
G02X368226Y546320I4596*
G01*
Y550839*
G75*
G02X360551Y553281I-3449J2443*
G01*
G37*
X496272Y548049D02*
G36*
G75*
G02X492399Y543281I-11652J5508D01*
G01*
X496272*
Y548049*
G37*
X479196Y565248D02*
G36*
X320713D01*
G75*
G02X328177Y553557I-5424J-11691*
G01*
G75*
G02X328174Y553281I-12891J9*
G01*
X350551*
G75*
G02X359004I4226*
G01*
X360551*
Y553282*
G75*
G02X368814Y554535I4226*
G01*
G75*
G02X369856Y554911I1041J-1250*
G01*
X370878*
G75*
G02X379004Y553281I3900J-1630*
G01*
X380181*
G75*
G02X389374I4596*
G01*
X390181*
G75*
G02X399374I4596*
G01*
X400181*
G75*
G02X409374I4596*
G01*
X410181*
G75*
G02X419374I4596*
G01*
X420551*
G75*
G02X429004I4226*
G01*
X430181*
G75*
G02X439374I4596*
G01*
X440181*
G75*
G02X449374I4596*
G01*
X471735*
G75*
G02X471732Y553557I12898J267*
G01*
G75*
G02X479196Y565248I12888*
G01*
G37*
D02*
D25*
X127640Y504974D02*
X125640D01*
X128033Y384305D02*
X126033D01*
X128033Y409305D02*
X126033D01*
X128033Y434502D02*
X126033D01*
X128033Y458124D02*
X126033D01*
X128033Y481746D02*
X126033D01*
X130486Y502128D02*
Y500128D01*
Y507821D02*
Y509821D01*
X130880Y381459D02*
Y379459D01*
Y387152D02*
Y389152D01*
Y406459D02*
Y404459D01*
Y412152D02*
Y414152D01*
Y431656D02*
Y429656D01*
Y437348D02*
Y439348D01*
Y455278D02*
Y453278D01*
Y460970D02*
Y462970D01*
Y478900D02*
Y476900D01*
Y484593D02*
Y486593D01*
X133333Y504974D02*
X135333D01*
X133726Y384305D02*
X135726D01*
X133726Y409305D02*
X135726D01*
X133726Y434502D02*
X135726D01*
X133726Y458124D02*
X135726D01*
X133726Y481746D02*
X135726D01*
X136400Y352612D02*
X134400D01*
X137573Y351242D02*
Y349242D01*
Y353982D02*
Y355982D01*
X138746Y352612D02*
X140746D01*
X164608Y402612D02*
X162608D01*
X165081Y543281D02*
X163081D01*
X165388Y401144D02*
Y399144D01*
Y404081D02*
Y406081D01*
X166419Y428734D02*
X164419D01*
X167060Y412415D02*
X165207Y410561D01*
X167060Y413282D02*
X165207Y415136D01*
X167888Y427955D02*
Y425955D01*
Y429514D02*
Y431514D01*
X167927Y540435D02*
Y538435D01*
Y546128D02*
Y548128D01*
X167928Y412415D02*
X169781Y410561D01*
X167928Y413282D02*
X169781Y415136D01*
X169356Y428734D02*
X171356D01*
X180986Y429778D02*
X178986D01*
X181766Y428309D02*
Y426309D01*
Y431246D02*
Y433246D01*
X182545Y429778D02*
X184545D01*
X184136Y421266D02*
X182136D01*
X184817Y418862D02*
Y416862D01*
Y423669D02*
Y425669D01*
X185081Y553281D02*
X183081D01*
X187927Y550435D02*
Y548435D01*
Y556128D02*
Y558128D01*
X190774Y553281D02*
X192774D01*
X195081D02*
X193081D01*
X197927Y550435D02*
Y548435D01*
Y556128D02*
Y558128D01*
X200774Y553281D02*
X202774D01*
X204935Y511970D02*
Y509970D01*
Y517663D02*
Y519663D01*
X205081Y553281D02*
X203081D01*
X205329Y443860D02*
Y441860D01*
Y449553D02*
Y451553D01*
Y466695D02*
Y464695D01*
Y472388D02*
Y474388D01*
Y488742D02*
Y486742D01*
Y494435D02*
Y496435D01*
X206864Y385492D02*
Y383492D01*
Y390299D02*
Y392299D01*
X207545Y387896D02*
X209545D01*
X207781Y514817D02*
X209781D01*
X207927Y550435D02*
Y548435D01*
Y556128D02*
Y558128D01*
X208175Y446707D02*
X210175D01*
X208175Y469541D02*
X210175D01*
X208175Y491589D02*
X210175D01*
X210774Y553281D02*
X212774D01*
X215081D02*
X213081D01*
X217927Y550435D02*
Y548435D01*
Y556128D02*
Y558128D01*
X218023Y355046D02*
X216023D01*
X218781Y388144D02*
X216781D01*
X220250Y387364D02*
Y385364D01*
X220774Y553281D02*
X222774D01*
X220870Y352199D02*
Y350199D01*
Y357892D02*
Y359892D01*
Y362199D02*
Y360199D01*
Y367892D02*
Y369892D01*
X221719Y388144D02*
X223719D01*
X223716Y355046D02*
X225716D01*
X235081Y553281D02*
X233081D01*
X237927Y550435D02*
Y548435D01*
Y556128D02*
Y558128D01*
X240774Y553281D02*
X242774D01*
X242829Y400947D02*
Y398947D01*
Y405852D02*
Y407852D01*
X245081Y553281D02*
X243081D01*
X247927Y550435D02*
Y548435D01*
Y556128D02*
Y558128D01*
X248604Y425447D02*
X246604D01*
X249778Y424077D02*
Y422077D01*
Y426817D02*
Y428817D01*
X250774Y553281D02*
X252774D01*
X250951Y425447D02*
X252951D01*
X259923Y381746D02*
X257923D01*
X260703Y380278D02*
Y378278D01*
Y383215D02*
Y385215D01*
X261482Y381746D02*
X263482D01*
X324490Y504974D02*
X322490D01*
X324884Y384305D02*
X322884D01*
X324884Y409305D02*
X322884D01*
X324884Y434502D02*
X322884D01*
X324884Y458124D02*
X322884D01*
X324884Y481746D02*
X322884D01*
X327337Y502128D02*
Y500128D01*
Y507821D02*
Y509821D01*
X327730Y381459D02*
Y379459D01*
Y387152D02*
Y389152D01*
Y406459D02*
Y404459D01*
Y412152D02*
Y414152D01*
Y431656D02*
Y429656D01*
Y437348D02*
Y439348D01*
Y455278D02*
Y453278D01*
Y460970D02*
Y462970D01*
Y478900D02*
Y476900D01*
Y484593D02*
Y486593D01*
X330183Y504974D02*
X332183D01*
X330577Y384305D02*
X332577D01*
X330577Y409305D02*
X332577D01*
X330577Y434502D02*
X332577D01*
X330577Y458124D02*
X332577D01*
X330577Y481746D02*
X332577D01*
X333250Y352612D02*
X331250D01*
X334423Y351242D02*
Y349242D01*
Y353982D02*
Y355982D01*
X335596Y352612D02*
X337596D01*
X361459Y402612D02*
X359459D01*
X361931Y543281D02*
X359931D01*
X362238Y401144D02*
Y399144D01*
Y404081D02*
Y406081D01*
X363270Y428734D02*
X361270D01*
X363911Y412415D02*
X362057Y410561D01*
X363911Y413282D02*
X362057Y415136D01*
X364738Y427955D02*
Y425955D01*
Y429514D02*
Y431514D01*
X364778Y540435D02*
Y538435D01*
Y546128D02*
Y548128D01*
X364778Y412415D02*
X366632Y410561D01*
X364778Y413282D02*
X366632Y415136D01*
X366207Y428734D02*
X368207D01*
X377837Y429778D02*
X375837D01*
X378616Y428309D02*
Y426309D01*
Y431246D02*
Y433246D01*
X379396Y429778D02*
X381396D01*
X380986Y421266D02*
X378986D01*
X381667Y418862D02*
Y416862D01*
Y423669D02*
Y425669D01*
X381931Y553281D02*
X379931D01*
X384778Y550435D02*
Y548435D01*
Y556128D02*
Y558128D01*
X387624Y553281D02*
X389624D01*
X391931D02*
X389931D01*
X394778Y550435D02*
Y548435D01*
Y556128D02*
Y558128D01*
X397624Y553281D02*
X399624D01*
X401785Y511970D02*
Y509970D01*
Y517663D02*
Y519663D01*
X401931Y553281D02*
X399931D01*
X402179Y443860D02*
Y441860D01*
Y449553D02*
Y451553D01*
Y466695D02*
Y464695D01*
Y472388D02*
Y474388D01*
Y488742D02*
Y486742D01*
Y494435D02*
Y496435D01*
X403715Y385492D02*
Y383492D01*
Y390299D02*
Y392299D01*
X404396Y387896D02*
X406396D01*
X404632Y514817D02*
X406632D01*
X404778Y550435D02*
Y548435D01*
Y556128D02*
Y558128D01*
X405026Y446707D02*
X407026D01*
X405026Y469541D02*
X407026D01*
X405026Y491589D02*
X407026D01*
X407624Y553281D02*
X409624D01*
X411931D02*
X409931D01*
X414778Y550435D02*
Y548435D01*
Y556128D02*
Y558128D01*
X414874Y355046D02*
X412874D01*
X415632Y388144D02*
X413632D01*
X417100Y387364D02*
Y385364D01*
X417624Y553281D02*
X419624D01*
X417720Y352199D02*
Y350199D01*
Y357892D02*
Y359892D01*
Y362199D02*
Y360199D01*
Y367892D02*
Y369892D01*
X418569Y388144D02*
X420569D01*
X420567Y355046D02*
X422567D01*
X431931Y553281D02*
X429931D01*
X434778Y550435D02*
Y548435D01*
Y556128D02*
Y558128D01*
X437624Y553281D02*
X439624D01*
X439679Y400947D02*
Y398947D01*
Y405852D02*
Y407852D01*
X441931Y553281D02*
X439931D01*
X444778Y550435D02*
Y548435D01*
Y556128D02*
Y558128D01*
X445455Y425447D02*
X443455D01*
X446628Y424077D02*
Y422077D01*
Y426817D02*
Y428817D01*
X447624Y553281D02*
X449624D01*
X447801Y425447D02*
X449801D01*
X456774Y381746D02*
X454774D01*
X457553Y380278D02*
Y378278D01*
Y383215D02*
Y385215D01*
X458333Y381746D02*
X460333D01*
D02*
D27*
X118439Y353557D03*
Y553557D03*
X287770Y353557D03*
Y553557D03*
X315289Y353557D03*
Y553557D03*
X484620Y353557D03*
Y553557D03*
D02*
D73*
X165388Y402612D03*
X170939D03*
X181766Y429778D03*
X187317D03*
X237435Y374659D03*
X242986D03*
X255152Y381746D03*
X260703D03*
X362238Y402612D03*
X367789D03*
X378616Y429778D03*
X384167D03*
X434285Y374659D03*
X439837D03*
X452002Y381746D03*
X457553D03*
D02*
D74*
X167888Y423183D03*
Y428734D03*
X220250Y388144D03*
Y393695D03*
X364738Y423183D03*
Y428734D03*
X417100Y388144D03*
Y393695D03*
D02*
D75*
X167494Y408124D03*
Y412848D03*
Y417573D03*
X364344Y408124D03*
Y412848D03*
Y417573D03*
D02*
D76*
X232829Y382140D03*
Y403400D03*
X237829Y382140D03*
Y403400D03*
X242829Y382140D03*
Y403400D03*
X247829Y382140D03*
Y403400D03*
X429679Y382140D03*
Y403400D03*
X434679Y382140D03*
Y403400D03*
X439679Y382140D03*
Y403400D03*
X444679Y382140D03*
Y403400D03*
D02*
D77*
X120486Y504974D03*
X120880Y384305D03*
Y409305D03*
Y434502D03*
Y458124D03*
Y481746D03*
X130486Y504974D03*
X130880Y384305D03*
Y409305D03*
Y434502D03*
Y458124D03*
Y481746D03*
X140486Y504974D03*
X140880Y384305D03*
Y409305D03*
Y434502D03*
Y458124D03*
Y481746D03*
X157927Y543281D03*
Y553281D03*
X167927Y543281D03*
Y553281D03*
X174935Y514817D03*
X175329Y446707D03*
Y469541D03*
Y491589D03*
X177927Y543281D03*
Y553281D03*
X184935Y514817D03*
X185329Y446707D03*
Y469541D03*
Y491589D03*
X187927Y543281D03*
Y553281D03*
X194935Y514817D03*
X195329Y446707D03*
Y469541D03*
Y491589D03*
X197927Y543281D03*
Y553281D03*
X204935Y514817D03*
X205329Y446707D03*
Y469541D03*
Y491589D03*
X207927Y543281D03*
Y553281D03*
X210870Y355046D03*
Y365046D03*
X217927Y543281D03*
Y553281D03*
X220870Y355046D03*
Y365046D03*
X227927Y543281D03*
Y553281D03*
X230870Y355046D03*
Y365046D03*
X237927Y543281D03*
Y553281D03*
X240870Y355046D03*
Y365046D03*
X247927Y543281D03*
Y553281D03*
X250870Y355046D03*
Y365046D03*
X276667Y462848D03*
Y486077D03*
Y510093D03*
X277455Y415211D03*
Y438833D03*
X277848Y388489D03*
X286667Y462848D03*
Y486077D03*
Y510093D03*
X287455Y415211D03*
Y438833D03*
X287848Y388489D03*
X317337Y504974D03*
X317730Y384305D03*
Y409305D03*
Y434502D03*
Y458124D03*
Y481746D03*
X327337Y504974D03*
X327730Y384305D03*
Y409305D03*
Y434502D03*
Y458124D03*
Y481746D03*
X337337Y504974D03*
X337730Y384305D03*
Y409305D03*
Y434502D03*
Y458124D03*
Y481746D03*
X354778Y543281D03*
Y553281D03*
X364778Y543281D03*
Y553281D03*
X371785Y514817D03*
X372179Y446707D03*
Y469541D03*
Y491589D03*
X374778Y543281D03*
Y553281D03*
X381785Y514817D03*
X382179Y446707D03*
Y469541D03*
Y491589D03*
X384778Y543281D03*
Y553281D03*
X391785Y514817D03*
X392179Y446707D03*
Y469541D03*
Y491589D03*
X394778Y543281D03*
Y553281D03*
X401785Y514817D03*
X402179Y446707D03*
Y469541D03*
Y491589D03*
X404778Y543281D03*
Y553281D03*
X407720Y355046D03*
Y365046D03*
X414778Y543281D03*
Y553281D03*
X417720Y355046D03*
Y365046D03*
X424778Y543281D03*
Y553281D03*
X427720Y355046D03*
Y365046D03*
X434778Y543281D03*
Y553281D03*
X437720Y355046D03*
Y365046D03*
X444778Y543281D03*
Y553281D03*
X447720Y355046D03*
Y365046D03*
X473518Y462848D03*
Y486077D03*
Y510093D03*
X474305Y415211D03*
Y438833D03*
X474699Y388489D03*
X483518Y462848D03*
Y486077D03*
Y510093D03*
X484305Y415211D03*
Y438833D03*
X484699Y388489D03*
D02*
D78*
X137573Y352612D03*
X143872D03*
X243478Y425447D03*
X249778D03*
X334423Y352612D03*
X340722D03*
X440329Y425447D03*
X446628D03*
D02*
D84*
X111982Y371510D03*
X130880Y396313D03*
Y422691D03*
Y444344D03*
X131274Y470722D03*
X132455Y489620D03*
X143872Y361274D03*
X150565Y378596D03*
X150821Y416392D03*
X154108Y375447D03*
X155683Y440801D03*
X163951Y394344D03*
X174581Y437652D03*
X176156Y366785D03*
X179156Y393557D03*
Y396707D03*
Y399856D03*
Y406156D03*
X189246Y524659D03*
X190329Y396707D03*
Y401037D03*
Y405368D03*
Y409699D03*
X193872Y396707D03*
Y401037D03*
Y405368D03*
Y409699D03*
X196628Y366785D03*
X197415Y375053D03*
X198203Y396707D03*
Y401037D03*
Y405368D03*
Y409699D03*
X200171Y529230D03*
X200565Y378596D03*
X202140Y396707D03*
Y401037D03*
Y405368D03*
Y409699D03*
X203715Y382140D03*
Y429778D03*
Y435289D03*
X211195Y371904D03*
X213951Y490407D03*
X215132Y467179D03*
Y509699D03*
X215526Y446313D03*
X217494Y403006D03*
X221037Y399856D03*
X225762Y396707D03*
X226549Y436470D03*
X234030Y425447D03*
X235604Y388833D03*
X237829Y396313D03*
Y403400D03*
X239541Y388833D03*
X243872D03*
X247809D03*
X254502Y553006D03*
X308833Y371510D03*
X327730Y396313D03*
Y422691D03*
Y444344D03*
X328124Y470722D03*
X329305Y489620D03*
X340722Y361274D03*
X347415Y378596D03*
X347671Y416392D03*
X350959Y375447D03*
X352533Y440801D03*
X360801Y394344D03*
X371431Y437652D03*
X373006Y366785D03*
X376006Y393557D03*
Y396707D03*
Y399856D03*
Y406156D03*
X386096Y524659D03*
X387179Y396707D03*
Y401037D03*
Y405368D03*
Y409699D03*
X390722Y396707D03*
Y401037D03*
Y405368D03*
Y409699D03*
X393478Y366785D03*
X394266Y375053D03*
X395053Y396707D03*
Y401037D03*
Y405368D03*
Y409699D03*
X397022Y529230D03*
X397415Y378596D03*
X398990Y396707D03*
Y401037D03*
Y405368D03*
Y409699D03*
X400565Y382140D03*
Y429778D03*
Y435289D03*
X408045Y371904D03*
X410801Y490407D03*
X411982Y467179D03*
Y509699D03*
X412376Y446313D03*
X414344Y403006D03*
X417888Y399856D03*
X422612Y396707D03*
X423400Y436470D03*
X430880Y425447D03*
X432455Y388833D03*
X434679Y396313D03*
Y403400D03*
X436392Y388833D03*
X440722D03*
X444659D03*
X451352Y553006D03*
D02*
D87*
X171037Y390801D03*
X367888D03*
D02*
D88*
X171037D02*
X170939D01*
Y402612*
X250870Y355046D02*
Y365046D01*
X367888Y390801D02*
X367789D01*
Y402612*
X447720Y355046D02*
Y365046D01*
D02*
D118*
X179156Y393557D03*
Y396707D03*
Y399856D03*
Y403006D03*
Y406156D03*
Y409305D03*
Y412455D03*
Y415604D03*
X212526Y393557D03*
Y396707D03*
Y399856D03*
Y403006D03*
Y406156D03*
Y409305D03*
Y412455D03*
Y415604D03*
X376006Y393557D03*
Y396707D03*
Y399856D03*
Y403006D03*
Y406156D03*
Y409305D03*
Y412455D03*
Y415604D03*
X409376Y393557D03*
Y396707D03*
Y399856D03*
Y403006D03*
Y406156D03*
Y409305D03*
Y412455D03*
Y415604D03*
D02*
D119*
X184817Y387896D03*
Y421266D03*
X187967Y387896D03*
Y421266D03*
X191116Y387896D03*
Y421266D03*
X194266Y387896D03*
Y421266D03*
X197415Y387896D03*
Y421266D03*
X200565Y387896D03*
Y421266D03*
X203715Y387896D03*
Y421266D03*
X206864Y387896D03*
Y421266D03*
X381667Y387896D03*
Y421266D03*
X384817Y387896D03*
Y421266D03*
X387967Y387896D03*
Y421266D03*
X391116Y387896D03*
Y421266D03*
X394266Y387896D03*
Y421266D03*
X397415Y387896D03*
Y421266D03*
X400565Y387896D03*
Y421266D03*
X403715Y387896D03*
Y421266D03*
D02*
D120*
X143872Y361274D02*
Y352612D01*
X150565Y378596D02*
X185998D01*
X191648Y384246*
Y387896*
X191116*
X155683Y440801D02*
Y385683D01*
X184817*
Y387896*
X158833Y423183D02*
Y390801D01*
X171037*
X167494Y408124D02*
X173006D01*
X174187Y409305*
X179156*
X167494Y417573D02*
X170250D01*
X175368Y412455*
X179156*
X167888Y423183D02*
X158833D01*
X170939Y402612D02*
Y403006D01*
X179156*
X175329Y446707D02*
Y469541D01*
Y446707D02*
X158833D01*
Y423183*
X175329Y469541D02*
Y491589D01*
X179156Y393557D02*
Y396707*
Y399856*
Y406156*
Y415604*
Y423183D01*
X167888*
X185329Y446707D02*
Y469541D01*
Y491589*
X187967Y387896D02*
Y384502D01*
X184817Y381352*
X152927*
Y416392*
X150821*
X187967Y421266D02*
Y429778D01*
X187317*
X189246Y524659D02*
X174935D01*
Y514817*
X191116Y421266D02*
Y433715D01*
X185604Y439226*
X185329*
Y446707*
X194266Y387896D02*
Y383321D01*
X186392Y375447*
X154108*
X194266Y421266D02*
Y446707D01*
X195329*
Y469541*
Y491589*
X197415Y387896D02*
Y375053D01*
X200171Y529230D02*
Y440801D01*
X197415Y438045*
Y421266*
X200565Y387896D02*
Y378596D01*
X203715Y387896D02*
Y382140D01*
Y421266D02*
Y429778D01*
Y435289D02*
X200565D01*
Y421266*
X206864D02*
Y424659D01*
X226156Y443951*
Y522691*
X215132Y533715*
X173006*
Y553281*
X177927*
X210870Y365046D02*
X215919D01*
Y380171*
X228124*
Y392376*
X234423*
X237829Y395781*
Y396313*
X212526Y393557D02*
X220250D01*
Y393695*
X212526Y396707D02*
X225762D01*
X212526Y399856D02*
X221037D01*
X212526Y403006D02*
X217494D01*
X212526Y409305D02*
X216313D01*
X225368Y418360*
X247829*
Y403400*
X212526Y412455D02*
X215526D01*
X230880Y427809*
Y522691*
X215919Y537652*
X193439*
X187927Y543163*
Y543281*
X212526Y415604D02*
X214344D01*
X226549Y427809*
Y436470*
X220250Y393695D02*
X223400D01*
Y390801*
X216707*
X211195Y385289*
Y371904*
X230870Y365046D02*
Y370329D01*
X242986*
Y374659*
X232829Y403400D02*
X223793D01*
Y406156*
X212526*
X234030Y425447D02*
X243478D01*
X237435Y374659D02*
X225762D01*
Y359770*
X230486Y355046*
X230870*
X237435Y374659D02*
X237829D01*
Y382140*
Y403400D02*
X242986Y374659*
Y382140D01*
X242829*
X247829D02*
X255152D01*
Y381746*
X340722Y361274D02*
Y352612D01*
X347415Y378596D02*
X382848D01*
X388498Y384246*
Y387896*
X387967*
X352533Y440801D02*
Y385683D01*
X381667*
Y387896*
X355683Y423183D02*
Y390801D01*
X367888*
X364344Y408124D02*
X369856D01*
X371037Y409305*
X376006*
X364344Y417573D02*
X367100D01*
X372219Y412455*
X376006*
X364738Y423183D02*
X355683D01*
X367789Y402612D02*
Y403006D01*
X376006*
X372179Y446707D02*
Y469541D01*
Y446707D02*
X355683D01*
Y423183*
X372179Y469541D02*
Y491589D01*
X376006Y393557D02*
Y396707*
Y399856*
Y406156*
Y415604*
Y423183D01*
X364738*
X382179Y446707D02*
Y469541D01*
Y491589*
X384817Y387896D02*
Y384502D01*
X381667Y381352*
X349778*
Y416392*
X347671*
X384817Y421266D02*
Y429778D01*
X384167*
X386096Y524659D02*
X371785D01*
Y514817*
X387967Y421266D02*
Y433715D01*
X382455Y439226*
X382179*
Y446707*
X391116Y387896D02*
Y383321D01*
X383242Y375447*
X350959*
X391116Y421266D02*
Y446707D01*
X392179*
Y469541*
Y491589*
X394266Y387896D02*
Y375053D01*
X397022Y529230D02*
Y440801D01*
X394266Y438045*
Y421266*
X397415Y387896D02*
Y378596D01*
X400565Y387896D02*
Y382140D01*
Y421266D02*
Y429778D01*
Y435289D02*
X397415D01*
Y421266*
X403715D02*
Y424659D01*
X423006Y443951*
Y522691*
X411982Y533715*
X369856*
Y553281*
X374778*
X407720Y365046D02*
X412770D01*
Y380171*
X424974*
Y392376*
X431274*
X434679Y395781*
Y396313*
X409376Y393557D02*
X417100D01*
Y393695*
X409376Y396707D02*
X422612D01*
X409376Y399856D02*
X417888D01*
X409376Y403006D02*
X414344D01*
X409376Y409305D02*
X413163D01*
X422219Y418360*
X444679*
Y403400*
X409376Y412455D02*
X412376D01*
X427730Y427809*
Y522691*
X412770Y537652*
X390289*
X384778Y543163*
Y543281*
X409376Y415604D02*
X411195D01*
X423400Y427809*
Y436470*
X417100Y393695D02*
X420250D01*
Y390801*
X413557*
X408045Y385289*
Y371904*
X427720Y365046D02*
Y370329D01*
X439837*
Y374659*
X429679Y403400D02*
X420644D01*
Y406156*
X409376*
X430880Y425447D02*
X440329D01*
X434285Y374659D02*
X422612D01*
Y359770*
X427337Y355046*
X427720*
X434285Y374659D02*
X434679D01*
Y382140*
Y403400D02*
X439837Y374659*
Y382140D01*
X439679*
X444679D02*
X452002D01*
Y381746*
X0Y0D02*
M02*
