G04 EasyPC Gerber Version 21.0.3 Build 4286 *
G04 #@! TF.Part,Single*
G04 #@! TF.FileFunction,Legend,Top *
G04 #@! TF.FilePolarity,Positive *
%FSLAX45Y45*%
%MOIN*%
%ADD21C,0.00100*%
%ADD26C,0.00197*%
%ADD117C,0.00276*%
%ADD20C,0.00394*%
%ADD22C,0.00500*%
%ADD23C,0.00787*%
%ADD25C,0.01000*%
G04 #@! TA.AperFunction,ViaPad*
%ADD86C,0.01575*%
X0Y0D02*
D02*
D20*
X134423Y344049D02*
Y347593D01*
X136490*
X137081Y347297*
X137376Y346707*
X137081Y346116*
X136490Y345821*
X134423*
X139148Y345230D02*
Y346411D01*
X139443Y347002*
X139738Y347297*
X140329Y347593*
X140919*
X141510Y347297*
X141805Y347002*
X142100Y346411*
Y345230*
X141805Y344640*
X141510Y344344*
X140919Y344049*
X140329*
X139738Y344344*
X139443Y344640*
X139148Y345230*
X143872Y347593D02*
X144167Y344049D01*
X145348Y345821*
X146530Y344049*
X146825Y347593*
X148596Y344049D02*
Y347593D01*
X151549*
X150959Y345821D02*
X148596D01*
Y344049D02*
X151549D01*
X153321D02*
Y347593D01*
X155388*
X155978Y347297*
X156274Y346707*
X155978Y346116*
X155388Y345821*
X153321*
X155388D02*
X156274Y344049D01*
X331274D02*
Y347593D01*
X333341*
X333931Y347297*
X334226Y346707*
X333931Y346116*
X333341Y345821*
X331274*
X335998Y345230D02*
Y346411D01*
X336293Y347002*
X336589Y347297*
X337179Y347593*
X337770*
X338360Y347297*
X338656Y347002*
X338951Y346411*
Y345230*
X338656Y344640*
X338360Y344344*
X337770Y344049*
X337179*
X336589Y344344*
X336293Y344640*
X335998Y345230*
X340722Y347593D02*
X341018Y344049D01*
X342199Y345821*
X343380Y344049*
X343675Y347593*
X345447Y344049D02*
Y347593D01*
X348400*
X347809Y345821D02*
X345447D01*
Y344049D02*
X348400D01*
X350171D02*
Y347593D01*
X352238*
X352829Y347297*
X353124Y346707*
X352829Y346116*
X352238Y345821*
X350171*
X352238D02*
X353124Y344049D01*
D02*
D21*
X302565Y573598D02*
X303346Y571724D01*
X304127Y573598*
X305065Y572348D02*
X306315D01*
X309127Y572036D02*
X308971Y571880D01*
X308658Y571724*
X308190*
X307877Y571880*
X307721Y572036*
X307565Y572348*
Y572974*
X307721Y573286*
X307877Y573442*
X308190Y573598*
X308658*
X308971Y573442*
X309127Y573286*
X310065Y573598D02*
Y572192D01*
X310221Y571880*
X310533Y571724*
X311158*
X311471Y571880*
X311627Y572192*
Y573598*
X313346Y571724D02*
Y573598D01*
X312565D02*
X314127D01*
D02*
D22*
X120486Y494974D02*
X110486D01*
Y514974*
X150486*
Y494974*
X140486*
X120880Y374305D02*
X110880D01*
Y394305*
X150880*
Y374305*
X140880*
X120880Y399305D02*
X110880D01*
Y419305*
X150880*
Y399305*
X140880*
X120880Y424502D02*
X110880D01*
Y444502*
X150880*
Y424502*
X140880*
X120880Y448124D02*
X110880D01*
Y468124*
X150880*
Y448124*
X140880*
X120880Y471746D02*
X110880D01*
Y491746*
X150880*
Y471746*
X140880*
X162557Y399644D02*
X173219D01*
Y405581*
X162557*
Y399644*
X164919Y431565D02*
Y420904D01*
X170856*
Y431565*
X164919*
X190148Y432746D02*
X179486D01*
Y426809*
X190148*
Y432746*
X199935Y524817D02*
X214935D01*
Y504817*
X164935*
Y524817*
X179935*
X200329Y456707D02*
X215329D01*
Y436707*
X165329*
Y456707*
X180329*
X200329Y479541D02*
X215329D01*
Y459541*
X165329*
Y479541*
X180329*
X200329Y501589D02*
X215329D01*
Y481589*
X165329*
Y501589*
X180329*
X209817Y348982D02*
Y354021D01*
Y355990D02*
Y348982D01*
Y355990D02*
Y354021D01*
X211785*
Y355990*
X209817*
Y364021D02*
Y348982D01*
Y365990D02*
Y364021D01*
X211785*
Y365990*
X209817*
X211785Y348982D02*
Y354021D01*
Y355990D02*
Y348982D01*
Y364021D02*
Y348982D01*
X217281Y396526D02*
Y385864D01*
X223219*
Y396526*
X217281*
X217927Y530781D02*
X257927D01*
Y565781*
X147927*
Y530781*
X187927*
X219817Y348982D02*
Y354021D01*
Y355990D02*
Y348982D01*
Y355990D02*
Y354021D01*
X221785*
Y355990*
X219817*
Y364021D02*
Y348982D01*
Y365990D02*
Y364021D01*
X221785*
Y365990*
X219817*
X221785Y348982D02*
Y354021D01*
Y355990D02*
Y348982D01*
Y364021D02*
Y348982D01*
X229817D02*
Y354021D01*
Y355990D02*
Y348982D01*
Y355990D02*
Y354021D01*
X231785*
Y355990*
X229817*
Y364021D02*
Y348982D01*
Y365990D02*
Y364021D01*
X231785*
Y365990*
X229817*
X231785Y348982D02*
Y354021D01*
Y355990D02*
Y348982D01*
Y365990D02*
Y348982D01*
X234604Y371691D02*
X245266D01*
Y377628*
X234604*
Y371691*
X239817Y348982D02*
Y354021D01*
Y355990D02*
Y348982D01*
Y355990D02*
Y354021D01*
X241785*
Y355990*
X239817*
Y364021D02*
Y348982D01*
Y365990D02*
Y364021D01*
X241785*
Y365990*
X239817*
X241785Y348982D02*
Y354021D01*
Y355990D02*
Y348982D01*
Y364021D02*
Y348982D01*
X245435Y430715D02*
Y434465D01*
X243872D02*
X246997D01*
X248872Y430715D02*
X251997Y434465D01*
X248872D02*
X251997Y430715D01*
X247403Y372447D02*
Y376197D01*
X245841D02*
X248966D01*
X250841Y372447D02*
Y376197D01*
X253028*
X253653Y375885*
X253966Y375260*
X253653Y374635*
X253028Y374322*
X250841*
X253028D02*
X253966Y372447D01*
X249817Y348982D02*
Y354021D01*
Y355990D02*
Y348982D01*
Y355990D02*
Y354021D01*
X251785*
Y355990*
X249817*
Y364021D02*
Y348982D01*
Y365990D02*
Y364021D01*
X251785*
Y365990*
X249817*
X251785Y348982D02*
Y354021D01*
Y355990D02*
Y348982D01*
Y365990D02*
Y348982D01*
X252321Y378778D02*
X262982D01*
Y384715*
X252321*
Y378778*
X286667Y452848D02*
X296667D01*
Y472848*
X266667*
Y452848*
X276667*
X286667Y476077D02*
X296667D01*
Y496077*
X266667*
Y476077*
X276667*
X286667Y500093D02*
X296667D01*
Y520093*
X266667*
Y500093*
X276667*
X287455Y405211D02*
X297455D01*
Y425211*
X267455*
Y405211*
X277455*
X287455Y428833D02*
X297455D01*
Y448833*
X267455*
Y428833*
X277455*
X287848Y378489D02*
X297848D01*
Y398489*
X267848*
Y378489*
X277848*
X317337Y494974D02*
X307337D01*
Y514974*
X347337*
Y494974*
X337337*
X317730Y374305D02*
X307730D01*
Y394305*
X347730*
Y374305*
X337730*
X317730Y399305D02*
X307730D01*
Y419305*
X347730*
Y399305*
X337730*
X317730Y424502D02*
X307730D01*
Y444502*
X347730*
Y424502*
X337730*
X317730Y448124D02*
X307730D01*
Y468124*
X347730*
Y448124*
X337730*
X317730Y471746D02*
X307730D01*
Y491746*
X347730*
Y471746*
X337730*
X359407Y399644D02*
X370069D01*
Y405581*
X359407*
Y399644*
X361770Y431565D02*
Y420904D01*
X367707*
Y431565*
X361770*
X386998Y432746D02*
X376337D01*
Y426809*
X386998*
Y432746*
X396785Y524817D02*
X411785D01*
Y504817*
X361785*
Y524817*
X376785*
X397179Y456707D02*
X412179D01*
Y436707*
X362179*
Y456707*
X377179*
X397179Y479541D02*
X412179D01*
Y459541*
X362179*
Y479541*
X377179*
X397179Y501589D02*
X412179D01*
Y481589*
X362179*
Y501589*
X377179*
X406667Y348982D02*
Y354021D01*
Y355990D02*
Y348982D01*
Y355990D02*
Y354021D01*
X408635*
Y355990*
X406667*
Y364021D02*
Y348982D01*
Y365990D02*
Y364021D01*
X408635*
Y365990*
X406667*
X408635Y348982D02*
Y354021D01*
Y355990D02*
Y348982D01*
Y364021D02*
Y348982D01*
X414132Y396526D02*
Y385864D01*
X420069*
Y396526*
X414132*
X414778Y530781D02*
X454778D01*
Y565781*
X344778*
Y530781*
X384778*
X416667Y348982D02*
Y354021D01*
Y355990D02*
Y348982D01*
Y355990D02*
Y354021D01*
X418635*
Y355990*
X416667*
Y364021D02*
Y348982D01*
Y365990D02*
Y364021D01*
X418635*
Y365990*
X416667*
X418635Y348982D02*
Y354021D01*
Y355990D02*
Y348982D01*
Y364021D02*
Y348982D01*
X426667D02*
Y354021D01*
Y355990D02*
Y348982D01*
Y355990D02*
Y354021D01*
X428635*
Y355990*
X426667*
Y364021D02*
Y348982D01*
Y365990D02*
Y364021D01*
X428636*
Y365990*
X426667*
X428635Y348982D02*
Y354021D01*
Y355990D02*
Y348982D01*
Y365990D02*
Y348982D01*
X431455Y371691D02*
X442116D01*
Y377628*
X431455*
Y371691*
X436667Y348982D02*
Y354021D01*
Y355990D02*
Y348982D01*
Y355990D02*
Y354021D01*
X438636*
Y355990*
X436667*
Y364021D02*
Y348982D01*
Y365990D02*
Y364021D01*
X438636*
Y365990*
X436667*
X438636Y348982D02*
Y354021D01*
Y355990D02*
Y348982D01*
Y364021D02*
Y348982D01*
X442285Y430715D02*
Y434465D01*
X440722D02*
X443848D01*
X447285Y430715D02*
Y432590D01*
X445722Y434465*
X447285Y432590D02*
X448848Y434465D01*
X444254Y372447D02*
Y376197D01*
X442691D02*
X445816D01*
X447691Y373385D02*
X448004Y372760D01*
X448628Y372447*
X449878*
X450504Y372760*
X450816Y373385*
X450504Y374010*
X449878Y374322*
X448628*
X448004Y374635*
X447691Y375260*
X448004Y375885*
X448628Y376197*
X449878*
X450504Y375885*
X450816Y375260*
X446667Y348982D02*
Y354021D01*
Y355990D02*
Y348982D01*
Y355990D02*
Y354021D01*
X448636*
Y355990*
X446667*
Y364021D02*
Y348982D01*
Y365990D02*
Y364021D01*
X448636*
Y365990*
X446667*
X448636Y348982D02*
Y354021D01*
Y355990D02*
Y348982D01*
Y365990D02*
Y348982D01*
X449171Y378778D02*
X459833D01*
Y384715*
X449171*
Y378778*
X483518Y452848D02*
X493518D01*
Y472848*
X463518*
Y452848*
X473518*
X483518Y476077D02*
X493518D01*
Y496077*
X463518*
Y476077*
X473518*
X483518Y500093D02*
X493518D01*
Y520093*
X463518*
Y500093*
X473518*
X484305Y405211D02*
X494305D01*
Y425211*
X464305*
Y405211*
X474305*
X484305Y428833D02*
X494305D01*
Y448833*
X464305*
Y428833*
X474305*
X484699Y378489D02*
X494699D01*
Y398489*
X464699*
Y378489*
X474699*
D02*
D23*
X143872Y355860D02*
X134522D01*
Y349364*
X143872*
X183439Y416982D02*
X208242D01*
Y392179*
X183439*
Y416982*
X243478Y422199D02*
X252829D01*
Y428695*
X243478*
X249974Y399069D02*
Y386470D01*
X230683*
Y399069*
X249974*
X250486Y406352D02*
Y400447D01*
X340722Y355860D02*
X331372D01*
Y349364*
X340722*
X380289Y416982D02*
X405093D01*
Y392179*
X380289*
Y416982*
X440329Y422199D02*
X449679D01*
Y428695*
X440329*
X446825Y399069D02*
Y386470D01*
X427533*
Y399069*
X446825*
X447337Y406352D02*
Y400447D01*
D02*
D25*
X164935Y411207D02*
Y409715D01*
Y415931D02*
Y414439D01*
Y419148D02*
X170053D01*
Y406549D02*
X164935D01*
X170053Y411207D02*
Y409715D01*
Y416026D02*
Y414533D01*
X172329Y418805D02*
G75*
G02Y419168J181D01*
G01*
X361785Y411207D02*
Y409715D01*
Y415931D02*
Y414439D01*
Y419148D02*
X366904D01*
Y406549D02*
X361785D01*
X366904Y411207D02*
Y409715D01*
Y416026D02*
Y414533D01*
X369179Y418805D02*
G75*
G02Y419168J181D01*
G01*
D02*
D26*
X250959Y407337D02*
Y378203D01*
X229699*
Y407337*
X250959*
X447809D02*
Y378203D01*
X426549*
Y407337*
X447809*
D02*
D86*
X178616Y420329D02*
G75*
G02X177041I-787D01*
G01*
X178616D02*
G75*
G02X177041I-787D01*
G01*
G75*
G02X178616I787*
G01*
X375467D02*
G75*
G02X373892I-787D01*
G01*
X375467D02*
G75*
G02X373892I-787D01*
G01*
G75*
G02X375467I787*
G01*
D02*
D117*
X122219Y518852D02*
X123695Y522396D01*
X125171Y518852*
X122809Y520329D02*
X124581D01*
X126943Y518852D02*
Y522396D01*
X128715*
X129305Y522100*
X129600Y521805*
X129896Y521215*
Y520033*
X129600Y519443*
X129305Y519148*
X128715Y518852*
X126943*
X134620Y519443D02*
X134325Y519148D01*
X133734Y518852*
X132848*
X132258Y519148*
X131963Y519443*
X131667Y520033*
Y521215*
X131963Y521805*
X132258Y522100*
X132848Y522396*
X133734*
X134325Y522100*
X134620Y521805*
X152435Y430959D02*
X153026Y430663D01*
X153616*
X154207Y430959*
X154502Y431549*
X154207Y432140*
X153616Y432435*
X153026*
X153616D02*
X154207Y432730D01*
X154502Y433321*
X154207Y433911*
X153616Y434207*
X153026*
X152435Y433911*
X154010Y455073D02*
Y458616D01*
X152533Y456254*
X154896*
X155289Y405467D02*
X152927D01*
X154994Y407533*
X155289Y408124*
X154994Y408715*
X154404Y409010*
X153518*
X152927Y408715*
Y478990D02*
X153518Y478695D01*
X154404*
X154994Y478990*
X155289Y479581*
Y479876*
X154994Y480467*
X154404Y480762*
X152927*
Y482238*
X155289*
X152927Y504384D02*
X153222Y504974D01*
X153813Y505270*
X154404*
X154994Y504974*
X155289Y504384*
X154994Y503793*
X154404Y503498*
X153813*
X153222Y503793*
X152927Y504384*
Y505270*
X153222Y506156*
X153813Y506746*
X154404Y507041*
X153911Y382632D02*
X155093D01*
X154502D02*
Y386175D01*
X153911Y385585*
X216411Y465703D02*
X217593D01*
X217002D02*
Y469246D01*
X216411D02*
X217593D01*
X222612Y465703D02*
X220250D01*
X222317Y467770*
X222612Y468360*
X222317Y468951*
X221726Y469246*
X220841*
X220250Y468951*
X227927Y466293D02*
X227632Y465998D01*
X227041Y465703*
X226156*
X225565Y465998*
X225270Y466293*
X224974Y466884*
Y468065*
X225270Y468656*
X225565Y468951*
X226156Y469246*
X227041*
X227632Y468951*
X227927Y468656*
X216411Y487356D02*
X217593D01*
X217002D02*
Y490900D01*
X216411D02*
X217593D01*
X222612Y487356D02*
X220250D01*
X222317Y489423*
X222612Y490014*
X222317Y490604*
X221726Y490900*
X220841*
X220250Y490604*
X227927Y487947D02*
X227632Y487652D01*
X227041Y487356*
X226156*
X225565Y487652*
X225270Y487947*
X224974Y488537*
Y489719*
X225270Y490309*
X225565Y490604*
X226156Y490900*
X227041*
X227632Y490604*
X227927Y490309*
X217199Y445624D02*
X218380D01*
X217789D02*
Y449167D01*
X217199D02*
X218380D01*
X223400Y445624D02*
X221037D01*
X223104Y447691*
X223400Y448281*
X223104Y448872*
X222514Y449167*
X221628*
X221037Y448872*
X228715Y446215D02*
X228419Y445919D01*
X227829Y445624*
X226943*
X226352Y445919*
X226057Y446215*
X225762Y446805*
Y447986*
X226057Y448577*
X226352Y448872*
X226943Y449167*
X227829*
X228419Y448872*
X228715Y448577*
X216707Y514251D02*
Y512701D01*
X216879Y512356*
X217224Y512184*
X217913*
X218257Y512356*
X218429Y512701*
Y514251*
X220324Y512184D02*
X220152D01*
Y514251*
X222563Y513562D02*
X223252D01*
X222907Y513907D02*
Y512356D01*
X223080Y512184*
X223252*
X223424Y512356*
X224974Y512184D02*
Y513562D01*
Y513045D02*
X225147Y513390D01*
X225491Y513562*
X225836*
X226180Y513390*
X227730D02*
X228075Y513562D01*
X228592*
X228936Y513390*
X229108Y513045*
Y512529*
X228936Y512356*
X228592Y512184*
X228247*
X227903Y512356*
X227730Y512529*
Y512701*
X227903Y512873*
X228247Y513045*
X228592*
X228936Y512873*
X229108Y512701*
Y512529D02*
Y512184D01*
X230486Y512701D02*
X230659Y512356D01*
X231003Y512184*
X231692*
X232037Y512356*
X232209Y512701*
X232037Y513045*
X231692Y513218*
X231003*
X230659Y513390*
X230486Y513734*
X230659Y514079*
X231003Y514251*
X231692*
X232037Y514079*
X232209Y513734*
X233242Y512701D02*
X233415Y512356D01*
X233759Y512184*
X234104*
X234448Y512356*
X234620Y512701*
Y513045*
X234448Y513390*
X234104Y513562*
X233759*
X233415Y513390*
X233242Y513045*
Y512701*
X235998Y512184D02*
Y513562D01*
Y513045D02*
X236170Y513390D01*
X236515Y513562*
X236859*
X237204Y513390*
X237376Y513045*
Y512184*
X239443D02*
Y513562D01*
Y514079D02*
X242888Y513390*
X242543Y513562D01*
X242027*
X241682Y513390*
X241510Y513045*
Y512701*
X241682Y512356*
X242027Y512184*
X242543*
X242888Y512356*
X261589Y508124D02*
X262179Y507829D01*
X263065*
X263656Y508124*
X263951Y508715*
Y509010*
X263656Y509600*
X263065Y509896*
X261589*
Y511372*
X263951*
X262278Y460093D02*
X262868Y459797D01*
X263459*
X264049Y460093*
X264344Y460683*
X264049Y461274*
X263459Y461569*
X262868*
X263459D02*
X264049Y461864D01*
X264344Y462455*
X264049Y463045*
X263459Y463341*
X262868*
X262278Y463045*
X263459Y482238D02*
Y485781D01*
X261982Y483419*
X264344*
X265132Y436175D02*
X262770D01*
X264837Y438242*
X265132Y438833*
X264837Y439423*
X264246Y439719*
X263360*
X262770Y439423*
X263754Y412159D02*
X264935D01*
X264344D02*
Y415703D01*
X263754Y415112*
X263951Y388636D02*
X264246Y389226D01*
X264837Y389522*
X265427*
X266018Y389226*
X266313Y388636*
X266018Y388045*
X265427Y387750*
X264837*
X264246Y388045*
X263951Y388636*
Y389522*
X264246Y390407*
X264837Y390998*
X265427Y391293*
X268675Y525644D02*
X268970Y525053D01*
X269561Y524758*
X270742*
X271333Y525053*
X271628Y525644*
X271333Y526234*
X270742Y526530*
X269561*
X268970Y526825*
X268675Y527415*
X268970Y528006*
X269561Y528301*
X270742*
X271333Y528006*
X271628Y527415*
X273400Y527120D02*
Y525053D01*
X273695Y524758*
X274285*
X274581Y525053*
Y525939*
Y525053D02*
X274876Y524758D01*
X275467*
X275762Y525053*
Y527120*
X279305Y524758D02*
Y527120D01*
Y528006D02*
X283439Y527120*
X284620D01*
X284030Y527711D02*
Y525053D01*
X284325Y524758*
X284620*
X284915Y525053*
X289935Y526825D02*
X289344Y527120D01*
X288459*
X287868Y526825*
X287573Y526234*
Y525644*
X287868Y525053*
X288459Y524758*
X289344*
X289935Y525053*
X292297Y524758D02*
Y528301D01*
Y526234D02*
X292593Y526825D01*
X293183Y527120*
X293774*
X294364Y526825*
X294659Y526234*
Y524758*
X319069Y518852D02*
X320545Y522396D01*
X322022Y518852*
X319659Y520329D02*
X321431D01*
X323793Y518852D02*
Y522396D01*
X325565*
X326156Y522100*
X326451Y521805*
X326746Y521215*
Y520033*
X326451Y519443*
X326156Y519148*
X325565Y518852*
X323793*
X331470Y519443D02*
X331175Y519148D01*
X330585Y518852*
X329699*
X329108Y519148*
X328813Y519443*
X328518Y520033*
Y521215*
X328813Y521805*
X329108Y522100*
X329699Y522396*
X330585*
X331175Y522100*
X331470Y521805*
X349285Y430959D02*
X349876Y430663D01*
X350467*
X351057Y430959*
X351352Y431549*
X351057Y432140*
X350467Y432435*
X349876*
X350467D02*
X351057Y432730D01*
X351352Y433321*
X351057Y433911*
X350467Y434207*
X349876*
X349285Y433911*
X350860Y455073D02*
Y458616D01*
X349384Y456254*
X351746*
X352140Y405467D02*
X349778D01*
X351844Y407533*
X352140Y408124*
X351844Y408715*
X351254Y409010*
X350368*
X349778Y408715*
Y478990D02*
X350368Y478695D01*
X351254*
X351844Y478990*
X352140Y479581*
Y479876*
X351844Y480467*
X351254Y480762*
X349778*
Y482238*
X352140*
X349778Y504384D02*
X350073Y504974D01*
X350663Y505270*
X351254*
X351844Y504974*
X352140Y504384*
X351844Y503793*
X351254Y503498*
X350663*
X350073Y503793*
X349778Y504384*
Y505270*
X350073Y506156*
X350663Y506746*
X351254Y507041*
X350762Y382632D02*
X351943D01*
X351352D02*
Y386175D01*
X350762Y385585*
X413262Y465703D02*
X414443D01*
X413852D02*
Y469246D01*
X413262D02*
X414443D01*
X419463Y465703D02*
X417100D01*
X419167Y467770*
X419463Y468360*
X419167Y468951*
X418577Y469246*
X417691*
X417100Y468951*
X424778Y466293D02*
X424482Y465998D01*
X423892Y465703*
X423006*
X422415Y465998*
X422120Y466293*
X421825Y466884*
Y468065*
X422120Y468656*
X422415Y468951*
X423006Y469246*
X423892*
X424482Y468951*
X424778Y468656*
X413262Y487356D02*
X414443D01*
X413852D02*
Y490900D01*
X413262D02*
X414443D01*
X419463Y487356D02*
X417100D01*
X419167Y489423*
X419463Y490014*
X419167Y490604*
X418577Y490900*
X417691*
X417100Y490604*
X424778Y487947D02*
X424482Y487652D01*
X423892Y487356*
X423006*
X422415Y487652*
X422120Y487947*
X421825Y488537*
Y489719*
X422120Y490309*
X422415Y490604*
X423006Y490900*
X423892*
X424482Y490604*
X424778Y490309*
X414049Y445624D02*
X415230D01*
X414640D02*
Y449167D01*
X414049D02*
X415230D01*
X420250Y445624D02*
X417888D01*
X419955Y447691*
X420250Y448281*
X419955Y448872*
X419364Y449167*
X418478*
X417888Y448872*
X425565Y446215D02*
X425270Y445919D01*
X424679Y445624*
X423793*
X423203Y445919*
X422907Y446215*
X422612Y446805*
Y447986*
X422907Y448577*
X423203Y448872*
X423793Y449167*
X424679*
X425270Y448872*
X425565Y448577*
X413557Y514251D02*
Y512701D01*
X413730Y512356*
X414074Y512184*
X414763*
X415107Y512356*
X415280Y512701*
Y514251*
X417174Y512184D02*
X417002D01*
Y514251*
X419413Y513562D02*
X420102D01*
X419758Y513907D02*
Y512356D01*
X419930Y512184*
X420102*
X420275Y512356*
X421825Y512184D02*
Y513562D01*
Y513045D02*
X421997Y513390D01*
X422342Y513562*
X422686*
X423031Y513390*
X424581D02*
X424925Y513562D01*
X425442*
X425787Y513390*
X425959Y513045*
Y512529*
X425787Y512356*
X425442Y512184*
X425098*
X424753Y512356*
X424581Y512529*
Y512701*
X424753Y512873*
X425098Y513045*
X425442*
X425787Y512873*
X425959Y512701*
Y512529D02*
Y512184D01*
X427337Y512701D02*
X427509Y512356D01*
X427854Y512184*
X428543*
X428887Y512356*
X429059Y512701*
X428887Y513045*
X428543Y513218*
X427854*
X427509Y513390*
X427337Y513734*
X427509Y514079*
X427854Y514251*
X428543*
X428887Y514079*
X429059Y513734*
X430093Y512701D02*
X430265Y512356D01*
X430609Y512184*
X430954*
X431298Y512356*
X431470Y512701*
Y513045*
X431298Y513390*
X430954Y513562*
X430609*
X430265Y513390*
X430093Y513045*
Y512701*
X432848Y512184D02*
Y513562D01*
Y513045D02*
X433021Y513390D01*
X433365Y513562*
X433710*
X434054Y513390*
X434226Y513045*
Y512184*
X436293D02*
Y513562D01*
Y514079D02*
X439738Y513390*
X439394Y513562D01*
X438877*
X438533Y513390*
X438360Y513045*
Y512701*
X438533Y512356*
X438877Y512184*
X439394*
X439738Y512356*
X458439Y508124D02*
X459030Y507829D01*
X459915*
X460506Y508124*
X460801Y508715*
Y509010*
X460506Y509600*
X459915Y509896*
X458439*
Y511372*
X460801*
X459128Y460093D02*
X459719Y459797D01*
X460309*
X460900Y460093*
X461195Y460683*
X460900Y461274*
X460309Y461569*
X459719*
X460309D02*
X460900Y461864D01*
X461195Y462455*
X460900Y463045*
X460309Y463341*
X459719*
X459128Y463045*
X460309Y482238D02*
Y485781D01*
X458833Y483419*
X461195*
X461982Y436175D02*
X459620D01*
X461687Y438242*
X461982Y438833*
X461687Y439423*
X461096Y439719*
X460211*
X459620Y439423*
X460604Y412159D02*
X461785D01*
X461195D02*
Y415703D01*
X460604Y415112*
X460801Y388636D02*
X461096Y389226D01*
X461687Y389522*
X462278*
X462868Y389226*
X463163Y388636*
X462868Y388045*
X462278Y387750*
X461687*
X461096Y388045*
X460801Y388636*
Y389522*
X461096Y390407*
X461687Y390998*
X462278Y391293*
X465526Y525644D02*
X465821Y525053D01*
X466411Y524758*
X467593*
X468183Y525053*
X468478Y525644*
X468183Y526234*
X467593Y526530*
X466411*
X465821Y526825*
X465526Y527415*
X465821Y528006*
X466411Y528301*
X467593*
X468183Y528006*
X468478Y527415*
X470250Y527120D02*
Y525053D01*
X470545Y524758*
X471136*
X471431Y525053*
Y525939*
Y525053D02*
X471726Y524758D01*
X472317*
X472612Y525053*
Y527120*
X476156Y524758D02*
Y527120D01*
Y528006D02*
X480289Y527120*
X481470D01*
X480880Y527711D02*
Y525053D01*
X481175Y524758*
X481470*
X481766Y525053*
X486785Y526825D02*
X486195Y527120D01*
X485309*
X484719Y526825*
X484423Y526234*
Y525644*
X484719Y525053*
X485309Y524758*
X486195*
X486785Y525053*
X489148Y524758D02*
Y528301D01*
Y526234D02*
X489443Y526825D01*
X490033Y527120*
X490624*
X491215Y526825*
X491510Y526234*
Y524758*
X0Y0D02*
M02*
