G04 EasyPC Gerber Version 21.0.3 Build 4286 *
G04 #@! TF.Part,Single*
G04 #@! TF.FileFunction,Soldermask,Top *
G04 #@! TF.FilePolarity,Negative *
%FSLAX45Y45*%
%MOIN*%
G04 #@! TA.AperFunction,SMDPad*
%ADD122R,0.03362X0.06807*%
%ADD11R,0.03559X0.04937*%
%ADD95R,0.03559X0.06906*%
%ADD96R,0.04346X0.04740*%
G04 #@! TA.AperFunction,ComponentPad*
%ADD19C,0.07693*%
G04 #@! TA.AperFunction,SMDPad*
%ADD94R,0.09268X0.02575*%
%ADD121R,0.06807X0.03362*%
%ADD93R,0.04937X0.03559*%
G04 #@! TA.AperFunction,WasherPad*
%ADD89C,0.25016*%
X0Y0D02*
D02*
D11*
X165388Y402612D03*
X170939D03*
X181766Y429778D03*
X187317D03*
X237435Y374659D03*
X242986D03*
X255152Y381746D03*
X260703D03*
X362238Y402612D03*
X367789D03*
X378616Y429778D03*
X384167D03*
X434285Y374659D03*
X439837D03*
X452002Y381746D03*
X457553D03*
D02*
D19*
X120486Y504974D03*
X120880Y384305D03*
Y409305D03*
Y434502D03*
Y458124D03*
Y481746D03*
X130486Y504974D03*
X130880Y384305D03*
Y409305D03*
Y434502D03*
Y458124D03*
Y481746D03*
X140486Y504974D03*
X140880Y384305D03*
Y409305D03*
Y434502D03*
Y458124D03*
Y481746D03*
X157927Y543281D03*
Y553281D03*
X167927Y543281D03*
Y553281D03*
X174935Y514817D03*
X175329Y446707D03*
Y469541D03*
Y491589D03*
X177927Y543281D03*
Y553281D03*
X184935Y514817D03*
X185329Y446707D03*
Y469541D03*
Y491589D03*
X187927Y543281D03*
Y553281D03*
X194935Y514817D03*
X195329Y446707D03*
Y469541D03*
Y491589D03*
X197927Y543281D03*
Y553281D03*
X204935Y514817D03*
X205329Y446707D03*
Y469541D03*
Y491589D03*
X207927Y543281D03*
Y553281D03*
X210870Y355046D03*
Y365046D03*
X217927Y543281D03*
Y553281D03*
X220870Y355046D03*
Y365046D03*
X227927Y543281D03*
Y553281D03*
X230870Y355046D03*
Y365046D03*
X237927Y543281D03*
Y553281D03*
X240870Y355046D03*
Y365046D03*
X247927Y543281D03*
Y553281D03*
X250870Y355046D03*
Y365046D03*
X276667Y462848D03*
Y486077D03*
Y510093D03*
X277455Y415211D03*
Y438833D03*
X277848Y388489D03*
X286667Y462848D03*
Y486077D03*
Y510093D03*
X287455Y415211D03*
Y438833D03*
X287848Y388489D03*
X317337Y504974D03*
X317730Y384305D03*
Y409305D03*
Y434502D03*
Y458124D03*
Y481746D03*
X327337Y504974D03*
X327730Y384305D03*
Y409305D03*
Y434502D03*
Y458124D03*
Y481746D03*
X337337Y504974D03*
X337730Y384305D03*
Y409305D03*
Y434502D03*
Y458124D03*
Y481746D03*
X354778Y543281D03*
Y553281D03*
X364778Y543281D03*
Y553281D03*
X371785Y514817D03*
X372179Y446707D03*
Y469541D03*
Y491589D03*
X374778Y543281D03*
Y553281D03*
X381785Y514817D03*
X382179Y446707D03*
Y469541D03*
Y491589D03*
X384778Y543281D03*
Y553281D03*
X391785Y514817D03*
X392179Y446707D03*
Y469541D03*
Y491589D03*
X394778Y543281D03*
Y553281D03*
X401785Y514817D03*
X402179Y446707D03*
Y469541D03*
Y491589D03*
X404778Y543281D03*
Y553281D03*
X407720Y355046D03*
Y365046D03*
X414778Y543281D03*
Y553281D03*
X417720Y355046D03*
Y365046D03*
X424778Y543281D03*
Y553281D03*
X427720Y355046D03*
Y365046D03*
X434778Y543281D03*
Y553281D03*
X437720Y355046D03*
Y365046D03*
X444778Y543281D03*
Y553281D03*
X447720Y355046D03*
Y365046D03*
X473518Y462848D03*
Y486077D03*
Y510093D03*
X474305Y415211D03*
Y438833D03*
X474699Y388489D03*
X483518Y462848D03*
Y486077D03*
Y510093D03*
X484305Y415211D03*
Y438833D03*
X484699Y388489D03*
D02*
D89*
X118439Y353557D03*
Y553557D03*
X287770Y353557D03*
Y553557D03*
X315289Y353557D03*
Y553557D03*
X484620Y353557D03*
Y553557D03*
D02*
D93*
X167888Y423183D03*
Y428734D03*
X220250Y388144D03*
Y393695D03*
X364738Y423183D03*
Y428734D03*
X417100Y388144D03*
Y393695D03*
D02*
D94*
X167494Y408124D03*
Y412848D03*
Y417573D03*
X364344Y408124D03*
Y412848D03*
Y417573D03*
D02*
D95*
X232829Y382140D03*
Y403400D03*
X237829Y382140D03*
Y403400D03*
X242829Y382140D03*
Y403400D03*
X247829Y382140D03*
Y403400D03*
X429679Y382140D03*
Y403400D03*
X434679Y382140D03*
Y403400D03*
X439679Y382140D03*
Y403400D03*
X444679Y382140D03*
Y403400D03*
D02*
D96*
X137573Y352612D03*
X143872D03*
X243478Y425447D03*
X249778D03*
X334423Y352612D03*
X340722D03*
X440329Y425447D03*
X446628D03*
D02*
D121*
X179156Y393557D03*
Y396707D03*
Y399856D03*
Y403006D03*
Y406156D03*
Y409305D03*
Y412455D03*
Y415604D03*
X212526Y393557D03*
Y396707D03*
Y399856D03*
Y403006D03*
Y406156D03*
Y409305D03*
Y412455D03*
Y415604D03*
X376006Y393557D03*
Y396707D03*
Y399856D03*
Y403006D03*
Y406156D03*
Y409305D03*
Y412455D03*
Y415604D03*
X409376Y393557D03*
Y396707D03*
Y399856D03*
Y403006D03*
Y406156D03*
Y409305D03*
Y412455D03*
Y415604D03*
D02*
D122*
X184817Y387896D03*
Y421266D03*
X187967Y387896D03*
Y421266D03*
X191116Y387896D03*
Y421266D03*
X194266Y387896D03*
Y421266D03*
X197415Y387896D03*
Y421266D03*
X200565Y387896D03*
Y421266D03*
X203715Y387896D03*
Y421266D03*
X206864Y387896D03*
Y421266D03*
X381667Y387896D03*
Y421266D03*
X384817Y387896D03*
Y421266D03*
X387967Y387896D03*
Y421266D03*
X391116Y387896D03*
Y421266D03*
X394266Y387896D03*
Y421266D03*
X397415Y387896D03*
Y421266D03*
X400565Y387896D03*
Y421266D03*
X403715Y387896D03*
Y421266D03*
X0Y0D02*
M02*
