G04 EasyPC Gerber Version 21.0.3 Build 4286 *
G04 #@! TF.Part,Single*
G04 #@! TF.FileFunction,Soldermask,Bot *
G04 #@! TF.FilePolarity,Negative *
%FSLAX45Y45*%
%MOIN*%
G04 #@! TA.AperFunction,SMDPad*
%ADD11R,0.03559X0.04937*%
%ADD102R,0.03559X0.05134*%
%ADD126R,0.04583X0.06472*%
G04 #@! TA.AperFunction,ComponentPad*
%ADD19C,0.07693*%
G04 #@! TA.AperFunction,SMDPad*
%ADD93R,0.04937X0.03559*%
G04 #@! TA.AperFunction,WasherPad*
%ADD89C,0.25016*%
G04 #@! TA.AperFunction,SMDPad*
%ADD125R,0.04827X0.04157*%
X0Y0D02*
D02*
D11*
X137829Y448675D03*
Y494344D03*
X138616Y396707D03*
Y472691D03*
X139404Y425447D03*
X140427Y370329D03*
X143380Y448675D03*
Y494344D03*
X144167Y396707D03*
Y472691D03*
X144955Y425447D03*
X145978Y370329D03*
X149246Y494344D03*
X149640Y448675D03*
Y472691D03*
X150033Y396707D03*
X150821Y425447D03*
X154207Y370329D03*
X154797Y494344D03*
X155152Y361274D03*
X155191Y448675D03*
Y472691D03*
X155585Y396707D03*
X156372Y425447D03*
X159758Y370329D03*
X160703Y361274D03*
X184915Y505368D03*
X189246Y524659D03*
X190467Y505368D03*
X194797Y524659D03*
X197514Y505368D03*
X203065D03*
X214837Y429778D03*
X220388D03*
X237829Y396313D03*
X243380D03*
X334679Y448675D03*
Y494344D03*
X335467Y396707D03*
Y472691D03*
X336254Y425447D03*
X337278Y370329D03*
X340230Y448675D03*
Y494344D03*
X341018Y396707D03*
Y472691D03*
X341805Y425447D03*
X342829Y370329D03*
X346096Y494344D03*
X346490Y448675D03*
Y472691D03*
X346884Y396707D03*
X347671Y425447D03*
X351057Y370329D03*
X351648Y494344D03*
X352002Y361274D03*
X352041Y448675D03*
Y472691D03*
X352435Y396707D03*
X353222Y425447D03*
X356608Y370329D03*
X357553Y361274D03*
X381766Y505368D03*
X386096Y524659D03*
X387317Y505368D03*
X391648Y524659D03*
X394364Y505368D03*
X399915D03*
X411687Y429778D03*
X417238D03*
X434679Y396313D03*
X440230D03*
D02*
D19*
X120486Y504974D03*
X120880Y384305D03*
Y409305D03*
Y434502D03*
Y458124D03*
Y481746D03*
X130486Y504974D03*
X130880Y384305D03*
Y409305D03*
Y434502D03*
Y458124D03*
Y481746D03*
X140486Y504974D03*
X140880Y384305D03*
Y409305D03*
Y434502D03*
Y458124D03*
Y481746D03*
X157927Y543281D03*
Y553281D03*
X167927Y543281D03*
Y553281D03*
X174935Y514817D03*
X175329Y446707D03*
Y469541D03*
Y491589D03*
X177927Y543281D03*
Y553281D03*
X184935Y514817D03*
X185329Y446707D03*
Y469541D03*
Y491589D03*
X187927Y543281D03*
Y553281D03*
X194935Y514817D03*
X195329Y446707D03*
Y469541D03*
Y491589D03*
X197927Y543281D03*
Y553281D03*
X204935Y514817D03*
X205329Y446707D03*
Y469541D03*
Y491589D03*
X207927Y543281D03*
Y553281D03*
X210870Y355046D03*
Y365046D03*
X217927Y543281D03*
Y553281D03*
X220870Y355046D03*
Y365046D03*
X227927Y543281D03*
Y553281D03*
X230870Y355046D03*
Y365046D03*
X237927Y543281D03*
Y553281D03*
X240870Y355046D03*
Y365046D03*
X247927Y543281D03*
Y553281D03*
X250870Y355046D03*
Y365046D03*
X276667Y462848D03*
Y486077D03*
Y510093D03*
X277455Y415211D03*
Y438833D03*
X277848Y388489D03*
X286667Y462848D03*
Y486077D03*
Y510093D03*
X287455Y415211D03*
Y438833D03*
X287848Y388489D03*
X317337Y504974D03*
X317730Y384305D03*
Y409305D03*
Y434502D03*
Y458124D03*
Y481746D03*
X327337Y504974D03*
X327730Y384305D03*
Y409305D03*
Y434502D03*
Y458124D03*
Y481746D03*
X337337Y504974D03*
X337730Y384305D03*
Y409305D03*
Y434502D03*
Y458124D03*
Y481746D03*
X354778Y543281D03*
Y553281D03*
X364778Y543281D03*
Y553281D03*
X371785Y514817D03*
X372179Y446707D03*
Y469541D03*
Y491589D03*
X374778Y543281D03*
Y553281D03*
X381785Y514817D03*
X382179Y446707D03*
Y469541D03*
Y491589D03*
X384778Y543281D03*
Y553281D03*
X391785Y514817D03*
X392179Y446707D03*
Y469541D03*
Y491589D03*
X394778Y543281D03*
Y553281D03*
X401785Y514817D03*
X402179Y446707D03*
Y469541D03*
Y491589D03*
X404778Y543281D03*
Y553281D03*
X407720Y355046D03*
Y365046D03*
X414778Y543281D03*
Y553281D03*
X417720Y355046D03*
Y365046D03*
X424778Y543281D03*
Y553281D03*
X427720Y355046D03*
Y365046D03*
X434778Y543281D03*
Y553281D03*
X437720Y355046D03*
Y365046D03*
X444778Y543281D03*
Y553281D03*
X447720Y355046D03*
Y365046D03*
X473518Y462848D03*
Y486077D03*
Y510093D03*
X474305Y415211D03*
Y438833D03*
X474699Y388489D03*
X483518Y462848D03*
Y486077D03*
Y510093D03*
X484305Y415211D03*
Y438833D03*
X484699Y388489D03*
D02*
D89*
X118439Y353557D03*
Y553557D03*
X287770Y353557D03*
Y553557D03*
X315289Y353557D03*
Y553557D03*
X484620Y353557D03*
Y553557D03*
D02*
D93*
X171037Y407041D03*
Y412593D03*
X175368Y356254D03*
Y361805D03*
X199384Y356254D03*
Y361805D03*
X367888Y407041D03*
Y412593D03*
X372219Y356254D03*
Y361805D03*
X396234Y356254D03*
Y361805D03*
D02*
D102*
X183006Y355762D03*
X186785Y364423D03*
X190565Y355762D03*
X379856D03*
X383636Y364423D03*
X387415Y355762D03*
D02*
D125*
X205289Y524659D03*
X212732Y519995D03*
Y529230D03*
X402140Y524659D03*
X409582Y519995D03*
Y529230D03*
D02*
D126*
X120565Y494344D03*
X127022D03*
X317415D03*
X323872D03*
X0Y0D02*
M02*
